<svg width="2048" height="1056" viewBox="0 0 2048 1056" fill="none" xmlns="http://www.w3.org/2000/svg">
<path d="M458.191 850.253L453.216 854.323C453.075 854.439 452.905 854.514 452.724 854.539L449.57 854.99C449.523 854.997 449.476 855 449.429 855H443C441.667 854.833 438.9 854.5 438.5 854.5C438 854.5 435.5 852.5 435.5 852C435.5 851.643 434.968 850.727 434.617 850.179C434.541 850.06 434.488 849.928 434.465 849.789C434.291 848.73 434 846.874 434 846.5C434 846 435.5 844 436 843.5C436.378 843.122 436.785 841.824 436.97 841.119C436.99 841.04 437 840.959 437 840.877V836.5C437.167 835.167 437.6 832.4 438 832C438.342 831.658 438.465 829.586 438.493 828.159C438.501 827.759 438.738 827.398 439.106 827.24L441.87 826.056C441.956 826.019 442.047 825.994 442.14 825.983C443.518 825.818 446.114 825.614 446.5 826C446.826 826.326 448.061 826.009 448.958 825.701C449.296 825.584 449.531 825.282 449.581 824.928C449.756 823.676 450 821.842 450 821.5V818.851C450 818.624 450.077 818.403 450.219 818.226L451.781 816.274C451.923 816.097 452 815.876 452 815.649V813.705C452 813.57 452.027 813.436 452.081 813.311L453.285 810.503C453.419 810.189 453.703 809.966 454.039 809.91L456.377 809.521C456.459 809.507 456.542 809.503 456.624 809.51L462.419 809.993C462.473 809.998 462.526 810.007 462.579 810.02L466.231 810.933C466.407 810.977 466.568 811.068 466.696 811.196L468.707 813.207C468.895 813.395 469 813.649 469 813.914V821.807C469 821.935 469.024 822.061 469.072 822.179L470 824.5C470.333 825.667 471.1 828.2 471.5 829C471.9 829.8 471.333 831.333 471 832L470.158 833.683C470.056 833.888 469.886 834.052 469.678 834.146L464.5 836.5L458.63 839.661C458.253 839.864 458.047 840.284 458.118 840.706L458.976 845.856C458.992 845.952 458.994 846.049 458.982 846.145L458.55 849.603C458.518 849.858 458.389 850.091 458.191 850.253Z" fill="#57B9A0" fill-opacity="0.9"/>
<path d="M424.846 802.051L417.567 804.478C417.523 804.492 417.479 804.511 417.436 804.531C417.077 804.705 416.376 805 416 805C415.611 805 413.609 804.684 412.581 804.514C412.527 804.504 412.472 804.5 412.417 804.5H412.095C411.507 804.5 411.046 803.995 411.099 803.409L411.5 799L411.933 796.836C411.976 796.618 411.946 796.392 411.847 796.193L411.63 795.76C411.545 795.59 411.414 795.448 411.25 795.351C410.355 794.825 408.863 794 408.5 794C408.123 794 407.715 792.813 407.531 792.119C407.51 792.04 407.5 791.959 407.5 791.877V788C407.5 787.696 407.886 787.179 408.217 786.803C408.393 786.603 408.5 786.352 408.5 786.086V782.5C408.5 782.126 407.332 780.554 406.636 779.671C406.547 779.558 406.482 779.428 406.447 779.288L406.03 777.619C406.01 777.54 406 777.46 406 777.378V772C406 771.649 406.256 770.248 406.432 769.346C406.475 769.122 406.596 768.92 406.771 768.774L409.339 766.634C409.445 766.546 409.532 766.436 409.594 766.313L411.5 762.5C412 761.333 413 758.9 413 758.5C413 758.135 414.111 756.076 414.812 754.832C414.933 754.617 415.129 754.457 415.362 754.379L419.346 753.051C419.448 753.017 419.555 753 419.662 753H423.795C423.93 753 424.064 752.972 424.189 752.919L427.389 751.547C427.463 751.516 427.54 751.493 427.619 751.48L429.804 751.116C430.221 751.046 430.637 751.247 430.843 751.617L432.941 755.394C432.98 755.464 433.011 755.539 433.032 755.617L434.42 760.708C434.472 760.898 434.467 761.1 434.404 761.287L434.142 762.074C434.052 762.345 433.85 762.564 433.587 762.677L430.634 763.943C430.545 763.981 430.462 764.031 430.388 764.093L427.623 766.398C427.542 766.465 427.471 766.546 427.415 766.636C426.559 768.012 425 770.613 425 771C425 771.333 424.538 772.382 424.191 773.108C424.071 773.359 424.055 773.648 424.153 773.908L425.474 777.43C425.491 777.477 425.512 777.522 425.536 777.565L428 782L429.92 785.84C429.973 785.946 430.007 786.06 430.02 786.177L430.5 790.5V796.223C430.5 796.404 430.451 796.582 430.357 796.738L429.101 798.832C429.034 798.943 428.947 799.04 428.843 799.118L425.13 801.903C425.044 801.967 424.948 802.017 424.846 802.051Z" fill="#57B9A0" fill-opacity="0.9"/>
<path d="M229 667C228.61 667.39 225.647 669.4 224.111 670.426C224.037 670.476 223.957 670.514 223.873 670.542L222.776 670.908C222.596 670.968 222.402 670.975 222.217 670.929L221.033 670.633C220.701 670.55 220.435 670.304 220.326 669.979L219.5 667.5L219.078 665.814C219.027 665.61 219.042 665.395 219.12 665.2L219.891 663.272C219.962 663.094 220.083 662.941 220.239 662.83C221.47 661.96 223.626 660.5 224 660.5C224.392 660.5 226.739 660.18 227.93 660.01C227.977 660.003 228.024 660 228.071 660H231.36C231.453 660 231.545 660.013 231.634 660.039C232.843 660.389 235.115 661.115 235.5 661.5C236 662 239.5 663.5 240 663.5C240.361 663.5 242.105 664.585 243.178 665.287C243.386 665.423 243.533 665.634 243.594 665.875L243.885 667.038C243.958 667.33 243.896 667.641 243.708 667.875C243.123 668.603 242.171 669.665 241.5 670C240.5 670.5 239.5 670 239 669.5C238.62 669.12 237.308 668.71 236.606 668.527C236.535 668.509 236.467 668.484 236.402 668.451L234.5 667.5L232.332 666.199C232.118 666.071 231.865 666.026 231.622 666.08C230.72 666.282 229.347 666.653 229 667Z" fill="#57B9A0" fill-opacity="0.9"/>
<path d="M152.743 607.964L143.261 607.512C143.09 607.504 142.92 607.54 142.766 607.617L142.095 607.953C142.032 607.984 141.972 608.022 141.917 608.066L139.5 610L134.57 614.93C134.523 614.977 134.482 615.028 134.445 615.082L132.5 618L131.143 620.262C131.049 620.418 131 620.596 131 620.777V622.877C131 622.959 131.01 623.04 131.03 623.119L131.5 625L131.826 625.979C131.935 626.304 132.201 626.55 132.533 626.633L133.881 626.97C133.96 626.99 134.041 627 134.123 627H136.401C136.467 627 136.533 626.993 136.597 626.981L138.703 626.559C138.897 626.521 139.074 626.426 139.214 626.286L140.43 625.07C140.477 625.023 140.528 624.982 140.582 624.945L141.318 624.455C141.715 624.19 142.243 624.243 142.58 624.58L143.45 625.45C143.483 625.483 143.519 625.514 143.557 625.543L145.319 626.864C145.438 626.953 145.575 627.015 145.722 627.044C146.613 627.219 148.133 627.5 148.5 627.5C149 627.5 151 628 151.5 628C152 628 153.5 629 154 629.5C154.4 629.9 155.5 629.333 156 629C156.667 628.667 158 627.9 158 627.5C158 627 159 626 159 625.5C159 625.236 159.291 624.811 159.585 624.457C159.827 624.166 159.924 623.773 159.805 623.414L159.5 622.5C159.333 622 159 620.9 159 620.5C159 620.329 158.878 620.151 158.711 619.991C158.353 619.646 158.117 619.149 158.274 618.677L158.369 618.393C158.453 618.141 158.633 617.933 158.87 617.815L159.436 617.532C159.479 617.511 159.523 617.492 159.567 617.478L162.026 616.658C162.324 616.559 162.559 616.324 162.658 616.026L162.949 615.154C162.983 615.052 163 614.945 163 614.838V611.914C163 611.649 163.105 611.395 163.293 611.207L165.93 608.57C165.977 608.523 166.018 608.472 166.055 608.418L166.832 607.252C166.942 607.088 167 606.895 167 606.697V604.623C167 604.541 166.99 604.46 166.97 604.381L166.586 602.844C166.53 602.622 166.4 602.425 166.216 602.287L164.767 601.2C164.594 601.07 164.383 601 164.167 601H161.333C161.117 601 160.907 601.07 160.734 601.201C160.009 601.75 158.853 602.647 158.5 603C158 603.5 155.5 605 155 605C154.682 605 154.132 606.265 153.752 607.286C153.596 607.706 153.191 607.985 152.743 607.964Z" fill="#57B9A0" fill-opacity="0.9"/>
<path d="M240.448 570.963L245.835 570.514C245.944 570.505 246.054 570.514 246.161 570.54L247.418 570.854C247.776 570.944 248.056 571.224 248.146 571.582L248.47 572.881C248.49 572.96 248.5 573.041 248.5 573.123V576.519C248.5 576.823 248.362 577.11 248.125 577.3L246.106 578.915C246.036 578.971 245.958 579.018 245.875 579.053C244.669 579.568 242.386 580.5 242 580.5H240C239.5 580.5 238.5 578.5 238.5 577.5V573.5C238.5 573.163 239.212 572.09 239.734 571.362C239.901 571.13 240.163 570.986 240.448 570.963Z" fill="#57B9A0" fill-opacity="0.9"/>
<path d="M334.481 592.276L334.014 586.665C334.005 586.556 334.014 586.446 334.04 586.339L334.311 585.257C334.422 584.812 334.822 584.5 335.281 584.5H338.5C338.847 584.5 339.974 585.003 340.701 585.353C340.896 585.447 341.052 585.605 341.151 585.797C341.528 586.524 342.152 587.652 342.5 588C343 588.5 344.5 590.5 344.5 591C344.5 591.335 345.2 592.626 345.722 593.527C345.893 593.823 345.907 594.185 345.755 594.491L344.577 596.847C344.526 596.948 344.493 597.057 344.479 597.17L344 601V606.429C344 606.476 343.997 606.524 343.99 606.57L343.561 609.576C343.522 609.847 343.375 610.09 343.151 610.247C341.906 611.124 339.863 612.5 339.5 612.5C339 612.5 336 611.5 335.5 611C335 610.5 334 607.5 333 606C332 604.5 333 601.5 333 601V596.68C333 596.561 333.022 596.442 333.064 596.33L334.421 592.71C334.473 592.572 334.494 592.424 334.481 592.276Z" fill="#57B9A0" fill-opacity="0.9"/>
<path d="M282.706 625.97L280.649 629.261C280.552 629.417 280.413 629.544 280.248 629.626L278.87 630.315C278.633 630.433 278.359 630.453 278.107 630.369L275.724 629.575C275.577 629.526 275.443 629.443 275.333 629.333L272.706 626.706C272.571 626.571 272.401 626.478 272.216 626.437L268 625.5L262.071 624.018C262.024 624.006 261.976 623.998 261.928 623.993L257.223 623.522C257.076 623.508 256.934 623.461 256.808 623.385L252.355 620.713C252.128 620.577 251.855 620.536 251.598 620.6L250.174 620.956C250.059 620.985 249.94 620.993 249.821 620.98L246.806 620.645C246.149 620.572 245.743 619.893 245.988 619.28L246.385 618.287C246.46 618.1 246.477 617.895 246.434 617.698C246.086 616.108 245.5 613.25 245.5 612.5C245.5 611.952 245.031 611.686 244.574 611.572C244.226 611.485 243.89 611.308 243.712 610.996L242 608L240.106 604.211C240.036 604.072 240 603.919 240 603.764V593.266C240 593.092 240.045 592.921 240.132 592.769L241.774 589.895C241.918 589.644 242.163 589.467 242.446 589.411L244.369 589.026C244.456 589.009 244.54 588.98 244.62 588.94L247.5 587.5L250.869 585.575C250.956 585.525 251.05 585.489 251.148 585.467L255.081 584.593C255.348 584.534 255.58 584.367 255.721 584.132L256.899 582.168C256.966 582.057 257.01 581.934 257.03 581.806L258 575.5L258.453 571.42C258.483 571.151 258.62 570.907 258.833 570.741L262.614 567.8C262.858 567.611 263 567.32 263 567.011V564.071C263 564.024 263.003 563.976 263.01 563.93L263.49 560.57C263.497 560.524 263.5 560.476 263.5 560.429V557.035C263.5 556.701 263.667 556.389 263.945 556.203L266.298 554.635C266.431 554.546 266.583 554.491 266.742 554.473L275.258 553.527C275.417 553.509 275.569 553.454 275.702 553.365L276.779 552.647C276.924 552.551 277.041 552.418 277.119 552.262L278.427 549.645C278.475 549.549 278.539 549.462 278.613 549.385C279.307 548.67 280.5 547.257 280.5 546.5V543.85C280.5 543.623 280.577 543.403 280.719 543.226L282.394 541.133C282.464 541.045 282.549 540.969 282.644 540.91L286.257 538.652C286.416 538.553 286.599 538.5 286.787 538.5H291C291.315 538.5 291.611 538.648 291.8 538.9L294.354 542.305C294.45 542.433 294.514 542.582 294.54 542.741L294.96 545.259C294.986 545.418 295.05 545.567 295.146 545.695L296.379 547.338C296.459 547.445 296.517 547.567 296.549 547.696L296.97 549.381C296.99 549.46 297 549.541 297 549.623V552.377C297 552.459 296.99 552.54 296.97 552.619L296.53 554.381C296.51 554.46 296.5 554.541 296.5 554.623V560.5C296.5 561.052 296.948 561.5 297.5 561.5H298.019C298.323 561.5 298.61 561.362 298.8 561.125L300.5 559L301.95 557.55C301.983 557.517 302.019 557.486 302.057 557.458C302.75 556.94 304.222 555.889 305 555.5C306 555 307.5 555.5 308 555.5C308.37 555.5 309.625 556.356 310.338 556.88C310.446 556.959 310.567 557.017 310.696 557.049L312.217 557.429C312.402 557.476 312.596 557.468 312.776 557.408L313.846 557.051C313.948 557.017 314.055 557 314.162 557H317.5C318.246 557 319.05 558.159 319.425 558.856C319.476 558.951 319.539 559.039 319.615 559.115L321.16 560.66C321.375 560.875 321.675 560.98 321.978 560.95C323.576 560.794 326.139 560.639 326.5 561C326.889 561.389 328.89 562.758 329.918 563.445C329.973 563.482 330.023 563.523 330.07 563.57L332.304 565.804C332.432 565.932 332.523 566.093 332.567 566.269L333.439 569.757C333.479 569.917 333.479 570.083 333.439 570.243L332.577 573.691C332.527 573.892 332.415 574.072 332.258 574.207L329.111 576.905C329.037 576.968 328.955 577.02 328.866 577.059L324.765 578.882C324.592 578.959 324.444 579.084 324.339 579.241L322.587 581.87C322.529 581.956 322.486 582.051 322.457 582.15L321.662 584.934C321.562 585.283 321.659 585.659 321.916 585.916L322.45 586.45C322.483 586.483 322.519 586.514 322.557 586.543L324.394 587.921C324.464 587.973 324.541 588.017 324.623 588.049L326.497 588.799C326.811 588.924 327.04 589.2 327.106 589.531L327.48 591.398C327.493 591.466 327.514 591.532 327.541 591.596L328.919 594.811C328.972 594.936 329 595.07 329 595.205V596.307C329 596.435 328.976 596.561 328.928 596.679L328 599L327.106 600.789C327.036 600.928 327 601.081 327 601.236V607.323C327 607.732 326.751 608.1 326.371 608.251L325.129 608.749C324.749 608.9 324.5 609.268 324.5 609.677V610.586C324.5 610.851 324.605 611.105 324.793 611.293L326.913 613.413C326.971 613.471 327.035 613.521 327.106 613.563L329.286 614.871C329.426 614.956 329.544 615.074 329.629 615.214L330.857 617.262C330.951 617.418 331 617.596 331 617.777V620.13C331 620.369 330.915 620.6 330.759 620.781L328.245 623.714C328.087 623.898 327.867 624.019 327.627 624.053L324.653 624.478C324.552 624.493 324.448 624.491 324.347 624.475L318.582 623.514C318.527 623.505 318.472 623.5 318.417 623.5H315.303C315.105 623.5 314.912 623.558 314.748 623.668L312.082 625.445C312.028 625.482 311.977 625.523 311.93 625.57L310.05 627.45C310.017 627.483 309.981 627.514 309.943 627.543L308.494 628.629C308.191 628.856 307.786 628.893 307.447 628.724L305.211 627.606C305.072 627.536 304.92 627.5 304.764 627.5H302C301.281 627.5 298.89 626.961 297.446 626.61C297.162 626.541 296.925 626.35 296.794 626.089L295.234 622.969C295.088 622.675 294.806 622.472 294.481 622.426L292.102 622.086C291.732 622.033 291.364 622.191 291.147 622.495L289.299 625.081C289.111 625.344 288.808 625.5 288.485 625.5H283.554C283.209 625.5 282.889 625.678 282.706 625.97Z" fill="#57B9A0" fill-opacity="0.9"/>
<path d="M43.4241 939.823L42.2349 937.048C42.0902 936.71 41.772 936.479 41.4062 936.446L36.5951 936.009C36.5318 936.003 36.4682 936.003 36.405 936.009L31.8989 936.46C31.6429 936.486 31.4066 936.609 31.2391 936.804L28.5 940L27.2 941.733C27.0702 941.906 27 942.117 27 942.333V947.723C27 947.904 27.0493 948.082 27.1425 948.238L28.2176 950.029C28.3935 950.322 28.4065 950.684 28.2604 950.994C27.9204 951.713 27.5 952.682 27.5 953C27.5 953.347 28.0027 954.474 28.3533 955.201C28.4473 955.396 28.6046 955.552 28.7981 955.649L31.4018 956.951C31.4671 956.984 31.5357 957.009 31.6065 957.027L35.3806 957.97C35.4599 957.99 35.5413 958 35.6231 958H41.5858C41.851 958 42.1054 957.895 42.2929 957.707L45.7257 954.274C45.9022 954.098 46.0063 953.862 46.0176 953.613L46.48 943.441C46.4927 943.16 46.3868 942.887 46.1881 942.688L43.6362 940.136C43.5462 940.046 43.4743 939.94 43.4241 939.823Z" fill="#57B9A0" fill-opacity="0.9"/>
<path d="M138.5 960L139.454 952.847C139.484 952.622 139.437 952.394 139.32 952.2L138.056 950.094C138.019 950.032 137.988 949.965 137.965 949.896L136.522 945.567C136.508 945.523 136.489 945.479 136.468 945.436L135.206 942.911C135.075 942.65 134.837 942.459 134.554 942.388L133.119 942.03C133.04 942.01 132.959 942 132.877 942H129.177C128.768 942 128.4 941.752 128.254 941.37C127.915 940.482 127.5 939.316 127.5 939C127.5 938.5 127 936.5 126.5 936.5C126.149 936.5 124.742 935.985 123.841 935.634C123.62 935.548 123.377 935.541 123.152 935.616L120.724 936.425C120.577 936.474 120.443 936.557 120.334 936.666L118 939C117.717 939.283 117.084 939.249 116.561 939.146C116.209 939.077 115.957 938.783 115.886 938.431L115.5 936.5C115.167 935.5 114.4 933.5 114 933.5C113.6 933.5 110.833 932.5 109.5 932L107.5 931.5L104.309 931.044C104.108 931.015 103.903 931.049 103.721 931.14L102.519 931.74C102.198 931.901 101.816 931.878 101.519 931.677C100.441 930.949 98.8435 929.844 98.5 929.5L96.8702 927.87C96.6382 927.638 96.3074 927.535 95.9845 927.594L91.3682 928.433C91.1308 928.476 90.917 928.604 90.7662 928.792L89.2191 930.726C89.0773 930.903 89 931.123 89 931.35V936.5C89 937.275 89.3125 940.612 89.4837 942.336C89.4944 942.445 89.5231 942.551 89.5683 942.65L91.9156 947.814C91.9713 947.937 92.0511 948.047 92.1503 948.138L98 953.5L107.441 960.954C107.48 960.985 107.522 961.012 107.565 961.037L114.5 965L121.378 967.948C121.459 967.982 121.544 968.006 121.631 968.019L128.43 968.99C128.476 968.997 128.524 969 128.571 969H131.723C131.904 969 132.082 968.951 132.238 968.858L136.645 966.213C136.872 966.077 137.036 965.855 137.1 965.598L138.5 960Z" fill="#57B9A0" fill-opacity="0.9"/>
<path d="M95.6917 900.736L92.831 898.284C92.6199 898.103 92.4937 897.842 92.4826 897.564L92.02 886L91.155 883.88C91.0557 883.636 90.8646 883.442 90.623 883.338L87.7732 882.117C87.5949 882.041 87.4427 881.914 87.3351 881.753L85.6903 879.285C85.567 879.1 85.3855 878.962 85.1745 878.892L82.6539 878.051C82.552 878.017 82.4452 878 82.3377 878H79.8028C79.6054 878 79.4123 878.058 79.2481 878.168L78.4453 878.703C78.1671 878.889 78 879.201 78 879.535V881.86C78 881.953 77.987 882.045 77.9615 882.135L77.0255 885.411C77.0085 885.47 76.9861 885.528 76.9584 885.583L76.1056 887.289C76.0361 887.428 76 887.58 76 887.735V895.36C76 895.453 76.013 895.545 76.0385 895.635L76.9493 898.822C76.9828 898.94 77.0376 899.05 77.1108 899.148L78.3892 900.852C78.4624 900.95 78.5172 901.06 78.5507 901.178L79.4615 904.365C79.487 904.455 79.5 904.547 79.5 904.64V908.901C79.5 908.967 79.4939 909.031 79.481 909.095C78.9751 911.63 78 916.71 78 917.5C78 918.243 78.8625 919.906 79.386 920.807C79.4604 920.935 79.5639 921.043 79.6871 921.125L81 922L83.7206 923.36C83.9025 923.451 84.1079 923.485 84.3092 923.456L87.09 923.059C87.3525 923.021 87.5894 922.881 87.7485 922.669L88.8463 921.205C88.9471 921.07 89.0125 920.913 89.0362 920.746L89.4327 917.971C89.4753 917.673 89.6499 917.41 89.9081 917.255L91.7625 916.143C91.9179 916.049 92.0957 916 92.277 916H96.3377C96.4452 916 96.5525 915.984 96.6509 915.941C97.2124 915.695 98.2719 914.956 99 913.5C99.7072 912.086 99.685 911.348 99.5552 911.081C99.5265 911.022 99.4816 910.972 99.4451 910.918L96.6409 906.711C96.5484 906.573 96.4921 906.413 96.477 906.247L96.0368 901.404C96.0132 901.145 95.8894 900.905 95.6917 900.736Z" fill="#57B9A0" fill-opacity="0.9"/>
<path d="M64.023 834.747L64.4408 830.151C64.4768 829.756 64.7434 829.42 65.1179 829.287C66.1893 828.907 67.6707 828.329 68 828C68.5 827.5 69 826.5 69 826V823.662C69 823.554 68.9827 823.448 68.9487 823.346L68.0988 820.796C68.0345 820.603 67.9128 820.435 67.7501 820.313L66.3232 819.242C66.1159 819.087 65.8563 819.018 65.5991 819.05L62 819.5L60.7575 819.811C60.3123 819.922 60 820.322 60 820.781V823.965C60 824.299 59.8329 824.611 59.5547 824.797L57.1292 826.414C57.0436 826.471 56.9673 826.541 56.903 826.621L55.1255 828.843C55.0426 828.947 54.9816 829.065 54.9447 829.192C54.5881 830.425 53.8792 832.742 53.5 833.5C53.1504 834.199 53.7938 835.713 54.2953 836.64C54.4216 836.873 54.6446 837.036 54.9018 837.1L58.3806 837.97C58.4599 837.99 58.5413 838 58.6231 838H61.4648C61.7992 838 62.1114 837.833 62.2969 837.555L63.8591 835.211C63.9516 835.073 64.0079 834.913 64.023 834.747Z" fill="#57B9A0" fill-opacity="0.9"/>
<path d="M71 812L66.3127 811.531C66.1091 811.511 65.9167 811.429 65.7614 811.295L62.8492 808.799C62.6276 808.609 62.5 808.332 62.5 808.04V804.754C62.5 804.308 62.7953 803.915 63.2263 803.798C64.5049 803.453 66.3408 803 67 803H73.1984C73.3958 803 73.5877 803.058 73.7519 803.168L76.4134 804.942C76.471 804.981 76.5324 805.013 76.5967 805.039L78.3714 805.749C78.7511 805.9 79 806.268 79 806.677V809.764C79 809.919 78.9639 810.072 78.8944 810.211L78.2764 811.447C78.107 811.786 77.7607 812 77.382 812H71Z" fill="#57B9A0" fill-opacity="0.9"/>
<path d="M56.1157 811.907L58.1908 810.247C58.3894 810.088 58.52 809.86 58.556 809.608L58.9622 806.765C58.987 806.591 58.9658 806.414 58.9007 806.252L58.1153 804.288C58.0402 804.101 57.9099 803.94 57.7416 803.828L55.2519 802.168C55.0877 802.058 54.8946 802 54.6972 802H51.6623C51.5548 802 51.448 802.017 51.3461 802.051L48.7963 802.901C48.6034 802.966 48.4341 803.086 48.3168 803.252C47.79 803.999 47 805.289 47 806V809C47 809.381 48.5128 810.7 49.3765 811.401C49.4585 811.467 49.5503 811.519 49.6492 811.556L53.1372 812.864C53.3706 812.951 53.6283 812.949 53.8597 812.856L55.8624 812.055C55.9536 812.019 56.039 811.969 56.1157 811.907Z" fill="#57B9A0" fill-opacity="0.9"/>
<path d="M62.4009 795.079L60.2739 796.781C60.0966 796.923 59.8763 797 59.6492 797H58.4142C58.149 797 57.8946 796.895 57.7071 796.707L56.1669 795.167C56.0571 795.057 55.9745 794.924 55.926 794.776C55.5772 793.716 55 791.872 55 791.5C55 791.18 54.7867 790.412 54.6161 789.862C54.5435 789.628 54.5533 789.376 54.6498 789.151L55.9241 786.177C55.9743 786.06 56.0462 785.954 56.1362 785.864L58.2071 783.793C58.3946 783.605 58.649 783.5 58.9142 783.5H61.7639C61.9192 783.5 62.0723 783.536 62.2111 783.606L63.4472 784.224C63.786 784.393 64 784.739 64 785.118V786L64.4819 789.855C64.4939 789.951 64.4919 790.048 64.476 790.144L64.0401 792.759C64.0137 792.918 63.9498 793.067 63.8537 793.195L62.5762 794.898C62.5256 794.966 62.4667 795.027 62.4009 795.079Z" fill="#57B9A0" fill-opacity="0.9"/>
<path d="M76.9618 761.898L74.0559 754.149C74.0189 754.05 73.9664 753.958 73.9005 753.876L72.3002 751.875C72.1105 751.638 71.8232 751.5 71.5194 751.5H70.7208C70.2903 751.5 69.9082 751.775 69.7721 752.184L68 757.5L65.5 764.5L64.0299 770.381C64.01 770.46 64 770.541 64 770.623V775.764C64 775.919 64.0361 776.072 64.1056 776.211L66.4671 780.934C66.489 780.978 66.5141 781.02 66.5422 781.06L69.8742 785.82C69.9571 785.939 70.0647 786.038 70.1895 786.111L75.9106 789.448C75.97 789.483 76.0329 789.511 76.0982 789.533L81.9326 791.478C81.9775 791.492 82.0234 791.504 82.0699 791.513L86.5332 792.324C87.0699 792.422 87.5857 792.071 87.6927 791.536L88.395 788.025C88.4606 787.697 88.358 787.358 88.1216 787.122L85.5619 784.562C85.5207 784.521 85.4832 784.476 85.4498 784.428L82.1115 779.659C82.0378 779.554 81.9852 779.436 81.9563 779.311L80.5377 773.163C80.5127 773.055 80.47 772.952 80.4113 772.858L78.1121 769.179C78.0382 769.061 77.9898 768.929 77.9701 768.791L77.0154 762.108C77.0052 762.036 76.9872 761.966 76.9618 761.898Z" fill="#57B9A0" fill-opacity="0.9"/>
<path d="M85.5 830.746V825.87C85.5 825.631 85.5854 825.4 85.7407 825.219L88.4424 822.067C88.4807 822.022 88.5229 821.981 88.5685 821.944L93.6332 817.8C93.8654 817.61 94 817.326 94 817.026V807.277C94 807.096 94.0495 806.919 94.1402 806.762C94.6657 805.851 95.5 804.231 95.5 803.5V798.802C95.5 798.605 95.5584 798.412 95.668 798.248L96.4422 797.087C96.4807 797.029 96.513 796.968 96.5387 796.903L97.2969 795.008C97.4235 794.691 97.3802 794.332 97.1822 794.055L95.2078 791.291C95.0734 791.103 95.0084 790.874 95.0238 790.643L95.5 783.5L95.0305 775.049C95.0115 774.707 95.169 774.379 95.4477 774.18L98.0812 772.299C98.344 772.111 98.5 771.808 98.5 771.485V771.347C98.5 770.858 98.1466 770.441 97.6644 770.361L95.8952 770.066C95.6415 770.024 95.4139 769.885 95.2596 769.679L94 768L91.7309 763.916C91.5848 763.653 91.5648 763.338 91.6766 763.059L92.3749 761.313C92.4561 761.11 92.6015 760.939 92.7889 760.827L94.4306 759.842C94.7757 759.635 94.963 759.241 94.9061 758.843L94.5147 756.103C94.5049 756.034 94.4881 755.967 94.4645 755.902L92.5562 750.655C92.519 750.552 92.4653 750.457 92.3973 750.372L90.5487 748.061C90.5163 748.02 90.4871 747.977 90.4613 747.932L86.5399 741.07C86.5133 741.023 86.4906 740.975 86.4718 740.925L83.5462 733.123C83.5155 733.041 83.4743 732.964 83.4236 732.893L78.5 726L75.202 721.289C75.0713 721.102 75.0083 720.876 75.0234 720.649L75.4791 713.813C75.4927 713.609 75.5684 713.414 75.696 713.255L77.2809 711.274C77.4227 711.097 77.5 710.876 77.5 710.649V703.333C77.5 703.117 77.4298 702.906 77.3 702.733L73.0857 697.114C73.0289 697.038 72.9615 696.971 72.8857 696.914L67.1071 692.58C67.036 692.527 66.9724 692.464 66.9178 692.394L63.7106 688.271C63.5741 688.095 63.5 687.879 63.5 687.657V682.7C63.5 682.568 63.5261 682.437 63.5769 682.315L66 676.5L69.4742 664.092C69.4914 664.031 69.5143 663.971 69.5428 663.914L72.9165 657.167C72.9717 657.057 73.0469 656.957 73.1382 656.874L78.2139 652.26C78.398 652.093 78.6378 652 78.8866 652H90.4235C90.4744 652 90.5253 652.004 90.5756 652.012L96.8104 652.971C96.9357 652.99 97.0561 653.033 97.1654 653.097L105.5 658L114.328 663.885C114.441 663.961 114.569 664.013 114.704 664.037L119.911 664.984C119.97 664.995 120.03 665 120.09 665H121.709C121.899 665 122.085 665.054 122.246 665.156L127.254 668.344C127.415 668.446 127.601 668.5 127.791 668.5H132.85C132.949 668.5 133.048 668.485 133.144 668.456L139.281 666.567C139.425 666.523 139.557 666.447 139.668 666.344L146.436 660.059C146.479 660.02 146.525 659.984 146.573 659.953L154.905 654.562C154.968 654.521 155.036 654.487 155.106 654.461L160.27 652.584C160.421 652.529 160.557 652.438 160.665 652.32L170.454 641.641C170.944 641.106 171.824 641.256 172.11 641.923L174.459 647.403C174.486 647.468 174.52 647.529 174.561 647.586L180.201 655.577C180.389 655.842 180.693 656 181.018 656H186.223C186.404 656 186.582 656.049 186.738 656.143L189 657.5L192.239 659.814C192.409 659.935 192.612 660 192.82 660H201.586C202.477 660 202.923 661.077 202.293 661.707L202.01 661.99C201.705 662.295 201.63 662.76 201.822 663.145L203.665 666.829C203.863 667.227 204.301 667.445 204.738 667.366L209.237 666.548C209.409 666.517 209.587 666.531 209.752 666.59L215.578 668.671C216.09 668.854 216.362 669.413 216.19 669.929L214.545 674.865C214.302 675.594 214.937 676.313 215.69 676.162L216.369 676.026C216.456 676.009 216.54 675.98 216.62 675.94L221.182 673.659C221.388 673.556 221.622 673.527 221.847 673.577L225.922 674.483C225.974 674.494 226.027 674.502 226.08 674.505L233.746 674.956C234.192 674.982 234.567 675.301 234.664 675.737L235.389 679C235.459 679.314 235.675 679.575 235.971 679.702L238.811 680.919C238.936 680.972 239.07 681 239.205 681H246.912C247.275 681 247.609 680.803 247.786 680.486L249.834 676.799C249.942 676.605 250.111 676.453 250.314 676.365L253.237 675.113C253.409 675.039 253.598 675.015 253.783 675.044L259.737 675.96C259.909 675.986 260.086 675.967 260.248 675.905L266.5 673.5L276 669.5L284.825 666.068C284.941 666.023 285.064 666 285.188 666H288.838C288.945 666 289.052 666.017 289.154 666.051L291.906 666.969C291.969 666.99 292.029 667.016 292.086 667.049L299 671L306.88 674.448C306.96 674.482 307.043 674.507 307.129 674.52L313.334 675.474C313.444 675.491 313.556 675.49 313.665 675.47L318.911 674.516C318.97 674.505 319.03 674.5 319.09 674.5H325.86C325.953 674.5 326.045 674.513 326.135 674.538L332.801 676.443C332.932 676.481 333.054 676.545 333.16 676.631L338.413 680.929C338.471 680.976 338.523 681.03 338.569 681.089L342 685.5L348.943 692.443C348.981 692.481 349.016 692.522 349.047 692.565L355.286 701.204C355.424 701.395 355.625 701.531 355.854 701.589L359.5 702.5L366.12 704.392C366.364 704.461 366.573 704.621 366.703 704.839L367.709 706.514C367.889 706.816 368.215 707 368.566 707H370.36C370.453 707 370.545 707.013 370.635 707.038L373.814 707.947C373.937 707.982 374.052 708.04 374.153 708.119L378.42 711.438C378.473 711.479 378.522 711.526 378.566 711.577L381.126 714.564C381.358 714.834 381.715 714.961 382.065 714.897L386.748 714.046C386.913 714.016 387.084 714.028 387.243 714.081L390.908 715.303C391.27 715.423 391.532 715.74 391.583 716.119L392.384 722.132C392.451 722.629 392.874 723 393.376 723H395.341C395.741 723 396.102 722.762 396.26 722.394L397.24 720.106C397.398 719.738 397.759 719.5 398.159 719.5H404.746C405.192 719.5 405.585 719.796 405.707 720.225L406.412 722.693C406.469 722.893 406.587 723.07 406.749 723.199L408.917 724.934C408.972 724.978 409.032 725.016 409.095 725.047L414 727.5L419.386 729.948C419.462 729.983 419.533 730.026 419.597 730.078L421.456 731.564C421.783 731.826 421.912 732.264 421.78 732.661L420.542 736.373C420.514 736.457 420.475 736.537 420.426 736.611L418.602 739.347C418.534 739.448 418.449 739.536 418.351 739.607L415.574 741.59C415.23 741.836 415.078 742.272 415.194 742.678L415.962 745.365C415.987 745.455 416 745.547 416 745.64V749.838C416 749.945 415.983 750.052 415.949 750.154L415.228 752.316C415.092 752.725 414.71 753 414.279 753H409.618C409.239 753 408.893 753.214 408.724 753.553L408.035 754.93C408.012 754.977 407.985 755.021 407.954 755.064L405.749 758.152C405.59 758.374 405.347 758.522 405.076 758.561L399.166 759.405C398.763 759.462 398.436 759.758 398.337 760.152L397.5 763.5L396.193 769.165C396.082 769.645 396.338 770.135 396.796 770.318L398.147 770.859C398.374 770.95 398.561 771.121 398.67 771.34L401.463 776.926C401.488 776.975 401.508 777.026 401.524 777.079L403.456 783.356C403.485 783.452 403.5 783.551 403.5 783.65V788.697C403.5 788.895 403.442 789.088 403.332 789.252L401.5 792L400.526 793.624C400.237 794.105 400.4 794.729 400.887 795.007L403.263 796.365C403.418 796.453 403.547 796.582 403.635 796.737L405.301 799.651C405.429 799.875 405.465 800.14 405.403 800.39L404.521 803.916C404.507 803.972 404.488 804.027 404.465 804.079L402.586 808.306C402.529 808.434 402.5 808.572 402.5 808.712V812.401C402.5 812.467 402.493 812.533 402.481 812.597L401.661 816.696C401.567 817.164 401.157 817.5 400.68 817.5H400.099C400.033 817.5 399.967 817.493 399.903 817.481L395.37 816.574C395.132 816.526 394.884 816.567 394.673 816.689L385.732 821.865C385.58 821.954 385.407 822 385.231 822H378.87C378.631 822 378.4 822.085 378.219 822.241L375.177 824.849C375.06 824.948 374.969 825.073 374.908 825.214L373.5 828.5L372.616 831.594C372.542 831.854 372.366 832.072 372.128 832.2L366.22 835.382C366.075 835.459 365.952 835.571 365.862 835.708L364.134 838.298C364.046 838.431 363.927 838.54 363.788 838.618L360.014 840.714C359.697 840.891 359.5 841.225 359.5 841.588V845.92C359.5 846.279 359.308 846.61 358.996 846.788L356.231 848.368C356.079 848.455 355.908 848.5 355.734 848.5H349.65C349.255 848.5 348.897 848.733 348.736 849.094L347.102 852.771C347.035 852.921 346.932 853.053 346.802 853.154L342.771 856.289C342.595 856.426 342.379 856.5 342.157 856.5H328C327.448 856.5 327 856.948 327 857.5V872.838C327 872.945 326.983 873.052 326.949 873.154L326.114 875.659C326.04 875.879 325.892 876.067 325.695 876.191L314.608 883.12C314.245 883.347 313.777 883.318 313.446 883.044C311.517 881.448 308.5 878.863 308.5 878.5C308.5 878.123 305.831 876.826 304.269 876.121C304.093 876.041 303.899 876.016 303.708 876.046L294.762 877.459C294.59 877.486 294.429 877.557 294.293 877.666L289.566 881.447C289.522 881.482 289.481 881.521 289.444 881.563L285.622 885.863C285.541 885.954 285.478 886.058 285.435 886.171L281.537 896.403C281.512 896.467 281.481 896.529 281.444 896.588L277.09 903.36C277.03 903.453 276.956 903.535 276.87 903.603L262.773 914.784C262.596 914.924 262.377 915 262.152 915H255.5L244.5 916L233.808 917.458C233.607 917.485 233.42 917.573 233.27 917.709L228.055 922.45C228.018 922.483 227.984 922.519 227.953 922.557L223.589 927.891C223.53 927.963 223.461 928.027 223.384 928.08L217 932.5L212.238 935.357C212.082 935.451 211.904 935.5 211.723 935.5H204.815C204.61 935.5 204.41 935.437 204.242 935.319L199.758 932.181C199.59 932.063 199.39 932 199.185 932H192.884C192.637 932 192.398 932.091 192.215 932.257L187.627 936.386C187.543 936.461 187.472 936.551 187.418 936.65L184.569 941.874C184.523 941.957 184.466 942.034 184.398 942.102L180.183 946.317C180.063 946.437 179.914 946.525 179.751 946.571L176.635 947.462C176.545 947.487 176.453 947.5 176.36 947.5H170.803C170.605 947.5 170.412 947.558 170.248 947.668L166.124 950.417C166.042 950.472 165.952 950.514 165.857 950.543L161.141 951.958C161.047 951.986 160.951 952 160.853 952H154.535C154.201 952 153.889 951.833 153.703 951.555L153.271 950.907C153.1 950.65 153.057 950.329 153.155 950.036L153.949 947.654C153.983 947.552 154 947.445 154 947.338V945.5C154 944.948 153.552 944.5 153 944.5H150.193C150.065 944.5 149.939 944.524 149.821 944.572L146.064 946.075C145.501 946.3 144.869 945.976 144.722 945.389L143.124 938.996C143.046 938.685 142.823 938.429 142.525 938.31L138.245 936.598C138.084 936.534 137.943 936.429 137.835 936.294L136.266 934.333C136.096 934.12 135.847 933.986 135.576 933.961L130.888 933.535C130.638 933.513 130.407 933.397 130.238 933.212L125.798 928.327C125.608 928.119 125.339 928 125.058 928H122.914C122.649 928 122.395 928.105 122.207 928.293L118.793 931.707C118.605 931.895 118.351 932 118.086 932H114.945C114.662 932 114.392 931.88 114.202 931.669L110.249 927.277C110.089 927.098 109.869 926.984 109.63 926.954L102.298 926.037C102.104 926.013 101.921 925.932 101.772 925.804L98.8492 923.299C98.6276 923.109 98.5 922.832 98.5 922.54V921.414C98.5 921.149 98.6054 920.895 98.7929 920.707L102 917.5L105.223 913.816C105.4 913.614 105.488 913.349 105.468 913.081L105 907L104.042 900.294C104.015 900.102 103.932 899.922 103.805 899.777L100.563 896.072C100.521 896.024 100.484 895.972 100.452 895.917L97.1157 890.198C97.0396 890.068 96.994 889.922 96.9824 889.771L96.5526 884.184C96.5209 883.772 96.2389 883.422 95.8429 883.303L91.6958 882.059C91.5666 882.02 91.4466 881.956 91.343 881.869L85.6386 877.115C85.5469 877.039 85.4697 876.947 85.4105 876.843L83.6171 873.705C83.5401 873.57 83.4328 873.455 83.3036 873.369L79 870.5L74.0508 867.35C73.7161 867.138 73.5389 866.747 73.5993 866.355L74.4807 860.625C74.4935 860.542 74.5168 860.461 74.5499 860.383L78.9394 850.141C78.9796 850.048 79.0052 849.948 79.0153 849.847L79.5 845V840.11C79.5 840.037 79.508 839.964 79.5238 839.893L80.4733 835.62C80.491 835.54 80.5185 835.463 80.5551 835.39L81.8033 832.893C81.9286 832.643 82.1535 832.456 82.423 832.379L84.7747 831.707C85.204 831.585 85.5 831.192 85.5 830.746Z" fill="#57B9A0" fill-opacity="0.9"/>
<path d="M25.5 690.5C25.5 690.9 27.1667 695.667 28 698V705.5L27 712.5L24.5 716.5L23 720.649V730L24 732.893V737.5L21.5 740L20.5 744L18 745.5C16.6667 745.167 13.9 744.5 13.5 744.5C13.1 744.5 11.3333 743.167 10.5 742.5L10 740V736.5L10.5 734L7 730.5L5.5 724.5L5 719L6.5 715L11.5 713.813L13 710.649L11.5 709.5L9.5 707L8 704V701.5C8.33333 700.833 9.1 699.5 9.5 699.5C9.9 699.5 11.3333 698.833 12 698.5H16L16.5 696.914L16 692.394L16.5 689.5L19 689H23L25.5 690.5Z" fill="#57B9A0" fill-opacity="0.9"/>
<path d="M378.219 834.5L383.5 837.5L398 836.5L401.661 834.5V832.2L400.887 829L399.903 825.214L397 821.865L390.5 822L388.5 826L385 828H380C379 828.333 377 829.1 377 829.5C377 829.9 376.667 830.667 376.5 831L378.219 834.5Z" fill="#57B9A0" fill-opacity="0.9"/>
<path d="M369.5 839L366.22 841.588L365.862 848.368L360.014 851.5C360.01 852.333 360.1 854 360.5 854H366.756L371 851.5L374.908 845.92L377 840V835L373.5 835.382L369.5 839Z" fill="#57B9A0" fill-opacity="0.9"/>
<path d="M92 885.5L92.02 886M92.02 886L92.4826 897.564C92.4937 897.842 92.6199 898.103 92.831 898.284L95.6917 900.736C95.8894 900.905 96.0132 901.145 96.0368 901.404L96.477 906.247C96.4921 906.413 96.5484 906.573 96.6409 906.711L99.4451 910.918C99.4816 910.972 99.5265 911.022 99.5552 911.081C99.685 911.348 99.7072 912.086 99 913.5C98.2719 914.956 97.2124 915.695 96.6509 915.941C96.5525 915.984 96.4452 916 96.3377 916H92.277C92.0957 916 91.9179 916.049 91.7625 916.143L89.9081 917.255C89.6499 917.41 89.4753 917.673 89.4327 917.971L89.0362 920.746C89.0125 920.913 88.9471 921.07 88.8463 921.205L87.7485 922.669C87.5894 922.881 87.3525 923.021 87.09 923.059L84.3092 923.456C84.1079 923.485 83.9025 923.451 83.7206 923.36L81 922L79.6871 921.125C79.5639 921.043 79.4604 920.935 79.386 920.807C78.8625 919.906 78 918.243 78 917.5C78 916.71 78.9751 911.63 79.481 909.095C79.4939 909.031 79.5 908.967 79.5 908.901V904.64C79.5 904.547 79.487 904.455 79.4615 904.365L78.5507 901.178C78.5172 901.06 78.4624 900.95 78.3892 900.852L77.1108 899.148C77.0376 899.05 76.9828 898.94 76.9493 898.822L76.0385 895.635C76.013 895.545 76 895.453 76 895.36V887.735C76 887.58 76.0361 887.428 76.1056 887.289L76.9584 885.583C76.9861 885.528 77.0085 885.47 77.0255 885.411L77.9615 882.135C77.987 882.045 78 881.953 78 881.86V879.535C78 879.201 78.1671 878.889 78.4453 878.703L79.2481 878.168C79.4123 878.058 79.6054 878 79.8028 878H82.3377C82.4452 878 82.552 878.017 82.6539 878.051L85.1745 878.892C85.3855 878.962 85.567 879.1 85.6903 879.285L87.3351 881.753C87.4427 881.914 87.5949 882.041 87.7732 882.117L90.623 883.338C90.8646 883.442 91.0557 883.636 91.155 883.88L92.02 886ZM360.5 854C360.1 854 360.01 852.333 360.014 851.5L365.862 848.368L366.22 841.588L369.5 839L373.5 835.382L377 835V840L374.908 845.92L371 851.5L366.756 854M360.5 854C360.9 854 364.837 854 366.756 854M360.5 854H366.756M453.216 854.323L458.191 850.253C458.389 850.091 458.518 849.858 458.55 849.603L458.982 846.145C458.994 846.049 458.992 845.952 458.976 845.856L458.118 840.706C458.047 840.284 458.253 839.864 458.63 839.661L464.5 836.5L469.678 834.146C469.886 834.052 470.056 833.888 470.158 833.683L471 832C471.333 831.333 471.9 829.8 471.5 829C471.1 828.2 470.333 825.667 470 824.5L469.072 822.179C469.024 822.061 469 821.935 469 821.807V813.914C469 813.649 468.895 813.395 468.707 813.207L466.696 811.196C466.568 811.068 466.407 810.977 466.231 810.933L462.579 810.02C462.526 810.007 462.473 809.998 462.419 809.993L456.624 809.51C456.542 809.503 456.459 809.507 456.377 809.521L454.039 809.91C453.703 809.966 453.419 810.189 453.285 810.503L452.081 813.311C452.027 813.436 452 813.57 452 813.705V815.649C452 815.876 451.923 816.097 451.781 816.274L450.219 818.226C450.077 818.403 450 818.624 450 818.851V821.5C450 821.842 449.756 823.676 449.581 824.928C449.531 825.282 449.296 825.584 448.958 825.701C448.061 826.009 446.826 826.326 446.5 826C446.114 825.614 443.518 825.818 442.14 825.983C442.047 825.994 441.956 826.019 441.87 826.056L439.106 827.24C438.738 827.398 438.501 827.759 438.493 828.159C438.465 829.586 438.342 831.658 438 832C437.6 832.4 437.167 835.167 437 836.5V840.877C437 840.959 436.99 841.04 436.97 841.119C436.785 841.824 436.378 843.122 436 843.5C435.5 844 434 846 434 846.5C434 846.874 434.291 848.73 434.465 849.789C434.488 849.928 434.541 850.06 434.617 850.179C434.968 850.727 435.5 851.643 435.5 852C435.5 852.5 438 854.5 438.5 854.5C438.9 854.5 441.667 854.833 443 855H449.429C449.476 855 449.523 854.997 449.57 854.99L452.724 854.539C452.905 854.514 453.075 854.439 453.216 854.323ZM417.567 804.478L424.846 802.051C424.948 802.017 425.044 801.967 425.13 801.903L428.843 799.118C428.947 799.04 429.034 798.943 429.101 798.832L430.357 796.738C430.451 796.582 430.5 796.404 430.5 796.223V790.5L430.02 786.177C430.007 786.06 429.973 785.946 429.92 785.84L428 782L425.536 777.565C425.512 777.522 425.491 777.477 425.474 777.43L424.153 773.908C424.055 773.648 424.071 773.359 424.191 773.108C424.538 772.382 425 771.333 425 771C425 770.613 426.559 768.012 427.415 766.636C427.471 766.546 427.542 766.465 427.623 766.398L430.388 764.093C430.462 764.031 430.545 763.981 430.634 763.943L433.587 762.677C433.85 762.564 434.052 762.345 434.142 762.074L434.404 761.287C434.467 761.1 434.472 760.898 434.42 760.708L433.032 755.617C433.011 755.539 432.98 755.464 432.941 755.394L430.843 751.617C430.637 751.247 430.221 751.046 429.804 751.116L427.619 751.48C427.54 751.493 427.463 751.516 427.389 751.547L424.189 752.919C424.064 752.972 423.93 753 423.795 753H419.662C419.555 753 419.448 753.017 419.346 753.051L415.362 754.379C415.129 754.457 414.933 754.617 414.812 754.832C414.111 756.076 413 758.135 413 758.5C413 758.9 412 761.333 411.5 762.5L409.594 766.313C409.532 766.436 409.445 766.546 409.339 766.634L406.771 768.774C406.596 768.92 406.475 769.122 406.432 769.346C406.256 770.248 406 771.649 406 772V777.378C406 777.46 406.01 777.54 406.03 777.619L406.447 779.288C406.482 779.428 406.547 779.558 406.636 779.671C407.332 780.554 408.5 782.126 408.5 782.5V786.086C408.5 786.352 408.393 786.603 408.217 786.803C407.886 787.179 407.5 787.696 407.5 788V791.877C407.5 791.959 407.51 792.04 407.531 792.119C407.715 792.813 408.123 794 408.5 794C408.863 794 410.355 794.825 411.25 795.351C411.414 795.448 411.545 795.59 411.63 795.76L411.847 796.193C411.946 796.392 411.976 796.618 411.933 796.836L411.5 799L411.099 803.409C411.046 803.995 411.507 804.5 412.095 804.5H412.417C412.472 804.5 412.527 804.504 412.581 804.514C413.609 804.684 415.611 805 416 805C416.376 805 417.077 804.705 417.436 804.531C417.479 804.511 417.523 804.492 417.567 804.478ZM224.111 670.426C225.647 669.4 228.61 667.39 229 667C229.347 666.653 230.72 666.282 231.622 666.08C231.865 666.026 232.118 666.071 232.332 666.199L234.5 667.5L236.402 668.451C236.467 668.484 236.535 668.509 236.606 668.527C237.308 668.71 238.62 669.12 239 669.5C239.5 670 240.5 670.5 241.5 670C242.171 669.665 243.123 668.603 243.708 667.875C243.896 667.641 243.958 667.33 243.885 667.038L243.594 665.875C243.533 665.634 243.386 665.423 243.178 665.287C242.105 664.585 240.361 663.5 240 663.5C239.5 663.5 236 662 235.5 661.5C235.115 661.115 232.843 660.389 231.634 660.039C231.545 660.013 231.453 660 231.36 660H228.071C228.024 660 227.977 660.003 227.93 660.01C226.739 660.18 224.392 660.5 224 660.5C223.626 660.5 221.47 661.96 220.239 662.83C220.083 662.941 219.962 663.094 219.891 663.272L219.12 665.2C219.042 665.395 219.027 665.61 219.078 665.814L219.5 667.5L220.326 669.979C220.435 670.304 220.701 670.55 221.033 670.633L222.217 670.929C222.402 670.975 222.596 670.968 222.776 670.908L223.873 670.542C223.957 670.514 224.037 670.476 224.111 670.426ZM143.261 607.512L152.743 607.964C153.191 607.985 153.596 607.706 153.752 607.286C154.132 606.265 154.682 605 155 605C155.5 605 158 603.5 158.5 603C158.853 602.647 160.009 601.75 160.734 601.201C160.907 601.07 161.117 601 161.333 601H164.167C164.383 601 164.594 601.07 164.767 601.2L166.216 602.287C166.4 602.425 166.53 602.622 166.586 602.844L166.97 604.381C166.99 604.46 167 604.541 167 604.623V606.697C167 606.895 166.942 607.088 166.832 607.252L166.055 608.418C166.018 608.472 165.977 608.523 165.93 608.57L163.293 611.207C163.105 611.395 163 611.649 163 611.914V614.838C163 614.945 162.983 615.052 162.949 615.154L162.658 616.026C162.559 616.324 162.324 616.559 162.026 616.658L159.567 617.478C159.523 617.492 159.479 617.511 159.436 617.532L158.87 617.815C158.633 617.933 158.453 618.141 158.369 618.393L158.274 618.677C158.117 619.149 158.353 619.646 158.711 619.991C158.878 620.151 159 620.329 159 620.5C159 620.9 159.333 622 159.5 622.5L159.805 623.414C159.924 623.773 159.827 624.166 159.585 624.457C159.291 624.811 159 625.236 159 625.5C159 626 158 627 158 627.5C158 627.9 156.667 628.667 156 629C155.5 629.333 154.4 629.9 154 629.5C153.5 629 152 628 151.5 628C151 628 149 627.5 148.5 627.5C148.133 627.5 146.613 627.219 145.722 627.044C145.575 627.015 145.438 626.953 145.319 626.864L143.557 625.543C143.519 625.514 143.483 625.483 143.45 625.45L142.58 624.58C142.243 624.243 141.715 624.19 141.318 624.455L140.582 624.945C140.528 624.982 140.477 625.023 140.43 625.07L139.214 626.286C139.074 626.426 138.897 626.521 138.703 626.559L136.597 626.981C136.533 626.993 136.467 627 136.401 627H134.123C134.041 627 133.96 626.99 133.881 626.97L132.533 626.633C132.201 626.55 131.935 626.304 131.826 625.979L131.5 625L131.03 623.119C131.01 623.04 131 622.959 131 622.877V620.777C131 620.596 131.049 620.418 131.143 620.262L132.5 618L134.445 615.082C134.482 615.028 134.523 614.977 134.57 614.93L139.5 610L141.917 608.066C141.972 608.022 142.032 607.984 142.095 607.953L142.766 607.617C142.92 607.54 143.09 607.504 143.261 607.512ZM245.835 570.514L240.448 570.963C240.163 570.986 239.901 571.13 239.734 571.362C239.212 572.09 238.5 573.163 238.5 573.5V577.5C238.5 578.5 239.5 580.5 240 580.5H242C242.386 580.5 244.669 579.568 245.875 579.053C245.958 579.018 246.036 578.971 246.106 578.915L248.125 577.3C248.362 577.11 248.5 576.823 248.5 576.519V573.123C248.5 573.041 248.49 572.96 248.47 572.881L248.146 571.582C248.056 571.224 247.776 570.944 247.418 570.854L246.161 570.54C246.054 570.514 245.944 570.505 245.835 570.514ZM334.014 586.665L334.481 592.276C334.494 592.424 334.473 592.572 334.421 592.71L333.064 596.33C333.022 596.442 333 596.561 333 596.68V601C333 601.5 332 604.5 333 606C334 607.5 335 610.5 335.5 611C336 611.5 339 612.5 339.5 612.5C339.863 612.5 341.906 611.124 343.151 610.247C343.375 610.09 343.522 609.847 343.561 609.576L343.99 606.57C343.997 606.524 344 606.476 344 606.429V601L344.479 597.17C344.493 597.057 344.526 596.948 344.577 596.847L345.755 594.491C345.907 594.185 345.893 593.823 345.722 593.527C345.2 592.626 344.5 591.335 344.5 591C344.5 590.5 343 588.5 342.5 588C342.152 587.652 341.528 586.524 341.151 585.797C341.052 585.605 340.896 585.447 340.701 585.353C339.974 585.003 338.847 584.5 338.5 584.5H335.281C334.822 584.5 334.422 584.812 334.311 585.257L334.04 586.339C334.014 586.446 334.005 586.556 334.014 586.665ZM280.649 629.261L282.706 625.97C282.889 625.678 283.209 625.5 283.554 625.5H288.485C288.808 625.5 289.111 625.344 289.299 625.081L291.147 622.495C291.364 622.191 291.732 622.033 292.102 622.086L294.481 622.426C294.806 622.472 295.088 622.675 295.234 622.969L296.794 626.089C296.925 626.35 297.162 626.541 297.446 626.61C298.89 626.961 301.281 627.5 302 627.5H304.764C304.92 627.5 305.072 627.536 305.211 627.606L307.447 628.724C307.786 628.893 308.191 628.856 308.494 628.629L309.943 627.543C309.981 627.514 310.017 627.483 310.05 627.45L311.93 625.57C311.977 625.523 312.028 625.482 312.082 625.445L314.748 623.668C314.912 623.558 315.105 623.5 315.303 623.5H318.417C318.472 623.5 318.527 623.505 318.582 623.514L324.347 624.475C324.449 624.491 324.552 624.493 324.653 624.478L327.627 624.053C327.868 624.019 328.087 623.898 328.245 623.714L330.759 620.781C330.915 620.6 331 620.369 331 620.13V617.777C331 617.596 330.951 617.418 330.857 617.262L329.629 615.214C329.544 615.074 329.426 614.956 329.286 614.871L327.106 613.563C327.035 613.521 326.971 613.471 326.913 613.413L324.793 611.293C324.605 611.105 324.5 610.851 324.5 610.586V609.677C324.5 609.268 324.749 608.9 325.129 608.749L326.371 608.251C326.751 608.1 327 607.732 327 607.323V601.236C327 601.081 327.036 600.928 327.106 600.789L328 599L328.928 596.679C328.976 596.561 329 596.435 329 596.307V595.205C329 595.07 328.972 594.936 328.919 594.811L327.541 591.596C327.514 591.532 327.493 591.466 327.48 591.398L327.106 589.531C327.04 589.2 326.811 588.924 326.497 588.799L324.623 588.049C324.541 588.017 324.464 587.973 324.394 587.921L322.557 586.543C322.519 586.514 322.483 586.483 322.45 586.45L321.916 585.916C321.659 585.659 321.562 585.283 321.662 584.934L322.457 582.15C322.486 582.051 322.529 581.956 322.587 581.87L324.339 579.241C324.444 579.084 324.592 578.959 324.765 578.882L328.866 577.059C328.955 577.02 329.037 576.968 329.111 576.905L332.258 574.207C332.415 574.072 332.527 573.892 332.577 573.691L333.439 570.243C333.479 570.083 333.479 569.917 333.439 569.757L332.567 566.269C332.523 566.093 332.432 565.932 332.304 565.804L330.07 563.57C330.023 563.523 329.973 563.482 329.918 563.445C328.89 562.758 326.889 561.389 326.5 561C326.139 560.639 323.576 560.794 321.978 560.95C321.675 560.98 321.375 560.875 321.16 560.66L319.615 559.115C319.539 559.039 319.476 558.951 319.425 558.856C319.05 558.159 318.246 557 317.5 557H314.162C314.055 557 313.948 557.017 313.846 557.051L312.776 557.408C312.596 557.468 312.402 557.476 312.217 557.429L310.696 557.049C310.567 557.017 310.446 556.959 310.338 556.88C309.625 556.356 308.37 555.5 308 555.5C307.5 555.5 306 555 305 555.5C304.222 555.889 302.75 556.94 302.057 557.458C302.019 557.486 301.983 557.517 301.95 557.55L300.5 559L298.8 561.125C298.61 561.362 298.323 561.5 298.019 561.5H297.5C296.948 561.5 296.5 561.052 296.5 560.5V554.623C296.5 554.541 296.51 554.46 296.53 554.381L296.97 552.619C296.99 552.54 297 552.459 297 552.377V549.623C297 549.541 296.99 549.46 296.97 549.381L296.549 547.696C296.517 547.567 296.459 547.445 296.379 547.338L295.146 545.695C295.05 545.567 294.986 545.418 294.96 545.259L294.54 542.741C294.514 542.582 294.45 542.433 294.354 542.305L291.8 538.9C291.611 538.648 291.315 538.5 291 538.5H286.787C286.599 538.5 286.416 538.553 286.257 538.652L282.644 540.91C282.549 540.969 282.464 541.045 282.394 541.133L280.719 543.226C280.577 543.403 280.5 543.623 280.5 543.85V546.5C280.5 547.257 279.307 548.67 278.613 549.385C278.539 549.462 278.475 549.549 278.427 549.645L277.119 552.262C277.041 552.418 276.924 552.551 276.779 552.647L275.702 553.365C275.569 553.454 275.417 553.509 275.258 553.527L266.742 554.473C266.583 554.491 266.431 554.546 266.298 554.635L263.945 556.203C263.667 556.389 263.5 556.701 263.5 557.035V560.429C263.5 560.476 263.497 560.524 263.49 560.57L263.01 563.93C263.003 563.976 263 564.024 263 564.071V567.011C263 567.32 262.858 567.611 262.614 567.8L258.833 570.741C258.62 570.907 258.483 571.151 258.453 571.42L258 575.5L257.03 581.806C257.01 581.934 256.966 582.057 256.899 582.168L255.721 584.132C255.58 584.367 255.348 584.534 255.081 584.593L251.148 585.467C251.05 585.489 250.956 585.525 250.869 585.575L247.5 587.5L244.62 588.94C244.54 588.98 244.456 589.009 244.369 589.026L242.446 589.411C242.163 589.467 241.918 589.644 241.774 589.895L240.132 592.769C240.045 592.921 240 593.092 240 593.266V603.764C240 603.919 240.036 604.072 240.106 604.211L242 608L243.712 610.996C243.89 611.308 244.226 611.485 244.574 611.572C245.031 611.686 245.5 611.952 245.5 612.5C245.5 613.25 246.086 616.108 246.434 617.698C246.477 617.895 246.46 618.1 246.385 618.287L245.988 619.28C245.743 619.893 246.149 620.572 246.806 620.645L249.821 620.98C249.94 620.993 250.059 620.985 250.174 620.956L251.598 620.6C251.855 620.536 252.128 620.577 252.355 620.713L256.808 623.385C256.934 623.461 257.076 623.508 257.223 623.522L261.928 623.993C261.976 623.998 262.024 624.006 262.071 624.018L268 625.5L272.216 626.437C272.401 626.478 272.571 626.571 272.706 626.706L275.333 629.333C275.443 629.443 275.577 629.526 275.724 629.575L278.107 630.369C278.359 630.453 278.633 630.433 278.87 630.315L280.248 629.626C280.413 629.544 280.552 629.417 280.649 629.261ZM42.2349 937.048L43.4241 939.823C43.4743 939.94 43.5462 940.046 43.6362 940.136L46.1881 942.688C46.3868 942.887 46.4927 943.16 46.48 943.441L46.0176 953.613C46.0063 953.862 45.9022 954.098 45.7257 954.274L42.2929 957.707C42.1054 957.895 41.851 958 41.5858 958H35.6231C35.5413 958 35.4599 957.99 35.3806 957.97L31.6065 957.027C31.5357 957.009 31.4671 956.984 31.4018 956.951L28.7981 955.649C28.6046 955.552 28.4473 955.396 28.3533 955.201C28.0027 954.474 27.5 953.347 27.5 953C27.5 952.682 27.9204 951.713 28.2604 950.994C28.4065 950.684 28.3935 950.322 28.2176 950.029L27.1425 948.238C27.0493 948.082 27 947.904 27 947.723V942.333C27 942.117 27.0702 941.906 27.2 941.733L28.5 940L31.2391 936.804C31.4066 936.609 31.6429 936.486 31.8989 936.46L36.405 936.009C36.4682 936.003 36.5318 936.003 36.5951 936.009L41.4062 936.446C41.772 936.479 42.0902 936.71 42.2349 937.048ZM139.454 952.847L138.5 960L137.1 965.598C137.036 965.855 136.872 966.077 136.645 966.213L132.238 968.858C132.082 968.951 131.904 969 131.723 969H128.571C128.524 969 128.476 968.997 128.43 968.99L121.631 968.019C121.544 968.006 121.459 967.982 121.378 967.948L114.5 965L107.565 961.037C107.522 961.012 107.48 960.985 107.441 960.954L98 953.5L92.1503 948.138C92.0511 948.047 91.9713 947.937 91.9156 947.814L89.5683 942.65C89.5231 942.551 89.4944 942.445 89.4837 942.336C89.3125 940.612 89 937.275 89 936.5V931.35C89 931.123 89.0773 930.903 89.2191 930.726L90.7662 928.792C90.917 928.604 91.1308 928.476 91.3682 928.433L95.9845 927.594C96.3074 927.535 96.6382 927.638 96.8702 927.87L98.5 929.5C98.8435 929.844 100.441 930.949 101.519 931.677C101.816 931.878 102.198 931.901 102.519 931.74L103.721 931.14C103.903 931.049 104.108 931.015 104.309 931.044L107.5 931.5L109.5 932C110.833 932.5 113.6 933.5 114 933.5C114.4 933.5 115.167 935.5 115.5 936.5L115.886 938.431C115.957 938.783 116.209 939.077 116.561 939.146C117.084 939.249 117.717 939.283 118 939L120.334 936.666C120.443 936.557 120.577 936.474 120.724 936.425L123.152 935.616C123.377 935.541 123.62 935.548 123.841 935.634C124.742 935.985 126.149 936.5 126.5 936.5C127 936.5 127.5 938.5 127.5 939C127.5 939.316 127.915 940.482 128.254 941.37C128.4 941.752 128.768 942 129.177 942H132.877C132.959 942 133.04 942.01 133.119 942.03L134.554 942.388C134.837 942.459 135.075 942.65 135.206 942.911L136.468 945.436C136.489 945.479 136.508 945.523 136.522 945.567L137.965 949.896C137.988 949.965 138.019 950.032 138.056 950.094L139.32 952.2C139.437 952.394 139.484 952.622 139.454 952.847ZM64.4408 830.151L64.023 834.747C64.0079 834.913 63.9516 835.073 63.8591 835.211L62.2969 837.555C62.1114 837.833 61.7992 838 61.4648 838H58.6231C58.5413 838 58.4599 837.99 58.3806 837.97L54.9018 837.1C54.6446 837.036 54.4216 836.873 54.2953 836.64C53.7938 835.713 53.1504 834.199 53.5 833.5C53.8792 832.742 54.5881 830.425 54.9447 829.192C54.9816 829.065 55.0427 828.947 55.1255 828.843L56.903 826.621C56.9673 826.541 57.0436 826.471 57.1292 826.414L59.5547 824.797C59.8329 824.611 60 824.299 60 823.965V820.781C60 820.322 60.3123 819.922 60.7575 819.811L62 819.5L65.5991 819.05C65.8563 819.018 66.1159 819.087 66.3232 819.242L67.7501 820.313C67.9128 820.435 68.0345 820.603 68.0988 820.796L68.9487 823.346C68.9827 823.448 69 823.554 69 823.662V826C69 826.5 68.5 827.5 68 828C67.6707 828.329 66.1893 828.907 65.1179 829.287C64.7434 829.42 64.4768 829.756 64.4408 830.151ZM66.3127 811.531L71 812H77.382C77.7607 812 78.107 811.786 78.2764 811.447L78.8944 810.211C78.9639 810.072 79 809.919 79 809.764V806.677C79 806.268 78.751 805.9 78.3714 805.749L76.5967 805.039C76.5324 805.013 76.471 804.981 76.4134 804.942L73.7519 803.168C73.5877 803.058 73.3958 803 73.1984 803H67C66.3408 803 64.5049 803.453 63.2263 803.798C62.7953 803.915 62.5 804.308 62.5 804.754V808.04C62.5 808.332 62.6276 808.609 62.8492 808.799L65.7614 811.295C65.9167 811.429 66.1091 811.511 66.3127 811.531ZM58.1908 810.247L56.1157 811.907C56.039 811.969 55.9536 812.019 55.8624 812.055L53.8597 812.856C53.6283 812.949 53.3706 812.951 53.1372 812.864L49.6492 811.556C49.5503 811.519 49.4585 811.467 49.3765 811.401C48.5128 810.7 47 809.381 47 809V806C47 805.289 47.79 803.999 48.3168 803.252C48.4341 803.086 48.6034 802.966 48.7963 802.901L51.3461 802.051C51.448 802.017 51.5548 802 51.6623 802H54.6972C54.8946 802 55.0877 802.058 55.2519 802.168L57.7416 803.828C57.9099 803.94 58.0402 804.101 58.1153 804.288L58.9007 806.252C58.9658 806.414 58.987 806.591 58.9622 806.765L58.556 809.608C58.52 809.86 58.3894 810.088 58.1908 810.247ZM60.2739 796.781L62.4009 795.079C62.4667 795.027 62.5256 794.966 62.5762 794.898L63.8537 793.195C63.9498 793.067 64.0137 792.918 64.0401 792.759L64.476 790.144C64.4919 790.048 64.4939 789.951 64.4819 789.855L64 786V785.118C64 784.739 63.786 784.393 63.4472 784.224L62.2111 783.606C62.0723 783.536 61.9192 783.5 61.7639 783.5H58.9142C58.649 783.5 58.3946 783.605 58.2071 783.793L56.1362 785.864C56.0462 785.954 55.9743 786.06 55.9241 786.177L54.6498 789.151C54.5533 789.376 54.5435 789.628 54.6161 789.862C54.7867 790.412 55 791.18 55 791.5C55 791.872 55.5772 793.716 55.926 794.776C55.9745 794.924 56.0571 795.057 56.1669 795.167L57.7071 796.707C57.8946 796.895 58.149 797 58.4142 797H59.6492C59.8763 797 60.0966 796.923 60.2739 796.781ZM74.0559 754.149L76.9618 761.898C76.9872 761.966 77.0052 762.036 77.0154 762.108L77.9701 768.791C77.9898 768.929 78.0382 769.061 78.1121 769.179L80.4113 772.858C80.47 772.952 80.5127 773.055 80.5377 773.163L81.9563 779.311C81.9852 779.436 82.0378 779.554 82.1115 779.659L85.4498 784.428C85.4832 784.476 85.5207 784.521 85.5619 784.562L88.1216 787.122C88.358 787.358 88.4606 787.697 88.395 788.025L87.6927 791.536C87.5857 792.071 87.0699 792.422 86.5332 792.324L82.0699 791.513C82.0234 791.504 81.9775 791.492 81.9326 791.478L76.0982 789.533C76.0329 789.511 75.97 789.483 75.9106 789.448L70.1895 786.111C70.0647 786.038 69.9571 785.939 69.8742 785.82L66.5422 781.06C66.5141 781.02 66.489 780.978 66.4671 780.934L64.1056 776.211C64.0361 776.072 64 775.919 64 775.764V770.623C64 770.541 64.01 770.46 64.0299 770.381L65.5 764.5L68 757.5L69.7721 752.184C69.9082 751.775 70.2903 751.5 70.7208 751.5H71.5194C71.8232 751.5 72.1105 751.638 72.3002 751.875L73.9005 753.876C73.9664 753.958 74.0189 754.05 74.0559 754.149ZM85.5 825.87V830.746C85.5 831.192 85.204 831.585 84.7747 831.707L82.423 832.379C82.1535 832.456 81.9286 832.643 81.8033 832.893L80.5551 835.39C80.5185 835.463 80.491 835.54 80.4733 835.62L79.5238 839.893C79.508 839.964 79.5 840.037 79.5 840.11V845L79.0153 849.847C79.0052 849.948 78.9796 850.048 78.9394 850.141L74.5499 860.383C74.5168 860.461 74.4935 860.542 74.4807 860.625L73.5993 866.355C73.5389 866.747 73.7161 867.137 74.0508 867.35L79 870.5L83.3036 873.369C83.4328 873.455 83.5401 873.57 83.6171 873.705L85.4105 876.843C85.4697 876.947 85.5469 877.039 85.6386 877.115L91.343 881.869C91.4466 881.955 91.5666 882.02 91.6958 882.059L95.8429 883.303C96.2389 883.422 96.5209 883.772 96.5526 884.184L96.9824 889.771C96.994 889.922 97.0395 890.068 97.1157 890.198L100.452 895.917C100.484 895.972 100.521 896.024 100.563 896.072L103.805 899.777C103.932 899.922 104.015 900.102 104.042 900.294L105 907L105.468 913.081C105.488 913.349 105.4 913.614 105.223 913.816L102 917.5L98.7929 920.707C98.6054 920.895 98.5 921.149 98.5 921.414V922.54C98.5 922.832 98.6276 923.109 98.8492 923.299L101.772 925.804C101.921 925.932 102.104 926.013 102.298 926.037L109.63 926.954C109.869 926.984 110.089 927.098 110.249 927.277L114.202 931.669C114.392 931.88 114.662 932 114.945 932H118.086C118.351 932 118.605 931.895 118.793 931.707L122.207 928.293C122.395 928.105 122.649 928 122.914 928H125.058C125.339 928 125.608 928.119 125.798 928.327L130.238 933.212C130.407 933.397 130.638 933.513 130.888 933.535L135.576 933.961C135.847 933.986 136.096 934.12 136.266 934.333L137.835 936.294C137.943 936.429 138.084 936.534 138.245 936.598L142.525 938.31C142.823 938.429 143.046 938.685 143.124 938.996L144.722 945.389C144.869 945.976 145.501 946.3 146.064 946.075L149.821 944.572C149.939 944.524 150.065 944.5 150.193 944.5H153C153.552 944.5 154 944.948 154 945.5V947.338C154 947.445 153.983 947.552 153.949 947.654L153.155 950.036C153.057 950.329 153.1 950.65 153.271 950.907L153.703 951.555C153.889 951.833 154.201 952 154.535 952H160.853C160.951 952 161.047 951.986 161.141 951.958L165.857 950.543C165.952 950.514 166.042 950.472 166.124 950.417L170.248 947.668C170.412 947.558 170.605 947.5 170.803 947.5H176.36C176.453 947.5 176.545 947.487 176.635 947.462L179.751 946.571C179.914 946.525 180.063 946.437 180.183 946.317L184.398 942.102C184.466 942.034 184.523 941.957 184.569 941.874L187.418 936.65C187.472 936.551 187.543 936.461 187.627 936.386L192.215 932.257C192.398 932.091 192.637 932 192.884 932H199.185C199.39 932 199.59 932.063 199.758 932.181L204.242 935.319C204.41 935.437 204.61 935.5 204.815 935.5H211.723C211.904 935.5 212.082 935.451 212.238 935.357L217 932.5L223.384 928.08C223.461 928.027 223.53 927.963 223.589 927.891L227.953 922.557C227.984 922.519 228.018 922.483 228.055 922.45L233.27 917.709C233.42 917.573 233.607 917.485 233.808 917.458L244.5 916L255.5 915H262.152C262.377 915 262.596 914.924 262.773 914.784L276.87 903.603C276.956 903.535 277.03 903.453 277.09 903.36L281.444 896.588C281.481 896.529 281.512 896.467 281.537 896.403L285.435 886.171C285.478 886.058 285.541 885.954 285.622 885.863L289.444 881.563C289.481 881.521 289.522 881.482 289.566 881.447L294.293 877.666C294.429 877.557 294.59 877.486 294.762 877.459L303.708 876.046C303.899 876.016 304.093 876.041 304.269 876.121C305.831 876.826 308.5 878.123 308.5 878.5C308.5 878.863 311.517 881.448 313.446 883.044C313.777 883.318 314.245 883.347 314.608 883.12L325.695 876.191C325.892 876.067 326.04 875.879 326.114 875.659L326.949 873.154C326.983 873.052 327 872.945 327 872.838V857.5C327 856.948 327.448 856.5 328 856.5H342.157C342.379 856.5 342.595 856.426 342.771 856.289L346.802 853.154C346.932 853.053 347.035 852.921 347.102 852.771L348.736 849.094C348.897 848.733 349.255 848.5 349.65 848.5H355.734C355.908 848.5 356.079 848.455 356.231 848.368L358.996 846.788C359.308 846.61 359.5 846.279 359.5 845.92V841.588C359.5 841.225 359.697 840.891 360.014 840.714L363.788 838.618C363.927 838.54 364.046 838.431 364.134 838.298L365.862 835.708C365.952 835.571 366.075 835.459 366.22 835.382L372.128 832.2C372.366 832.072 372.542 831.854 372.616 831.594L373.5 828.5L374.908 825.214C374.969 825.073 375.06 824.948 375.177 824.849L378.219 822.241C378.4 822.085 378.631 822 378.87 822H385.231C385.407 822 385.58 821.954 385.732 821.865L394.673 816.689C394.884 816.567 395.132 816.526 395.37 816.574L399.903 817.481C399.967 817.493 400.033 817.5 400.099 817.5H400.68C401.157 817.5 401.567 817.164 401.661 816.696L402.481 812.597C402.493 812.533 402.5 812.467 402.5 812.401V808.712C402.5 808.572 402.529 808.434 402.586 808.306L404.465 804.079C404.488 804.027 404.507 803.972 404.521 803.916L405.403 800.39C405.465 800.14 405.429 799.875 405.301 799.651L403.635 796.737C403.547 796.582 403.418 796.453 403.263 796.365L400.887 795.007C400.4 794.729 400.237 794.105 400.526 793.624L401.5 792L403.332 789.252C403.442 789.088 403.5 788.895 403.5 788.697V783.65C403.5 783.551 403.485 783.452 403.456 783.356L401.524 777.079C401.508 777.026 401.488 776.975 401.463 776.926L398.67 771.34C398.561 771.121 398.374 770.95 398.147 770.859L396.796 770.318C396.338 770.135 396.082 769.645 396.193 769.165L397.5 763.5L398.337 760.152C398.436 759.758 398.763 759.462 399.166 759.405L405.076 758.561C405.347 758.522 405.59 758.374 405.749 758.152L407.954 755.064C407.985 755.021 408.012 754.977 408.035 754.93L408.724 753.553C408.893 753.214 409.239 753 409.618 753H414.279C414.71 753 415.092 752.725 415.228 752.316L415.949 750.154C415.983 750.052 416 749.945 416 749.838V745.64C416 745.547 415.987 745.455 415.962 745.365L415.194 742.678C415.078 742.272 415.23 741.836 415.574 741.59L418.351 739.607C418.449 739.536 418.534 739.448 418.602 739.347L420.426 736.611C420.475 736.537 420.514 736.457 420.542 736.373L421.78 732.661C421.912 732.264 421.783 731.826 421.456 731.564L419.597 730.078C419.533 730.026 419.462 729.983 419.386 729.948L414 727.5L409.095 725.047C409.032 725.016 408.972 724.978 408.917 724.934L406.749 723.199C406.587 723.07 406.469 722.893 406.412 722.693L405.707 720.225C405.585 719.796 405.192 719.5 404.746 719.5H398.159C397.759 719.5 397.398 719.738 397.24 720.106L396.26 722.394C396.102 722.762 395.741 723 395.341 723H393.376C392.874 723 392.451 722.629 392.384 722.132L391.583 716.119C391.532 715.74 391.27 715.423 390.908 715.303L387.243 714.081C387.084 714.028 386.913 714.016 386.748 714.046L382.065 714.897C381.715 714.961 381.358 714.834 381.126 714.564L378.566 711.577C378.522 711.526 378.473 711.479 378.42 711.438L374.153 708.119C374.052 708.04 373.937 707.982 373.814 707.947L370.635 707.038C370.545 707.013 370.453 707 370.36 707H368.566C368.215 707 367.889 706.816 367.709 706.514L366.703 704.839C366.573 704.621 366.364 704.461 366.12 704.392L359.5 702.5L355.854 701.589C355.625 701.531 355.424 701.395 355.286 701.204L349.047 692.565C349.016 692.522 348.981 692.481 348.943 692.443L342 685.5L338.569 681.089C338.523 681.03 338.471 680.976 338.413 680.929L333.16 676.631C333.054 676.545 332.932 676.481 332.801 676.443L326.135 674.538C326.045 674.513 325.953 674.5 325.86 674.5H319.09C319.03 674.5 318.97 674.505 318.911 674.516L313.665 675.47C313.556 675.49 313.444 675.491 313.334 675.474L307.129 674.52C307.043 674.507 306.96 674.482 306.88 674.448L299 671L292.086 667.049C292.029 667.016 291.969 666.99 291.906 666.969L289.154 666.051C289.052 666.017 288.945 666 288.838 666H285.188C285.064 666 284.941 666.023 284.825 666.068L276 669.5L266.5 673.5L260.248 675.905C260.086 675.967 259.909 675.986 259.737 675.96L253.783 675.044C253.598 675.015 253.409 675.039 253.237 675.113L250.314 676.365C250.111 676.453 249.942 676.605 249.834 676.799L247.786 680.486C247.609 680.803 247.275 681 246.912 681H239.205C239.07 681 238.936 680.972 238.811 680.919L235.971 679.702C235.675 679.575 235.459 679.314 235.389 679L234.664 675.737C234.567 675.301 234.192 674.982 233.746 674.956L226.08 674.505C226.027 674.502 225.974 674.494 225.922 674.483L221.847 673.577C221.622 673.527 221.388 673.556 221.182 673.659L216.62 675.94C216.54 675.98 216.456 676.009 216.369 676.026L215.69 676.162C214.937 676.313 214.302 675.594 214.545 674.865L216.19 669.929C216.362 669.413 216.09 668.854 215.578 668.671L209.752 666.59C209.587 666.531 209.409 666.517 209.237 666.548L204.738 667.366C204.301 667.445 203.863 667.227 203.665 666.829L201.822 663.145C201.63 662.76 201.705 662.295 202.01 661.99L202.293 661.707C202.923 661.077 202.477 660 201.586 660H192.82C192.612 660 192.409 659.935 192.239 659.814L189 657.5L186.738 656.143C186.582 656.049 186.404 656 186.223 656H181.018C180.693 656 180.389 655.842 180.201 655.577L174.561 647.586C174.52 647.529 174.486 647.468 174.459 647.403L172.11 641.923C171.824 641.256 170.944 641.106 170.454 641.641L160.665 652.32C160.557 652.438 160.421 652.529 160.27 652.584L155.106 654.461C155.036 654.487 154.968 654.521 154.905 654.562L146.573 659.953C146.525 659.984 146.479 660.02 146.436 660.059L139.668 666.344C139.557 666.447 139.425 666.523 139.281 666.567L133.144 668.456C133.048 668.485 132.949 668.5 132.85 668.5H127.791C127.601 668.5 127.415 668.446 127.254 668.344L122.246 665.156C122.085 665.054 121.899 665 121.709 665H120.09C120.03 665 119.97 664.995 119.911 664.984L114.704 664.037C114.569 664.013 114.441 663.961 114.328 663.885L105.5 658L97.1654 653.097C97.0561 653.033 96.9357 652.99 96.8104 652.971L90.5756 652.012C90.5253 652.004 90.4744 652 90.4235 652H78.8866C78.6378 652 78.398 652.093 78.2139 652.26L73.1382 656.874C73.0469 656.957 72.9717 657.057 72.9165 657.167L69.5428 663.914C69.5143 663.971 69.4914 664.031 69.4742 664.092L66 676.5L63.5769 682.315C63.5261 682.437 63.5 682.568 63.5 682.7V687.657C63.5 687.879 63.5741 688.095 63.7106 688.271L66.9178 692.394C66.9724 692.464 67.036 692.527 67.1071 692.58L72.8857 696.914C72.9615 696.971 73.0289 697.038 73.0857 697.114L77.3 702.733C77.4298 702.906 77.5 703.117 77.5 703.333V710.649C77.5 710.876 77.4227 711.097 77.2809 711.274L75.696 713.255C75.5684 713.414 75.4927 713.609 75.4791 713.813L75.0234 720.649C75.0083 720.876 75.0713 721.102 75.202 721.289L78.5 726L83.4236 732.893C83.4743 732.964 83.5155 733.041 83.5462 733.123L86.4718 740.925C86.4906 740.975 86.5133 741.023 86.5399 741.07L90.4613 747.932C90.4871 747.977 90.5163 748.02 90.5487 748.061L92.3973 750.372C92.4653 750.457 92.519 750.552 92.5562 750.655L94.4645 755.902C94.4881 755.967 94.5049 756.034 94.5147 756.103L94.9061 758.843C94.963 759.241 94.7757 759.635 94.4306 759.842L92.7889 760.827C92.6015 760.939 92.4561 761.11 92.3749 761.313L91.6766 763.059C91.5649 763.338 91.5848 763.653 91.7309 763.916L94 768L95.2596 769.679C95.4139 769.885 95.6415 770.024 95.8952 770.066L97.6644 770.361C98.1466 770.441 98.5 770.858 98.5 771.347V771.485C98.5 771.808 98.344 772.111 98.0812 772.299L95.4477 774.18C95.169 774.379 95.0115 774.707 95.0305 775.049L95.5 783.5L95.0238 790.643C95.0084 790.874 95.0734 791.103 95.2078 791.291L97.1822 794.055C97.3802 794.332 97.4235 794.691 97.2969 795.008L96.5387 796.903C96.513 796.968 96.4806 797.029 96.4422 797.087L95.668 798.248C95.5584 798.412 95.5 798.605 95.5 798.802V803.5C95.5 804.231 94.6657 805.851 94.1402 806.762C94.0495 806.919 94 807.096 94 807.277V817.026C94 817.326 93.8654 817.61 93.6332 817.8L88.5685 821.944C88.5229 821.981 88.4807 822.022 88.4424 822.067L85.7407 825.219C85.5854 825.4 85.5 825.631 85.5 825.87ZM25.5 690.5C25.5 690.9 27.1667 695.667 28 698V705.5L27 712.5L24.5 716.5L23 720.649V730L24 732.893V737.5L21.5 740L20.5 744L18 745.5C16.6667 745.167 13.9 744.5 13.5 744.5C13.1 744.5 11.3333 743.167 10.5 742.5L10 740V736.5L10.5 734L7 730.5L5.5 724.5L5 719L6.5 715L11.5 713.813L13 710.649L11.5 709.5L9.5 707L8 704V701.5C8.33333 700.833 9.1 699.5 9.5 699.5C9.9 699.5 11.3333 698.833 12 698.5H16L16.5 696.914L16 692.394L16.5 689.5L19 689H23L25.5 690.5ZM378.219 834.5L383.5 837.5L398 836.5L401.661 834.5V832.2L400.887 829L399.903 825.214L397 821.865L390.5 822L388.5 826L385 828H380C379 828.333 377 829.1 377 829.5C377 829.9 376.667 830.667 376.5 831L378.219 834.5Z" stroke="#57B9A0"/>
</svg>
