<svg width="2048" height="1056" viewBox="0 0 2048 1056" fill="none" xmlns="http://www.w3.org/2000/svg">
<g clip-path="url(#clip0_3966_1767)">
<path d="M997.5 763L1002.5 755V750C1001.5 748.333 999.5 744.9 999.5 744.5C999.5 744.1 998.166 743.333 997.5 743L992.5 742L988 743L987 739H983L957 734.5L928 725.5L900.5 717H839.5L815 705H780L744.5 701.5L710.5 691H663L667 695.5L669.5 699L671.5 701.5L670 705L671 707.5C673.333 710.167 678.1 715.8 678.5 717C678.9 718.2 685 723.167 688 725.5L691.5 730.5L694.5 734.5C695.333 735.833 697.1 738.6 697.5 739C697.9 739.4 698.666 742.167 699 743.5C702.666 743.333 710.1 743.1 710.5 743.5C710.9 743.9 717.333 744.667 720.5 745L735 748L744.5 752C746.166 753 749.6 755.1 750 755.5C750.4 755.9 754.5 759 756.5 760.5L761 766.5C762.333 768.167 765.2 771.6 766 772C766.8 772.4 770.333 773.167 772 773.5L775.5 772.5L780 772L784 772.5L788.5 773.5L791.5 774.5L794 776.5L795.5 778.5L797 782C797.333 782.833 798 784.6 798 785C798 785.5 799 787.5 799 788C799 788.4 799.333 789.167 799.5 789.5C800 789.833 801 790.7 801 791.5C801 792.5 803.5 792 804 792C804.4 792 805.833 792.333 806.5 792.5L809.5 790.5C810.167 790.667 811.6 791.1 812 791.5L815 794.5C817.167 795.333 821.6 797.1 822 797.5C822.4 797.9 827.833 797.667 830.5 797.5C833.333 797 839.1 796 839.5 796C839.9 796 846 795.333 849 795L855.5 798L861.5 802.5C864 803.833 869.2 806.5 870 806.5C870.8 806.5 874 807.5 875.5 808L881 804.5C881.333 805.167 882.4 806.5 884 806.5C885.6 806.5 891 805.167 893.5 804.5H914L924.5 806.5L939 808H952L960.5 801.5L969 794L983 790C987.333 789 996.3 787 997.5 787H1002.5L1001 780L999.5 771.5L997.5 763Z" fill="#9C84D8" fill-opacity="0.9"/>
<path d="M573.5 1053.86V1056C573.5 1056.55 573.948 1057 574.5 1057H671.834C672.447 1057 672.916 1056.45 672.823 1055.85L672.011 1050.58C672.004 1050.53 671.992 1050.48 671.977 1050.43L669.043 1041.14C669.014 1041.05 668.973 1040.96 668.921 1040.88L666.273 1036.91C666.101 1036.65 665.818 1036.49 665.508 1036.47L658.978 1036.03C658.676 1036.01 658.399 1035.86 658.225 1035.61L655 1031L650.576 1022.64C650.525 1022.55 650.491 1022.45 650.473 1022.34L649.533 1016.7C649.511 1016.57 649.464 1016.44 649.394 1016.33L644.572 1008.62C644.524 1008.54 644.466 1008.47 644.4 1008.41L638.635 1003.12C638.545 1003.04 638.442 1002.98 638.33 1002.93L636.179 1002.07C636.061 1002.02 635.934 1002 635.807 1002H631.851C631.624 1002 631.403 1001.92 631.226 1001.78L629.061 1000.05C629.02 1000.02 628.977 999.987 628.932 999.961L622.23 996.132C622.079 996.045 621.908 996 621.734 996H613.851C613.624 996 613.403 996.077 613.226 996.219L611.531 997.575C611.21 997.832 610.766 997.866 610.41 997.663L607.73 996.132C607.579 996.045 607.408 996 607.234 996H605.883C605.378 996 604.953 996.376 604.89 996.876L604.518 999.853C604.506 999.951 604.48 1000.05 604.44 1000.14L602.586 1004.31C602.529 1004.43 602.5 1004.57 602.5 1004.71V1011.84C602.5 1011.95 602.517 1012.05 602.551 1012.15L603.357 1014.57C603.448 1014.84 603.417 1015.14 603.272 1015.39L600 1021L597.081 1027.81C597.027 1027.94 597 1028.07 597 1028.21V1039.09C597 1039.35 596.894 1039.61 596.707 1039.79L594.742 1041.76C594.585 1041.91 594.38 1042.01 594.159 1042.04L586.598 1042.99C586.533 1043 586.468 1043.01 586.406 1043.03L582.191 1044.44C582.065 1044.48 581.948 1044.55 581.848 1044.63L578.063 1047.95C578.021 1047.98 577.982 1048.02 577.947 1048.06L573.726 1053.22C573.58 1053.4 573.5 1053.63 573.5 1053.86Z" fill="#9C84D8" fill-opacity="0.9"/>
<path d="M707.589 1051.7L709.754 1056.46C709.906 1056.79 710.227 1057.02 710.592 1057.04L736.529 1058.93C737.069 1058.97 737.543 1058.57 737.597 1058.03L738 1054C738.167 1053.17 738.5 1051.3 738.5 1050.5C738.5 1049.74 740.624 1046.79 741.832 1045.22C741.942 1045.07 742.011 1044.91 742.035 1044.73C742.222 1043.32 742.625 1040.87 743 1040.5C743.392 1040.11 742.854 1036.79 742.519 1035.1C742.506 1035.03 742.5 1034.97 742.5 1034.9V1033.54C742.5 1033.2 742.333 1032.89 742.055 1032.7L739.752 1031.17C739.587 1031.06 739.394 1031 739.197 1031H735.803C735.605 1031 735.412 1030.94 735.248 1030.83L734.445 1030.3C734.167 1030.11 734 1029.8 734 1029.46V1028.74C734 1028.58 734.036 1028.43 734.105 1028.29L735.394 1025.71C735.464 1025.57 735.5 1025.42 735.5 1025.26V1021.5C735.5 1021.14 735.236 1019.44 735.06 1018.37C735.022 1018.13 734.899 1017.92 734.715 1017.76L732.278 1015.73C732.098 1015.58 731.872 1015.5 731.638 1015.5H728.5H725.5L721.098 1015.94C720.73 1015.98 720.372 1015.81 720.166 1015.5L718.724 1013.34C718.58 1013.12 718.526 1012.86 718.572 1012.6L719.386 1008.12C719.456 1007.74 719.299 1007.36 718.984 1007.13L716.337 1005.24C716.121 1005.09 715.853 1005.02 715.591 1005.07L713 1005.5L707.708 1005.98C707.571 1005.99 707.432 1005.98 707.301 1005.93L704.6 1005.03C704.534 1005.01 704.465 1005 704.395 1004.99L700.206 1004.52C700.07 1004.51 699.939 1004.47 699.82 1004.4L696.576 1002.54C696.525 1002.51 696.477 1002.48 696.432 1002.44L693.778 1000.23C693.598 1000.08 693.372 1000 693.138 1000H692.118C691.739 1000 691.393 1000.21 691.223 1000.55L691.105 1000.79C691.036 1000.93 691 1001.08 691 1001.24V1005.26C691 1005.42 691.036 1005.57 691.105 1005.71L693.5 1010.5L696.416 1015.85C696.472 1015.95 696.544 1016.04 696.63 1016.12L700.873 1019.89C700.957 1019.96 701.053 1020.02 701.157 1020.06L709.5 1023.5L712.795 1025.38C712.93 1025.46 713.045 1025.57 713.131 1025.7L714.942 1028.41C714.98 1028.47 715.013 1028.53 715.038 1028.6L715.889 1030.72C715.961 1030.9 715.98 1031.1 715.942 1031.29L715.566 1033.17C715.523 1033.38 715.41 1033.58 715.244 1033.72L711.6 1036.91C711.533 1036.97 711.475 1037.04 711.426 1037.11L707.668 1042.75C707.558 1042.91 707.5 1043.11 707.5 1043.3V1051.28C707.5 1051.43 707.53 1051.57 707.589 1051.7Z" fill="#9C84D8" fill-opacity="0.9"/>
<path d="M825.879 1031.56L813.211 1037.89C813.072 1037.96 812.919 1038 812.764 1038H811C810.448 1038 810 1037.55 810 1037V1036.5V1031.5C810 1031.04 810.099 1030.81 810.24 1030.72C810.661 1030.45 811.298 1030.78 811.666 1030.45C812.304 1029.86 813 1029.08 813 1028.5C813 1027.77 812.178 1027.27 811.652 1027.06C811.552 1027.02 811.445 1027 811.338 1027H809.333C809.117 1027 808.906 1026.93 808.736 1026.8C808.011 1026.22 806.853 1025.21 806.5 1024.5C806.148 1023.8 806.286 1021.75 806.438 1020.47C806.474 1020.17 806.649 1019.91 806.908 1019.76C807.838 1019.2 809.313 1018.34 810 1018C810.759 1017.62 811.879 1015.41 812.418 1014.19C812.473 1014.06 812.5 1013.93 812.5 1013.8V1008C812.5 1007 813 1004.5 813 1004V1002.5C813 1001.95 813.448 1001.5 814 1001.5H818.264C818.419 1001.5 818.572 1001.54 818.711 1001.61L821.354 1002.93C821.881 1003.19 822.5 1002.81 822.5 1002.22C822.5 1002.08 822.461 1001.94 822.387 1001.81L821.056 999.594C821.019 999.532 820.988 999.465 820.965 999.396L820.116 996.848C820.041 996.623 820.048 996.379 820.136 996.16L821 994L821.382 992.473C821.456 992.175 821.664 991.927 821.945 991.801C823.54 991.082 826.136 989.864 826.5 989.5C827 989 831 989 832 988.5C832.737 988.131 835.232 988.584 836.661 988.918C836.882 988.97 837.112 988.949 837.318 988.856L842.303 986.59C842.433 986.531 842.574 986.5 842.716 986.5H846.807C846.934 986.5 847.061 986.476 847.179 986.428L849.425 985.53C849.475 985.51 849.526 985.494 849.579 985.482L853.752 984.555C853.915 984.519 854.084 984.524 854.244 984.57L856.892 985.326C857.263 985.432 857.54 985.743 857.604 986.123L857.965 988.288C857.988 988.428 858.04 988.561 858.119 988.679L858.55 989.325C858.812 989.718 859.313 989.873 859.758 989.713C860.676 989.383 861.894 989 862.5 989C863.5 989 866 988.5 867 989C868 989.5 869.5 992.5 869.5 993.5C869.5 994.263 869.803 996.298 869.975 997.352C869.992 997.451 870.022 997.545 870.068 997.634C870.429 998.33 871.125 999.5 871.5 999.5C872 999.5 870 1003 870 1003.5C870 1004 865.5 1005 865 1005H856.5L851.712 1004.52C851.572 1004.51 851.437 1004.46 851.315 1004.39L844.73 1000.63C844.579 1000.55 844.408 1000.5 844.234 1000.5H837.315C837.11 1000.5 836.91 1000.56 836.742 1000.68L832.426 1003.7C832.159 1003.89 832 1004.19 832 1004.52V1019.5L831.048 1026.64C831.017 1026.87 830.903 1027.09 830.726 1027.25L826.1 1031.41C826.034 1031.47 825.959 1031.52 825.879 1031.56Z" fill="#9C84D8" fill-opacity="0.9"/>
<path d="M1073.32 1009.06L1063.66 1012.44C1063.55 1012.48 1063.44 1012.5 1063.33 1012.5H1053.5H1047C1046 1012.5 1043 1012.5 1043 1011C1043 1009.5 1038.5 1007 1037.5 1007H1035.5H1031.5H1027.5C1025.5 1007 1024.5 1007 1023 1005.5C1021.5 1004 1021.5 1006 1020.5 1005.5C1019.5 1005 1017 1004.5 1016 1004.5C1015.29 1004.5 1014.52 1002.11 1014.13 1000.53C1014.04 1000.2 1014.15 999.854 1014.39 999.612L1014.89 999.105C1014.96 999.035 1015.02 998.956 1015.07 998.869L1018.6 992.245C1018.83 991.815 1019.34 991.613 1019.8 991.762C1021.43 992.285 1023.82 993 1024.5 993C1025.11 993 1025.75 992.422 1026.18 991.926C1026.39 991.671 1026.7 991.5 1027.03 991.5H1033H1039.5C1040.61 991.5 1042.65 990.364 1043.75 989.665C1043.91 989.559 1044.11 989.5 1044.3 989.5H1054.2C1054.39 989.5 1054.59 989.442 1054.75 989.332L1058.87 986.587C1058.96 986.529 1059.05 986.486 1059.15 986.458C1060.37 986.113 1062.73 985.5 1063.5 985.5C1064.3 985.5 1067.5 987.167 1069 988C1069.67 988.333 1071.3 989 1072.5 989C1073.64 989 1076.39 991.425 1077.8 992.806C1077.93 992.933 1078.09 993.023 1078.27 993.067L1083.67 994.418C1083.88 994.471 1084.07 994.593 1084.21 994.764L1085.47 996.337C1085.78 996.72 1085.76 997.267 1085.43 997.631L1081.5 1002L1073.65 1008.87C1073.55 1008.96 1073.44 1009.02 1073.32 1009.06Z" fill="#9C84D8" fill-opacity="0.9"/>
<path d="M937.852 852.082L928.079 857.456C928.026 857.485 927.971 857.51 927.914 857.529L923.724 858.925C923.576 858.974 923.443 859.057 923.333 859.167L922.479 860.021C922.189 860.31 922.105 860.746 922.267 861.122L923.383 863.727C923.459 863.905 923.587 864.055 923.74 864.175C924.292 864.607 925.155 865.467 925.5 866.5C926 868 928 869 928 869.5C928 869.865 929.112 870.814 929.812 871.357C929.935 871.452 930.033 871.574 930.122 871.702C930.363 872.048 930.841 872.5 931.5 872.5H935C936.139 872.5 937.367 871.9 937.917 871.553C937.973 871.518 938.023 871.477 938.07 871.43L938.764 870.736C938.917 870.583 939.015 870.385 939.051 870.171C939.261 868.928 939.769 866.865 940.5 866.5C941.202 866.149 941.442 867.057 941.49 867.735C941.502 867.908 941.545 868.079 941.632 868.23C942.352 869.472 943.749 871.749 944.5 872.5C945.224 873.225 946.824 873.184 947.738 873.046C947.91 873.02 948.086 873.03 948.253 873.08C948.833 873.255 949.814 873.5 950.5 873.5C951.218 873.5 951.991 872.962 952.382 872.611C952.462 872.539 952.524 872.451 952.572 872.355L953.5 870.5C953.837 869.826 953.961 868.161 953.992 867.054C954.001 866.709 954.177 866.389 954.47 866.206L957.658 864.214C957.877 864.077 958.035 863.86 958.098 863.608L958.5 862L958.986 859.082C958.995 859.027 959 858.973 958.999 858.918C958.989 858.368 958.88 857.139 958.5 856C958.184 855.052 958.471 854.666 958.77 854.545C958.914 854.487 959.072 854.464 959.211 854.394L961 853.5C961.833 853.167 963.7 852.4 964.5 852C965.119 851.691 965.778 851.162 966.198 850.784C966.396 850.607 966.5 850.351 966.5 850.086V847.333C966.5 847.117 966.43 846.907 966.299 846.734C965.749 846.009 964.852 844.853 964.5 844.5C964.1 844.1 960 844 958 844H950.662C950.555 844 950.449 844.017 950.347 844.051C948.293 844.737 944.28 846.11 943.5 846.5C942.719 846.89 939.654 850.168 938.112 851.875C938.037 851.958 937.95 852.028 937.852 852.082Z" fill="#9C84D8" fill-opacity="0.9"/>
<path d="M1346.96 874.149C1346.62 870.955 1345.92 864.985 1345.53 863.603C1345.51 863.533 1345.48 863.468 1345.44 863.406L1344 861L1343.07 859.145C1343.02 859.049 1342.96 858.962 1342.89 858.884C1342.54 858.512 1342 857.859 1342 857.5C1342 857.1 1341.33 856.333 1341 856C1340.67 855.667 1339.9 855 1339.5 855C1339 855 1338.5 854.5 1338.5 854C1338.5 853.5 1337.5 854 1337 853.5C1336.5 853 1336 853.5 1335.5 853.5C1335.27 853.5 1335.02 853.386 1334.82 853.258C1334.6 853.113 1334.35 853 1334.09 853H1332.5C1332.15 853 1331.77 852.743 1331.57 852.568C1331.52 852.524 1331.47 852.482 1331.42 852.446C1330.89 852.099 1329.88 851.5 1329.5 851.5C1329 851.5 1329 850 1328.5 849.5L1327.57 848.57C1327.52 848.523 1327.48 848.473 1327.45 848.418C1327.1 847.888 1326.5 846.879 1326.5 846.5C1326.5 846.172 1326.05 845.822 1325.71 845.614C1325.57 845.534 1325.42 845.5 1325.26 845.5H1324H1320C1319 845.5 1318 845.5 1317.5 846C1317 846.5 1317 846 1316.5 846.5C1316 847 1315.5 847.5 1315.5 848V850.5C1315.5 850.852 1315.76 852.006 1315.93 852.731C1315.98 852.907 1316.07 853.068 1316.2 853.196L1318.45 855.45C1318.48 855.483 1318.52 855.514 1318.56 855.542C1319.24 856.054 1320.61 857 1321 857C1321.5 857 1322 858.5 1322.5 859C1323 859.5 1322.5 860 1322.5 860.5C1322.5 860.873 1323.08 862.437 1323.43 863.321C1323.48 863.44 1323.5 863.565 1323.5 863.693V865.338C1323.5 865.445 1323.52 865.552 1323.55 865.654L1323.98 866.933C1323.99 866.977 1324.01 867.021 1324.03 867.064L1325.5 870C1325.83 870.833 1326.6 872.5 1327 872.5C1327.4 872.5 1327.5 874.833 1327.5 876C1327.5 876.4 1329.17 879.167 1330 880.5L1332.96 885.428C1332.99 885.476 1333.02 885.521 1333.05 885.563C1334.08 886.748 1336.32 889 1337.5 889C1338.43 889 1339.22 889.4 1339.68 889.735C1339.9 889.89 1340.15 890.002 1340.41 889.99C1341.14 889.955 1342.17 889.83 1342.5 889.5C1342.87 889.132 1343.27 890.149 1343.46 890.833C1343.49 890.943 1343.53 891.048 1343.59 891.145C1343.95 891.688 1344.5 892.635 1344.5 893C1344.5 893.5 1345.5 894.5 1345.5 895.5C1345.5 896.5 1347 897 1349 897.5C1351 898 1350.5 897.5 1351.5 897.5C1351.78 897.5 1351.99 897.458 1352.14 897.397C1352.47 897.265 1352.68 896.889 1352.99 896.709L1354.51 895.791C1354.82 895.611 1355 895.285 1355 894.934V885.777C1355 885.596 1354.95 885.418 1354.86 885.262L1353.54 883.069C1353.51 883.023 1353.49 882.975 1353.47 882.926L1352.55 880.623C1352.52 880.541 1352.47 880.464 1352.42 880.394L1351.04 878.557C1351.01 878.519 1350.98 878.483 1350.95 878.45L1347.25 874.75C1347.09 874.588 1346.99 874.377 1346.96 874.149Z" fill="#9C84D8" fill-opacity="0.9"/>
<path d="M1284.59 829.493L1290.57 829.066C1291.09 829.029 1291.5 828.594 1291.5 828.069V826.414C1291.5 826.149 1291.39 825.895 1291.21 825.707L1290.64 825.136C1290.55 825.046 1290.44 824.974 1290.32 824.924L1287.08 823.536C1287.03 823.512 1286.97 823.483 1286.92 823.449C1286.41 823.094 1285.5 822.381 1285.5 822C1285.5 821.628 1284.64 820.653 1284.11 820.115C1284.04 820.038 1283.95 819.975 1283.85 819.927L1282.14 819.073C1282.05 819.025 1281.95 818.992 1281.84 818.977L1278.81 818.544C1278.61 818.515 1278.4 818.549 1278.22 818.64L1275.5 820C1274.5 820.5 1274.5 820 1274 820C1273.5 820 1273 819.5 1272.5 819C1272 818.5 1270.5 817 1270.5 816.5C1270.5 816.109 1267.95 814.089 1266.59 813.065C1266.53 813.021 1266.48 812.972 1266.43 812.917L1263.7 809.728C1263.57 809.579 1263.4 809.471 1263.21 809.418C1261.97 809.069 1259.87 808.5 1259.5 808.5C1259.16 808.5 1258.09 808.262 1257.36 808.088C1257.13 808.032 1256.88 808.057 1256.67 808.174C1256.3 808.385 1255.8 808.702 1255.5 809C1255.22 809.276 1254.77 809.409 1254.41 809.465C1254.15 809.506 1253.9 809.607 1253.7 809.783C1253.32 810.114 1252.8 810.5 1252.5 810.5C1252 810.5 1251.5 811.5 1250.5 811.5C1249.7 811.5 1249.17 810.833 1249 810.5L1248.55 809.595C1248.52 809.532 1248.48 809.472 1248.43 809.417C1247.74 808.562 1246.39 807 1246 807C1245.69 807 1245.35 806.591 1245.14 806.254C1245.04 806.092 1244.91 805.948 1244.75 805.85L1242.74 804.643C1242.58 804.549 1242.4 804.5 1242.22 804.5H1239.16C1239.05 804.5 1238.95 804.517 1238.85 804.551L1234.5 806C1233.5 806.333 1231.4 807 1231 807C1230.61 807 1227.94 807.642 1226.58 807.981C1226.52 807.994 1226.48 808.011 1226.43 808.032L1223.18 809.424C1223.06 809.474 1222.95 809.546 1222.86 809.636L1221.23 811.273C1221.08 811.421 1220.98 811.611 1220.95 811.816L1220.61 813.853C1220.54 814.246 1220.25 814.564 1219.86 814.649C1219.11 814.813 1218.1 815 1217.5 815H1215.33C1215.12 815 1214.91 815.07 1214.73 815.2L1213.4 816.2C1213.15 816.389 1213 816.685 1213 817V817.764C1213 817.919 1213.04 818.072 1213.11 818.211L1213.93 819.855C1213.98 819.951 1214.04 820.039 1214.11 820.115L1216.5 822.5L1218.77 825.221C1218.92 825.401 1219.13 825.523 1219.36 825.565L1224.36 826.474C1224.45 826.491 1224.54 826.522 1224.63 826.564L1227.29 827.894C1227.43 827.964 1227.58 828 1227.74 828H1230.5H1233.5C1233.88 828 1235.19 827.699 1235.89 827.526C1235.96 827.509 1236.03 827.484 1236.1 827.451L1238 826.5C1238.67 826.167 1240.2 825.6 1241 826C1242 826.5 1242 827 1242.5 827.5C1242.89 827.892 1243.32 830.239 1243.49 831.431C1243.5 831.477 1243.5 831.524 1243.5 831.571V833C1243.5 833.5 1245 834.5 1245.5 835C1246 835.5 1247.5 835.5 1248.5 835.5C1249.28 835.5 1251.39 835.184 1252.42 835.013C1252.47 835.005 1252.53 835 1252.58 835H1260C1260.39 835 1264.39 833.703 1266.42 833.028C1266.47 833.009 1266.53 832.996 1266.59 832.987L1277 831.5L1284.41 829.524C1284.47 829.508 1284.53 829.498 1284.59 829.493Z" fill="#9C84D8" fill-opacity="0.9"/>
<path d="M1138.5 840.5L1139.93 834.318C1139.97 834.112 1139.95 833.895 1139.87 833.7L1138.76 831.106C1138.6 830.738 1138.24 830.508 1137.84 830.448C1137 830.321 1136 829.931 1136 829C1136 827.5 1131.5 826.5 1131 826C1130.6 825.6 1128.67 822.5 1127 821.5C1126.17 820.833 1124.2 819.4 1123 819C1121.5 818.5 1118.5 817.5 1117.5 818C1116.78 818.358 1115.22 817.144 1114.3 816.287C1114.1 816.106 1113.85 816 1113.59 816H1109.27C1109.09 816 1108.92 816.045 1108.77 816.132L1105.5 818L1099.33 821.324C1099.12 821.438 1098.95 821.623 1098.87 821.846L1096.54 827.897C1096.51 827.965 1096.48 828.031 1096.44 828.092L1093.65 832.279C1093.55 832.424 1093.42 832.541 1093.26 832.619L1087.71 835.394C1087.57 835.464 1087.42 835.5 1087.26 835.5H1077.1C1077.03 835.5 1076.97 835.507 1076.9 835.519L1072.09 836.482C1072.03 836.494 1071.97 836.511 1071.91 836.534L1067.25 838.4C1067.09 838.466 1066.94 838.573 1066.83 838.711L1061.59 845.387C1061.53 845.462 1061.48 845.545 1061.45 845.633L1059.64 850.147C1059.55 850.374 1059.38 850.561 1059.16 850.67L1053.71 853.394C1053.57 853.464 1053.42 853.5 1053.26 853.5H1047.5C1046.95 853.5 1046.5 853.948 1046.5 854.5V859.086C1046.5 859.351 1046.61 859.605 1046.79 859.793L1048.32 861.322C1048.44 861.439 1048.58 861.525 1048.74 861.572L1053.36 862.958C1053.45 862.986 1053.55 863 1053.65 863H1057.26C1057.42 863 1057.57 863.035 1057.71 863.108C1058.75 863.656 1060.5 864.753 1060.5 865.5C1060.5 866.237 1062.76 867.597 1064.16 868.328C1064.38 868.441 1064.63 868.466 1064.86 868.403C1067.48 867.713 1072.36 866.5 1073.5 866.5H1080.43C1080.48 866.5 1080.52 866.497 1080.57 866.49L1086.64 865.623C1087.13 865.552 1087.5 865.13 1087.5 864.633V859.193C1087.5 858.776 1087.76 858.403 1088.15 858.257L1091.42 857.028C1091.47 857.009 1091.53 856.995 1091.58 856.984L1099 855.5L1106.62 853.594C1106.87 853.533 1107.07 853.383 1107.23 853.189C1107.64 852.671 1108.34 852 1109 852C1110 852 1111 850.5 1112.5 850.5H1113.93C1113.98 850.5 1114.02 850.503 1114.07 850.51C1115.27 850.687 1117.82 851.215 1119 852C1120.5 853 1121 851 1122 852C1122.52 852.523 1123.36 852.505 1124.06 852.337C1124.6 852.208 1125.2 852.401 1125.47 852.881C1126.06 853.918 1126.89 855.197 1127.5 855.5C1128.5 856 1129.5 855.5 1130 855C1130.36 854.639 1133.47 853.164 1135.41 852.268C1135.77 852.104 1136 851.748 1136 851.356V848.662C1136 848.555 1136.02 848.448 1136.05 848.346L1137.5 844L1138.5 840.5Z" fill="#9C84D8" fill-opacity="0.9"/>
<path fill-rule="evenodd" clip-rule="evenodd" d="M1351.5 927.477L1352.5 919.477L1355 909.477L1355.81 905.839C1355.92 905.347 1355.64 904.85 1355.17 904.68L1349 902.477L1342.29 899.121C1342.1 899.027 1341.95 898.878 1341.85 898.694L1337.74 890.932C1337.59 890.647 1337.31 890.452 1336.99 890.409L1330.67 889.567C1330.27 889.513 1329.93 889.216 1329.84 888.818L1328.66 884.136C1328.57 883.738 1328.23 883.442 1327.83 883.387L1321.87 882.593C1321.37 882.527 1321 882.103 1321 881.602V873.391C1321 873.126 1320.89 872.872 1320.71 872.684L1315.76 867.741C1315.35 867.329 1315.38 866.654 1315.82 866.274L1318.04 864.368C1318.32 864.127 1318.45 863.752 1318.37 863.392L1317.56 859.762C1317.52 859.576 1317.43 859.406 1317.29 859.271L1313.57 855.547C1313.54 855.518 1313.51 855.491 1313.48 855.465C1313.47 855.463 1313.47 855.461 1313.47 855.458C1313.45 855.446 1313.43 855.434 1313.42 855.422L1309.14 852.573C1309.05 852.51 1308.94 852.463 1308.83 852.435L1306.96 851.967C1306.16 851.766 1305.93 850.733 1306.58 850.216L1309.62 847.777C1309.86 847.588 1310 847.3 1310 846.997V841.477C1310 840.925 1309.55 840.477 1309 840.477H1302.47C1302.17 840.477 1301.89 840.344 1301.7 840.113L1295.18 832.199C1295.06 832.054 1294.91 831.946 1294.73 831.886L1292.39 831.108C1292.14 831.024 1291.87 831.044 1291.63 831.162L1287.21 833.372C1287.07 833.441 1286.92 833.477 1286.76 833.477H1279.68C1279.56 833.477 1279.44 833.498 1279.33 833.537L1274.21 835.401C1274.07 835.451 1273.95 835.531 1273.84 835.634L1270.71 838.763C1270.57 838.903 1270.4 838.998 1270.2 839.037L1263 840.477L1254.35 841.439C1254.12 841.464 1253.91 841.565 1253.75 841.725L1250.6 844.875C1250.25 845.222 1249.71 845.266 1249.31 844.979L1241.25 839.157C1241.09 839.04 1240.96 838.877 1240.89 838.688L1239.18 833.964C1239.07 833.659 1238.81 833.426 1238.5 833.341L1233.58 831.998C1233.52 831.984 1233.47 831.974 1233.42 831.969L1224.76 831.006C1224.59 830.987 1224.42 831.011 1224.26 831.077L1219.88 832.9C1219.23 833.175 1218.5 832.691 1218.5 831.977V830.994C1218.5 830.276 1217.77 829.792 1217.11 830.075L1215.66 830.695C1215.26 830.864 1214.81 830.763 1214.52 830.445L1210.8 826.308C1210.61 826.098 1210.34 825.977 1210.05 825.977H1208.32C1207.84 825.977 1207.43 825.641 1207.34 825.173L1206.11 819.022C1206.04 818.683 1205.8 818.403 1205.48 818.282L1198.17 815.541C1198.06 815.499 1197.94 815.477 1197.82 815.477H1193.03C1192.7 815.477 1192.39 815.644 1192.2 815.923L1190.8 818.032C1190.61 818.31 1190.3 818.477 1189.96 818.477H1186.05C1185.71 818.477 1185.39 818.652 1185.21 818.94L1182.05 823.9C1182.02 823.952 1181.98 824 1181.94 824.044L1175.76 830.702C1175.59 830.88 1175.37 830.991 1175.13 831.016L1166.18 831.958C1166.06 831.971 1165.94 831.961 1165.82 831.931L1156.62 829.51C1156.54 829.488 1156.46 829.477 1156.37 829.477H1147.36C1147.13 829.477 1146.9 829.559 1146.72 829.709L1144.27 831.751C1144.1 831.897 1143.98 832.099 1143.93 832.323L1143.1 836.452C1143.04 836.78 1143.14 837.119 1143.38 837.356L1145.71 839.684C1145.89 839.872 1146 840.126 1146 840.391V842.696C1146 843.155 1145.69 843.555 1145.24 843.667L1142.52 844.348C1142.19 844.429 1141.93 844.664 1141.82 844.977L1140.13 849.619C1140.05 849.85 1140.05 850.103 1140.14 850.332L1142 854.977L1142.89 858.548C1142.96 858.821 1142.91 859.111 1142.75 859.345L1140 863.477L1138.59 865.829C1138.53 865.927 1138.49 866.035 1138.47 866.147L1137.66 870.173C1137.57 870.641 1137.16 870.977 1136.68 870.977H1130.22C1129.79 870.977 1129.41 871.253 1129.27 871.661L1127.73 876.293C1127.59 876.702 1127.21 876.977 1126.78 876.977H1125.53C1125.2 876.977 1124.89 877.144 1124.7 877.423L1121.3 882.532C1121.11 882.81 1120.8 882.977 1120.46 882.977H1113.31C1112.84 882.977 1112.43 883.307 1112.33 883.768L1111.08 889.611C1111.03 889.847 1110.89 890.057 1110.7 890.202L1109.8 890.877C1109.36 891.209 1108.73 891.119 1108.39 890.686C1107.32 889.336 1105.83 887.647 1105.5 887.977C1105.13 888.35 1102.41 889.332 1100.82 889.868C1100.61 889.939 1100.43 890.078 1100.31 890.263L1097.63 894.285C1097.54 894.411 1097.43 894.517 1097.3 894.594L1091.84 897.777C1091.62 897.906 1091.36 897.945 1091.11 897.888L1085.09 896.498C1085.03 896.484 1084.97 896.465 1084.91 896.44L1077 892.977L1070.9 890.164C1070.65 890.045 1070.35 890.041 1070.09 890.153L1064.12 892.711C1063.75 892.872 1063.31 892.788 1063.02 892.499L1060.58 890.055C1060.53 890.003 1060.47 889.957 1060.41 889.918L1055 886.477L1052.36 884.277C1052.13 884.087 1052 883.806 1052 883.509V881.127C1052 880.732 1051.77 880.374 1051.41 880.213L1043.1 876.523C1043.03 876.493 1042.97 876.454 1042.91 876.409L1037.27 872.177C1037.09 872.047 1036.88 871.977 1036.67 871.977H1032.16C1031.76 871.977 1031.4 871.739 1031.24 871.371L1028.61 865.23C1028.54 865.065 1028.42 864.921 1028.28 864.815L1023 860.977L1017.77 856.219C1017.59 856.063 1017.48 855.851 1017.45 855.621L1016.6 849.668C1016.54 849.253 1016.23 848.919 1015.82 848.831L1009.79 847.54C1009.6 847.499 1009.4 847.514 1009.22 847.584L1003 849.977L993.5 853.977L990.144 855.655C989.759 855.847 989.295 855.772 988.99 855.468L986.167 852.644C986.057 852.534 985.923 852.452 985.776 852.403L978.654 850.029C978.552 849.995 978.445 849.977 978.338 849.977H972.054C971.709 849.977 971.389 850.155 971.206 850.447L966.5 857.977L965.037 860.903C965.012 860.952 964.992 861.004 964.975 861.056L963.081 867.213C963.028 867.386 962.929 867.541 962.794 867.662L958.1 871.887C958.034 871.947 957.959 871.998 957.879 872.038L954.203 873.876C954.069 873.943 953.952 874.038 953.861 874.156L951.195 877.583C950.826 878.058 950.124 878.102 949.699 877.676L948.58 876.558C948.527 876.504 948.467 876.457 948.403 876.417L944.815 874.174C944.612 874.047 944.37 873.997 944.133 874.034L938.257 874.938C938.088 874.964 937.929 875.032 937.795 875.137L933.693 878.327C933.566 878.426 933.417 878.492 933.258 878.521L928.715 879.347C928.288 879.425 927.861 879.219 927.655 878.837L924.5 872.977L922.286 868.992C922.109 868.674 921.775 868.477 921.411 868.477H914.535C914.201 868.477 913.888 868.31 913.703 868.032L912.383 866.052C912.152 865.706 911.732 865.539 911.326 865.633L905.872 866.891C905.632 866.947 905.381 866.912 905.165 866.793L895.5 861.477C892.166 860.144 885.2 857.477 884 857.477H875.459C875.167 857.477 874.89 857.605 874.701 857.826L869.076 864.388C869.025 864.447 868.968 864.5 868.905 864.546L863.763 868.286C863.592 868.41 863.386 868.477 863.175 868.477H856.366C856.13 868.477 855.901 868.561 855.72 868.714L849.5 873.977L845.226 878.251C845.079 878.398 844.889 878.496 844.684 878.53L839.289 879.429C839.1 879.461 838.906 879.437 838.73 879.362L832.092 876.517C832.031 876.491 831.972 876.458 831.917 876.42L825.747 872.149C825.586 872.037 825.461 871.88 825.388 871.698L822.594 864.713C822.532 864.558 822.51 864.39 822.53 864.225L823.487 856.083C823.496 856.013 823.496 855.942 823.49 855.871L822.549 845.993C822.518 845.67 822.332 845.381 822.05 845.22L815.73 841.609C815.579 841.523 815.408 841.477 815.234 841.477H809.162C809.055 841.477 808.948 841.46 808.846 841.426L801.857 839.096C801.627 839.02 801.432 838.861 801.31 838.652L798.086 833.126C798.029 833.027 797.955 832.94 797.869 832.866L791.653 827.607C791.552 827.521 791.435 827.457 791.308 827.417L782.147 824.524C782.049 824.493 781.948 824.477 781.846 824.477H774.37C774.131 824.477 773.9 824.392 773.719 824.236L770.781 821.718C770.599 821.563 770.369 821.477 770.13 821.477H758.134C758.045 821.477 757.956 821.465 757.871 821.442L752.62 820.01C752.54 819.988 752.463 819.957 752.391 819.916L741 813.477L734.81 810.621C734.609 810.528 734.383 810.504 734.167 810.554L728 811.977L720.836 813.41C720.618 813.454 720.392 813.423 720.193 813.324L712.572 809.514C712.524 809.489 712.478 809.461 712.434 809.43L703.699 803.121C703.568 803.027 703.462 802.902 703.39 802.758L700.605 797.188C700.536 797.05 700.5 796.896 700.5 796.741V790.864C700.5 790.615 700.407 790.375 700.24 790.191L695.553 785.036C695.518 784.997 695.479 784.961 695.438 784.928L690.726 781.158C690.578 781.04 690.4 780.966 690.212 780.945L682.095 780.043C681.729 780.003 681.414 779.763 681.277 779.421L680.751 778.106C680.599 777.726 680.232 777.477 679.823 777.477H665.765C665.591 777.477 665.42 777.432 665.27 777.345C662.873 775.97 658.5 773.364 658.5 772.977C658.5 772.577 656.5 768.144 655.5 765.977L653.5 761.977L650.672 756.793C650.561 756.589 650.382 756.43 650.166 756.344L645.5 754.477L642.064 752.568C641.513 752.262 641.379 751.529 641.786 751.048L646.195 745.838C646.388 745.609 646.469 745.307 646.415 745.013L645.523 740.104C645.508 740.02 645.481 739.938 645.445 739.86L642 732.477L638.5 723.477L637.111 717.923C637.041 717.64 636.85 717.402 636.588 717.272L633.211 715.583C633.072 715.513 632.919 715.477 632.764 715.477H632.118C631.739 715.477 631.393 715.691 631.223 716.03L630.038 718.4C630.013 718.451 629.992 718.505 629.975 718.56L628.71 722.776C628.585 723.192 628.202 723.477 627.768 723.477C627.316 723.477 626.923 723.17 626.814 722.732L626.026 719.584C626.009 719.513 625.983 719.444 625.951 719.379L624.697 716.871C624.571 716.62 624.346 716.433 624.077 716.356L621.61 715.651C621.237 715.545 620.837 715.663 620.582 715.954L617.612 719.349C617.538 719.434 617.478 719.531 617.436 719.636L613.5 729.477L610.551 738.323C610.517 738.425 610.5 738.532 610.5 738.64V746.241C610.5 746.396 610.536 746.55 610.605 746.688L611.776 749.03C612.109 749.695 611.625 750.477 610.882 750.477H608.277C608.096 750.477 607.918 750.526 607.762 750.62L598.087 756.425C598.029 756.46 597.975 756.5 597.925 756.546L592.064 761.919C592.021 761.958 591.982 762 591.947 762.046L587.411 767.943C587.162 768.266 586.744 768.406 586.351 768.298C583.174 767.427 577.619 765.977 576.5 765.977C575.35 765.977 571.354 767.508 569.262 768.369C569.09 768.44 568.942 768.558 568.834 768.709L564.123 775.304C564.042 775.418 563.937 775.514 563.817 775.585L555.794 780.304C555.603 780.416 555.455 780.589 555.373 780.795L552.571 787.798C552.524 787.917 552.499 788.042 552.501 788.169C552.523 789.894 552.844 793.092 554 793.477C555.173 793.868 557.397 796.202 558.43 797.396C558.477 797.451 558.517 797.509 558.551 797.572L561.88 803.755C561.959 803.901 562 804.064 562 804.229V809.373C562 809.442 562.007 809.511 562.021 809.579L563.941 818.698C563.979 818.88 563.966 819.07 563.902 819.246L562.142 824.086C562.051 824.336 561.864 824.54 561.621 824.652L555.5 827.477L548.218 830.875C548.075 830.942 547.949 831.042 547.852 831.168L544.663 835.268C544.556 835.405 544.487 835.567 544.463 835.739C544.135 838.164 543.729 842.82 544.5 843.977C545.229 845.072 546.846 847.635 547.757 849.089C547.912 849.336 548.165 849.502 548.452 849.549C550.742 849.923 554.752 850.729 555.5 851.477C556.262 852.239 561.015 853.666 563.625 854.376C563.669 854.388 563.712 854.403 563.753 854.421C563.911 854.487 564.05 854.593 564.155 854.73C564.174 854.754 564.192 854.78 564.209 854.806L567.446 859.893C567.482 859.949 567.512 860.009 567.536 860.071L569.886 866.181C569.96 866.374 570.092 866.539 570.264 866.654L575.939 870.437C575.98 870.464 576.022 870.488 576.066 870.508L585.5 874.977L595.909 880.43C595.97 880.461 596.026 880.499 596.079 880.542L601.313 884.825C601.436 884.925 601.533 885.053 601.596 885.198L604.9 892.748C604.965 892.899 605.067 893.03 605.196 893.132L614.22 900.257C614.401 900.399 614.527 900.6 614.577 900.825L615.427 904.648C615.474 904.861 615.45 905.085 615.358 905.284L612.618 911.221C612.541 911.389 612.419 911.531 612.265 911.634L606.015 915.801C605.49 916.151 605.416 916.894 605.862 917.34L607.885 919.362C607.961 919.438 608.024 919.526 608.072 919.622L613.394 930.266C613.464 930.405 613.564 930.526 613.689 930.619C615.747 932.158 619.612 934.977 620 934.977H625.996C626.313 934.977 626.611 935.128 626.8 935.384L633.397 944.338C633.397 944.186 633.477 944.175 633.498 944.325C633.518 944.466 633.535 944.595 633.549 944.641C634.567 948.027 636.606 954.584 637 954.977C637.159 955.136 637.973 955.598 639.011 956.186C641.241 957.449 644.5 959.295 644.5 959.977C644.5 960.977 653 965.977 654 966.477C654.768 966.861 659.896 967.276 662.665 967.456C662.883 967.47 663.098 967.412 663.28 967.29L665.748 965.645C665.912 965.536 666.105 965.477 666.303 965.477H671.051C671.336 965.477 671.608 965.599 671.798 965.813L675.398 969.863C675.466 969.939 675.521 970.024 675.563 970.117L680 979.977L682.169 985.183C682.359 985.64 682.855 985.889 683.335 985.769L686.209 985.05C686.399 985.002 686.598 985.012 686.782 985.076L696.399 988.442C696.466 988.465 696.535 988.482 696.606 988.49L703.776 989.387C704.207 989.441 704.554 989.767 704.634 990.195L705.912 997.011C705.968 997.306 706.153 997.561 706.416 997.704L711.352 1000.4C711.45 1000.45 711.556 1000.49 711.666 1000.5L717.051 1001.4C717.336 1001.45 717.587 1001.62 717.738 1001.86L721.3 1007.65C721.429 1007.86 721.63 1008.02 721.865 1008.09L726.016 1009.33C726.32 1009.42 726.65 1009.36 726.904 1009.17L730.081 1006.79C730.343 1006.59 730.686 1006.54 730.997 1006.64L734.73 1007.89C734.906 1007.95 735.063 1008.05 735.182 1008.2L737.315 1010.76C737.436 1010.9 737.513 1011.08 737.538 1011.26C737.881 1013.85 738.5 1018.71 738.5 1019.48C738.5 1020.25 739.734 1022 740.421 1022.88C740.473 1022.94 740.534 1023 740.601 1023.05L748.231 1028.78C748.405 1028.91 748.532 1029.09 748.592 1029.3L749.415 1032.18C749.47 1032.37 749.466 1032.58 749.402 1032.77L746.5 1041.48L744.521 1050.88C744.507 1050.94 744.5 1051.01 744.5 1051.08V1058.43C744.5 1059 744.976 1059.46 745.545 1059.43L798.178 1057.04C798.841 1057.01 799.291 1056.35 799.081 1055.72L797.663 1051.47C797.56 1051.16 797.613 1050.82 797.803 1050.56L801.409 1045.6C801.469 1045.52 801.516 1045.43 801.549 1045.33L805.448 1033.63C805.482 1033.53 805.533 1033.43 805.597 1033.35L806.659 1031.93C806.87 1031.65 806.918 1031.28 806.783 1030.95L803.575 1023.16C803.525 1023.04 803.5 1022.91 803.5 1022.78V1017.84C803.5 1017.35 803.866 1016.93 804.354 1016.83C805.583 1016.58 807.182 1016.11 807.5 1015.48C808 1014.48 809 1011.98 809 1010.98C809 1010.52 808.067 1009.65 807.146 1008.79C806.043 1007.76 804.955 1006.75 805.5 1006.48C806.197 1006.13 806.944 1003.48 807.345 1001.7C807.442 1001.27 807.798 1000.95 808.235 1000.9C810.014 1000.7 812.652 1000.32 813 999.977C813.36 999.617 814.559 998.148 815.281 997.251C815.423 997.074 815.5 996.854 815.5 996.627V993.977C815.5 992.977 817 991.477 818 990.477C819 989.477 821.5 987.477 822.5 986.977C823.252 986.601 826.123 985.313 827.711 984.606C827.899 984.522 828.057 984.383 828.162 984.206L830.605 980.135C830.838 979.747 831.302 979.564 831.737 979.688L834.35 980.434C834.449 980.463 834.543 980.506 834.63 980.562C835.687 981.243 837.849 982.361 839 981.977L843.164 980.589C843.382 980.517 843.617 980.521 843.831 980.602L847.33 981.914C847.442 981.956 847.561 981.977 847.681 981.977H850.723C850.904 981.977 851.082 981.928 851.237 981.835L853.009 980.772C853.313 980.589 853.691 980.582 854.002 980.751L858.761 983.347C858.917 983.432 859.047 983.558 859.143 983.708C859.702 984.584 860.768 985.977 861.5 985.977H867H869.5C869.75 985.977 870.5 986.227 871.25 986.477C872 986.727 872.75 986.977 873 986.977C873.183 986.977 873.433 987.245 873.75 987.585C874.299 988.173 875.049 988.977 876 988.977H880C880.5 988.977 882 987.977 882.5 986.977C883 985.977 884 984.477 884.5 984.477C884.873 984.477 886.144 983.898 886.855 983.549C886.951 983.502 887.038 983.438 887.116 983.364C887.667 982.841 888.756 981.977 889.5 981.977H894H897C897.4 981.977 899.833 980.311 901 979.477L902.852 978.088C902.95 978.015 903.06 977.96 903.177 977.927L906.102 977.091C906.357 977.018 906.63 977.05 906.862 977.178L910.773 979.351C910.922 979.434 911.089 979.477 911.259 979.477H918.283C918.426 979.477 918.567 979.447 918.697 979.388L923.776 977.079C923.923 977.012 924.052 976.91 924.151 976.783L927.362 972.655C927.453 972.538 927.516 972.402 927.549 972.258L928.397 968.442C928.462 968.148 928.656 967.899 928.926 967.767C930.004 967.24 931.65 966.477 932 966.477C932.393 966.477 938.306 967.446 941.354 967.953C941.361 967.954 941.369 967.953 941.376 967.949C941.637 967.814 941.633 967.751 941.634 968.044L944.062 969.259C944.338 969.397 944.535 969.654 944.596 969.957L945.474 974.346C945.491 974.433 945.52 974.518 945.56 974.597L947.874 979.226C947.956 979.39 948.082 979.529 948.238 979.626L952 981.977L954.722 984.245C954.901 984.395 955.128 984.477 955.362 984.477H959H961.764C961.919 984.477 962.072 984.441 962.212 984.374C962.951 984.023 964.276 983.477 965 983.477C965.767 983.477 968.438 982.556 969.831 982.04C969.943 981.999 970.061 981.977 970.181 981.977H976.675C976.886 981.977 977.092 982.044 977.263 982.168L982.395 985.901C982.465 985.952 982.54 985.993 982.621 986.024L991.163 989.346C991.381 989.431 991.621 989.437 991.842 989.363L998.694 987.079C998.893 987.013 999.108 987.011 999.308 987.074L1006.84 989.426C1006.94 989.46 1007.05 989.512 1007.14 989.58C1008.51 990.601 1011.11 992.364 1011.5 991.977C1011.87 991.608 1013.68 990.36 1014.75 989.645C1014.91 989.535 1015.11 989.477 1015.3 989.477H1026.18C1026.39 989.477 1026.59 989.414 1026.76 989.296L1031.37 986.07C1031.38 986.063 1031.39 986.057 1031.39 986.051C1031.44 986.024 1031.48 986 1031.52 985.98C1031.57 985.961 1031.61 985.944 1031.65 985.931L1036.36 984.519C1036.45 984.491 1036.55 984.477 1036.65 984.477H1042.88C1042.96 984.477 1043.04 984.467 1043.12 984.447L1046.61 983.575C1046.86 983.512 1047.08 983.355 1047.21 983.135L1048.97 980.325C1049.26 979.857 1049.88 979.715 1050.35 980.007L1053.26 981.825C1053.42 981.925 1053.6 981.977 1053.79 981.977H1057.84C1057.95 981.977 1058.05 981.96 1058.15 981.926L1060.9 981.012C1060.91 981.008 1060.92 981.003 1060.93 980.998C1060.94 980.996 1060.95 980.994 1060.95 980.992C1060.96 980.988 1060.97 980.984 1060.98 980.979C1060.98 980.978 1060.99 980.977 1060.99 980.975L1061.01 980.966C1061.02 980.962 1061.03 980.958 1061.04 980.953C1061.05 980.948 1061.06 980.942 1061.07 980.935L1061.08 980.929L1061.09 980.921L1063.06 979.74C1063.34 979.575 1063.67 979.552 1063.97 979.679L1066.93 980.947C1066.98 980.967 1067.02 980.991 1067.07 981.018L1074.83 985.868C1074.94 985.94 1075.07 985.988 1075.2 986.009L1081.28 986.944C1081.43 986.966 1081.56 987.019 1081.68 987.1L1085.88 989.897C1085.89 989.902 1085.89 989.907 1085.9 989.912C1085.91 989.919 1085.92 989.925 1085.93 989.931C1085.99 989.977 1086.04 990.03 1086.09 990.088C1086.96 991.125 1088.61 993.091 1089 993.477C1089.39 993.867 1090.13 996.192 1090.47 997.388C1090.49 997.448 1090.51 997.505 1090.54 997.56L1091.8 1000.08C1091.93 1000.33 1092.15 1000.52 1092.42 1000.6L1095.5 1001.48L1102.43 1002.47C1102.48 1002.47 1102.52 1002.48 1102.57 1002.48H1107.17C1107.38 1002.48 1107.59 1002.41 1107.77 1002.28L1111.25 999.665C1111.41 999.543 1111.53 999.374 1111.6 999.181L1113.45 993.631L1113.45 993.62L1113.45 993.613L1113.46 993.6C1113.46 993.593 1113.46 993.586 1113.46 993.58C1113.47 993.553 1113.48 993.527 1113.48 993.5C1113.49 993.471 1113.49 993.442 1113.49 993.413C1113.5 993.396 1113.5 993.379 1113.5 993.362C1113.5 993.346 1113.5 993.331 1113.5 993.315V988.477L1113.99 982.597C1114 982.517 1114.01 982.439 1114.04 982.364L1114.87 979.87C1114.95 979.619 1115.13 979.411 1115.37 979.292L1117.65 978.155C1117.87 978.041 1118.14 978.018 1118.38 978.091L1123 979.477C1124.33 979.977 1127.2 980.977 1128 980.977H1133.8C1133.93 980.977 1134.06 980.95 1134.19 980.896L1137.5 979.477L1140.35 978.05C1140.38 978.035 1140.41 978.019 1140.44 978.001C1140.5 977.962 1140.56 977.915 1140.61 977.862L1142.5 975.977L1145.5 973.477L1146.75 972.645C1146.91 972.536 1147.11 972.477 1147.3 972.477H1150.7C1150.89 972.477 1151.09 972.537 1151.26 972.639C1151.84 972.988 1152.81 973.477 1153.5 973.477H1160H1164.81C1164.93 973.477 1165.06 973.501 1165.18 973.549L1167.42 974.444C1167.47 974.466 1167.53 974.493 1167.58 974.525L1171.16 976.763C1171.38 976.901 1171.53 977.118 1171.6 977.369L1172.5 980.977L1173.5 985.977L1174.49 991.896C1174.5 991.95 1174.5 992.005 1174.5 992.06V995.867C1174.5 995.94 1174.49 996.013 1174.48 996.084L1172.54 1004.77C1172.52 1004.91 1172.46 1005.03 1172.38 1005.15L1168.5 1010.48L1164.3 1016.08C1164.11 1016.33 1163.81 1016.48 1163.5 1016.48H1158.46C1158.17 1016.48 1157.89 1016.6 1157.7 1016.83L1155.09 1019.87C1155.07 1019.89 1155.06 1019.91 1155.04 1019.93C1155.02 1019.96 1155 1019.99 1154.98 1020.02C1154.98 1020.03 1154.97 1020.05 1154.97 1020.06C1154.96 1020.07 1154.95 1020.09 1154.94 1020.11L1152.72 1024.99C1152.58 1025.3 1152.3 1025.51 1151.97 1025.56L1146.85 1026.42C1146.62 1026.46 1146.42 1026.57 1146.27 1026.74L1142.75 1030.69C1142.59 1030.88 1142.5 1031.11 1142.5 1031.36V1031.77C1142.5 1032.7 1143.65 1033.13 1144.26 1032.42L1145.37 1031.13C1145.46 1031.03 1145.56 1030.95 1145.68 1030.89L1152.41 1027.52C1152.47 1027.49 1152.53 1027.47 1152.6 1027.45L1167.34 1023.52C1167.45 1023.49 1167.55 1023.48 1167.66 1023.49L1200.27 1025.46C1200.42 1025.47 1200.57 1025.45 1200.71 1025.39L1222.5 1016.48L1241.16 1007.38C1241.64 1007.15 1241.85 1006.6 1241.65 1006.11L1241.14 1004.83C1241.05 1004.6 1240.88 1004.42 1240.66 1004.31L1235.55 1001.75C1235.21 1001.58 1235 1001.24 1235 1000.86V991.512C1235 991.178 1234.83 990.866 1234.55 990.68L1229.73 987.467C1229.31 987.187 1229.17 986.639 1229.39 986.188L1230.44 984.098C1230.45 984.071 1230.47 984.045 1230.48 984.019C1230.51 983.969 1230.55 983.921 1230.59 983.877L1234.87 979.118C1234.96 979.025 1235.06 978.949 1235.17 978.893L1236.89 978.03C1236.96 977.995 1237.04 977.968 1237.12 977.95L1243.2 976.546C1243.4 976.501 1243.6 976.516 1243.79 976.587L1249.77 978.89C1249.92 978.947 1250.08 978.968 1250.24 978.95L1258.79 978.001C1258.81 977.999 1258.82 977.997 1258.84 977.994L1258.85 977.992L1258.87 977.987C1258.91 977.98 1258.95 977.971 1258.98 977.96C1259.05 977.938 1259.12 977.908 1259.18 977.871L1264.45 974.8C1264.78 974.603 1265.2 974.621 1265.52 974.844L1269.82 977.852C1269.94 977.934 1270.07 977.991 1270.22 978.016L1274.93 978.873C1275.28 978.937 1275.64 978.806 1275.87 978.529L1280.09 973.471C1280.34 973.17 1280.74 973.043 1281.12 973.146L1285.73 974.403C1285.91 974.451 1286.09 974.45 1286.27 974.397L1294.38 972.012C1294.39 972.009 1294.4 972.007 1294.41 972.005C1294.42 972.002 1294.43 972 1294.44 971.998L1294.45 971.994L1294.47 971.991C1294.48 971.988 1294.49 971.986 1294.51 971.984C1294.54 971.978 1294.58 971.974 1294.62 971.972L1306.5 971.477L1318.09 969.545C1318.35 969.502 1318.59 969.356 1318.74 969.14L1320.7 966.392C1320.89 966.131 1320.94 965.798 1320.84 965.494L1319.55 961.631C1319.52 961.529 1319.5 961.422 1319.5 961.315V961.198C1319.5 960.768 1319.78 960.385 1320.18 960.249L1324 958.977L1327.82 958.127C1328.23 958.037 1328.54 957.705 1328.6 957.293L1329.38 951.836C1329.45 951.343 1329.87 950.977 1330.37 950.977H1335.5C1335.81 950.977 1336.11 950.829 1336.3 950.577L1338.8 947.244C1338.93 947.071 1339 946.86 1339 946.644V941.977C1339 941.425 1339.45 940.977 1340 940.977H1345.46C1345.8 940.977 1346.11 940.81 1346.3 940.532L1349 936.477L1351.37 932.204C1351.46 932.055 1351.5 931.888 1351.5 931.718V927.477ZM1258.97 977.964C1258.97 977.963 1258.98 977.961 1258.98 977.96C1258.95 977.971 1258.91 977.98 1258.87 977.987C1258.91 977.981 1258.94 977.973 1258.97 977.964Z" fill="#9C84D8" fill-opacity="0.9"/>
<path d="M725.5 1015.5C726.333 1015.5 728.1 1015.5 728.5 1015.5M725.5 1015.5H728.5M725.5 1015.5L721.098 1015.94C720.73 1015.98 720.372 1015.81 720.166 1015.5L718.724 1013.34C718.58 1013.12 718.526 1012.86 718.572 1012.6L719.386 1008.12C719.456 1007.74 719.299 1007.36 718.984 1007.13L716.337 1005.24C716.121 1005.09 715.853 1005.02 715.591 1005.07L713 1005.5L707.708 1005.98C707.571 1005.99 707.432 1005.98 707.301 1005.93L704.6 1005.03C704.534 1005.01 704.465 1005 704.395 1004.99L700.206 1004.52C700.07 1004.51 699.939 1004.47 699.82 1004.4L696.576 1002.54C696.525 1002.51 696.477 1002.48 696.432 1002.44L693.778 1000.23C693.598 1000.08 693.372 1000 693.138 1000H692.118C691.739 1000 691.393 1000.21 691.223 1000.55L691.105 1000.79C691.036 1000.93 691 1001.08 691 1001.24V1005.26C691 1005.42 691.036 1005.57 691.105 1005.71L693.5 1010.5L696.416 1015.85C696.472 1015.95 696.544 1016.04 696.63 1016.12L700.873 1019.89C700.957 1019.96 701.053 1020.02 701.157 1020.06L709.5 1023.5L712.795 1025.38C712.93 1025.46 713.045 1025.57 713.131 1025.7L714.942 1028.41C714.98 1028.47 715.013 1028.53 715.038 1028.6L715.889 1030.72C715.961 1030.9 715.98 1031.1 715.942 1031.29L715.566 1033.17C715.523 1033.38 715.41 1033.58 715.244 1033.72L711.6 1036.91C711.533 1036.97 711.475 1037.04 711.426 1037.11L707.668 1042.75C707.558 1042.91 707.5 1043.11 707.5 1043.3V1051.28C707.5 1051.43 707.53 1051.57 707.589 1051.7L709.754 1056.46C709.906 1056.79 710.227 1057.02 710.592 1057.04L736.529 1058.93C737.069 1058.97 737.543 1058.57 737.597 1058.03L738 1054C738.166 1053.17 738.5 1051.3 738.5 1050.5C738.5 1049.74 740.624 1046.79 741.832 1045.22C741.942 1045.07 742.011 1044.91 742.035 1044.73C742.222 1043.32 742.625 1040.87 743 1040.5C743.392 1040.11 742.854 1036.79 742.519 1035.1M728.5 1015.5H731.638M728.5 1015.5C728.856 1015.5 730.563 1015.5 731.638 1015.5M735.5 1021.5V1025.26M735.5 1021.5C735.5 1021.14 735.236 1019.44 735.06 1018.37C735.022 1018.13 734.899 1017.92 734.715 1017.76L732.278 1015.73C732.098 1015.58 731.872 1015.5 731.638 1015.5M735.5 1021.5C735.5 1021.87 735.5 1024.03 735.5 1025.26M884 857.477C885.2 857.477 892.166 860.144 895.5 861.477L905.165 866.793C905.381 866.912 905.632 866.947 905.872 866.891L911.326 865.633C911.732 865.539 912.152 865.706 912.383 866.052L913.703 868.032C913.888 868.31 914.201 868.477 914.535 868.477H921.411C921.775 868.477 922.109 868.674 922.286 868.992L924.5 872.977L927.655 878.837C927.861 879.219 928.288 879.425 928.715 879.347L933.258 878.521C933.417 878.492 933.566 878.426 933.693 878.327L937.795 875.137C937.929 875.032 938.088 874.964 938.257 874.938L944.133 874.034C944.37 873.997 944.612 874.047 944.815 874.174L948.403 876.417C948.467 876.457 948.527 876.504 948.58 876.558L949.699 877.676C950.124 878.102 950.826 878.058 951.195 877.583L953.861 874.156C953.952 874.038 954.069 873.943 954.203 873.876L957.879 872.038C957.959 871.998 958.034 871.947 958.1 871.887L962.794 867.662C962.929 867.541 963.028 867.386 963.081 867.213L964.975 861.056C964.992 861.004 965.012 860.952 965.037 860.903L966.5 857.977L971.206 850.447C971.389 850.155 971.709 849.977 972.054 849.977H978.338C978.445 849.977 978.552 849.995 978.654 850.029L985.776 852.403C985.923 852.452 986.057 852.534 986.167 852.644L988.99 855.468C989.295 855.772 989.759 855.847 990.144 855.655L993.5 853.977L1003 849.977L1009.22 847.584C1009.4 847.514 1009.6 847.499 1009.79 847.54L1015.82 848.831C1016.23 848.919 1016.54 849.253 1016.6 849.668L1017.45 855.621C1017.48 855.851 1017.59 856.063 1017.77 856.219L1023 860.977L1028.28 864.815C1028.42 864.921 1028.54 865.065 1028.61 865.23L1031.24 871.371C1031.4 871.739 1031.76 871.977 1032.16 871.977H1036.67C1036.88 871.977 1037.09 872.047 1037.27 872.177L1042.91 876.409C1042.97 876.454 1043.03 876.493 1043.1 876.523L1051.41 880.213C1051.77 880.374 1052 880.732 1052 881.127V883.509C1052 883.806 1052.13 884.087 1052.36 884.277L1055 886.477L1060.41 889.918C1060.47 889.957 1060.53 890.003 1060.58 890.055L1063.02 892.499C1063.31 892.788 1063.75 892.872 1064.12 892.711L1070.09 890.153C1070.35 890.041 1070.65 890.045 1070.9 890.164L1077 892.977L1084.91 896.44C1084.97 896.465 1085.03 896.484 1085.09 896.498L1091.11 897.888C1091.36 897.945 1091.62 897.906 1091.84 897.777L1097.3 894.594C1097.43 894.517 1097.54 894.411 1097.63 894.285L1100.31 890.263C1100.43 890.078 1100.61 889.939 1100.82 889.868C1102.41 889.332 1105.13 888.35 1105.5 887.977C1105.83 887.647 1107.32 889.336 1108.39 890.686C1108.73 891.119 1109.36 891.209 1109.8 890.877L1110.7 890.202C1110.89 890.057 1111.03 889.847 1111.08 889.611L1112.33 883.768C1112.43 883.307 1112.84 882.977 1113.31 882.977H1120.46C1120.8 882.977 1121.11 882.81 1121.3 882.532L1124.7 877.423C1124.89 877.144 1125.2 876.977 1125.53 876.977H1126.78C1127.21 876.977 1127.59 876.702 1127.73 876.293L1129.27 871.661C1129.41 871.253 1129.79 870.977 1130.22 870.977H1136.68C1137.16 870.977 1137.57 870.641 1137.66 870.173L1138.47 866.147C1138.49 866.035 1138.53 865.927 1138.59 865.829L1140 863.477L1142.75 859.345C1142.91 859.111 1142.96 858.821 1142.89 858.548L1142 854.977L1140.14 850.332C1140.05 850.103 1140.05 849.85 1140.13 849.619L1141.82 844.977C1141.93 844.664 1142.19 844.429 1142.52 844.348L1145.24 843.667C1145.69 843.555 1146 843.155 1146 842.696V840.391C1146 840.126 1145.89 839.872 1145.71 839.684L1143.38 837.356C1143.14 837.119 1143.04 836.78 1143.1 836.452L1143.93 832.323C1143.98 832.099 1144.1 831.897 1144.27 831.751L1146.72 829.709C1146.9 829.559 1147.13 829.477 1147.36 829.477H1156.37C1156.46 829.477 1156.54 829.488 1156.62 829.51L1165.82 831.931C1165.94 831.961 1166.06 831.971 1166.18 831.958L1175.13 831.016C1175.37 830.991 1175.59 830.88 1175.76 830.702L1181.94 824.044C1181.98 824 1182.02 823.952 1182.05 823.9L1185.21 818.94C1185.39 818.652 1185.71 818.477 1186.05 818.477H1189.96C1190.3 818.477 1190.61 818.31 1190.8 818.032L1192.2 815.923C1192.39 815.644 1192.7 815.477 1193.03 815.477H1197.82C1197.94 815.477 1198.06 815.499 1198.17 815.541L1205.48 818.282C1205.8 818.403 1206.04 818.683 1206.11 819.022L1207.34 825.173C1207.43 825.641 1207.84 825.977 1208.32 825.977H1210.05C1210.34 825.977 1210.61 826.098 1210.8 826.308L1214.52 830.445C1214.81 830.763 1215.26 830.864 1215.66 830.695L1217.11 830.075C1217.77 829.792 1218.5 830.276 1218.5 830.994V831.977C1218.5 832.691 1219.23 833.175 1219.88 832.9L1224.26 831.077C1224.42 831.011 1224.59 830.987 1224.76 831.006L1233.42 831.969C1233.47 831.974 1233.52 831.984 1233.58 831.998L1238.5 833.341C1238.81 833.426 1239.07 833.659 1239.18 833.964L1240.89 838.688C1240.96 838.877 1241.09 839.04 1241.25 839.157L1249.31 844.979C1249.71 845.266 1250.25 845.222 1250.6 844.875L1253.75 841.725C1253.91 841.565 1254.12 841.464 1254.35 841.439L1263 840.477L1270.2 839.037C1270.4 838.998 1270.57 838.903 1270.71 838.763L1273.84 835.634C1273.95 835.531 1274.07 835.451 1274.21 835.401L1279.33 833.537C1279.44 833.498 1279.56 833.477 1279.68 833.477H1286.76C1286.92 833.477 1287.07 833.441 1287.21 833.372L1291.63 831.162C1291.87 831.044 1292.14 831.024 1292.39 831.108L1294.73 831.886C1294.91 831.946 1295.06 832.054 1295.18 832.199L1301.7 840.113C1301.89 840.344 1302.17 840.477 1302.47 840.477H1309C1309.55 840.477 1310 840.925 1310 841.477V846.997C1310 847.3 1309.86 847.588 1309.62 847.777L1306.58 850.216C1305.93 850.733 1306.16 851.766 1306.96 851.967L1308.83 852.435C1308.94 852.463 1309.05 852.51 1309.14 852.573L1313.42 855.422C1313.43 855.434 1313.45 855.446 1313.47 855.458M884 857.477H875.459M884 857.477C882.869 857.477 878.097 857.477 875.459 857.477M620 934.977H625.996M620 934.977C619.612 934.977 615.747 932.158 613.689 930.619C613.564 930.526 613.464 930.405 613.394 930.266L608.072 919.622C608.024 919.526 607.961 919.438 607.885 919.362L605.862 917.34C605.416 916.894 605.49 916.151 606.015 915.801L612.265 911.634C612.419 911.531 612.541 911.389 612.618 911.221L615.358 905.284C615.45 905.085 615.474 904.861 615.427 904.648L614.577 900.825C614.527 900.6 614.401 900.399 614.22 900.257L605.196 893.132C605.067 893.03 604.965 892.899 604.9 892.748L601.596 885.198C601.533 885.053 601.436 884.925 601.313 884.825L596.079 880.542C596.026 880.499 595.97 880.461 595.909 880.43L585.5 874.977L576.066 870.508C576.022 870.488 575.98 870.464 575.939 870.437L570.264 866.654C570.092 866.539 569.96 866.374 569.886 866.181L567.536 860.071C567.512 860.009 567.482 859.949 567.446 859.893L564.209 854.806C564.192 854.78 564.174 854.754 564.155 854.73C564.05 854.593 563.911 854.487 563.753 854.421C563.712 854.403 563.669 854.388 563.625 854.376C561.015 853.666 556.262 852.239 555.5 851.477C554.752 850.729 550.742 849.923 548.452 849.549C548.165 849.502 547.912 849.336 547.757 849.089C546.846 847.635 545.229 845.072 544.5 843.977C543.729 842.82 544.135 838.164 544.463 835.739C544.487 835.567 544.556 835.405 544.663 835.268L547.852 831.168C547.949 831.042 548.075 830.942 548.218 830.875L555.5 827.477L561.621 824.652C561.864 824.54 562.051 824.336 562.142 824.086L563.902 819.246C563.966 819.07 563.979 818.88 563.941 818.698L562.021 809.579C562.007 809.511 562 809.442 562 809.373V804.229C562 804.064 561.959 803.901 561.88 803.755L558.551 797.572C558.517 797.509 558.477 797.451 558.43 797.396C557.397 796.202 555.173 793.868 554 793.477C552.844 793.092 552.523 789.894 552.501 788.169C552.499 788.042 552.524 787.917 552.571 787.798L555.373 780.795C555.455 780.589 555.603 780.416 555.794 780.304L563.817 775.585C563.937 775.514 564.042 775.418 564.123 775.304L568.834 768.709C568.942 768.558 569.09 768.44 569.262 768.369C571.354 767.508 575.35 765.977 576.5 765.977C577.619 765.977 583.174 767.427 586.351 768.298C586.744 768.406 587.162 768.266 587.411 767.943L591.947 762.046C591.982 762 592.021 761.958 592.064 761.919L597.925 756.546C597.975 756.5 598.029 756.46 598.087 756.425L607.762 750.62C607.918 750.526 608.096 750.477 608.277 750.477H610.882C611.625 750.477 612.109 749.695 611.776 749.03L610.605 746.688C610.536 746.55 610.5 746.396 610.5 746.241V738.64C610.5 738.532 610.517 738.425 610.551 738.323L613.5 729.477L617.436 719.636C617.478 719.531 617.538 719.434 617.612 719.349L620.582 715.954C620.837 715.663 621.237 715.545 621.61 715.651L624.077 716.356C624.346 716.433 624.571 716.62 624.697 716.871L625.951 719.379C625.983 719.444 626.009 719.513 626.026 719.584L626.814 722.732C626.923 723.17 627.316 723.477 627.768 723.477C628.202 723.477 628.585 723.192 628.71 722.776L629.975 718.56C629.992 718.505 630.013 718.451 630.038 718.4L631.223 716.03C631.393 715.691 631.739 715.477 632.118 715.477H632.764C632.919 715.477 633.072 715.513 633.211 715.583L636.588 717.272C636.85 717.402 637.041 717.64 637.111 717.923L638.5 723.477L642 732.477L645.445 739.86C645.481 739.938 645.508 740.02 645.523 740.104L646.415 745.013C646.469 745.307 646.388 745.609 646.195 745.838L641.786 751.048C641.379 751.529 641.513 752.262 642.064 752.568L645.5 754.477L650.166 756.344C650.382 756.43 650.561 756.589 650.672 756.793L653.5 761.977L655.5 765.977C656.5 768.144 658.5 772.577 658.5 772.977C658.5 773.364 662.873 775.97 665.27 777.345C665.42 777.432 665.591 777.477 665.765 777.477H679.823C680.232 777.477 680.599 777.726 680.751 778.106L681.277 779.421C681.414 779.763 681.729 780.003 682.095 780.043L690.212 780.945C690.4 780.966 690.578 781.04 690.726 781.158L695.438 784.928C695.479 784.961 695.518 784.997 695.553 785.036L700.24 790.191C700.407 790.375 700.5 790.615 700.5 790.864V796.741C700.5 796.896 700.536 797.05 700.605 797.188L703.39 802.758C703.462 802.902 703.568 803.027 703.699 803.121L712.434 809.43C712.478 809.461 712.524 809.489 712.572 809.514L720.193 813.324C720.392 813.423 720.618 813.454 720.836 813.41L728 811.977L734.167 810.554C734.383 810.504 734.609 810.528 734.81 810.621L741 813.477L752.391 819.916C752.463 819.957 752.54 819.988 752.62 820.01L757.871 821.442C757.956 821.465 758.045 821.477 758.134 821.477H770.13C770.369 821.477 770.599 821.563 770.781 821.718L773.719 824.236C773.9 824.392 774.131 824.477 774.37 824.477H781.846C781.948 824.477 782.049 824.493 782.147 824.524L791.308 827.417C791.435 827.457 791.552 827.521 791.653 827.607L797.869 832.866C797.955 832.94 798.029 833.027 798.086 833.126L801.31 838.652C801.432 838.861 801.627 839.02 801.857 839.096L808.846 841.426C808.948 841.46 809.055 841.477 809.162 841.477H815.234C815.408 841.477 815.579 841.523 815.73 841.609L822.05 845.22C822.332 845.381 822.518 845.67 822.549 845.993L823.49 855.871C823.496 855.942 823.496 856.013 823.487 856.083L822.53 864.225C822.51 864.39 822.532 864.558 822.594 864.713L825.388 871.698C825.461 871.88 825.586 872.037 825.747 872.149L831.917 876.42C831.972 876.458 832.031 876.491 832.092 876.517L838.73 879.362C838.906 879.437 839.1 879.461 839.289 879.429L844.684 878.53C844.889 878.496 845.079 878.398 845.226 878.251L849.5 873.977L855.72 868.714C855.901 868.561 856.13 868.477 856.366 868.477H863.175C863.386 868.477 863.592 868.41 863.763 868.286L868.905 864.546C868.968 864.5 869.025 864.447 869.076 864.388L874.701 857.826C874.89 857.605 875.167 857.477 875.459 857.477M620 934.977C620.369 934.977 623.882 934.977 625.996 934.977M815.5 993.977C815.5 992.977 817 991.477 818 990.477C819 989.477 821.5 987.477 822.5 986.977C823.252 986.601 826.123 985.313 827.711 984.606C827.899 984.522 828.057 984.383 828.162 984.206L830.605 980.135C830.838 979.747 831.302 979.564 831.737 979.688L834.35 980.434C834.449 980.463 834.543 980.506 834.63 980.562C835.687 981.243 837.849 982.361 839 981.977M815.5 993.977V996.627M815.5 993.977C815.5 994.658 815.5 995.87 815.5 996.627M839 981.977L843.164 980.589M839 981.977C840.08 981.617 842.052 980.96 843.164 980.589M861.5 985.977C862.3 985.977 865.5 985.977 867 985.977M861.5 985.977H867M861.5 985.977C860.768 985.977 859.702 984.584 859.143 983.708C859.047 983.558 858.917 983.432 858.761 983.347L854.002 980.751C853.691 980.582 853.313 980.589 853.009 980.772L851.237 981.835C851.082 981.928 850.904 981.977 850.723 981.977H847.681C847.561 981.977 847.442 981.956 847.33 981.914L843.831 980.602C843.617 980.521 843.382 980.517 843.164 980.589M867 985.977C867.666 985.977 869.1 985.977 869.5 985.977M867 985.977H869.5M869.5 985.977C869.75 985.977 870.5 986.227 871.25 986.477C872 986.727 872.75 986.977 873 986.977C873.183 986.977 873.433 987.245 873.75 987.585C874.299 988.173 875.049 988.977 876 988.977M876 988.977C877.5 988.977 879.5 988.977 880 988.977M876 988.977H880M880 988.977C880.5 988.977 882 987.977 882.5 986.977C883 985.977 884 984.477 884.5 984.477C884.873 984.477 886.144 983.898 886.855 983.549C886.951 983.502 887.038 983.438 887.116 983.364C887.667 982.841 888.756 981.977 889.5 981.977M889.5 981.977C890.3 981.977 892.833 981.977 894 981.977M889.5 981.977H894M894 981.977C894.833 981.977 896.6 981.977 897 981.977M894 981.977H897M897 981.977C897.4 981.977 899.833 980.311 901 979.477L902.852 978.088C902.95 978.015 903.06 977.96 903.177 977.927L906.102 977.091C906.357 977.018 906.63 977.05 906.862 977.178L910.773 979.351C910.922 979.434 911.089 979.477 911.259 979.477H918.283C918.426 979.477 918.567 979.447 918.697 979.388L923.776 977.079C923.923 977.012 924.052 976.91 924.151 976.783L927.362 972.655C927.453 972.538 927.516 972.402 927.549 972.258L928.397 968.442C928.462 968.148 928.656 967.899 928.926 967.767C930.004 967.24 931.65 966.477 932 966.477C932.393 966.477 938.306 967.446 941.354 967.953M959 984.477H961.764M959 984.477H955.362M959 984.477C958.638 984.477 956.608 984.477 955.362 984.477M959 984.477C959.365 984.477 960.871 984.477 961.764 984.477M1128 980.977C1127.2 980.977 1124.33 979.977 1123 979.477L1118.38 978.091C1118.14 978.018 1117.87 978.041 1117.65 978.155L1115.37 979.292C1115.13 979.411 1114.95 979.619 1114.87 979.87L1114.04 982.364C1114.01 982.439 1114 982.517 1113.99 982.597L1113.5 988.477V993.315C1113.5 993.331 1113.5 993.346 1113.5 993.362C1113.5 993.379 1113.5 993.396 1113.49 993.413M1128 980.977H1133.8M1128 980.977C1128.77 980.977 1132.06 980.977 1133.8 980.977M1153.5 973.477C1154.3 973.477 1158.17 973.477 1160 973.477M1153.5 973.477H1160M1153.5 973.477C1152.81 973.477 1151.84 972.988 1151.26 972.639C1151.09 972.537 1150.89 972.477 1150.7 972.477H1147.3C1147.11 972.477 1146.91 972.536 1146.75 972.645L1145.5 973.477L1142.5 975.977L1140.61 977.862M1160 973.477H1164.81C1164.93 973.477 1165.06 973.501 1165.18 973.549L1167.42 974.444C1167.47 974.466 1167.53 974.493 1167.58 974.525L1171.16 976.763C1171.38 976.901 1171.53 977.118 1171.6 977.369L1172.5 980.977L1173.5 985.977L1174.49 991.896C1174.5 991.95 1174.5 992.005 1174.5 992.06V995.867C1174.5 995.94 1174.49 996.013 1174.48 996.084L1172.54 1004.77C1172.52 1004.91 1172.46 1005.03 1172.38 1005.15L1168.5 1010.48L1164.3 1016.08C1164.11 1016.33 1163.81 1016.48 1163.5 1016.48H1158.46C1158.17 1016.48 1157.89 1016.6 1157.7 1016.83L1155.09 1019.87C1155.07 1019.89 1155.06 1019.91 1155.04 1019.93M856.5 1005C859.166 1005 864.6 1005 865 1005M856.5 1005H865M856.5 1005L851.712 1004.52C851.572 1004.51 851.437 1004.46 851.315 1004.39L844.73 1000.63C844.579 1000.55 844.408 1000.5 844.234 1000.5H837.315C837.11 1000.5 836.91 1000.56 836.742 1000.68L832.426 1003.7C832.159 1003.89 832 1004.19 832 1004.52V1019.5L831.048 1026.64C831.017 1026.87 830.903 1027.09 830.726 1027.25L826.1 1031.41C826.034 1031.47 825.959 1031.52 825.879 1031.56L813.211 1037.89C813.072 1037.96 812.919 1038 812.764 1038H811C810.448 1038 810 1037.55 810 1037V1036.5M865 1005C865.5 1005 870 1004 870 1003.5C870 1003 872 999.5 871.5 999.5C871.125 999.5 870.429 998.33 870.068 997.634C870.022 997.545 869.992 997.451 869.975 997.352C869.803 996.298 869.5 994.263 869.5 993.5C869.5 992.5 868 989.5 867 989C866 988.5 863.5 989 862.5 989C861.894 989 860.676 989.383 859.758 989.713C859.313 989.873 858.812 989.718 858.55 989.325L858.119 988.679C858.04 988.561 857.988 988.428 857.965 988.288L857.604 986.123C857.54 985.743 857.263 985.432 856.892 985.326L854.244 984.57C854.084 984.524 853.915 984.519 853.752 984.555L849.579 985.482C849.526 985.494 849.475 985.51 849.425 985.53L847.179 986.428C847.061 986.476 846.934 986.5 846.807 986.5H842.716C842.574 986.5 842.433 986.531 842.303 986.59L837.318 988.856C837.112 988.949 836.882 988.97 836.661 988.918C835.232 988.584 832.737 988.131 832 988.5C831 989 827 989 826.5 989.5C826.136 989.864 823.54 991.082 821.945 991.801C821.664 991.927 821.456 992.175 821.382 992.473L821 994L820.136 996.16C820.048 996.379 820.041 996.623 820.116 996.848L820.965 999.396C820.988 999.465 821.019 999.532 821.056 999.594L822.387 1001.81C822.461 1001.94 822.5 1002.08 822.5 1002.22C822.5 1002.81 821.881 1003.19 821.354 1002.93L818.711 1001.61C818.572 1001.54 818.419 1001.5 818.264 1001.5H814C813.448 1001.5 813 1001.95 813 1002.5M813 1004C813 1004.5 812.5 1007 812.5 1008M813 1004V1002.5M813 1004C813 1003.75 813 1003.11 813 1002.5M812.5 1008V1013.8M812.5 1008C812.5 1008.77 812.5 1012.06 812.5 1013.8M810 1031.5C810 1032.7 810 1035.33 810 1036.5M810 1031.5V1036.5M810 1031.5C810 1031.04 810.099 1030.81 810.24 1030.72C810.661 1030.45 811.298 1030.78 811.666 1030.45C812.304 1029.86 813 1029.08 813 1028.5C813 1027.77 812.178 1027.27 811.652 1027.06C811.552 1027.02 811.445 1027 811.338 1027H809.333C809.117 1027 808.906 1026.93 808.736 1026.8C808.011 1026.22 806.853 1025.21 806.5 1024.5C806.148 1023.8 806.286 1021.75 806.438 1020.47C806.474 1020.17 806.649 1019.91 806.908 1019.76C807.838 1019.2 809.313 1018.34 810 1018C810.759 1017.62 811.879 1015.41 812.418 1014.19C812.473 1014.06 812.5 1013.93 812.5 1013.8M1039.5 991.5C1038 991.5 1034.5 991.5 1033 991.5M1039.5 991.5H1033M1039.5 991.5C1040.61 991.5 1042.65 990.364 1043.75 989.665C1043.91 989.559 1044.11 989.5 1044.3 989.5H1054.2C1054.39 989.5 1054.59 989.442 1054.75 989.332L1058.87 986.587C1058.96 986.529 1059.05 986.486 1059.15 986.458C1060.37 986.113 1062.73 985.5 1063.5 985.5C1064.3 985.5 1067.5 987.167 1069 988C1069.67 988.333 1071.3 989 1072.5 989C1073.64 989 1076.39 991.425 1077.8 992.806C1077.93 992.933 1078.09 993.023 1078.27 993.067L1083.67 994.418C1083.88 994.471 1084.07 994.593 1084.21 994.764L1085.47 996.337C1085.78 996.72 1085.76 997.267 1085.43 997.631L1081.5 1002L1073.65 1008.87C1073.55 1008.96 1073.44 1009.02 1073.32 1009.06L1063.66 1012.44C1063.55 1012.48 1063.44 1012.5 1063.33 1012.5H1053.5M1033 991.5H1027.03M1033 991.5C1031.92 991.5 1028.85 991.5 1027.03 991.5M1027.5 1007C1025.5 1007 1024.5 1007 1023 1005.5C1021.5 1004 1021.5 1006 1020.5 1005.5C1019.5 1005 1017 1004.5 1016 1004.5C1015.29 1004.5 1014.52 1002.11 1014.13 1000.53C1014.04 1000.2 1014.15 999.854 1014.39 999.612L1014.89 999.105C1014.96 999.035 1015.02 998.956 1015.07 998.869L1018.6 992.245C1018.83 991.815 1019.34 991.613 1019.8 991.762C1021.43 992.285 1023.82 993 1024.5 993C1025.11 993 1025.75 992.422 1026.18 991.926C1026.39 991.671 1026.7 991.5 1027.03 991.5M1027.5 1007C1029.5 1007 1030 1007 1031.5 1007M1027.5 1007H1031.5M1031.5 1007C1032.7 1007 1034.67 1007 1035.5 1007M1031.5 1007H1035.5M1035.5 1007C1035.83 1007 1036.7 1007 1037.5 1007M1035.5 1007H1037.5M1037.5 1007C1038.5 1007 1043 1009.5 1043 1011C1043 1012.5 1046 1012.5 1047 1012.5M1047 1012.5C1047.8 1012.5 1051.67 1012.5 1053.5 1012.5M1047 1012.5H1053.5M953.5 870.5L952.572 872.355M953.5 870.5C953.837 869.826 953.961 868.161 953.992 867.054C954.001 866.709 954.177 866.389 954.47 866.206L957.658 864.214C957.877 864.077 958.035 863.86 958.098 863.608L958.5 862L958.986 859.082C958.995 859.027 959 858.973 958.999 858.918C958.989 858.368 958.88 857.139 958.5 856C958.184 855.052 958.471 854.666 958.77 854.545C958.914 854.487 959.072 854.464 959.211 854.394L961 853.5C961.833 853.167 963.7 852.4 964.5 852C965.119 851.691 965.778 851.162 966.198 850.784C966.396 850.607 966.5 850.351 966.5 850.086V847.333C966.5 847.117 966.43 846.907 966.299 846.734C965.749 846.009 964.852 844.853 964.5 844.5C964.1 844.1 960 844 958 844H950.662C950.555 844 950.449 844.017 950.347 844.051C948.293 844.737 944.28 846.11 943.5 846.5C942.719 846.89 939.654 850.168 938.112 851.875C938.037 851.958 937.95 852.028 937.852 852.082L928.079 857.456C928.026 857.485 927.971 857.51 927.914 857.529L923.724 858.925C923.576 858.974 923.443 859.057 923.333 859.167L922.479 860.021C922.189 860.31 922.105 860.746 922.267 861.122L923.383 863.727C923.459 863.905 923.587 864.055 923.74 864.175C924.292 864.607 925.155 865.467 925.5 866.5C926 868 928 869 928 869.5C928 869.865 929.112 870.814 929.812 871.357C929.935 871.452 930.033 871.574 930.122 871.702C930.363 872.048 930.841 872.5 931.5 872.5M953.5 870.5C953.149 871.202 952.772 871.956 952.572 872.355M935 872.5C933.5 872.5 932.5 872.5 931.5 872.5M935 872.5H931.5M935 872.5C936.139 872.5 937.367 871.9 937.917 871.553C937.973 871.518 938.023 871.477 938.07 871.43L938.764 870.736C938.917 870.583 939.015 870.385 939.051 870.171C939.261 868.928 939.769 866.865 940.5 866.5C941.202 866.149 941.442 867.057 941.49 867.735C941.502 867.908 941.545 868.079 941.632 868.23C942.352 869.472 943.749 871.749 944.5 872.5C945.224 873.225 946.824 873.184 947.738 873.046C947.91 873.02 948.086 873.03 948.253 873.08C948.833 873.255 949.814 873.5 950.5 873.5C951.218 873.5 951.991 872.962 952.382 872.611C952.462 872.539 952.524 872.451 952.572 872.355M1315.5 850.5C1315.5 850 1315.5 848.5 1315.5 848M1315.5 850.5V848M1315.5 850.5C1315.5 850.852 1315.76 852.006 1315.93 852.731C1315.98 852.907 1316.07 853.068 1316.2 853.196L1318.45 855.45C1318.48 855.483 1318.52 855.514 1318.56 855.542C1319.24 856.054 1320.61 857 1321 857C1321.5 857 1322 858.5 1322.5 859C1323 859.5 1322.5 860 1322.5 860.5C1322.5 860.873 1323.08 862.437 1323.43 863.321C1323.48 863.44 1323.5 863.565 1323.5 863.693V865.338C1323.5 865.445 1323.52 865.552 1323.55 865.654L1323.98 866.933C1323.99 866.977 1324.01 867.021 1324.03 867.064L1325.5 870C1325.83 870.833 1326.6 872.5 1327 872.5C1327.4 872.5 1327.5 874.833 1327.5 876C1327.5 876.4 1329.17 879.167 1330 880.5L1332.96 885.428M1315.5 848C1315.5 847.5 1316 847 1316.5 846.5C1317 846 1317 846.5 1317.5 846C1318 845.5 1319 845.5 1320 845.5M1320 845.5C1320.8 845.5 1323 845.5 1324 845.5M1320 845.5H1324M1324 845.5H1325.26C1325.42 845.5 1325.57 845.534 1325.71 845.614C1326.05 845.822 1326.5 846.172 1326.5 846.5C1326.5 846.879 1327.1 847.888 1327.45 848.418C1327.48 848.473 1327.52 848.523 1327.57 848.57M1328.5 849.5C1329 850 1329 851.5 1329.5 851.5C1329.88 851.5 1330.89 852.099 1331.42 852.446C1331.47 852.482 1331.52 852.524 1331.57 852.568C1331.77 852.743 1332.15 853 1332.5 853M1328.5 849.5L1327.57 848.57M1328.5 849.5C1328.15 849.147 1327.77 848.769 1327.57 848.57M1332.5 853H1334.09M1332.5 853C1332.81 853 1333.54 853 1334.09 853M1260 835H1252.58M1260 835C1260.39 835 1264.39 833.703 1266.42 833.028M1260 835C1259.6 835 1254.94 835 1252.58 835M1243.5 833C1243.5 833.5 1245 834.5 1245.5 835C1246 835.5 1247.5 835.5 1248.5 835.5C1249.28 835.5 1251.39 835.184 1252.42 835.013M1243.5 833V831.571M1243.5 833C1243.5 832.626 1243.5 831.932 1243.5 831.571M1233.5 828C1233 828 1231 828 1230.5 828M1233.5 828H1230.5M1233.5 828C1233.88 828 1235.19 827.699 1235.89 827.526C1235.96 827.509 1236.03 827.484 1236.1 827.451L1238 826.5C1238.67 826.167 1240.2 825.6 1241 826C1242 826.5 1242 827 1242.5 827.5C1242.89 827.892 1243.32 830.239 1243.49 831.431C1243.5 831.477 1243.5 831.524 1243.5 831.571M1230.5 828H1227.74M1230.5 828C1230.13 828 1228.63 828 1227.74 828M1217.5 815C1218.1 815 1219.11 814.813 1219.86 814.649C1220.25 814.564 1220.54 814.246 1220.61 813.853L1220.95 811.816C1220.98 811.611 1221.08 811.421 1221.23 811.273L1222.86 809.636C1222.95 809.546 1223.06 809.474 1223.18 809.424L1226.43 808.032C1226.48 808.011 1226.52 807.994 1226.58 807.981C1227.94 807.642 1230.61 807 1231 807C1231.4 807 1233.5 806.333 1234.5 806L1238.85 804.551C1238.95 804.517 1239.05 804.5 1239.16 804.5H1242.22C1242.4 804.5 1242.58 804.549 1242.74 804.643L1244.75 805.85C1244.91 805.948 1245.04 806.092 1245.14 806.254C1245.35 806.591 1245.69 807 1246 807C1246.39 807 1247.74 808.562 1248.43 809.417C1248.48 809.472 1248.52 809.532 1248.55 809.595L1249 810.5C1249.17 810.833 1249.7 811.5 1250.5 811.5C1251.5 811.5 1252 810.5 1252.5 810.5C1252.8 810.5 1253.32 810.114 1253.7 809.783C1253.9 809.607 1254.15 809.506 1254.41 809.465C1254.77 809.409 1255.22 809.276 1255.5 809C1255.8 808.702 1256.3 808.385 1256.67 808.174C1256.88 808.057 1257.13 808.032 1257.36 808.088C1258.09 808.262 1259.16 808.5 1259.5 808.5C1259.87 808.5 1261.97 809.069 1263.21 809.418C1263.4 809.471 1263.57 809.579 1263.7 809.728L1266.43 812.917C1266.48 812.972 1266.53 813.021 1266.59 813.065C1267.95 814.089 1270.5 816.109 1270.5 816.5C1270.5 817 1272 818.5 1272.5 819C1273 819.5 1273.5 820 1274 820C1274.5 820 1274.5 820.5 1275.5 820M1217.5 815H1215.33M1217.5 815C1216.84 815 1215.92 815 1215.33 815M1275.5 820L1278.22 818.64M1275.5 820C1276.79 819.357 1277.73 818.886 1278.22 818.64M1112.5 850.5C1111 850.5 1110 852 1109 852C1108.34 852 1107.64 852.671 1107.23 853.189C1107.07 853.383 1106.87 853.533 1106.62 853.594L1099 855.5L1091.58 856.984C1091.53 856.995 1091.47 857.009 1091.42 857.028L1088.15 858.257C1087.76 858.403 1087.5 858.776 1087.5 859.193V864.633C1087.5 865.13 1087.13 865.552 1086.64 865.623L1080.57 866.49M1112.5 850.5H1113.93M1112.5 850.5C1113.39 850.5 1113.78 850.5 1113.93 850.5M1073.5 866.5C1072.36 866.5 1067.48 867.713 1064.86 868.403M1073.5 866.5H1080.43M1073.5 866.5C1074.68 866.5 1078.57 866.5 1080.43 866.5M742.519 1035.1C742.506 1035.03 742.5 1034.97 742.5 1034.9M742.519 1035.1C742.506 1035.03 742.5 1034.97 742.5 1034.9V1034.9M742.5 1034.9V1033.54C742.5 1033.2 742.333 1032.89 742.055 1032.7L739.752 1031.17C739.587 1031.06 739.394 1031 739.197 1031H735.803C735.605 1031 735.412 1030.94 735.248 1030.83L734.445 1030.3C734.167 1030.11 734 1029.8 734 1029.46V1028.74C734 1028.58 734.036 1028.43 734.105 1028.29L735.394 1025.71C735.464 1025.57 735.5 1025.42 735.5 1025.26M1140.61 977.862C1140.56 977.915 1140.5 977.962 1140.44 978.001C1140.41 978.019 1140.38 978.035 1140.35 978.05M1140.61 977.862C1140.54 977.938 1140.45 978.002 1140.35 978.05M1140.35 978.05L1137.5 979.477L1134.19 980.896C1134.06 980.95 1133.93 980.977 1133.8 980.977M1113.45 993.631L1111.6 999.181C1111.53 999.374 1111.41 999.543 1111.25 999.665L1107.77 1002.28C1107.59 1002.41 1107.38 1002.48 1107.17 1002.48H1102.57C1102.52 1002.48 1102.48 1002.47 1102.43 1002.47L1095.5 1001.48L1092.42 1000.6C1092.15 1000.52 1091.93 1000.33 1091.8 1000.08L1090.54 997.56C1090.51 997.505 1090.49 997.448 1090.47 997.388C1090.13 996.192 1089.39 993.867 1089 993.477C1088.61 993.091 1086.96 991.125 1086.09 990.088M1113.45 993.631L1113.45 993.62M1113.45 993.631C1113.45 993.628 1113.45 993.624 1113.45 993.62M1086.09 990.088C1086.04 990.03 1085.99 989.977 1085.93 989.931C1085.92 989.925 1085.91 989.919 1085.9 989.912M1086.09 990.088C1086.04 990.022 1085.97 989.962 1085.9 989.912M1061.09 980.921L1063.06 979.74C1063.34 979.575 1063.67 979.552 1063.97 979.679L1066.93 980.947C1066.98 980.967 1067.02 980.991 1067.07 981.018L1074.83 985.868C1074.94 985.94 1075.07 985.988 1075.2 986.009L1081.28 986.944C1081.43 986.966 1081.56 987.019 1081.68 987.1L1085.88 989.897C1085.89 989.902 1085.89 989.907 1085.9 989.912M1061.09 980.921L1061.08 980.929M1061.09 980.921C1061.09 980.924 1061.08 980.926 1061.08 980.929M1031.65 985.931L1036.36 984.519C1036.45 984.491 1036.55 984.477 1036.65 984.477H1042.88C1042.96 984.477 1043.04 984.467 1043.12 984.447L1046.61 983.575C1046.86 983.512 1047.08 983.355 1047.21 983.135L1048.97 980.325C1049.26 979.857 1049.88 979.715 1050.35 980.007L1053.26 981.825C1053.42 981.925 1053.6 981.977 1053.79 981.977H1057.84C1057.95 981.977 1058.05 981.96 1058.15 981.926L1060.9 981.012C1060.91 981.008 1060.92 981.003 1060.93 980.998C1060.94 980.996 1060.95 980.994 1060.95 980.992C1060.96 980.988 1060.97 980.984 1060.98 980.979M1031.65 985.931C1031.61 985.944 1031.57 985.961 1031.52 985.98C1031.48 986 1031.44 986.024 1031.39 986.051M1031.65 985.931C1031.56 985.958 1031.48 985.999 1031.39 986.051M961.764 984.477C961.919 984.477 962.072 984.441 962.212 984.374C962.951 984.023 964.276 983.477 965 983.477C965.767 983.477 968.438 982.556 969.831 982.04C969.943 981.999 970.061 981.977 970.181 981.977H976.675C976.886 981.977 977.092 982.044 977.263 982.168L982.395 985.901C982.465 985.952 982.54 985.993 982.621 986.024L991.163 989.346C991.381 989.431 991.621 989.437 991.842 989.363L998.694 987.079C998.893 987.013 999.108 987.011 999.308 987.074L1006.84 989.426C1006.94 989.46 1007.05 989.512 1007.14 989.58C1008.51 990.601 1011.11 992.364 1011.5 991.977C1011.87 991.608 1013.68 990.36 1014.75 989.645C1014.91 989.535 1015.11 989.477 1015.3 989.477H1026.18C1026.39 989.477 1026.59 989.414 1026.76 989.296L1031.37 986.07C1031.38 986.063 1031.39 986.057 1031.39 986.051M955.362 984.477C955.128 984.477 954.901 984.395 954.722 984.245L952 981.977L948.238 979.626C948.082 979.529 947.956 979.39 947.874 979.226L945.56 974.597C945.52 974.518 945.491 974.433 945.474 974.346L944.596 969.957C944.535 969.654 944.338 969.397 944.062 969.259L941.634 968.044M941.634 968.044C941.545 968 941.452 967.969 941.354 967.953M941.634 968.044C941.633 967.751 941.637 967.814 941.376 967.949C941.369 967.953 941.361 967.954 941.354 967.953M815.5 996.627C815.5 996.854 815.423 997.074 815.281 997.251C814.559 998.148 813.36 999.617 813 999.977C812.652 1000.32 810.014 1000.7 808.235 1000.9C807.798 1000.95 807.442 1001.27 807.345 1001.7C806.944 1003.48 806.197 1006.13 805.5 1006.48C804.955 1006.75 806.043 1007.76 807.146 1008.79C808.067 1009.65 809 1010.52 809 1010.98C809 1011.98 808 1014.48 807.5 1015.48C807.182 1016.11 805.583 1016.58 804.354 1016.83C803.866 1016.93 803.5 1017.35 803.5 1017.84V1022.78C803.5 1022.91 803.525 1023.04 803.575 1023.16L806.783 1030.95C806.918 1031.28 806.87 1031.65 806.659 1031.93L805.597 1033.35C805.533 1033.43 805.482 1033.53 805.448 1033.63L801.549 1045.33C801.516 1045.43 801.469 1045.52 801.409 1045.6L797.803 1050.56C797.613 1050.82 797.56 1051.16 797.663 1051.47L799.081 1055.72C799.291 1056.35 798.841 1057.01 798.178 1057.04L745.545 1059.43C744.976 1059.46 744.5 1059 744.5 1058.43V1051.08C744.5 1051.01 744.507 1050.94 744.521 1050.88L746.5 1041.48L749.402 1032.77C749.466 1032.58 749.47 1032.37 749.415 1032.18L748.592 1029.3C748.532 1029.09 748.405 1028.91 748.231 1028.78L740.601 1023.05C740.534 1023 740.473 1022.94 740.421 1022.88C739.734 1022 738.5 1020.25 738.5 1019.48C738.5 1018.71 737.881 1013.85 737.538 1011.26C737.513 1011.08 737.436 1010.9 737.315 1010.76L735.182 1008.2C735.063 1008.05 734.906 1007.95 734.73 1007.89L730.997 1006.64C730.686 1006.54 730.343 1006.59 730.081 1006.79L726.904 1009.17C726.65 1009.36 726.32 1009.42 726.016 1009.33L721.865 1008.09C721.63 1008.02 721.429 1007.86 721.3 1007.65L717.738 1001.86C717.587 1001.62 717.336 1001.45 717.051 1001.4L711.666 1000.5C711.556 1000.49 711.45 1000.45 711.352 1000.4L706.416 997.704C706.153 997.561 705.968 997.306 705.912 997.011L704.634 990.195C704.554 989.767 704.207 989.441 703.776 989.387L696.606 988.49C696.535 988.482 696.466 988.465 696.399 988.442L686.782 985.076C686.598 985.012 686.399 985.002 686.209 985.05L683.335 985.769C682.855 985.889 682.359 985.64 682.169 985.183L680 979.977L675.563 970.117C675.521 970.024 675.466 969.939 675.398 969.863L671.798 965.813C671.608 965.599 671.336 965.477 671.051 965.477H666.303C666.105 965.477 665.912 965.536 665.748 965.645L663.28 967.29C663.098 967.412 662.883 967.47 662.665 967.456C659.896 967.276 654.768 966.861 654 966.477C653 965.977 644.5 960.977 644.5 959.977C644.5 959.295 641.241 957.449 639.011 956.186C637.973 955.598 637.159 955.136 637 954.977C636.606 954.584 634.567 948.027 633.549 944.641M633.549 944.641C633.516 944.531 633.465 944.43 633.397 944.338M633.549 944.641C633.535 944.595 633.518 944.466 633.498 944.325C633.477 944.175 633.397 944.186 633.397 944.338M633.397 944.338L626.8 935.384C626.611 935.128 626.313 934.977 625.996 934.977M1313.57 855.547L1317.29 859.271C1317.43 859.406 1317.52 859.576 1317.56 859.762L1318.37 863.392C1318.45 863.752 1318.32 864.127 1318.04 864.368L1315.82 866.274C1315.38 866.654 1315.35 867.329 1315.76 867.741L1320.71 872.684C1320.89 872.872 1321 873.126 1321 873.391V881.602C1321 882.103 1321.37 882.527 1321.87 882.593L1327.83 883.387C1328.23 883.442 1328.57 883.738 1328.66 884.136L1329.84 888.818C1329.93 889.216 1330.27 889.513 1330.67 889.567L1336.99 890.409C1337.31 890.452 1337.59 890.647 1337.74 890.932L1341.85 898.694C1341.95 898.878 1342.1 899.027 1342.29 899.121L1349 902.477L1355.17 904.68C1355.64 904.85 1355.92 905.347 1355.81 905.839L1355 909.477L1352.5 919.477L1351.5 927.477V931.718C1351.5 931.888 1351.46 932.055 1351.37 932.204L1349 936.477L1346.3 940.532C1346.11 940.81 1345.8 940.977 1345.46 940.977H1340C1339.45 940.977 1339 941.425 1339 941.977V946.644C1339 946.86 1338.93 947.071 1338.8 947.244L1336.3 950.577C1336.11 950.829 1335.81 950.977 1335.5 950.977H1330.37C1329.87 950.977 1329.45 951.343 1329.38 951.836L1328.6 957.293C1328.54 957.705 1328.23 958.037 1327.82 958.127L1324 958.977L1320.18 960.249C1319.78 960.385 1319.5 960.768 1319.5 961.198V961.315C1319.5 961.422 1319.52 961.529 1319.55 961.631L1320.84 965.494C1320.94 965.798 1320.89 966.131 1320.7 966.392L1318.74 969.14C1318.59 969.356 1318.35 969.502 1318.09 969.545L1306.5 971.477L1294.62 971.972M1313.57 855.547C1313.54 855.518 1313.51 855.491 1313.48 855.465C1313.47 855.463 1313.47 855.461 1313.47 855.458M1313.57 855.547C1313.54 855.515 1313.5 855.485 1313.47 855.458M1294.62 971.972C1294.58 971.974 1294.54 971.978 1294.51 971.984C1294.49 971.986 1294.48 971.988 1294.47 971.991M1294.62 971.972C1294.57 971.974 1294.52 971.981 1294.47 971.991M1230.59 983.877L1234.87 979.118C1234.96 979.025 1235.06 978.949 1235.17 978.893L1236.89 978.03C1236.96 977.995 1237.04 977.968 1237.12 977.95L1243.2 976.546C1243.4 976.501 1243.6 976.516 1243.79 976.587L1249.77 978.89C1249.92 978.947 1250.08 978.968 1250.24 978.95L1258.79 978.001C1258.81 977.999 1258.82 977.997 1258.84 977.994M1230.59 983.877C1230.55 983.921 1230.51 983.969 1230.48 984.019C1230.47 984.045 1230.45 984.071 1230.44 984.098M1230.59 983.877C1230.53 983.943 1230.48 984.018 1230.44 984.098M1230.44 984.098L1229.39 986.188C1229.17 986.639 1229.31 987.187 1229.73 987.467L1234.55 990.68C1234.83 990.866 1235 991.178 1235 991.512V1000.86C1235 1001.24 1235.21 1001.58 1235.55 1001.75L1240.66 1004.31C1240.88 1004.42 1241.05 1004.6 1241.14 1004.83L1241.65 1006.11C1241.85 1006.6 1241.64 1007.15 1241.16 1007.38L1222.5 1016.48L1200.71 1025.39C1200.57 1025.45 1200.42 1025.47 1200.27 1025.46L1167.66 1023.49C1167.55 1023.48 1167.45 1023.49 1167.34 1023.52L1152.6 1027.45C1152.53 1027.47 1152.47 1027.49 1152.41 1027.52L1145.68 1030.89C1145.56 1030.95 1145.46 1031.03 1145.37 1031.13L1144.26 1032.42C1143.65 1033.13 1142.5 1032.7 1142.5 1031.77V1031.36C1142.5 1031.11 1142.59 1030.88 1142.75 1030.69L1146.27 1026.74C1146.42 1026.57 1146.62 1026.46 1146.85 1026.42L1151.97 1025.56C1152.3 1025.51 1152.58 1025.3 1152.72 1024.99L1154.94 1020.11C1154.95 1020.09 1154.96 1020.07 1154.97 1020.06M1345.53 863.603C1345.92 864.985 1346.62 870.955 1346.96 874.149C1346.99 874.377 1347.09 874.588 1347.25 874.75L1350.95 878.45M1345.53 863.603C1345.51 863.533 1345.48 863.468 1345.44 863.406M1345.53 863.603C1345.51 863.534 1345.48 863.469 1345.44 863.408L1345.44 863.406M1345.44 863.406L1344 861L1343.07 859.145C1343.02 859.049 1342.96 858.962 1342.89 858.884C1342.54 858.512 1342 857.859 1342 857.5C1342 857.1 1341.33 856.333 1341 856C1340.67 855.667 1339.9 855 1339.5 855C1339 855 1338.5 854.5 1338.5 854C1338.5 853.5 1337.5 854 1337 853.5C1336.5 853 1336 853.5 1335.5 853.5C1335.27 853.5 1335.02 853.386 1334.82 853.258C1334.6 853.113 1334.35 853 1334.09 853M1332.96 885.428C1332.99 885.476 1333.02 885.521 1333.05 885.563M1332.96 885.428L1332.96 885.429C1332.99 885.476 1333.02 885.521 1333.05 885.563M1333.05 885.563C1334.08 886.748 1336.32 889 1337.5 889C1338.43 889 1339.22 889.4 1339.68 889.735C1339.9 889.89 1340.15 890.002 1340.41 889.99C1341.14 889.955 1342.17 889.83 1342.5 889.5C1342.87 889.132 1343.27 890.149 1343.46 890.833C1343.49 890.943 1343.53 891.048 1343.59 891.145C1343.95 891.688 1344.5 892.635 1344.5 893C1344.5 893.5 1345.5 894.5 1345.5 895.5C1345.5 896.5 1347 897 1349 897.5C1351 898 1350.5 897.5 1351.5 897.5C1351.78 897.5 1351.99 897.458 1352.14 897.397C1352.47 897.265 1352.68 896.889 1352.99 896.709L1354.51 895.791C1354.82 895.611 1355 895.285 1355 894.934V885.777C1355 885.596 1354.95 885.418 1354.86 885.262L1353.54 883.069C1353.51 883.023 1353.49 882.975 1353.47 882.926L1352.55 880.623C1352.52 880.541 1352.47 880.464 1352.42 880.394L1351.04 878.557M1351.04 878.557C1351.01 878.519 1350.98 878.483 1350.95 878.45M1351.04 878.557L1351 878.5L1350.95 878.45M1278.22 818.64C1278.4 818.549 1278.61 818.515 1278.81 818.544L1281.84 818.977C1281.95 818.992 1282.05 819.025 1282.14 819.073L1283.85 819.927C1283.95 819.975 1284.04 820.038 1284.11 820.115C1284.64 820.653 1285.5 821.628 1285.5 822C1285.5 822.381 1286.41 823.094 1286.92 823.449C1286.97 823.483 1287.03 823.512 1287.08 823.536L1290.32 824.924C1290.44 824.974 1290.55 825.046 1290.64 825.136L1291.21 825.707C1291.39 825.895 1291.5 826.149 1291.5 826.414V828.069C1291.5 828.594 1291.09 829.029 1290.57 829.066L1284.59 829.493C1284.53 829.498 1284.47 829.508 1284.41 829.524L1277 831.5L1266.59 832.987M1215.33 815C1215.12 815 1214.91 815.07 1214.73 815.2L1213.4 816.2C1213.15 816.389 1213 816.685 1213 817V817.764C1213 817.919 1213.04 818.072 1213.11 818.211L1213.93 819.855C1213.98 819.951 1214.04 820.039 1214.11 820.115L1216.5 822.5L1218.77 825.221C1218.92 825.401 1219.13 825.523 1219.36 825.565L1224.36 826.474C1224.45 826.491 1224.54 826.522 1224.63 826.564L1227.29 827.894C1227.43 827.964 1227.58 828 1227.74 828M1252.42 835.013C1252.47 835.005 1252.53 835 1252.58 835M1252.42 835.013L1252.42 835.013C1252.47 835.004 1252.53 835 1252.58 835M1266.42 833.028C1266.47 833.009 1266.53 832.996 1266.59 832.987M1266.42 833.028C1266.47 833.009 1266.53 832.996 1266.59 832.987L1266.59 832.987M1064.16 868.328C1062.76 867.597 1060.5 866.237 1060.5 865.5C1060.5 864.753 1058.75 863.656 1057.71 863.108C1057.57 863.035 1057.42 863 1057.26 863H1053.65C1053.55 863 1053.45 862.986 1053.36 862.958L1048.74 861.572C1048.58 861.525 1048.44 861.439 1048.32 861.322L1046.79 859.793C1046.61 859.605 1046.5 859.351 1046.5 859.086V854.5C1046.5 853.948 1046.95 853.5 1047.5 853.5H1053.26C1053.42 853.5 1053.57 853.464 1053.71 853.394L1059.16 850.67C1059.38 850.561 1059.55 850.374 1059.64 850.147L1061.45 845.633C1061.48 845.545 1061.53 845.462 1061.59 845.387L1066.83 838.711C1066.94 838.573 1067.09 838.466 1067.25 838.4L1071.91 836.534C1071.97 836.511 1072.03 836.494 1072.09 836.482L1076.9 835.519C1076.97 835.507 1077.03 835.5 1077.1 835.5H1087.26C1087.42 835.5 1087.57 835.464 1087.71 835.394L1093.26 832.619C1093.42 832.541 1093.55 832.424 1093.65 832.279L1096.44 828.092C1096.48 828.031 1096.51 827.965 1096.54 827.897L1098.87 821.846C1098.95 821.623 1099.12 821.438 1099.33 821.324L1105.5 818L1108.77 816.132C1108.92 816.045 1109.09 816 1109.27 816H1113.59C1113.85 816 1114.1 816.106 1114.3 816.287C1115.22 817.144 1116.78 818.358 1117.5 818C1118.5 817.5 1121.5 818.5 1123 819C1124.2 819.4 1126.17 820.833 1127 821.5C1128.67 822.5 1130.6 825.6 1131 826C1131.5 826.5 1136 827.5 1136 829C1136 829.931 1137 830.321 1137.84 830.448C1138.24 830.508 1138.6 830.738 1138.76 831.106L1139.87 833.7C1139.95 833.895 1139.97 834.112 1139.93 834.318L1138.5 840.5L1137.5 844L1136.05 848.346C1136.02 848.448 1136 848.555 1136 848.662V851.356C1136 851.748 1135.77 852.104 1135.41 852.268C1133.47 853.164 1130.36 854.639 1130 855C1129.5 855.5 1128.5 856 1127.5 855.5C1126.89 855.197 1126.06 853.918 1125.47 852.881C1125.2 852.401 1124.6 852.208 1124.06 852.337C1123.36 852.505 1122.52 852.523 1122 852C1121 851 1120.5 853 1119 852C1117.82 851.215 1115.27 850.687 1114.07 850.51C1114.02 850.503 1113.98 850.5 1113.93 850.5M1064.16 868.328C1064.38 868.441 1064.63 868.466 1064.86 868.403M1064.16 868.328C1064.38 868.44 1064.63 868.465 1064.86 868.403M1080.43 866.5C1080.48 866.5 1080.52 866.497 1080.57 866.49M1080.43 866.5C1080.48 866.5 1080.52 866.497 1080.57 866.49L1080.57 866.49M1060.99 980.975L1061.01 980.966M1060.99 980.975C1061 980.972 1061 980.969 1061.01 980.966M1060.99 980.975C1060.99 980.977 1060.98 980.978 1060.98 980.979M1258.84 977.994L1258.85 977.992M1258.84 977.994C1258.84 977.993 1258.85 977.992 1258.85 977.992M1258.87 977.987C1258.91 977.981 1258.94 977.973 1258.97 977.964C1258.97 977.963 1258.98 977.961 1258.98 977.96M1258.87 977.987L1258.85 977.992M1258.87 977.987C1258.87 977.989 1258.86 977.99 1258.85 977.992M1258.87 977.987C1258.91 977.98 1258.95 977.971 1258.98 977.96M1294.44 971.998C1294.43 972 1294.42 972.002 1294.41 972.005C1294.4 972.007 1294.39 972.009 1294.38 972.012L1286.27 974.397C1286.09 974.45 1285.91 974.451 1285.73 974.403L1281.12 973.146C1280.74 973.043 1280.34 973.17 1280.09 973.471L1275.87 978.529C1275.64 978.806 1275.28 978.937 1274.93 978.873L1270.22 978.016C1270.07 977.991 1269.94 977.934 1269.82 977.852L1265.52 974.844C1265.2 974.621 1264.78 974.603 1264.45 974.8L1259.18 977.871C1259.12 977.908 1259.05 977.938 1258.98 977.96M1294.44 971.998L1294.45 971.994M1294.44 971.998C1294.44 971.996 1294.45 971.995 1294.45 971.994M1294.47 971.991L1294.45 971.994M1294.47 971.991C1294.46 971.992 1294.46 971.993 1294.45 971.994M1113.45 993.62L1113.45 993.613M1113.45 993.62C1113.45 993.618 1113.45 993.616 1113.45 993.613M1113.46 993.6L1113.45 993.613M1113.46 993.6C1113.46 993.604 1113.46 993.609 1113.45 993.613M1113.46 993.6C1113.46 993.593 1113.46 993.586 1113.46 993.58M1113.49 993.413C1113.49 993.442 1113.49 993.471 1113.48 993.5C1113.48 993.527 1113.47 993.553 1113.46 993.58M1113.49 993.413C1113.49 993.469 1113.48 993.525 1113.46 993.58M1061.08 980.929L1061.07 980.935M1061.08 980.929C1061.08 980.931 1061.07 980.933 1061.07 980.935M1061.07 980.935C1061.06 980.942 1061.05 980.948 1061.04 980.953C1061.03 980.958 1061.02 980.962 1061.01 980.966M1061.01 980.966C1061 980.97 1060.99 980.975 1060.98 980.979M1155.04 1019.93C1155.02 1019.96 1155 1019.99 1154.98 1020.02C1154.98 1020.03 1154.97 1020.05 1154.97 1020.06M1155.04 1019.93C1155.01 1019.97 1154.99 1020.01 1154.97 1020.06M1002.5 755L997.5 763L999.5 771.5L1001 780L1002.5 787H997.5C996.3 787 987.333 789 983 790L969 794L960.5 801.5L952 808H939L924.5 806.5L914 804.5H893.5C891 805.167 885.6 806.5 884 806.5C882.4 806.5 881.333 805.167 881 804.5L875.5 808C874 807.5 870.8 806.5 870 806.5C869.2 806.5 864 803.833 861.5 802.5L855.5 798L849 795C846 795.333 839.9 796 839.5 796C839.1 796 833.333 797 830.5 797.5C827.833 797.667 822.4 797.9 822 797.5C821.6 797.1 817.166 795.333 815 794.5L812 791.5C811.6 791.1 810.166 790.667 809.5 790.5L806.5 792.5C805.833 792.333 804.4 792 804 792C803.5 792 801 792.5 801 791.5C801 790.7 800 789.833 799.5 789.5C799.333 789.167 799 788.4 799 788C799 787.5 798 785.5 798 785C798 784.6 797.333 782.833 797 782L795.5 778.5L794 776.5L791.5 774.5L788.5 773.5L784 772.5L780 772L775.5 772.5L772 773.5C770.333 773.167 766.8 772.4 766 772C765.2 771.6 762.333 768.167 761 766.5L756.5 760.5C754.5 759 750.4 755.9 750 755.5C749.6 755.1 746.166 753 744.5 752L735 748L720.5 745C717.333 744.667 710.9 743.9 710.5 743.5C710.1 743.1 702.666 743.333 699 743.5C698.666 742.167 697.9 739.4 697.5 739C697.1 738.6 695.333 735.833 694.5 734.5L691.5 730.5L688 725.5C685 723.167 678.9 718.2 678.5 717C678.1 715.8 673.333 710.167 671 707.5L670 705L671.5 701.5L669.5 699L667 695.5L663 691H710.5L744.5 701.5L780 705H815L839.5 717H900.5L928 725.5L957 734.5L983 739H987L988 743L992.5 742L997.5 743C998.166 743.333 999.5 744.1 999.5 744.5C999.5 744.9 1001.5 748.333 1002.5 750V755ZM600 1021L603.272 1015.39C603.417 1015.14 603.448 1014.84 603.357 1014.57L602.551 1012.15C602.517 1012.05 602.5 1011.95 602.5 1011.84V1004.71C602.5 1004.57 602.529 1004.43 602.586 1004.31L604.44 1000.14C604.48 1000.05 604.506 999.951 604.518 999.853L604.89 996.876C604.953 996.376 605.378 996 605.883 996H607.234C607.408 996 607.579 996.045 607.73 996.132L610.41 997.663C610.766 997.866 611.21 997.832 611.531 997.575L613.226 996.219C613.403 996.077 613.624 996 613.851 996H621.734C621.908 996 622.079 996.045 622.23 996.132L628.932 999.961C628.977 999.987 629.02 1000.02 629.061 1000.05L631.226 1001.78C631.403 1001.92 631.624 1002 631.851 1002H635.807C635.934 1002 636.061 1002.02 636.179 1002.07L638.33 1002.93C638.442 1002.98 638.545 1003.04 638.635 1003.12L644.4 1008.41C644.466 1008.47 644.524 1008.54 644.572 1008.62L649.394 1016.33C649.464 1016.44 649.511 1016.57 649.533 1016.7L650.473 1022.34C650.491 1022.45 650.525 1022.55 650.576 1022.64L655 1031L658.225 1035.61C658.399 1035.86 658.676 1036.01 658.978 1036.03L665.508 1036.47C665.818 1036.49 666.101 1036.65 666.273 1036.91L668.921 1040.88C668.973 1040.96 669.014 1041.05 669.043 1041.14L671.977 1050.43C671.992 1050.48 672.004 1050.53 672.011 1050.58L672.823 1055.85C672.916 1056.45 672.447 1057 671.834 1057H574.5C573.948 1057 573.5 1056.55 573.5 1056V1053.86C573.5 1053.63 573.58 1053.4 573.726 1053.22L577.947 1048.06C577.982 1048.02 578.021 1047.98 578.063 1047.95L581.848 1044.63C581.948 1044.55 582.065 1044.48 582.191 1044.44L586.406 1043.03C586.468 1043.01 586.533 1043 586.598 1042.99L594.159 1042.04C594.38 1042.01 594.585 1041.91 594.742 1041.76L596.707 1039.79C596.894 1039.61 597 1039.35 597 1039.09V1028.21C597 1028.07 597.027 1027.94 597.081 1027.81L600 1021Z" stroke="#9C84D8"/>
</g>
<defs>
<clipPath id="clip0_3966_1767">
<rect width="2048" height="1056" fill="white"/>
</clipPath>
</defs>
</svg>
