<svg width="2048" height="1056" viewBox="0 0 2048 1056" fill="none" xmlns="http://www.w3.org/2000/svg">
<g clip-path="url(#clip0_3966_1767)">
<path d="M2041.21 496.106L2049.79 500.394C2049.93 500.464 2050.08 500.5 2050.24 500.5H2063C2063.55 500.5 2064 500.948 2064 501.5V1059.5C2064 1060.05 2063.55 1060.5 2063 1060.5H876.592C876.005 1060.5 875.544 1060 875.596 1059.41L876.92 1044.41C876.965 1043.9 877.397 1043.5 877.916 1043.5H880.965C881.299 1043.5 881.611 1043.33 881.797 1043.05L884.42 1039.12C884.473 1039.04 884.538 1038.97 884.611 1038.91L887.333 1036.64C887.443 1036.55 887.572 1036.48 887.71 1036.44L892.871 1035.04C892.957 1035.01 893.045 1035 893.134 1035H894.5H900C901.2 1035 901.5 1032 901.5 1030.5V1026.15C901.5 1025.75 901.731 1025.4 902.09 1025.23L911.013 1021.22C911.317 1021.08 911.669 1021.11 911.951 1021.28C913.454 1022.24 916.2 1024.06 918 1025.5C920 1027.1 924.167 1024.83 926 1023.5L931.112 1019.78C931.357 1019.6 931.67 1019.55 931.963 1019.63L936.852 1020.96C936.95 1020.99 937.044 1021.03 937.129 1021.08L943.609 1025.25C943.857 1025.41 944.162 1025.45 944.444 1025.36L950.356 1023.54C950.452 1023.51 950.551 1023.5 950.65 1023.5H955.12C955.365 1023.5 955.601 1023.59 955.784 1023.75L960 1027.5L965.31 1032.81C965.434 1032.93 965.59 1033.02 965.76 1033.07L972.53 1034.87C972.827 1034.95 973.071 1035.16 973.192 1035.45L975.74 1041.39C975.898 1041.76 976.259 1042 976.659 1042H978.907C978.969 1042 979.031 1042.01 979.091 1042.02L986.909 1043.48C986.969 1043.49 987.031 1043.5 987.093 1043.5H990H994.551C994.837 1043.5 995.109 1043.62 995.298 1043.84L998.432 1047.36C998.759 1047.73 999.305 1047.8 999.72 1047.54L1005.8 1043.63C1005.93 1043.54 1006.08 1043.49 1006.23 1043.47L1018.87 1042.01C1018.96 1042 1019.04 1042.01 1019.13 1042.02L1029.34 1043.48C1029.45 1043.49 1029.55 1043.52 1029.65 1043.57L1037.71 1047.61C1038.16 1047.83 1038.71 1047.69 1038.98 1047.26C1040.03 1045.6 1041.5 1043.03 1041.5 1042V1040.31C1041.5 1039.65 1042.13 1039.17 1042.76 1039.34L1052.37 1041.96C1052.46 1041.99 1052.55 1042 1052.63 1042H1060.19C1060.39 1042 1060.59 1042.06 1060.76 1042.18L1066.41 1046.09C1066.76 1046.33 1067.23 1046.33 1067.58 1046.07L1072.51 1042.37C1072.81 1042.14 1073.21 1042.11 1073.55 1042.28L1081.51 1046.25C1081.81 1046.41 1082.18 1046.39 1082.47 1046.22L1089.06 1042.26C1089.34 1042.1 1089.67 1042.07 1089.97 1042.2L1092.56 1043.31C1092.84 1043.43 1093.16 1043.42 1093.42 1043.27L1100.37 1039.57C1100.46 1039.52 1100.54 1039.46 1100.61 1039.39L1101.63 1038.37C1101.86 1038.14 1102.19 1038.04 1102.52 1038.1L1109.4 1039.39C1109.77 1039.46 1110.14 1039.31 1110.37 1039.01L1116.34 1031.2C1116.45 1031.07 1116.58 1030.96 1116.73 1030.9L1120.76 1029.11C1120.92 1029.04 1121.05 1028.93 1121.16 1028.78L1124.83 1023.73C1124.94 1023.58 1125.09 1023.46 1125.27 1023.39L1129.23 1021.81C1129.68 1021.63 1130.19 1021.8 1130.44 1022.2L1135.88 1030.8C1135.96 1030.93 1136.07 1031.04 1136.2 1031.12L1141.72 1034.52C1142.16 1034.79 1142.74 1034.68 1143.05 1034.27L1145.36 1031.19C1145.45 1031.06 1145.57 1030.96 1145.71 1030.89L1152.41 1027.55C1152.47 1027.52 1152.53 1027.49 1152.6 1027.47L1167.34 1023.54C1167.45 1023.51 1167.55 1023.5 1167.66 1023.51L1200.27 1025.49C1200.42 1025.5 1200.57 1025.47 1200.71 1025.41L1220 1017.5L1241.55 1007.22C1241.83 1007.08 1242.16 1007.09 1242.44 1007.24L1258.85 1015.92C1258.95 1015.97 1259.06 1016.01 1259.17 1016.03L1268.93 1017.49C1268.98 1017.5 1269.02 1017.5 1269.07 1017.5H1284.37C1284.45 1017.5 1284.54 1017.49 1284.63 1017.47C1286.51 1016.96 1290.22 1016 1291 1016C1291.71 1016 1295.13 1016.8 1297.28 1017.32C1297.71 1017.43 1298.15 1017.24 1298.38 1016.86L1300.82 1012.81C1300.93 1012.61 1301.12 1012.46 1301.34 1012.38L1307.57 1010.15C1307.84 1010.06 1308.15 1010.08 1308.4 1010.23L1315 1014L1319.47 1015.79C1319.8 1015.92 1320.17 1015.87 1320.45 1015.65L1324.29 1012.67C1324.43 1012.56 1324.53 1012.41 1324.6 1012.25L1327.5 1005L1331.43 994.679C1331.48 994.561 1331.54 994.452 1331.63 994.359L1336.82 988.691C1336.94 988.566 1337.08 988.472 1337.25 988.418L1344.18 986.105C1344.39 986.037 1344.61 986.037 1344.82 986.105L1351.44 988.313C1351.78 988.428 1352.17 988.345 1352.43 988.097L1358.29 982.656C1358.69 982.29 1359.3 982.301 1359.68 982.681L1362.71 985.707C1362.89 985.895 1363.15 986 1363.41 986H1369.84C1369.95 986 1370.05 985.983 1370.15 985.949L1375.61 984.131C1375.86 984.047 1376.07 983.867 1376.19 983.63L1376.89 982.211C1376.96 982.072 1377 981.919 1377 981.764V977.236C1377 977.081 1377.04 976.928 1377.11 976.789L1378.22 974.553C1378.39 974.214 1378.74 974 1379.12 974H1380.65C1380.88 974 1381.1 973.923 1381.27 973.781L1383.38 972.097C1383.46 972.033 1383.53 971.956 1383.59 971.871L1386.97 966.793C1387.27 966.349 1387.86 966.216 1388.32 966.491L1391.77 968.559C1392.19 968.813 1392.73 968.721 1393.05 968.342L1395 966L1400.9 960.102C1400.97 960.034 1401.02 959.957 1401.07 959.874L1404 954.5L1405.87 951.696C1405.96 951.567 1406.07 951.46 1406.2 951.383L1409.5 949.5L1415.7 946.637C1415.9 946.548 1416.06 946.4 1416.16 946.215L1418.34 942.289C1418.44 942.102 1418.48 941.885 1418.46 941.672L1417.52 934.613C1417.51 934.538 1417.49 934.464 1417.46 934.394L1416.11 930.782C1416.04 930.598 1416.02 930.398 1416.07 930.206L1417.47 924.134C1417.49 924.045 1417.52 923.959 1417.57 923.88L1420.31 918.845C1420.43 918.623 1420.63 918.456 1420.87 918.376L1425.53 916.825C1426.06 916.647 1426.34 916.063 1426.15 915.534L1424.67 911.475C1424.56 911.177 1424.6 910.844 1424.78 910.579L1429.5 903.5L1434.36 896.702C1434.45 896.569 1434.58 896.462 1434.72 896.389L1437.19 895.153C1437.39 895.054 1437.62 895.024 1437.84 895.067L1441.3 895.761C1441.92 895.885 1442.5 895.411 1442.5 894.78V887.015C1442.5 886.692 1442.66 886.389 1442.92 886.201L1445.58 884.299C1445.84 884.111 1446 883.808 1446 883.485V879C1446 878.448 1446.45 878 1447 878H1452.63C1452.87 878 1453.1 878.085 1453.28 878.241L1455.46 880.105C1455.97 880.547 1456.77 880.357 1457.03 879.73L1459 875L1460.8 871.4C1460.93 871.145 1461.16 870.957 1461.43 870.882L1466.13 869.601C1466.37 869.536 1466.62 869.561 1466.84 869.671L1472.77 872.635C1473.2 872.848 1473.72 872.734 1473.97 872.332C1475.4 870.028 1475.77 867 1476.5 867C1477.28 867 1484.99 866.042 1487.35 866.001C1487.45 866 1487.55 866.015 1487.64 866.044L1493.72 867.913C1493.9 867.97 1494.1 867.972 1494.29 867.919L1500.63 866.106C1500.87 866.038 1501.07 865.884 1501.2 865.674L1503.31 862.305C1503.43 862.108 1503.48 861.874 1503.45 861.643L1502.63 855.499C1502.56 854.949 1502.95 854.444 1503.5 854.375L1509.62 853.609C1510.12 853.547 1510.5 853.122 1510.5 852.617V847.515C1510.5 847.192 1510.66 846.889 1510.92 846.701L1517.5 842L1519.6 840.738C1519.86 840.587 1520.03 840.333 1520.08 840.044L1521.47 831.687C1521.49 831.564 1521.53 831.445 1521.6 831.337L1524.36 826.737C1524.45 826.582 1524.5 826.404 1524.5 826.223V821.662C1524.5 821.555 1524.48 821.448 1524.45 821.346L1523.08 817.246C1523.03 817.085 1523.02 816.912 1523.05 816.745L1524.5 809L1525.89 804.37C1525.96 804.132 1525.94 803.876 1525.83 803.651L1520.67 792.846C1520.56 792.623 1520.54 792.369 1520.61 792.132L1522.89 784.357C1522.96 784.127 1522.95 783.88 1522.85 783.661L1520.59 778.697C1520.53 778.567 1520.5 778.426 1520.5 778.283V771.259C1520.5 771.089 1520.54 770.922 1520.63 770.773L1522.92 766.636C1522.97 766.546 1523.01 766.448 1523.03 766.347L1524.38 759.621C1524.45 759.242 1524.74 758.94 1525.11 758.846L1530.07 757.607C1530.34 757.539 1530.58 757.359 1530.71 757.111L1533.91 751.162C1533.97 751.055 1534.01 750.938 1534.02 750.817L1535.5 739.5V733.662C1535.5 733.555 1535.48 733.448 1535.45 733.346L1534.09 729.259C1534.03 729.089 1534.02 728.908 1534.06 728.733L1535.37 722.609C1535.45 722.236 1535.73 721.941 1536.1 721.849L1539.22 721.071C1539.4 721.025 1539.6 721.032 1539.78 721.092L1544.98 722.826C1545.3 722.935 1545.55 723.201 1545.63 723.533L1546.97 728.872C1546.99 728.957 1547.02 729.039 1547.06 729.115L1549.37 733.273C1549.46 733.422 1549.5 733.589 1549.5 733.759V738.736C1549.5 739.187 1549.8 739.582 1550.24 739.701L1554.7 740.919C1554.9 740.972 1555.07 741.081 1555.2 741.233L1557.79 744.258C1557.93 744.415 1558.01 744.611 1558.03 744.818L1558.96 755.082C1558.99 755.349 1559.12 755.596 1559.32 755.766L1564.27 759.809C1564.42 759.933 1564.53 760.1 1564.59 760.289L1566.5 766.5L1567.48 770.893C1567.49 770.964 1567.5 771.037 1567.5 771.11V776.307C1567.5 776.724 1567.24 777.097 1566.85 777.243L1563.93 778.34C1563.66 778.442 1563.44 778.655 1563.34 778.926L1562.06 782.33C1562.02 782.443 1562 782.561 1562 782.681V788.5V790.5C1562 791.052 1562.45 791.5 1563 791.5H1566.5C1567.05 791.5 1567.5 791.052 1567.5 790.5V783.5C1567.5 782.948 1567.95 782.5 1568.5 782.5H1571.23C1571.68 782.5 1572.08 782.194 1572.2 781.755L1574.42 773.312C1574.47 773.109 1574.46 772.895 1574.38 772.699L1572.06 766.658C1572.02 766.553 1571.96 766.456 1571.89 766.371L1566.71 760.245C1566.57 760.086 1566.49 759.888 1566.47 759.68L1565.03 741.829C1565.01 741.615 1564.92 741.413 1564.78 741.251L1558.2 733.728C1558.07 733.579 1557.99 733.395 1557.96 733.199L1556.57 722.565C1556.53 722.215 1556.3 721.915 1555.98 721.775L1550.11 719.26C1549.74 719.102 1549.5 718.741 1549.5 718.341V711.783C1549.5 711.598 1549.45 711.417 1549.35 711.259L1545.5 705L1542.59 700.149C1542.53 700.05 1542.49 699.943 1542.47 699.83L1541.57 695.336C1541.52 695.118 1541.55 694.892 1541.65 694.693L1543.44 691.121C1543.48 691.041 1543.53 690.966 1543.59 690.899L1548 686L1551.4 682.599C1551.47 682.533 1551.52 682.461 1551.57 682.38C1553.26 679.338 1556.82 673.289 1558 672.5C1559.5 671.5 1558 669 1558 668C1558 667 1556.5 665.5 1556.5 664V658V654.099C1556.5 654.033 1556.51 653.967 1556.52 653.903L1557.96 646.72C1557.98 646.575 1557.98 646.425 1557.95 646.282L1556.53 640.619C1556.51 640.54 1556.5 640.459 1556.5 640.377V634.046C1556.5 633.706 1556.67 633.389 1556.96 633.205L1563.5 629L1567.77 626.63C1567.92 626.545 1568.05 626.422 1568.14 626.271C1569.18 624.521 1571.12 621.148 1571.5 620C1571.87 618.885 1574.57 619.41 1576.16 619.892C1576.38 619.959 1576.62 619.954 1576.83 619.871L1582.55 617.675C1582.83 617.564 1583.05 617.329 1583.14 617.035L1584.96 611.144C1584.99 611.048 1585 610.949 1585 610.85V604.074C1585 603.719 1585.19 603.39 1585.5 603.211L1590.77 600.136C1590.92 600.047 1591.09 600 1591.27 600H1599.5C1599.81 600 1600.11 599.852 1600.3 599.6L1604.45 594.062C1604.48 594.021 1604.51 593.977 1604.54 593.932L1608.27 586.923C1608.42 586.656 1608.43 586.338 1608.31 586.059L1607.08 583.189C1607.03 583.064 1607 582.93 1607 582.795V577.554C1607 577.209 1607.18 576.889 1607.47 576.706L1610.76 574.649C1610.92 574.552 1611.04 574.413 1611.13 574.248L1612.84 570.828C1612.94 570.616 1613.12 570.449 1613.34 570.356L1615.68 569.352C1616.15 569.151 1616.39 568.632 1616.24 568.145L1615.12 564.4C1615.04 564.144 1615.07 563.868 1615.2 563.634L1617.82 558.832C1617.94 558.618 1618.13 558.454 1618.36 558.371L1623.29 556.576C1623.43 556.526 1623.55 556.446 1623.66 556.343L1625.29 554.709C1625.43 554.573 1625.6 554.479 1625.79 554.438L1632.4 553.022C1632.47 553.007 1632.54 553 1632.61 553H1639.24C1639.41 553 1639.58 552.958 1639.72 552.878L1645 550L1650.5 546L1654.49 543.786C1654.8 543.609 1655 543.275 1655 542.912V538.287C1655 538.099 1655.05 537.916 1655.15 537.757L1657.21 534.47C1657.39 534.178 1657.71 534 1658.05 534H1663.81C1663.93 534 1664.06 533.976 1664.18 533.928L1669 532L1674.82 529.577C1674.94 529.526 1675.07 529.5 1675.2 529.5H1680.83C1680.94 529.5 1681.06 529.52 1681.16 529.558L1687.84 531.942C1687.94 531.98 1688.06 532 1688.17 532H1698.5H1706.05C1706.34 532 1706.61 531.878 1706.8 531.664L1710.2 527.836C1710.39 527.622 1710.66 527.5 1710.95 527.5H1717.29C1717.43 527.5 1717.57 527.529 1717.69 527.586L1721.59 529.316C1721.85 529.433 1722.15 529.431 1722.41 529.31L1728.3 526.592C1728.43 526.531 1728.57 526.5 1728.72 526.5H1733.72C1733.9 526.5 1734.08 526.549 1734.24 526.643L1738.42 529.154C1738.77 529.363 1739.21 529.341 1739.54 529.097L1743 526.5L1749.71 520.267C1749.9 520.095 1750.14 520 1750.39 520H1754L1762.12 519.044C1762.37 519.016 1762.59 518.899 1762.75 518.716L1766.32 514.7C1766.44 514.569 1766.59 514.471 1766.75 514.415L1771 513L1777.5 510.5L1783.62 508.618C1783.86 508.542 1784.13 508.564 1784.36 508.679L1787.39 510.197C1787.76 510.38 1788.2 510.322 1788.51 510.05L1792.22 506.753C1792.4 506.59 1792.64 506.5 1792.88 506.5H1797.38C1797.76 506.5 1798.11 506.286 1798.28 505.947L1800 502.5L1803.38 496.214C1803.46 496.073 1803.57 495.953 1803.7 495.863L1813 489.5L1818.69 484.755C1818.89 484.591 1819.02 484.358 1819.05 484.104L1819.93 476.605C1819.97 476.234 1820.22 475.917 1820.57 475.786L1823.63 474.638C1823.87 474.549 1824.06 474.375 1824.18 474.149L1827.42 467.665C1827.47 467.556 1827.55 467.458 1827.64 467.375L1833.21 462.263C1833.4 462.094 1833.64 462 1833.89 462H1841.42C1841.47 462 1841.53 462.005 1841.58 462.014L1853.42 463.986C1853.47 463.995 1853.53 464 1853.58 464H1865.5H1871.12C1871.37 464 1871.6 464.088 1871.78 464.247L1875.31 467.331C1875.43 467.442 1875.53 467.583 1875.59 467.742L1877.33 472.546C1877.44 472.833 1877.67 473.056 1877.96 473.153L1881.85 474.449C1881.95 474.483 1882.05 474.5 1882.16 474.5H1886H1891.29C1891.43 474.5 1891.56 474.528 1891.69 474.581L1894.85 475.935C1894.95 475.978 1895.04 476.037 1895.12 476.111L1900 480.5L1908 488L1911.65 491.198C1911.87 491.39 1912.17 491.476 1912.45 491.435L1918.71 490.541C1918.9 490.514 1919.09 490.542 1919.27 490.621L1924.43 492.967C1924.48 492.989 1924.52 493.015 1924.57 493.045L1928.94 495.96C1928.98 495.987 1929.02 496.016 1929.05 496.049L1933.71 500.243C1933.9 500.409 1934.14 500.5 1934.38 500.5H1937.88C1938.48 500.5 1938.94 501.018 1938.88 501.61L1938.04 509.12C1938.02 509.365 1938.08 509.611 1938.22 509.811L1939.89 512.141C1940.22 512.608 1940.88 512.699 1941.32 512.34L1942.85 511.121C1942.95 511.041 1943.06 510.981 1943.19 510.944L1947.68 509.597C1947.89 509.534 1948.11 509.542 1948.32 509.618L1951.83 510.936C1951.94 510.978 1952.05 511.041 1952.14 511.12L1955.8 514.321C1955.93 514.438 1956.03 514.589 1956.09 514.758L1957.36 518.582C1957.45 518.848 1957.65 519.065 1957.9 519.179L1961.37 520.721C1961.75 520.889 1962.19 520.807 1962.49 520.514L1963.71 519.293C1963.89 519.105 1964.15 519 1964.41 519H1969.52C1969.82 519 1970.11 519.138 1970.3 519.375L1972.93 522.66C1973.41 523.258 1974.35 523.118 1974.64 522.407L1975.75 519.629C1975.9 519.249 1976.27 519 1976.68 519H1981.5H1983.02C1983.32 519 1983.61 519.138 1983.8 519.375L1986.52 522.78C1986.98 523.349 1987.87 523.255 1988.2 522.602L1989.92 519.169C1989.97 519.057 1990.05 518.957 1990.14 518.873L1994.82 514.659C1994.94 514.554 1995.08 514.479 1995.23 514.437L2000.37 513.035C2000.46 513.012 2000.54 513 2000.63 513H2009C2009.99 513 2013.93 514.326 2014.8 514.802L2016.21 515.569C2016.66 515.814 2017.22 515.681 2017.51 515.261L2021.07 510.117C2021.33 509.751 2021.79 509.597 2022.21 509.737L2025.31 510.769C2025.72 510.906 2026.17 510.76 2026.43 510.408L2029.83 505.733C2029.94 505.581 2030.09 505.463 2030.27 505.393L2034.37 503.751C2034.75 503.6 2035 503.232 2035 502.823V500.61C2035 500.537 2035.01 500.464 2035.02 500.393L2035.83 496.783C2035.93 496.326 2036.33 496 2036.8 496H2040.76C2040.92 496 2041.07 496.036 2041.21 496.106Z" fill="#52ACCC" fill-opacity="0.9"/>
<path d="M2001.66 501.682L2005.81 493.37C2005.93 493.133 2006.14 492.953 2006.39 492.871C2008 492.346 2010.76 491.5 2011.5 491.5C2012.28 491.5 2016.33 492.14 2018.38 492.479C2018.46 492.493 2018.54 492.517 2018.62 492.552L2023 494.5L2027.3 496.891C2027.43 496.963 2027.54 497.063 2027.63 497.183L2029.12 499.27C2029.54 499.853 2029.22 500.672 2028.52 500.828L2021.12 502.473C2021.04 502.491 2020.96 502.518 2020.89 502.554C2018.85 503.57 2014.79 505.5 2014 505.5C2013.22 505.5 2010.5 506.129 2009.12 506.47C2009.04 506.49 2008.96 506.5 2008.88 506.5H2003.3C2002.83 506.5 2002.43 506.174 2002.33 505.717L2001.58 502.347C2001.53 502.122 2001.56 501.888 2001.66 501.682Z" fill="#52ACCC" fill-opacity="0.9"/>
<path d="M1997.81 507.633L1990.26 512.824C1990.09 512.939 1989.89 513 1989.69 513H1983.5H1978.54C1978.2 513 1977.89 513.167 1977.7 513.445L1976.2 515.694C1976.07 515.892 1975.88 516.036 1975.65 516.1C1974.38 516.45 1972.23 517 1971.5 517C1970.54 517 1968.65 514.691 1967.18 515.843C1967.05 515.938 1966.98 516.081 1966.91 516.219C1966.34 517.341 1964.89 516 1963 516C1961 516 1962 516 1961 514.5L1960.17 513.252C1960.06 513.087 1960 512.895 1960 512.697V510.035C1960 509.701 1959.83 509.386 1959.54 509.221C1958.96 508.889 1958.11 508.5 1957.5 508.5H1952.19C1952.06 508.5 1951.94 508.476 1951.82 508.428C1950.91 508.053 1949.12 507.247 1948 506.5C1946.5 505.5 1946.5 503.5 1945.5 503.5C1944.75 503.5 1944.53 500.869 1944.5 499.303C1944.5 499.105 1944.56 498.912 1944.67 498.748L1946.2 496.445C1946.39 496.167 1946.7 496 1947.04 496H1950.81C1950.93 496 1951.06 496.024 1951.18 496.072L1955.88 497.952C1955.96 497.984 1956.04 498.005 1956.13 498.016L1963.74 498.967C1963.91 498.989 1964.07 499.054 1964.21 499.159C1965.61 500.207 1968.12 502.12 1968.5 502.5C1968.88 502.882 1973.24 504.507 1975.66 505.379C1975.88 505.458 1976.12 505.456 1976.34 505.377L1981.33 503.56C1981.44 503.52 1981.56 503.5 1981.68 503.5H1992L1998.68 503.107C1999.47 503.061 2000 503.901 1999.62 504.591L1998.11 507.295C1998.04 507.43 1997.93 507.546 1997.81 507.633Z" fill="#52ACCC" fill-opacity="0.9"/>
<path d="M1375.95 975.086L1374.07 978.384C1374.02 978.461 1373.97 978.532 1373.91 978.595L1372.79 979.707C1372.61 979.895 1372.35 979.999 1372.09 980.003C1370.66 980.022 1368.36 980.138 1368 980.5C1367.5 981 1366 980 1365.5 980C1365.17 980 1363.89 979.307 1362.99 978.787C1362.68 978.611 1362.5 978.285 1362.5 977.934V973.5L1362.98 969.147C1362.99 969.05 1363.02 968.954 1363.06 968.864L1364.41 965.709C1364.47 965.571 1364.56 965.449 1364.67 965.35L1368.36 962.123C1368.45 962.042 1368.56 961.978 1368.68 961.936C1370.57 961.252 1374.22 960 1375 960C1375.78 960 1378.56 961.282 1379.92 961.96C1379.97 961.987 1380.02 962.018 1380.07 962.054L1381.6 963.2C1381.85 963.389 1382 963.685 1382 964V965.307C1382 965.435 1381.98 965.561 1381.93 965.679L1381.1 967.74C1381.04 967.91 1380.92 968.058 1380.78 968.168L1379.1 969.424C1379.03 969.474 1378.97 969.533 1378.92 969.599L1377.11 971.861C1377.04 971.953 1376.98 972.057 1376.94 972.169L1376.03 974.906C1376.01 974.969 1375.98 975.029 1375.95 975.086Z" fill="#52ACCC" fill-opacity="0.9"/>
<path d="M1449.4 874.042L1443.5 876.5L1441.43 877.091C1440.75 877.286 1440.09 876.725 1440.16 876.019L1440.5 873L1441.5 867L1442.47 862.159C1442.49 862.054 1442.53 861.953 1442.58 861.86C1443.28 860.641 1444.62 858.269 1445 857.5C1445.5 856.5 1448.5 854.5 1449.5 854.5C1450.25 854.5 1452.85 853.019 1454.26 852.151C1454.42 852.053 1454.6 852 1454.79 852H1458.26C1458.7 852 1459.09 851.714 1459.22 851.294L1460.89 845.856C1460.96 845.627 1461.11 845.43 1461.32 845.302L1468.75 840.657C1468.91 840.555 1469.04 840.407 1469.13 840.232L1472.5 833L1476.31 826.81C1476.43 826.61 1476.62 826.46 1476.84 826.386C1478.93 825.692 1482.62 824.5 1483 824.5H1489.05C1489.34 824.5 1489.61 824.376 1489.8 824.159L1493 820.5C1494 819.167 1496.2 816.3 1497 815.5C1498 814.5 1497 810.5 1497 810C1497 809.605 1496.35 805.607 1496.01 803.58C1496 803.526 1496 803.472 1496 803.417V800.193C1496 800.065 1496.02 799.939 1496.07 799.821L1497.95 795.116C1497.98 795.039 1498.01 794.958 1498.02 794.876L1499 787.5V782.827C1499 782.615 1499.07 782.408 1499.19 782.236L1504.5 775L1512.79 765.74C1512.92 765.584 1513.11 765.476 1513.31 765.43L1516.14 764.802C1516.81 764.654 1517.42 765.205 1517.35 765.885L1516 778.5L1515.04 783.785C1515.01 783.927 1514.96 784.061 1514.87 784.179L1511.87 788.476C1511.64 788.795 1511.63 789.216 1511.82 789.553L1514.92 794.867C1514.97 794.955 1515.04 795.035 1515.11 795.103L1520.17 799.702C1520.38 799.892 1520.5 800.161 1520.5 800.442V813.417C1520.5 813.472 1520.5 813.527 1520.49 813.582L1520.06 816.123C1520.02 816.366 1519.89 816.585 1519.7 816.739L1518.37 817.802C1517.91 818.174 1517.87 818.869 1518.29 819.29L1520.21 821.207C1520.39 821.395 1520.5 821.649 1520.5 821.914V827.877C1520.5 827.959 1520.49 828.04 1520.47 828.119L1518.59 835.656C1518.53 835.878 1518.4 836.075 1518.22 836.213L1512.69 840.36C1512.56 840.452 1512.42 840.515 1512.27 840.543L1505.09 841.889C1504.73 841.957 1504.43 842.222 1504.32 842.577L1502.61 848.148C1502.54 848.375 1502.39 848.57 1502.19 848.698L1497.46 851.705C1497.17 851.889 1497 852.207 1497 852.549V856.882C1497 857.261 1496.79 857.607 1496.45 857.776L1494.08 858.958C1494.03 858.986 1493.97 859.009 1493.91 859.026L1483.57 861.979C1483.52 861.993 1483.47 862.003 1483.42 862.01L1471.57 863.491C1471.52 863.497 1471.48 863.507 1471.43 863.52L1459.36 866.9C1459.13 866.965 1458.93 867.109 1458.79 867.308L1455.24 872.647C1455.09 872.872 1454.85 873.027 1454.58 873.076L1449.61 873.981C1449.54 873.994 1449.47 874.014 1449.4 874.042Z" fill="#52ACCC" fill-opacity="0.9"/>
<path d="M1520.88 746.231L1523.74 744.186C1523.91 744.065 1524.11 744 1524.32 744H1526.67C1526.88 744 1527.09 744.07 1527.27 744.2L1528.36 745.022C1528.74 745.302 1528.87 745.802 1528.68 746.228L1527.04 749.907C1527.01 749.969 1526.98 750.028 1526.94 750.082L1524.58 753.387C1524.53 753.462 1524.46 753.529 1524.39 753.586C1523.52 754.275 1521.88 755.5 1521.5 755.5C1521.12 755.5 1520.43 753.737 1520.07 752.694C1520.02 752.566 1520.01 752.43 1520.02 752.295L1520.46 746.962C1520.49 746.669 1520.64 746.402 1520.88 746.231Z" fill="#52ACCC" fill-opacity="0.9"/>
<path d="M1689.76 525.597L1685.42 527.333C1685.15 527.439 1684.85 527.427 1684.6 527.299L1681 525.5L1676.95 522.797C1676.67 522.611 1676.5 522.299 1676.5 521.965V519.721C1676.5 519.29 1676.78 518.908 1677.18 518.772L1683.93 516.522C1683.98 516.508 1684.02 516.489 1684.06 516.468L1688 514.5L1691.83 513.064C1691.94 513.022 1692.06 513 1692.18 513H1701C1702.84 513 1706.81 514.132 1708.98 514.831C1709.31 514.935 1709.66 514.872 1709.92 514.66L1711.74 513.211C1711.91 513.074 1712.03 512.886 1712.08 512.673C1712.43 511.245 1713 508.74 1713 508C1713 507.284 1713.53 505.446 1713.89 504.351C1713.96 504.124 1714.11 503.932 1714.32 503.81L1716.01 502.791C1716.32 502.611 1716.5 502.285 1716.5 501.934V498.5V495.86C1716.5 495.186 1717.15 494.704 1717.8 494.906L1724.23 496.916C1724.41 496.971 1724.59 496.976 1724.77 496.932L1728.3 496.05C1728.43 496.017 1728.57 496.012 1728.71 496.034L1734.31 496.969C1734.44 496.989 1734.56 497.033 1734.66 497.098L1736.76 498.357C1736.92 498.451 1737.1 498.5 1737.28 498.5H1743C1744.14 498.5 1746.58 496.99 1747.82 496.126C1747.94 496.043 1748.04 495.935 1748.11 495.81L1749.96 492.576C1749.99 492.526 1750.02 492.477 1750.06 492.432L1752.31 489.731C1752.43 489.58 1752.6 489.47 1752.79 489.414L1757.5 488L1761.87 486.251C1762.25 486.1 1762.5 485.732 1762.52 485.324C1762.61 483.84 1762.97 481.525 1764 480.5C1765.06 479.443 1766.97 479.86 1768.09 480.316C1768.36 480.424 1768.65 480.439 1768.92 480.333L1770.37 479.751C1770.75 479.6 1771 479.232 1771 478.823V475.5C1771 474.948 1771.45 474.5 1772 474.5H1774H1780C1782.33 474.333 1787.2 474.1 1788 474.5C1788.8 474.9 1792.67 475.667 1794.5 476L1801.37 476.981C1801.46 476.994 1801.54 476.994 1801.63 476.983L1809.01 476.061C1809.32 476.022 1809.63 476.128 1809.85 476.346L1812.56 479.056C1812.83 479.327 1812.92 479.731 1812.79 480.093L1809.7 488.92C1809.58 489.276 1809.26 489.531 1808.89 489.581L1802.12 490.484C1802.04 490.494 1801.96 490.516 1801.88 490.546L1794.91 493.337C1794.65 493.441 1794.44 493.649 1794.34 493.91L1790.75 503.356C1790.6 503.744 1790.23 504 1789.81 504H1768.56C1768.21 504 1767.89 504.181 1767.71 504.479L1762.73 512.63C1762.58 512.866 1762.35 513.032 1762.08 513.088L1748.14 515.972C1748.05 515.991 1747.96 516.022 1747.88 516.064L1735.79 522.347C1735.6 522.446 1735.39 522.482 1735.17 522.447L1720.32 520.051C1720.11 520.018 1719.9 520.05 1719.71 520.144L1705.27 527.363C1705.1 527.452 1704.89 527.486 1704.7 527.459L1690.26 525.535C1690.09 525.512 1689.92 525.534 1689.76 525.597Z" fill="#52ACCC" fill-opacity="0.9"/>
<path d="M1974.91 339.311L1972.67 347.403C1972.56 347.769 1972.68 348.16 1972.96 348.414L1977.38 352.388C1977.46 352.462 1977.53 352.549 1977.58 352.646L1982.29 361.125C1982.42 361.365 1982.45 361.648 1982.37 361.909L1980.05 369.33C1980.02 369.442 1979.96 369.548 1979.89 369.641L1975.3 375.61C1975.11 375.856 1974.82 376 1974.51 376H1962.66C1962.55 376 1962.45 376.017 1962.35 376.051L1955.39 378.369C1955.14 378.453 1954.93 378.633 1954.81 378.87L1951.06 386.379C1951.02 386.459 1950.97 386.534 1950.91 386.601L1946.72 391.253C1946.58 391.414 1946.39 391.523 1946.17 391.565L1929.36 394.928C1929.13 394.974 1928.89 394.937 1928.68 394.821L1925.06 392.81C1924.72 392.621 1924.3 392.646 1923.98 392.875L1919.09 396.431C1919.03 396.477 1918.97 396.53 1918.92 396.589L1913.18 403.29C1913.06 403.427 1912.91 403.53 1912.74 403.588L1904.15 406.449C1904.05 406.483 1903.95 406.5 1903.84 406.5H1897.47C1897.17 406.5 1896.89 406.368 1896.7 406.14L1892.23 400.778C1892.08 400.598 1892 400.372 1892 400.138V385.585C1892 385.224 1891.81 384.89 1891.49 384.713L1884.27 380.65C1884.09 380.552 1883.95 380.405 1883.86 380.226L1880.64 373.785C1880.55 373.6 1880.4 373.448 1880.22 373.35L1873 369.5L1862.5 364.5L1853.24 358.649C1853.08 358.551 1852.96 358.414 1852.88 358.251L1850.11 352.711C1850.04 352.572 1850 352.419 1850 352.264V339.167C1850 339.056 1850.02 338.947 1850.05 338.842L1856 321.5L1862.5 304.5L1868.5 291L1872.87 283.717C1872.96 283.575 1873.08 283.456 1873.22 283.371L1883.75 277.15C1883.91 277.052 1884.05 276.908 1884.13 276.736L1886.96 271.077C1886.99 271.026 1887.01 270.972 1887.02 270.917L1888.39 266.383C1888.46 266.137 1888.62 265.929 1888.85 265.802L1895 262.288C1895.31 262.11 1895.5 261.779 1895.5 261.42V256.662C1895.5 256.555 1895.52 256.448 1895.55 256.346L1896.95 252.154C1896.98 252.052 1897.03 251.956 1897.1 251.87L1899.75 248.337C1899.91 248.122 1900.15 247.98 1900.42 247.945L1911.1 246.552C1911.36 246.518 1911.59 246.389 1911.75 246.191L1917.7 238.869C1917.89 238.636 1918.17 238.5 1918.48 238.5H1924.5H1938.5H1946.28C1946.43 238.5 1946.57 238.469 1946.7 238.408L1952.61 235.68C1952.86 235.565 1953.14 235.558 1953.4 235.66L1960.29 238.418C1960.43 238.472 1960.55 238.555 1960.65 238.662L1967.61 246.088C1967.85 246.344 1968.21 246.455 1968.55 246.382L1975 245L1982.28 243.544C1982.42 243.515 1982.57 243.519 1982.72 243.555L1988.18 244.92C1988.39 244.972 1988.57 245.09 1988.71 245.257L1992.82 250.28C1992.94 250.424 1993.01 250.597 1993.04 250.781L1993.98 257.887C1993.99 257.962 1994.01 258.036 1994.04 258.106L1997 266L1999.88 273.669C1999.96 273.883 2000.11 274.063 2000.31 274.179L2008.01 278.71C2008.31 278.89 2008.5 279.218 2008.5 279.572V286.394C2008.5 286.464 2008.49 286.535 2008.48 286.604L2005.5 300.5L2002.5 310L2000.06 321.213C2000.02 321.4 1999.93 321.572 1999.79 321.708L1994.12 327.379C1994.04 327.459 1993.95 327.525 1993.85 327.574L1982.6 332.95C1982.53 332.983 1982.47 333.024 1982.41 333.072L1975.25 338.798C1975.09 338.929 1974.97 339.109 1974.91 339.311Z" fill="#52ACCC" fill-opacity="0.9"/>
<path d="M2041.21 496.106L2049.79 500.394C2049.93 500.464 2050.08 500.5 2050.24 500.5H2063C2063.55 500.5 2064 500.948 2064 501.5V1059.5C2064 1060.05 2063.55 1060.5 2063 1060.5H876.592C876.005 1060.5 875.544 1060 875.596 1059.41L876.92 1044.41C876.965 1043.9 877.397 1043.5 877.916 1043.5H880.965C881.299 1043.5 881.611 1043.33 881.797 1043.05L884.42 1039.12C884.473 1039.04 884.538 1038.97 884.611 1038.91L887.333 1036.64C887.443 1036.55 887.572 1036.48 887.71 1036.44L892.871 1035.04C892.957 1035.01 893.045 1035 893.134 1035H894.5H900C901.2 1035 901.5 1032 901.5 1030.5V1026.15C901.5 1025.75 901.731 1025.4 902.09 1025.23L911.013 1021.22C911.317 1021.08 911.669 1021.11 911.951 1021.28C913.454 1022.24 916.2 1024.06 918 1025.5C920 1027.1 924.167 1024.83 926 1023.5L931.112 1019.78C931.357 1019.6 931.67 1019.55 931.963 1019.63L936.852 1020.96C936.95 1020.99 937.044 1021.03 937.129 1021.08L943.609 1025.25C943.857 1025.41 944.162 1025.45 944.444 1025.36L950.356 1023.54C950.452 1023.51 950.551 1023.5 950.65 1023.5H955.12C955.365 1023.5 955.601 1023.59 955.784 1023.75L960 1027.5L965.31 1032.81C965.434 1032.93 965.59 1033.02 965.76 1033.07L972.53 1034.87C972.827 1034.95 973.071 1035.16 973.192 1035.45L975.74 1041.39C975.898 1041.76 976.259 1042 976.659 1042H978.907C978.969 1042 979.031 1042.01 979.091 1042.02L986.909 1043.48C986.969 1043.49 987.031 1043.5 987.093 1043.5H990H994.551C994.837 1043.5 995.109 1043.62 995.298 1043.84L998.432 1047.36C998.759 1047.73 999.305 1047.8 999.72 1047.54L1005.8 1043.63C1005.93 1043.54 1006.08 1043.49 1006.23 1043.47L1018.87 1042.01C1018.96 1042 1019.04 1042.01 1019.13 1042.02L1029.34 1043.48C1029.45 1043.49 1029.55 1043.52 1029.65 1043.57L1037.71 1047.61C1038.16 1047.83 1038.71 1047.69 1038.98 1047.26C1040.03 1045.6 1041.5 1043.03 1041.5 1042V1040.31C1041.5 1039.65 1042.13 1039.17 1042.76 1039.34L1052.37 1041.96C1052.46 1041.99 1052.55 1042 1052.63 1042H1060.19C1060.39 1042 1060.59 1042.06 1060.76 1042.18L1066.41 1046.09C1066.76 1046.33 1067.23 1046.33 1067.58 1046.07L1072.51 1042.37C1072.81 1042.14 1073.21 1042.11 1073.55 1042.28L1081.51 1046.25C1081.81 1046.41 1082.18 1046.39 1082.47 1046.22L1089.06 1042.26C1089.34 1042.1 1089.67 1042.07 1089.97 1042.2L1092.56 1043.31C1092.84 1043.43 1093.16 1043.42 1093.42 1043.27L1100.37 1039.57C1100.46 1039.52 1100.54 1039.46 1100.61 1039.39L1101.63 1038.37C1101.86 1038.14 1102.19 1038.04 1102.52 1038.1L1109.4 1039.39C1109.77 1039.46 1110.14 1039.31 1110.37 1039.01L1116.34 1031.2C1116.45 1031.07 1116.58 1030.96 1116.73 1030.9L1120.76 1029.11C1120.92 1029.04 1121.05 1028.93 1121.16 1028.78L1124.83 1023.73C1124.94 1023.58 1125.09 1023.46 1125.27 1023.39L1129.23 1021.81C1129.68 1021.63 1130.19 1021.8 1130.44 1022.2L1135.88 1030.8C1135.96 1030.93 1136.07 1031.04 1136.2 1031.12L1141.72 1034.52C1142.16 1034.79 1142.74 1034.68 1143.05 1034.27L1145.36 1031.19C1145.45 1031.06 1145.57 1030.96 1145.71 1030.89L1152.41 1027.55C1152.47 1027.52 1152.53 1027.49 1152.6 1027.47L1167.34 1023.54C1167.45 1023.51 1167.55 1023.5 1167.66 1023.51L1200.27 1025.49C1200.42 1025.5 1200.57 1025.47 1200.71 1025.41L1220 1017.5L1241.55 1007.22C1241.83 1007.08 1242.16 1007.09 1242.44 1007.24L1258.85 1015.92C1258.95 1015.97 1259.06 1016.01 1259.17 1016.03L1268.93 1017.49C1268.98 1017.5 1269.02 1017.5 1269.07 1017.5H1284.37C1284.45 1017.5 1284.54 1017.49 1284.63 1017.47C1286.51 1016.96 1290.22 1016 1291 1016C1291.71 1016 1295.13 1016.8 1297.28 1017.32C1297.71 1017.43 1298.15 1017.24 1298.38 1016.86L1300.82 1012.81C1300.93 1012.61 1301.12 1012.46 1301.34 1012.38L1307.57 1010.15C1307.84 1010.06 1308.15 1010.08 1308.4 1010.23L1315 1014L1319.47 1015.79C1319.8 1015.92 1320.17 1015.87 1320.45 1015.65L1324.29 1012.67C1324.43 1012.56 1324.53 1012.41 1324.6 1012.25L1327.5 1005L1331.43 994.679C1331.48 994.561 1331.54 994.452 1331.63 994.359L1336.82 988.691C1336.94 988.566 1337.08 988.472 1337.25 988.418L1344.18 986.105C1344.39 986.037 1344.61 986.037 1344.82 986.105L1351.44 988.313C1351.78 988.428 1352.17 988.345 1352.43 988.097L1358.29 982.656C1358.69 982.29 1359.3 982.301 1359.68 982.681L1362.71 985.707C1362.89 985.895 1363.15 986 1363.41 986H1369.84C1369.95 986 1370.05 985.983 1370.15 985.949L1375.61 984.131C1375.86 984.047 1376.07 983.867 1376.19 983.63L1376.89 982.211C1376.96 982.072 1377 981.919 1377 981.764V977.236C1377 977.081 1377.04 976.928 1377.11 976.789L1378.22 974.553C1378.39 974.214 1378.74 974 1379.12 974H1380.65C1380.88 974 1381.1 973.923 1381.27 973.781L1383.38 972.097C1383.46 972.033 1383.53 971.956 1383.59 971.871L1386.97 966.793C1387.27 966.349 1387.86 966.216 1388.32 966.491L1391.77 968.559C1392.19 968.813 1392.73 968.721 1393.05 968.342L1395 966L1400.9 960.102C1400.97 960.034 1401.02 959.957 1401.07 959.874L1404 954.5L1405.87 951.696C1405.96 951.567 1406.07 951.46 1406.2 951.383L1409.5 949.5L1415.7 946.637C1415.9 946.548 1416.06 946.4 1416.16 946.215L1418.34 942.289C1418.44 942.102 1418.48 941.885 1418.46 941.672L1417.52 934.613C1417.51 934.538 1417.49 934.464 1417.46 934.394L1416.11 930.782C1416.04 930.598 1416.02 930.398 1416.07 930.206L1417.47 924.134C1417.49 924.045 1417.52 923.959 1417.57 923.88L1420.31 918.845C1420.43 918.623 1420.63 918.456 1420.87 918.376L1425.53 916.825C1426.06 916.647 1426.34 916.063 1426.15 915.534L1424.67 911.475C1424.56 911.177 1424.6 910.844 1424.78 910.579L1429.5 903.5L1434.36 896.702C1434.45 896.569 1434.58 896.462 1434.72 896.389L1437.19 895.153C1437.39 895.054 1437.62 895.024 1437.84 895.067L1441.3 895.761C1441.92 895.885 1442.5 895.411 1442.5 894.78V887.015C1442.5 886.692 1442.66 886.389 1442.92 886.201L1445.58 884.299C1445.84 884.111 1446 883.808 1446 883.485V879C1446 878.448 1446.45 878 1447 878H1452.63C1452.87 878 1453.1 878.085 1453.28 878.241L1455.46 880.105C1455.97 880.547 1456.77 880.357 1457.03 879.73L1459 875L1460.8 871.4C1460.93 871.145 1461.16 870.957 1461.43 870.882L1466.13 869.601C1466.37 869.536 1466.62 869.561 1466.84 869.671L1472.77 872.635C1473.2 872.848 1473.72 872.734 1473.97 872.332C1475.4 870.028 1475.77 867 1476.5 867C1477.28 867 1484.99 866.042 1487.35 866.001C1487.45 866 1487.55 866.015 1487.64 866.044L1493.72 867.913C1493.9 867.97 1494.1 867.972 1494.29 867.919L1500.63 866.106C1500.87 866.038 1501.07 865.884 1501.2 865.674L1503.31 862.305C1503.43 862.108 1503.48 861.874 1503.45 861.643L1502.63 855.499C1502.56 854.949 1502.95 854.444 1503.5 854.375L1509.62 853.609C1510.12 853.547 1510.5 853.122 1510.5 852.617V847.515C1510.5 847.192 1510.66 846.889 1510.92 846.701L1517.5 842L1519.6 840.738C1519.86 840.587 1520.03 840.333 1520.08 840.044L1521.47 831.687C1521.49 831.564 1521.53 831.445 1521.6 831.337L1524.36 826.737C1524.45 826.582 1524.5 826.404 1524.5 826.223V821.662C1524.5 821.555 1524.48 821.448 1524.45 821.346L1523.08 817.246C1523.03 817.085 1523.02 816.912 1523.05 816.745L1524.5 809L1525.89 804.37C1525.96 804.132 1525.94 803.876 1525.83 803.651L1520.67 792.846C1520.56 792.623 1520.54 792.369 1520.61 792.132L1522.89 784.357C1522.96 784.127 1522.95 783.88 1522.85 783.661L1520.59 778.697C1520.53 778.567 1520.5 778.426 1520.5 778.283V771.259C1520.5 771.089 1520.54 770.922 1520.63 770.773L1522.92 766.636C1522.97 766.546 1523.01 766.448 1523.03 766.347L1524.38 759.621C1524.45 759.242 1524.74 758.94 1525.11 758.846L1530.07 757.607C1530.34 757.539 1530.58 757.359 1530.71 757.111L1533.91 751.162C1533.97 751.055 1534.01 750.938 1534.02 750.817L1535.5 739.5V733.662C1535.5 733.555 1535.48 733.448 1535.45 733.346L1534.09 729.259C1534.03 729.089 1534.02 728.908 1534.06 728.733L1535.37 722.609C1535.45 722.236 1535.73 721.941 1536.1 721.849L1539.22 721.071C1539.4 721.025 1539.6 721.032 1539.78 721.092L1544.98 722.826C1545.3 722.935 1545.55 723.201 1545.63 723.533L1546.97 728.872C1546.99 728.957 1547.02 729.039 1547.06 729.115L1549.37 733.273C1549.46 733.422 1549.5 733.589 1549.5 733.759V738.736C1549.5 739.187 1549.8 739.582 1550.24 739.701L1554.7 740.919C1554.9 740.972 1555.07 741.081 1555.2 741.233L1557.79 744.258C1557.93 744.415 1558.01 744.611 1558.03 744.818L1558.96 755.082C1558.99 755.349 1559.12 755.596 1559.32 755.766L1564.27 759.809C1564.42 759.933 1564.53 760.1 1564.59 760.289L1566.5 766.5L1567.48 770.893C1567.49 770.964 1567.5 771.037 1567.5 771.11V776.307C1567.5 776.724 1567.24 777.097 1566.85 777.243L1563.93 778.34C1563.66 778.442 1563.44 778.655 1563.34 778.926L1562.06 782.33C1562.02 782.443 1562 782.561 1562 782.681V788.5V790.5C1562 791.052 1562.45 791.5 1563 791.5H1566.5C1567.05 791.5 1567.5 791.052 1567.5 790.5V783.5C1567.5 782.948 1567.95 782.5 1568.5 782.5H1571.23C1571.68 782.5 1572.08 782.194 1572.2 781.755L1574.42 773.312C1574.47 773.109 1574.46 772.895 1574.38 772.699L1572.06 766.658C1572.02 766.553 1571.96 766.456 1571.89 766.371L1566.71 760.245C1566.57 760.086 1566.49 759.888 1566.47 759.68L1565.03 741.829C1565.01 741.615 1564.92 741.413 1564.78 741.251L1558.2 733.728C1558.07 733.579 1557.99 733.395 1557.96 733.199L1556.57 722.565C1556.53 722.215 1556.3 721.915 1555.98 721.775L1550.11 719.26C1549.74 719.102 1549.5 718.741 1549.5 718.341V711.783C1549.5 711.598 1549.45 711.417 1549.35 711.259L1545.5 705L1542.59 700.149C1542.53 700.05 1542.49 699.943 1542.47 699.83L1541.57 695.336C1541.52 695.118 1541.55 694.892 1541.65 694.693L1543.44 691.121C1543.48 691.041 1543.53 690.966 1543.59 690.899L1548 686L1551.4 682.599C1551.47 682.533 1551.52 682.461 1551.57 682.38C1553.26 679.338 1556.82 673.289 1558 672.5C1559.5 671.5 1558 669 1558 668C1558 667 1556.5 665.5 1556.5 664V658V654.099C1556.5 654.033 1556.51 653.967 1556.52 653.903L1557.96 646.72C1557.98 646.575 1557.98 646.425 1557.95 646.282L1556.53 640.619C1556.51 640.54 1556.5 640.459 1556.5 640.377V634.046C1556.5 633.706 1556.67 633.389 1556.96 633.205L1563.5 629L1567.77 626.63C1567.92 626.545 1568.05 626.422 1568.14 626.271C1569.18 624.521 1571.12 621.148 1571.5 620C1571.87 618.885 1574.57 619.41 1576.16 619.892C1576.38 619.959 1576.62 619.954 1576.83 619.871L1582.55 617.675C1582.83 617.564 1583.05 617.329 1583.14 617.035L1584.96 611.144C1584.99 611.048 1585 610.949 1585 610.85V604.074C1585 603.719 1585.19 603.39 1585.5 603.211L1590.77 600.136C1590.92 600.047 1591.09 600 1591.27 600H1599.5C1599.81 600 1600.11 599.852 1600.3 599.6L1604.45 594.062C1604.48 594.021 1604.51 593.977 1604.54 593.932L1608.27 586.923C1608.42 586.656 1608.43 586.338 1608.31 586.059L1607.08 583.189C1607.03 583.064 1607 582.93 1607 582.795V577.554C1607 577.209 1607.18 576.889 1607.47 576.706L1610.76 574.649C1610.92 574.552 1611.04 574.413 1611.13 574.248L1612.84 570.828C1612.94 570.616 1613.12 570.449 1613.34 570.356L1615.68 569.352C1616.15 569.151 1616.39 568.632 1616.24 568.145L1615.12 564.4C1615.04 564.144 1615.07 563.868 1615.2 563.634L1617.82 558.832C1617.94 558.618 1618.13 558.454 1618.36 558.371L1623.29 556.576C1623.43 556.526 1623.55 556.446 1623.66 556.343L1625.29 554.709C1625.43 554.573 1625.6 554.479 1625.79 554.438L1632.4 553.022C1632.47 553.007 1632.54 553 1632.61 553H1639.24C1639.41 553 1639.58 552.958 1639.72 552.878L1645 550L1650.5 546L1654.49 543.786C1654.8 543.609 1655 543.275 1655 542.912V538.287C1655 538.099 1655.05 537.916 1655.15 537.757L1657.21 534.47C1657.39 534.178 1657.71 534 1658.05 534H1663.81C1663.93 534 1664.06 533.976 1664.18 533.928L1669 532L1674.82 529.577C1674.94 529.526 1675.07 529.5 1675.2 529.5H1680.83C1680.94 529.5 1681.06 529.52 1681.16 529.558L1687.84 531.942C1687.94 531.98 1688.06 532 1688.17 532H1698.5H1706.05C1706.34 532 1706.61 531.878 1706.8 531.664L1710.2 527.836C1710.39 527.622 1710.66 527.5 1710.95 527.5H1717.29C1717.43 527.5 1717.57 527.529 1717.69 527.586L1721.59 529.316C1721.85 529.433 1722.15 529.431 1722.41 529.31L1728.3 526.592C1728.43 526.531 1728.57 526.5 1728.72 526.5H1733.72C1733.9 526.5 1734.08 526.549 1734.24 526.643L1738.42 529.154C1738.77 529.363 1739.21 529.341 1739.54 529.097L1743 526.5L1749.71 520.267C1749.9 520.095 1750.14 520 1750.39 520H1754L1762.12 519.044C1762.37 519.016 1762.59 518.899 1762.75 518.716L1766.32 514.7C1766.44 514.569 1766.59 514.471 1766.75 514.415L1771 513L1777.5 510.5L1783.62 508.618C1783.86 508.542 1784.13 508.564 1784.36 508.679L1787.39 510.197C1787.76 510.38 1788.2 510.322 1788.51 510.05L1792.22 506.753C1792.4 506.59 1792.64 506.5 1792.88 506.5H1797.38C1797.76 506.5 1798.11 506.286 1798.28 505.947L1800 502.5L1803.38 496.214C1803.46 496.073 1803.57 495.953 1803.7 495.863L1813 489.5L1818.69 484.755C1818.89 484.591 1819.02 484.358 1819.05 484.104L1819.93 476.605C1819.97 476.234 1820.22 475.917 1820.57 475.786L1823.63 474.638C1823.87 474.549 1824.06 474.375 1824.18 474.149L1827.42 467.665C1827.47 467.556 1827.55 467.458 1827.64 467.375L1833.21 462.263C1833.4 462.094 1833.64 462 1833.89 462H1841.42C1841.47 462 1841.53 462.005 1841.58 462.014L1853.42 463.986C1853.47 463.995 1853.53 464 1853.58 464H1865.5H1871.12C1871.37 464 1871.6 464.088 1871.78 464.247L1875.31 467.331C1875.43 467.442 1875.53 467.583 1875.59 467.742L1877.33 472.546C1877.44 472.833 1877.67 473.056 1877.96 473.153L1881.85 474.449C1881.95 474.483 1882.05 474.5 1882.16 474.5H1886H1891.29C1891.43 474.5 1891.56 474.528 1891.69 474.581L1894.85 475.935C1894.95 475.978 1895.04 476.037 1895.12 476.111L1900 480.5L1908 488L1911.65 491.198C1911.87 491.39 1912.17 491.476 1912.45 491.435L1918.71 490.541C1918.9 490.514 1919.09 490.542 1919.27 490.621L1924.43 492.967C1924.48 492.989 1924.52 493.015 1924.57 493.045L1928.94 495.96C1928.98 495.987 1929.02 496.016 1929.05 496.049L1933.71 500.243C1933.9 500.409 1934.14 500.5 1934.38 500.5H1937.88C1938.48 500.5 1938.94 501.018 1938.88 501.61L1938.04 509.12C1938.02 509.365 1938.08 509.611 1938.22 509.811L1939.89 512.141C1940.22 512.608 1940.88 512.699 1941.32 512.34L1942.85 511.121C1942.95 511.041 1943.06 510.981 1943.19 510.944L1947.68 509.597C1947.89 509.534 1948.11 509.542 1948.32 509.618L1951.83 510.936C1951.94 510.978 1952.05 511.041 1952.14 511.12L1955.8 514.321C1955.93 514.438 1956.03 514.589 1956.09 514.758L1957.36 518.582C1957.45 518.848 1957.65 519.065 1957.9 519.179L1961.37 520.721C1961.75 520.889 1962.19 520.807 1962.49 520.514L1963.71 519.293C1963.89 519.105 1964.15 519 1964.41 519H1969.52C1969.82 519 1970.11 519.138 1970.3 519.375L1972.93 522.66C1973.41 523.258 1974.35 523.118 1974.64 522.407L1975.75 519.629C1975.9 519.249 1976.27 519 1976.68 519H1981.5H1983.02C1983.32 519 1983.61 519.138 1983.8 519.375L1986.52 522.78C1986.98 523.349 1987.87 523.255 1988.2 522.602L1989.92 519.169C1989.97 519.057 1990.05 518.957 1990.14 518.873L1994.82 514.659C1994.94 514.554 1995.08 514.479 1995.23 514.437L2000.37 513.035C2000.46 513.012 2000.54 513 2000.63 513H2009C2009.99 513 2013.93 514.326 2014.8 514.802L2016.21 515.569C2016.66 515.814 2017.22 515.681 2017.51 515.261L2021.07 510.117C2021.33 509.751 2021.79 509.597 2022.21 509.737L2025.31 510.769C2025.72 510.906 2026.17 510.76 2026.43 510.408L2029.83 505.733C2029.94 505.581 2030.09 505.463 2030.27 505.393L2034.37 503.751C2034.75 503.6 2035 503.232 2035 502.823V500.61C2035 500.537 2035.01 500.464 2035.02 500.393L2035.83 496.783C2035.93 496.326 2036.33 496 2036.8 496H2040.76C2040.92 496 2041.07 496.036 2041.21 496.106Z" stroke="#52ACCC"/>
<path d="M2001.66 501.682L2005.81 493.37C2005.93 493.133 2006.14 492.953 2006.39 492.871C2008 492.346 2010.76 491.5 2011.5 491.5C2012.28 491.5 2016.33 492.14 2018.38 492.479C2018.46 492.493 2018.54 492.517 2018.62 492.552L2023 494.5L2027.3 496.891C2027.43 496.963 2027.54 497.063 2027.63 497.183L2029.12 499.27C2029.54 499.853 2029.22 500.672 2028.52 500.828L2021.12 502.473C2021.04 502.491 2020.96 502.518 2020.89 502.554C2018.85 503.57 2014.79 505.5 2014 505.5C2013.22 505.5 2010.5 506.129 2009.12 506.47C2009.04 506.49 2008.96 506.5 2008.88 506.5H2003.3C2002.83 506.5 2002.43 506.174 2002.33 505.717L2001.58 502.347C2001.53 502.122 2001.56 501.888 2001.66 501.682Z" stroke="#52ACCC"/>
<path d="M1997.81 507.633L1990.26 512.824C1990.09 512.939 1989.89 513 1989.69 513H1983.5H1978.54C1978.2 513 1977.89 513.167 1977.7 513.445L1976.2 515.694C1976.07 515.892 1975.88 516.036 1975.65 516.1C1974.38 516.45 1972.23 517 1971.5 517C1970.54 517 1968.65 514.691 1967.18 515.843C1967.05 515.938 1966.98 516.081 1966.91 516.219C1966.34 517.341 1964.89 516 1963 516C1961 516 1962 516 1961 514.5L1960.17 513.252C1960.06 513.087 1960 512.895 1960 512.697V510.035C1960 509.701 1959.83 509.386 1959.54 509.221C1958.96 508.889 1958.11 508.5 1957.5 508.5H1952.19C1952.06 508.5 1951.94 508.476 1951.82 508.428C1950.91 508.053 1949.12 507.247 1948 506.5C1946.5 505.5 1946.5 503.5 1945.5 503.5C1944.75 503.5 1944.53 500.869 1944.5 499.303C1944.5 499.105 1944.56 498.912 1944.67 498.748L1946.2 496.445C1946.39 496.167 1946.7 496 1947.04 496H1950.81C1950.93 496 1951.06 496.024 1951.18 496.072L1955.88 497.952C1955.96 497.984 1956.04 498.005 1956.13 498.016L1963.74 498.967C1963.91 498.989 1964.07 499.054 1964.21 499.159C1965.61 500.207 1968.12 502.12 1968.5 502.5C1968.88 502.882 1973.24 504.507 1975.66 505.379C1975.88 505.458 1976.12 505.456 1976.34 505.377L1981.33 503.56C1981.44 503.52 1981.56 503.5 1981.68 503.5H1992L1998.68 503.107C1999.47 503.061 2000 503.901 1999.62 504.591L1998.11 507.295C1998.04 507.43 1997.93 507.546 1997.81 507.633Z" stroke="#52ACCC"/>
<path d="M1375.95 975.086L1374.07 978.384C1374.02 978.461 1373.97 978.532 1373.91 978.595L1372.79 979.707C1372.61 979.895 1372.35 979.999 1372.09 980.003C1370.66 980.022 1368.36 980.138 1368 980.5C1367.5 981 1366 980 1365.5 980C1365.17 980 1363.89 979.307 1362.99 978.787C1362.68 978.611 1362.5 978.285 1362.5 977.934V973.5L1362.98 969.147C1362.99 969.05 1363.02 968.954 1363.06 968.864L1364.41 965.709C1364.47 965.571 1364.56 965.449 1364.67 965.35L1368.36 962.123C1368.45 962.042 1368.56 961.978 1368.68 961.936C1370.57 961.252 1374.22 960 1375 960C1375.78 960 1378.56 961.282 1379.92 961.96C1379.97 961.987 1380.02 962.018 1380.07 962.054L1381.6 963.2C1381.85 963.389 1382 963.685 1382 964V965.307C1382 965.435 1381.98 965.561 1381.93 965.679L1381.1 967.74C1381.04 967.91 1380.92 968.058 1380.78 968.168L1379.1 969.424C1379.03 969.474 1378.97 969.533 1378.92 969.599L1377.11 971.861C1377.04 971.953 1376.98 972.057 1376.94 972.169L1376.03 974.906C1376.01 974.969 1375.98 975.029 1375.95 975.086Z" stroke="#52ACCC"/>
<path d="M1449.4 874.042L1443.5 876.5L1441.43 877.091C1440.75 877.286 1440.09 876.725 1440.16 876.019L1440.5 873L1441.5 867L1442.47 862.159C1442.49 862.054 1442.53 861.953 1442.58 861.86C1443.28 860.641 1444.62 858.269 1445 857.5C1445.5 856.5 1448.5 854.5 1449.5 854.5C1450.25 854.5 1452.85 853.019 1454.26 852.151C1454.42 852.053 1454.6 852 1454.79 852H1458.26C1458.7 852 1459.09 851.714 1459.22 851.294L1460.89 845.856C1460.96 845.627 1461.11 845.43 1461.32 845.302L1468.75 840.657C1468.91 840.555 1469.04 840.407 1469.13 840.232L1472.5 833L1476.31 826.81C1476.43 826.61 1476.62 826.46 1476.84 826.386C1478.93 825.692 1482.62 824.5 1483 824.5H1489.05C1489.34 824.5 1489.61 824.376 1489.8 824.159L1493 820.5C1494 819.167 1496.2 816.3 1497 815.5C1498 814.5 1497 810.5 1497 810C1497 809.605 1496.35 805.607 1496.01 803.58C1496 803.526 1496 803.472 1496 803.417V800.193C1496 800.065 1496.02 799.939 1496.07 799.821L1497.95 795.116C1497.98 795.039 1498.01 794.958 1498.02 794.876L1499 787.5V782.827C1499 782.615 1499.07 782.408 1499.19 782.236L1504.5 775L1512.79 765.74C1512.92 765.584 1513.11 765.476 1513.31 765.43L1516.14 764.802C1516.81 764.654 1517.42 765.205 1517.35 765.885L1516 778.5L1515.04 783.785C1515.01 783.927 1514.96 784.061 1514.87 784.179L1511.87 788.476C1511.64 788.795 1511.63 789.216 1511.82 789.553L1514.92 794.867C1514.97 794.955 1515.04 795.035 1515.11 795.103L1520.17 799.702C1520.38 799.892 1520.5 800.161 1520.5 800.442V813.417C1520.5 813.472 1520.5 813.527 1520.49 813.582L1520.06 816.123C1520.02 816.366 1519.89 816.585 1519.7 816.739L1518.37 817.802C1517.91 818.174 1517.87 818.869 1518.29 819.29L1520.21 821.207C1520.39 821.395 1520.5 821.649 1520.5 821.914V827.877C1520.5 827.959 1520.49 828.04 1520.47 828.119L1518.59 835.656C1518.53 835.878 1518.4 836.075 1518.22 836.213L1512.69 840.36C1512.56 840.452 1512.42 840.515 1512.27 840.543L1505.09 841.889C1504.73 841.957 1504.43 842.222 1504.32 842.577L1502.61 848.148C1502.54 848.375 1502.39 848.57 1502.19 848.698L1497.46 851.705C1497.17 851.889 1497 852.207 1497 852.549V856.882C1497 857.261 1496.79 857.607 1496.45 857.776L1494.08 858.958C1494.03 858.986 1493.97 859.009 1493.91 859.026L1483.57 861.979C1483.52 861.993 1483.47 862.003 1483.42 862.01L1471.57 863.491C1471.52 863.497 1471.48 863.507 1471.43 863.52L1459.36 866.9C1459.13 866.965 1458.93 867.109 1458.79 867.308L1455.24 872.647C1455.09 872.872 1454.85 873.027 1454.58 873.076L1449.61 873.981C1449.54 873.994 1449.47 874.014 1449.4 874.042Z" stroke="#52ACCC"/>
<path d="M1520.88 746.231L1523.74 744.186C1523.91 744.065 1524.11 744 1524.32 744H1526.67C1526.88 744 1527.09 744.07 1527.27 744.2L1528.36 745.022C1528.74 745.302 1528.87 745.802 1528.68 746.228L1527.04 749.907C1527.01 749.969 1526.98 750.028 1526.94 750.082L1524.58 753.387C1524.53 753.462 1524.46 753.529 1524.39 753.586C1523.52 754.275 1521.88 755.5 1521.5 755.5C1521.12 755.5 1520.43 753.737 1520.07 752.694C1520.02 752.566 1520.01 752.43 1520.02 752.295L1520.46 746.962C1520.49 746.669 1520.64 746.402 1520.88 746.231Z" stroke="#52ACCC"/>
<path d="M1689.76 525.597L1685.42 527.333C1685.15 527.439 1684.85 527.427 1684.6 527.299L1681 525.5L1676.95 522.797C1676.67 522.611 1676.5 522.299 1676.5 521.965V519.721C1676.5 519.29 1676.78 518.908 1677.18 518.772L1683.93 516.522C1683.98 516.508 1684.02 516.489 1684.06 516.468L1688 514.5L1691.83 513.064C1691.94 513.022 1692.06 513 1692.18 513H1701C1702.84 513 1706.81 514.132 1708.98 514.831C1709.31 514.935 1709.66 514.872 1709.92 514.66L1711.74 513.211C1711.91 513.074 1712.03 512.886 1712.08 512.673C1712.43 511.245 1713 508.74 1713 508C1713 507.284 1713.53 505.446 1713.89 504.351C1713.96 504.124 1714.11 503.932 1714.32 503.81L1716.01 502.791C1716.32 502.611 1716.5 502.285 1716.5 501.934V498.5V495.86C1716.5 495.186 1717.15 494.704 1717.8 494.906L1724.23 496.916C1724.41 496.971 1724.59 496.976 1724.77 496.932L1728.3 496.05C1728.43 496.017 1728.57 496.012 1728.71 496.034L1734.31 496.969C1734.44 496.989 1734.56 497.033 1734.66 497.098L1736.76 498.357C1736.92 498.451 1737.1 498.5 1737.28 498.5H1743C1744.14 498.5 1746.58 496.99 1747.82 496.126C1747.94 496.043 1748.04 495.935 1748.11 495.81L1749.96 492.576C1749.99 492.526 1750.02 492.477 1750.06 492.432L1752.31 489.731C1752.43 489.58 1752.6 489.47 1752.79 489.414L1757.5 488L1761.87 486.251C1762.25 486.1 1762.5 485.732 1762.52 485.324C1762.61 483.84 1762.97 481.525 1764 480.5C1765.06 479.443 1766.97 479.86 1768.09 480.316C1768.36 480.424 1768.65 480.439 1768.92 480.333L1770.37 479.751C1770.75 479.6 1771 479.232 1771 478.823V475.5C1771 474.948 1771.45 474.5 1772 474.5H1774H1780C1782.33 474.333 1787.2 474.1 1788 474.5C1788.8 474.9 1792.67 475.667 1794.5 476L1801.37 476.981C1801.46 476.994 1801.54 476.994 1801.63 476.983L1809.01 476.061C1809.32 476.022 1809.63 476.128 1809.85 476.346L1812.56 479.056C1812.83 479.327 1812.92 479.731 1812.79 480.093L1809.7 488.92C1809.58 489.276 1809.26 489.531 1808.89 489.581L1802.12 490.484C1802.04 490.494 1801.96 490.516 1801.88 490.546L1794.91 493.337C1794.65 493.441 1794.44 493.649 1794.34 493.91L1790.75 503.356C1790.6 503.744 1790.23 504 1789.81 504H1768.56C1768.21 504 1767.89 504.181 1767.71 504.479L1762.73 512.63C1762.58 512.866 1762.35 513.032 1762.08 513.088L1748.14 515.972C1748.05 515.991 1747.96 516.022 1747.88 516.064L1735.79 522.347C1735.6 522.446 1735.39 522.482 1735.17 522.447L1720.32 520.051C1720.11 520.018 1719.9 520.05 1719.71 520.144L1705.27 527.363C1705.1 527.452 1704.89 527.486 1704.7 527.459L1690.26 525.535C1690.09 525.512 1689.92 525.534 1689.76 525.597Z" stroke="#52ACCC"/>
<path d="M1974.91 339.311L1972.67 347.403C1972.56 347.769 1972.68 348.16 1972.96 348.414L1977.38 352.388C1977.46 352.462 1977.53 352.549 1977.58 352.646L1982.29 361.125C1982.42 361.365 1982.45 361.648 1982.37 361.909L1980.05 369.33C1980.02 369.442 1979.96 369.548 1979.89 369.641L1975.3 375.61C1975.11 375.856 1974.82 376 1974.51 376H1962.66C1962.55 376 1962.45 376.017 1962.35 376.051L1955.39 378.369C1955.14 378.453 1954.93 378.633 1954.81 378.87L1951.06 386.379C1951.02 386.459 1950.97 386.534 1950.91 386.601L1946.72 391.253C1946.58 391.414 1946.39 391.523 1946.17 391.565L1929.36 394.928C1929.13 394.974 1928.89 394.937 1928.68 394.821L1925.06 392.81C1924.72 392.621 1924.3 392.646 1923.98 392.875L1919.09 396.431C1919.03 396.477 1918.97 396.53 1918.92 396.589L1913.18 403.29C1913.06 403.427 1912.91 403.53 1912.74 403.588L1904.15 406.449C1904.05 406.483 1903.95 406.5 1903.84 406.5H1897.47C1897.17 406.5 1896.89 406.368 1896.7 406.14L1892.23 400.778C1892.08 400.598 1892 400.372 1892 400.138V385.585C1892 385.224 1891.81 384.89 1891.49 384.713L1884.27 380.65C1884.09 380.552 1883.95 380.405 1883.86 380.226L1880.64 373.785C1880.55 373.6 1880.4 373.448 1880.22 373.35L1873 369.5L1862.5 364.5L1853.24 358.649C1853.08 358.551 1852.96 358.414 1852.88 358.251L1850.11 352.711C1850.04 352.572 1850 352.419 1850 352.264V339.167C1850 339.056 1850.02 338.947 1850.05 338.842L1856 321.5L1862.5 304.5L1868.5 291L1872.87 283.717C1872.96 283.575 1873.08 283.456 1873.22 283.371L1883.75 277.15C1883.91 277.052 1884.05 276.908 1884.13 276.736L1886.96 271.077C1886.99 271.026 1887.01 270.972 1887.02 270.917L1888.39 266.383C1888.46 266.137 1888.62 265.929 1888.85 265.802L1895 262.288C1895.31 262.11 1895.5 261.779 1895.5 261.42V256.662C1895.5 256.555 1895.52 256.448 1895.55 256.346L1896.95 252.154C1896.98 252.052 1897.03 251.956 1897.1 251.87L1899.75 248.337C1899.91 248.122 1900.15 247.98 1900.42 247.945L1911.1 246.552C1911.36 246.518 1911.59 246.389 1911.75 246.191L1917.7 238.869C1917.89 238.636 1918.17 238.5 1918.48 238.5H1924.5H1938.5H1946.28C1946.43 238.5 1946.57 238.469 1946.7 238.408L1952.61 235.68C1952.86 235.565 1953.14 235.558 1953.4 235.66L1960.29 238.418C1960.43 238.472 1960.55 238.555 1960.65 238.662L1967.61 246.088C1967.85 246.344 1968.21 246.455 1968.55 246.382L1975 245L1982.28 243.544C1982.42 243.515 1982.57 243.519 1982.72 243.555L1988.18 244.92C1988.39 244.972 1988.57 245.09 1988.71 245.257L1992.82 250.28C1992.94 250.424 1993.01 250.597 1993.04 250.781L1993.98 257.887C1993.99 257.962 1994.01 258.036 1994.04 258.106L1997 266L1999.88 273.669C1999.96 273.883 2000.11 274.063 2000.31 274.179L2008.01 278.71C2008.31 278.89 2008.5 279.218 2008.5 279.572V286.394C2008.5 286.464 2008.49 286.535 2008.48 286.604L2005.5 300.5L2002.5 310L2000.06 321.213C2000.02 321.4 1999.93 321.572 1999.79 321.708L1994.12 327.379C1994.04 327.459 1993.95 327.525 1993.85 327.574L1982.6 332.95C1982.53 332.983 1982.47 333.024 1982.41 333.072L1975.25 338.798C1975.09 338.929 1974.97 339.109 1974.91 339.311Z" stroke="#52ACCC"/>
</g>
<defs>
<clipPath id="clip0_3966_1767">
<rect width="2048" height="1056" fill="white"/>
</clipPath>
</defs>
</svg>
