<svg width="2048" height="1056" viewBox="0 0 2048 1056" fill="none" xmlns="http://www.w3.org/2000/svg">
<g clip-path="url(#clip0_3966_1767)">
<path d="M692 228L706 228.5L708.5 225.5L709.5 224.5L712 223V220L709.5 217.5L706.5 216.5L698 217C697 217.333 694.9 218 694.5 218C694.1 218 692 221.333 691 223L690.5 226.5L692 228Z" fill="#E97058" fill-opacity="0.9"/>
<path d="M733 209.5L738 209L742.5 207L743 202.5V199.5L747 198L753 195V187.5L755.5 187L759 185L760.5 182.5L761.5 178.5L767 174V169.5L768.5 168.5L770.5 164V157.5L767.5 152.5L762.5 147.5L756.5 148L753 149.5L752.5 156L746 157L745.5 157.5L740 160L736 169V178.5L736.5 183L737.5 187L736.5 189L733.5 192L730.5 194L726 196L723 197L721.5 198V199.5L722.5 201.5L723.5 204L724.5 205.5L725 207.5V211C725 211.4 724.667 212.833 724.5 213.5C724.167 214 723.4 215.1 723 215.5C722.6 215.9 722.5 217.333 722.5 218L723 219.5H725C725.4 219.5 726.167 219.167 726.5 219L728 217V212.5L730 210.5L733 209.5Z" fill="#E97058" fill-opacity="0.9"/>
<path d="M751.5 139.5C751.5 139.9 750.167 143 749.5 144.5H744.5L742.5 144L740 140.5L739.5 135.5L742 127L745.5 122.5L751 120.5L755 120L756.5 118L755.5 115.5L755 112.5L755.5 106.5L755 102.5L755.5 95.5L760 93L764 90.5L765.5 83.5L767 76L767.5 70V60.5L768.5 56.5L770.5 53.5L773 51.5L775 48L777.5 46L781.5 45.5L784.5 47V52L784 57.5L785.5 61L786.5 66L786 69.5L783.5 73L786.5 77.5L787.5 82L786.5 86L785 88.5L782 90L781 91.5L781.5 93.5L783 95.5V101L780.5 103L776.5 105L775.5 109L774.5 111.5L773 114L765.5 122.5L765 125C764.167 125.5 762.4 126.5 762 126.5C761.6 126.5 759.5 129.5 758.5 131C757.667 131.5 755.9 132.6 755.5 133C755.1 133.4 754.333 134.833 754 135.5C753.167 136.667 751.5 139.1 751.5 139.5Z" fill="#E97058" fill-opacity="0.9"/>
<path d="M643 598L638.5 593.5V587.5L633.5 585.5L624 583.5L618 580L616.5 577.5L613 580L609.5 577.5L607 580L605.5 580.5L600.5 581.5H595L591.5 580.5H588L586.5 581.5L584 586.5C581.833 586.833 577.4 587.5 577 587.5C576.6 587.5 574.5 587.833 573.5 588L570.5 596.5C569.167 596.667 566.4 597 566 597C565.6 597 560.167 598.333 557.5 599L548.5 600.5L541.5 597L537 592.5H534.5C533 592.833 529.7 593.5 528.5 593.5C527.3 593.5 525 592.833 524 592.5H521.5L514 589.5L510.5 587.5L510 586C509.5 584.667 508.5 581.9 508.5 581.5C508.5 581.1 507.167 578.333 506.5 577L503.5 571.5L498.5 568.5L493 568H486L482 566.5L477 564L474.5 558L473 554.5L469 551L465 548L461.5 544.5V539L461 527L459.5 520L458 510.5V507L461 501.5L464.5 499V488.5L465.5 486L469 482.5L472.5 481L477 478L477.5 473V467.5L479 463.5L486 458.5L494 452.5L501 452L508.5 453.5L515.5 456L516 450V443.5L518.5 439L524.5 435.5H530.5L537 438L539.5 439H546.5L549 440.5L553 443.5L557 445L562.5 441.5L571.5 437L573 434.5L571.5 433C571 431.667 570 428.9 570 428.5C570 428.1 571 426.667 571.5 426H574.5L579 425V418.5L582 415.5V410.5C582 410.1 582.333 407.667 582.5 406.5L584.5 402.5V400.5L586 396.5L589.5 392L587 388.5L586.5 384L582 382L578 377.5L576 374L597.5 357.5L605.5 361L609 364.5H616.5L623 366L627.5 368L635.5 367.5L635 365L634 358.5V353L635.5 350L648 349.5L649.5 346.5L653.5 344L658.5 341.5L658 337.5L656.5 334.5V330L658 324L660.5 319.5L667 315.5L673 314.5L675.5 313.5L677 311.5V308.5L676 306.5V299.5C676 299 677.5 296 678 295.5C678.4 295.1 679.5 293 680 292L681 288L680 285.5V279L682 276.5L687 271.5L689 268V264.5L688.5 262.5L686 261L684.5 258V253C684.5 252.6 686.167 249.5 687 248L690.5 245.5L693.5 242V238.5L694 235H698L700.5 236H705L706.5 232.5L709.5 230H718.5L721.5 229V227L722.5 225C723.5 224.833 725.7 224.5 726.5 224.5H731.5L733 223L734 218L736.5 213.5L741.5 212.5L744.5 213.5H747L748 211L747 208V205.5L747.5 204L752.5 198.5C754 198 755.6 197 756 197H760.5C760.9 197 762 196.333 762.5 196L765 191.5L766.5 187L765.5 183L766.5 177.5L767.5 176L769 174H771L773 172L774 170.5V166C774 165.6 774.667 163.5 775 162.5L776 159.5V157.5C776.333 157.333 778.1 156 778.5 156C778.9 156 779.667 154.333 780 153.5L781 148L783 145.5L782 141.5L780 139.5V129.5L782 128L783 127V123L785 117L786.5 114L789 111.5L786.5 109L787.5 103.5L789 102L790.5 99L791.5 95.5L792.5 93L792 90.5V85.5L797 82V69.5L798 66.5L795.5 63L796 55L797.5 48L799 44L798 42L798.5 36L800.5 32.5L805 27.5L806 21L807.5 19.5L806 17V4.5L807.5 2.5L811.5 1L813 0H958.5V1L960 7.5L963 12L962.5 18.5H965L971 13L974 7.5L972 4.5V0L1310.5 -2.5L1322 23.5L1324.5 67L1328.5 87L1348.5 199.5L1352 214.5L1371 301L1309.5 329L1207.5 330L1179.5 338.5L1177.5 337.5L1168.5 336.5L1162.5 333L1158.5 332V326H1157L1152.5 325L1147.5 323L1142 318.5L1135 315L1131 312.5H1126L1124 311.5L1122.5 309L1119.5 308H1116.5C1115.67 307.667 1114.3 308 1113.5 308C1112.7 308 1112.67 305.667 1113 305L1109 302.5L1107 301L1105.5 298L1099 296C1097.67 295.667 1094.9 295 1094.5 295C1094.1 295 1092.67 293.667 1092 293L1090.5 288L1092.5 285.5L1096.5 284L1099.5 280.5V277.5L1099 274.5V268C1099 267.2 1100 264 1100.5 262.5H1105.5V257L1108 253L1108.5 250L1100 248L1099.5 244L1103.5 240L1109.5 238L1113 237L1118 236L1119 234L1123.5 228.5L1130.5 225L1138.5 219L1142.5 214L1146 209L1150 208L1151.5 203.5L1155.5 201.5V197.5L1157.5 195.5L1160.5 194.5H1165.5L1166.5 192.5L1164 191.5L1163.5 188V182L1165.5 179L1166.5 171L1165.5 166.5L1166.5 164L1171 159.5L1173 155L1171 153L1167.5 149V143.5L1165 140.5H1159L1154.5 141.5H1151.5L1149 135.5H1145L1141 133.5L1140 126.5L1138 125L1133.5 123.5L1128.5 126H1123L1114 125L1111 122L1108.5 119L1102 116L1098.5 113.5L1095.5 111V112.5L1093 114.5L1087 113.5L1079.5 110L1070.5 106L1068.5 99.5H1063L1061.5 96.5L1051.5 88L1045.5 81.5C1044.17 81.1667 1041.4 80.3 1041 79.5C1040.6 78.7 1039.5 77.1667 1039 76.5L1036 75V72.5L1037.5 62.5L1034.5 60.5L1033.5 57.5L1033 55V51.5L1031 48.5L1027 47L1026 41.5V38.5L1020 40L1017.5 38.5L1014 33V43.5L1009.5 45.5L1002.5 47L995.5 44.5V47L993 50L990.5 51.5L991.5 54V58L994 60.5L995.5 63.5L997.5 68L1001.5 71C1001.83 72.6667 1002.5 76.1 1002.5 76.5V81.5L1001.5 85L1002.5 88L1008 89L1012 88H1021L1026 83C1026.8 82.2 1027.67 80 1028 79L1031 78L1041.5 86V94.5H1043.5L1045.5 93H1053.5L1055 96.5L1058.5 98.5L1067.5 104.5L1069.5 106L1070.5 111L1075 113.5L1083.5 116H1094L1102 122V128H1108.5L1112 131.5L1114 129L1120 128L1131.5 135.5H1136.5L1140.5 136.5L1142.5 138L1143.5 144.5L1146 147L1148 153L1146.5 156.5V159.5L1150 166H1157.5L1159 168V183.5L1155.5 187L1150 196.5L1145 205.5L1140.5 211.5L1135.5 214L1128 222.5H1121.5L1118 227.5H1109.5L1106.5 232L1100 233L1099 236L1096 240L1092.5 242L1090 240L1083.5 238L1081 240L1076.5 244.5H1068L1067 245.5L1064 250L1061.5 254L1056.5 257L1054.5 261V264L1055.5 266.5L1051.5 268H1048L1045 266.5L1043 269L1041.5 273.5H1038L1034.5 275.5L1033 277L1031.5 280.5L1030 282.5V285.5L1031.5 288L1034.5 290L1036.5 292V295L1041.5 305H1050.5L1053.5 309H1055.5L1056.5 307L1058 305C1058.83 305.333 1060.7 306.2 1061.5 307C1062.3 307.8 1063.5 307.333 1064 307H1066L1068 302.5L1071.5 301L1073.5 302.5L1076.5 301V293.5L1078 292L1082 290L1084.5 292L1087 295L1088 301H1103.5L1108 303.5V307L1113 314L1117 315.5L1118.5 314H1122.5L1123.5 316.5L1129 319V326L1133 331L1138 332L1144.5 329H1146.5L1149 330L1151.5 334.5L1154.5 336.5L1160.5 338.5L1088 357.5L1035.5 373L994.5 388L893.5 423L883 432L882 436.5L878 439.5L874.5 441L867 447L865 450.5L861 455.5L856.5 458H851L847 455.5L845 449L838 448L836 444.5L829 443.5L826.5 445L820 444.5L818 446L817 453H813.5L811 456V461L808 462L804.5 465.5L805.5 468V473.5L815.5 483V486L808 493L803.5 494.5L799.5 493H797L793.5 497L789.5 500H781L778.5 503L772.5 509.5H766.5L756.5 516.5L753 521.5L750 522.5L744 521.5L741 531.5L735.5 532.5L732 538L723.5 541.5L718.5 547.5L710.5 555L704.5 558.5L698.5 560.5L695 565L691.5 567L686.5 569V577.5L680.5 580V582.5L678.5 585L666.5 594.5L664 595.5L660.5 593.5L657 591V599L652.5 601H647L643 598Z" fill="#E97058" fill-opacity="0.9"/>
<path d="M692 228L706 228.5L708.5 225.5L709.5 224.5L712 223V220L709.5 217.5L706.5 216.5L698 217C697 217.333 694.9 218 694.5 218C694.1 218 692 221.333 691 223L690.5 226.5L692 228Z" stroke="#E97058"/>
<path d="M733 209.5L738 209L742.5 207L743 202.5V199.5L747 198L753 195V187.5L755.5 187L759 185L760.5 182.5L761.5 178.5L767 174V169.5L768.5 168.5L770.5 164V157.5L767.5 152.5L762.5 147.5L756.5 148L753 149.5L752.5 156L746 157L745.5 157.5L740 160L736 169V178.5L736.5 183L737.5 187L736.5 189L733.5 192L730.5 194L726 196L723 197L721.5 198V199.5L722.5 201.5L723.5 204L724.5 205.5L725 207.5V211C725 211.4 724.667 212.833 724.5 213.5C724.167 214 723.4 215.1 723 215.5C722.6 215.9 722.5 217.333 722.5 218L723 219.5H725C725.4 219.5 726.167 219.167 726.5 219L728 217V212.5L730 210.5L733 209.5Z" stroke="#E97058"/>
<path d="M751.5 139.5C751.5 139.9 750.167 143 749.5 144.5H744.5L742.5 144L740 140.5L739.5 135.5L742 127L745.5 122.5L751 120.5L755 120L756.5 118L755.5 115.5L755 112.5L755.5 106.5L755 102.5L755.5 95.5L760 93L764 90.5L765.5 83.5L767 76L767.5 70V60.5L768.5 56.5L770.5 53.5L773 51.5L775 48L777.5 46L781.5 45.5L784.5 47V52L784 57.5L785.5 61L786.5 66L786 69.5L783.5 73L786.5 77.5L787.5 82L786.5 86L785 88.5L782 90L781 91.5L781.5 93.5L783 95.5V101L780.5 103L776.5 105L775.5 109L774.5 111.5L773 114L765.5 122.5L765 125C764.167 125.5 762.4 126.5 762 126.5C761.6 126.5 759.5 129.5 758.5 131C757.667 131.5 755.9 132.6 755.5 133C755.1 133.4 754.333 134.833 754 135.5C753.167 136.667 751.5 139.1 751.5 139.5Z" stroke="#E97058"/>
<path d="M643 598L638.5 593.5V587.5L633.5 585.5L624 583.5L618 580L616.5 577.5L613 580L609.5 577.5L607 580L605.5 580.5L600.5 581.5H595L591.5 580.5H588L586.5 581.5L584 586.5C581.833 586.833 577.4 587.5 577 587.5C576.6 587.5 574.5 587.833 573.5 588L570.5 596.5C569.167 596.667 566.4 597 566 597C565.6 597 560.167 598.333 557.5 599L548.5 600.5L541.5 597L537 592.5H534.5C533 592.833 529.7 593.5 528.5 593.5C527.3 593.5 525 592.833 524 592.5H521.5L514 589.5L510.5 587.5L510 586C509.5 584.667 508.5 581.9 508.5 581.5C508.5 581.1 507.167 578.333 506.5 577L503.5 571.5L498.5 568.5L493 568H486L482 566.5L477 564L474.5 558L473 554.5L469 551L465 548L461.5 544.5V539L461 527L459.5 520L458 510.5V507L461 501.5L464.5 499V488.5L465.5 486L469 482.5L472.5 481L477 478L477.5 473V467.5L479 463.5L486 458.5L494 452.5L501 452L508.5 453.5L515.5 456L516 450V443.5L518.5 439L524.5 435.5H530.5L537 438L539.5 439H546.5L549 440.5L553 443.5L557 445L562.5 441.5L571.5 437L573 434.5L571.5 433C571 431.667 570 428.9 570 428.5C570 428.1 571 426.667 571.5 426H574.5L579 425V418.5L582 415.5V410.5C582 410.1 582.333 407.667 582.5 406.5L584.5 402.5V400.5L586 396.5L589.5 392L587 388.5L586.5 384L582 382L578 377.5L576 374L597.5 357.5L605.5 361L609 364.5H616.5L623 366L627.5 368L635.5 367.5L635 365L634 358.5V353L635.5 350L648 349.5L649.5 346.5L653.5 344L658.5 341.5L658 337.5L656.5 334.5V330L658 324L660.5 319.5L667 315.5L673 314.5L675.5 313.5L677 311.5V308.5L676 306.5V299.5C676 299 677.5 296 678 295.5C678.4 295.1 679.5 293 680 292L681 288L680 285.5V279L682 276.5L687 271.5L689 268V264.5L688.5 262.5L686 261L684.5 258V253C684.5 252.6 686.167 249.5 687 248L690.5 245.5L693.5 242V238.5L694 235H698L700.5 236H705L706.5 232.5L709.5 230H718.5L721.5 229V227L722.5 225C723.5 224.833 725.7 224.5 726.5 224.5H731.5L733 223L734 218L736.5 213.5L741.5 212.5L744.5 213.5H747L748 211L747 208V205.5L747.5 204L752.5 198.5C754 198 755.6 197 756 197H760.5C760.9 197 762 196.333 762.5 196L765 191.5L766.5 187L765.5 183L766.5 177.5L767.5 176L769 174H771L773 172L774 170.5V166C774 165.6 774.667 163.5 775 162.5L776 159.5V157.5C776.333 157.333 778.1 156 778.5 156C778.9 156 779.667 154.333 780 153.5L781 148L783 145.5L782 141.5L780 139.5V129.5L782 128L783 127V123L785 117L786.5 114L789 111.5L786.5 109L787.5 103.5L789 102L790.5 99L791.5 95.5L792.5 93L792 90.5V85.5L797 82V69.5L798 66.5L795.5 63L796 55L797.5 48L799 44L798 42L798.5 36L800.5 32.5L805 27.5L806 21L807.5 19.5L806 17V4.5L807.5 2.5L811.5 1L813 0H958.5V1L960 7.5L963 12L962.5 18.5H965L971 13L974 7.5L972 4.5V0L1310.5 -2.5L1322 23.5L1324.5 67L1328.5 87L1348.5 199.5L1352 214.5L1371 301L1309.5 329L1207.5 330L1179.5 338.5L1177.5 337.5L1168.5 336.5L1162.5 333L1158.5 332V326H1157L1152.5 325L1147.5 323L1142 318.5L1135 315L1131 312.5H1126L1124 311.5L1122.5 309L1119.5 308H1116.5C1115.67 307.667 1114.3 308 1113.5 308C1112.7 308 1112.67 305.667 1113 305L1109 302.5L1107 301L1105.5 298L1099 296C1097.67 295.667 1094.9 295 1094.5 295C1094.1 295 1092.67 293.667 1092 293L1090.5 288L1092.5 285.5L1096.5 284L1099.5 280.5V277.5L1099 274.5V268C1099 267.2 1100 264 1100.5 262.5H1105.5V257L1108 253L1108.5 250L1100 248L1099.5 244L1103.5 240L1109.5 238L1113 237L1118 236L1119 234L1123.5 228.5L1130.5 225L1138.5 219L1142.5 214L1146 209L1150 208L1151.5 203.5L1155.5 201.5V197.5L1157.5 195.5L1160.5 194.5H1165.5L1166.5 192.5L1164 191.5L1163.5 188V182L1165.5 179L1166.5 171L1165.5 166.5L1166.5 164L1171 159.5L1173 155L1171 153L1167.5 149V143.5L1165 140.5H1159L1154.5 141.5H1151.5L1149 135.5H1145L1141 133.5L1140 126.5L1138 125L1133.5 123.5L1128.5 126H1123L1114 125L1111 122L1108.5 119L1102 116L1098.5 113.5L1095.5 111V112.5L1093 114.5L1087 113.5L1079.5 110L1070.5 106L1068.5 99.5H1063L1061.5 96.5L1051.5 88L1045.5 81.5C1044.17 81.1667 1041.4 80.3 1041 79.5C1040.6 78.7 1039.5 77.1667 1039 76.5L1036 75V72.5L1037.5 62.5L1034.5 60.5L1033.5 57.5L1033 55V51.5L1031 48.5L1027 47L1026 41.5V38.5L1020 40L1017.5 38.5L1014 33V43.5L1009.5 45.5L1002.5 47L995.5 44.5V47L993 50L990.5 51.5L991.5 54V58L994 60.5L995.5 63.5L997.5 68L1001.5 71C1001.83 72.6667 1002.5 76.1 1002.5 76.5V81.5L1001.5 85L1002.5 88L1008 89L1012 88H1021L1026 83C1026.8 82.2 1027.67 80 1028 79L1031 78L1041.5 86V94.5H1043.5L1045.5 93H1053.5L1055 96.5L1058.5 98.5L1067.5 104.5L1069.5 106L1070.5 111L1075 113.5L1083.5 116H1094L1102 122V128H1108.5L1112 131.5L1114 129L1120 128L1131.5 135.5H1136.5L1140.5 136.5L1142.5 138L1143.5 144.5L1146 147L1148 153L1146.5 156.5V159.5L1150 166H1157.5L1159 168V183.5L1155.5 187L1150 196.5L1145 205.5L1140.5 211.5L1135.5 214L1128 222.5H1121.5L1118 227.5H1109.5L1106.5 232L1100 233L1099 236L1096 240L1092.5 242L1090 240L1083.5 238L1081 240L1076.5 244.5H1068L1067 245.5L1064 250L1061.5 254L1056.5 257L1054.5 261V264L1055.5 266.5L1051.5 268H1048L1045 266.5L1043 269L1041.5 273.5H1038L1034.5 275.5L1033 277L1031.5 280.5L1030 282.5V285.5L1031.5 288L1034.5 290L1036.5 292V295L1041.5 305H1050.5L1053.5 309H1055.5L1056.5 307L1058 305C1058.83 305.333 1060.7 306.2 1061.5 307C1062.3 307.8 1063.5 307.333 1064 307H1066L1068 302.5L1071.5 301L1073.5 302.5L1076.5 301V293.5L1078 292L1082 290L1084.5 292L1087 295L1088 301H1103.5L1108 303.5V307L1113 314L1117 315.5L1118.5 314H1122.5L1123.5 316.5L1129 319V326L1133 331L1138 332L1144.5 329H1146.5L1149 330L1151.5 334.5L1154.5 336.5L1160.5 338.5L1088 357.5L1035.5 373L994.5 388L893.5 423L883 432L882 436.5L878 439.5L874.5 441L867 447L865 450.5L861 455.5L856.5 458H851L847 455.5L845 449L838 448L836 444.5L829 443.5L826.5 445L820 444.5L818 446L817 453H813.5L811 456V461L808 462L804.5 465.5L805.5 468V473.5L815.5 483V486L808 493L803.5 494.5L799.5 493H797L793.5 497L789.5 500H781L778.5 503L772.5 509.5H766.5L756.5 516.5L753 521.5L750 522.5L744 521.5L741 531.5L735.5 532.5L732 538L723.5 541.5L718.5 547.5L710.5 555L704.5 558.5L698.5 560.5L695 565L691.5 567L686.5 569V577.5L680.5 580V582.5L678.5 585L666.5 594.5L664 595.5L660.5 593.5L657 591V599L652.5 601H647L643 598Z" stroke="#E97058"/>
</g>
<defs>
<clipPath id="clip0_3966_1767">
<rect width="2048" height="1056" fill="white"/>
</clipPath>
</defs>
</svg>
