<svg width="2048" height="1056" viewBox="0 0 2048 1056" fill="none" xmlns="http://www.w3.org/2000/svg">
<path d="M1092.5 683.5L1085.5 684.5L1081.5 686.786L1077 684.5L1076 680.5L1076.5 677V675L1075 673L1072 671.5L1069 669.5L1066 667L1063 666.5L1060 665L1059.5 662.5L1058 660L1054.5 661L1051 661.5L1048 660L1047 653L1045 651L1044.5 645.5L1042.5 642.5H1039L1035 640.5H1019L1014.5 641.5L1011 640.5L1009 635.5L1005.5 639.5L1001 640.5L999.5 639.5L996.5 642H991L986 641.5L983 643.5L978.5 646H974L971 651.5L967 652.5L962.5 652L960 646.5L955 649L948.5 652H942.5L936.5 649.5L931 652.5L928.5 656L923 658.5L919 658V650.5L917.5 647.5L911.5 642V635H902L900.5 628.5L895.5 624.5L892.5 620.5H887.5L886.5 608L884.5 600.5L884 593L889.5 591V589.5L886.5 587V575.5L887.5 571L889.5 562.5L887.5 561L882 557.5L881 548L878 545.5V540.5L879.5 537C877.667 536.333 874 534.9 874 534.5C874 534.1 871.333 533 870 532.5L865.5 529.5L862 526.5L861 518.5L859 517V511L864 508L864.5 503L863 499.5L859 497.5L857.5 493.5V484.5L859 478.5L861 476V473L859 472L856.5 469.5L855.5 467L854.5 465L856.5 458L861 456L864 453L866.5 448.5L871.5 444L874 441.5C874.8 440.7 876.667 440.833 877.5 441L883 436V432.5L884.5 431.5L888 428L890 427L893.5 423L995 388.5L1034.5 374L1088.5 358L1157.5 339.5L1165 338.5C1167.33 340.333 1172.1 344 1172.5 344C1173 344 1175 338.5 1175.5 338.5C1176 338.5 1179 338.5 1179 339.5C1179 340.3 1180.33 345.167 1181 347.5L1183 354H1186L1188.5 355C1189.17 355.167 1190.6 355.7 1191 356.5C1191.5 357.5 1192.5 358 1192.5 359C1192.5 359.8 1191.83 361.667 1191.5 362.5C1191.17 363 1190.7 364.2 1191.5 365C1192.5 366 1193.5 366.5 1194.5 367C1195.5 367.5 1196.5 368.5 1197.5 368.5C1198.3 368.5 1199.83 369.833 1200.5 370.5C1201 371.667 1202 374.1 1202 374.5C1202 375 1202.5 375.5 1202.5 376.5V381L1203.5 383C1203.83 383.333 1204.6 384.2 1205 385L1206 387V389.5C1206 390.5 1205 391 1205 392C1205 392.8 1205.67 393.667 1206 394C1205.67 394 1205.2 394.2 1206 395C1208 397 1208 397.5 1209 397.5C1209.8 397.5 1211 399.833 1211.5 401L1210.5 404.5V409.5C1210.83 409.5 1211.7 409.7 1212.5 410.5C1213.3 411.3 1214.17 410.833 1214.5 410.5V423L1211.5 424.5L1210.5 427L1212.5 428L1213.5 430L1218.5 433.5L1221 438V441.5C1221 441.9 1220.33 444 1220 445L1217 446C1216.67 446.667 1216 448.2 1216 449V464.5C1216 465.5 1214.5 467 1214.5 467.5C1214.5 468 1216.5 469 1217 469.5C1217.5 470 1219 472 1220 472C1220.8 472 1222.33 473 1223 473.5L1223.5 475.5L1226 480.5L1230.5 483.5L1237.5 486.5L1240 491.5L1246 495.5L1251.5 491.5L1256.5 493L1260.5 492L1263 495.5H1273L1277.5 499L1281 501L1282.5 505.5L1286 502H1290L1292 505.5L1293.5 507.5V515L1295 517L1297 518V519.5L1298 522L1298.5 524.5L1298 528V530L1297 532.5V535L1296.5 537.5C1296 537.5 1294.9 537.6 1294.5 538C1294.1 538.4 1292.67 538.833 1292 539V541.5L1293.5 543C1293.83 543.333 1294.6 543.8 1295 543C1295.4 542.2 1296.17 541 1296.5 540.5H1298C1298.4 540.5 1300.83 540.167 1302 540L1305 540.5H1306V545L1305.5 550L1305 552.5V554.5C1305 555 1306 556 1306 556.5C1306 557 1307 557.5 1307.5 558.5C1308 559.5 1308.5 558.5 1308.5 560V562.5C1308.5 563.3 1307.83 564.5 1307.5 565L1304 572V574.5L1305 578C1305.17 578.333 1305.5 579.1 1305.5 579.5C1305.5 579.9 1305.83 581.333 1306 582V585.5L1304 587.5L1301 593L1296.5 597.5L1296 602.5L1290 607.5L1287 609L1285.5 613.5L1280 615.5V619H1273.5V639.5L1274.5 644L1273.5 651.5L1273 653.5H1267L1264 652.5L1260.5 657.5L1259 660.5L1253 663.5H1249C1248.33 663 1246.3 659.8 1245.5 659C1244.5 658 1243.5 658.5 1243 657.5C1242.6 656.7 1241.17 654.167 1240.5 654L1235.5 657.5H1232.5C1231.5 655 1229.3 650 1228.5 650H1226L1224.5 651.5H1218.5L1212 649H1202.5L1201 648L1196 649H1190.5L1189.5 652.5C1188.5 653 1186.4 654.2 1186 655C1185.5 656 1181.5 657 1180.5 657.5L1175.5 660C1174.5 660.5 1170.5 661.5 1169 663.5C1167.5 665.5 1165.5 663.5 1163 665C1160.5 666.5 1156 666 1155 666C1154 666 1148.5 663.5 1148 663.5C1147.6 663.5 1140.5 662.167 1137 661.5L1136 663.5L1129.5 666L1124.5 667C1122.33 667.5 1117.7 668.5 1116.5 668.5C1115.3 668.5 1112.67 670.5 1111.5 671.5L1108 677.5L1103.5 682L1098 683.5H1092.5Z" fill="#82B34D" fill-opacity="0.9"/>
<path d="M710.857 690.5H662L657.5 691.5L654 689.5V680L650.5 677.5L649 673C649.167 672.333 649.2 670.9 648 670.5C646.8 670.1 645.167 668.667 644.5 668C643.334 667.333 641.2 665.7 642 664.5C642.8 663.3 644 660.667 644.5 659.5L649 660.5C649.667 660.833 651.3 661.6 652.5 662C654.9 660 656.167 655.5 656.5 653.5V650L657.5 648H667L668.5 646L667 643L668.5 639.5L671.5 637L670 634L665.5 631H663.5L662 633L659 636H656.5C655.7 636 654.833 639.667 654.5 641.5L652.5 645L647.5 646C646.834 647 645.3 649 644.5 649H638L635.5 653.5H631C630 653.5 629.5 652.5 629.5 651.5C629.5 650.5 628 650 629.5 649C630.7 648.2 631.667 647.667 632 647.5L632.5 644.5L632 641.5V636C632.5 635.667 633.6 634.9 634 634.5C634.4 634.1 635.834 632 636.5 631V629L637.5 625.5L638.5 623L640.5 621.5H644.5L646 619V614.5L648 613.5L652 615L655.5 615.5L658.5 612.5V608L664 606.5L668 605L670.5 606L676 602H678.5L679 593L683.5 584L688 581C688.834 580.5 690.5 579.4 690.5 579C690.5 578.6 690.834 573.833 691 571.5L696.5 570.5H698L698.5 565.5L705 561.5L711 557L715.5 555.5C715.667 554 716.1 551.1 716.5 551.5C716.9 551.9 719.334 551.667 720.5 551.5L723 552.5C723.5 552.333 724.5 551.9 724.5 551.5V547.5C724.167 546.833 723.7 545.4 724.5 545L728.5 543C729.167 542.833 730.6 542.5 731 542.5C731.4 542.5 733.167 542.833 734 543L736.5 542.5V541C736.5 540.6 737.167 538.833 737.5 538V537L739 535H740.5L744 534L745.5 533C746 533 747 532.8 747 532C747 531.2 747.667 529.667 748 529L749 527H751.5L753.5 526.5L755.5 525.5H757V521L759 518.5L761.5 516.5L764.5 515.5L771 513.5L775.5 512.5H782.5L784 505.5C785.167 505 787.6 504 788 504C788.5 504 790 505 791.5 504C792.7 503.2 795 502 796 501.5C796 501.833 796.1 502.5 796.5 502.5C796.9 502.5 798.334 500.5 799 499.5L801.5 498.5C802.5 498.167 804.6 497.7 805 498.5C805.5 499.5 805.5 500.5 806 500.5C806.4 500.5 807.5 499.833 808 499.5C808.5 498.5 809.5 496.4 809.5 496C809.5 495.6 810.5 494.167 811 493.5H813.5L818 492.5L819.5 493.5V497.5C820.167 498.167 821.6 499.5 822 499.5C822.4 499.5 824.167 500.167 825 500.5C825.167 501.5 825.5 503.6 825.5 504C825.5 504.4 825.167 505.833 825 506.5V509C825.334 509.5 826 510.6 826 511V514.5L827 517C828.167 517.333 830.6 518.1 831 518.5C831.4 518.9 833.834 520.333 835 521L837.5 529C837.5 529.833 837.8 531.4 839 531C840.2 530.6 846.5 529.833 849.5 529.5C851.5 529.333 855.6 529 856 529C856.4 529 860.167 530.333 862 531L864.5 532.5L867.5 537L872.5 539C873.334 540 875 542.1 875 542.5C875 543 876.5 546.5 876.5 547C876.5 547.4 877.5 550.5 878 552C877.834 552.833 877.6 554.6 878 555L882.5 559.5C883.167 560.667 884.5 563.1 884.5 563.5C884.5 563.9 884.167 567.333 884 569L882 575.5V583.5L880 589.5V592L879.5 596C879.334 597.333 879 600.1 879 600.5C879 600.9 879.334 602 879.5 602.5L880 604.5V608L876.5 611C876.334 611.167 876.1 611.7 876.5 612.5C877 613.5 877 615.5 878 615.5C878.8 615.5 881 616.167 882 616.5C882.334 617 883 618.1 883 618.5C883 618.9 882.334 621 882 622V623.5C882.5 623.833 883.6 624.5 884 624.5C884.5 624.5 886 623 886.5 622.5C887 622 887.5 622 888.5 622C889.5 622 890.5 621.5 891 622C891.4 622.4 893.167 623.833 894 624.5L894.5 626C894.834 626.5 895.5 627.7 895.5 628.5C895.5 629.5 896.5 630.5 896.5 631.5V640C896.5 640.5 897 642 897.5 642C898 642 898.5 643 899 643C899.5 643 900 642 900.5 642C901 642 901.5 640.5 902 640.5H906.5L908.5 642L910.5 642.5V646.5C911.667 646.833 913 648.6 913 649C913 649.5 914.5 652.5 914.5 653C914.5 653.4 913.5 655.833 913 657L911.5 659.5V664.5C911.667 665.167 911.9 666.6 911.5 667C911.1 667.4 910.667 668.167 910.5 668.5L911.5 674.5L913.5 675.5C914 674.833 915.2 673.7 916 674.5C916.8 675.3 918.334 675.833 919 676C919.5 676.833 920.5 678.7 920.5 679.5V683.5L923 684.5H925.5C926.167 684.667 927.7 685.1 928.5 685.5C929.5 686 931.5 687 932 687.5C932.5 688 934.5 689 935 689.5L937.5 692C938 692.5 938.5 695 938.5 695.5V699C938.5 699.5 938.5 700.5 939.5 700.5C940.3 700.5 942.167 701.5 943 702C943.334 701.833 944 701.7 944 702.5V706L944.5 707C944.667 707.167 945.2 707.6 946 708C947 708.5 947.5 707 948.5 707C949.3 707 951.667 707.333 952.5 707L954.5 707.5L955.5 709L957 711C957.667 711.333 959 712.1 959 712.5C959 712.9 959.334 714 959.5 714.5C960.5 714.5 962.5 714.7 962.5 715.5C962.5 716.3 963.167 717.167 963.5 717.5L964 720C965.667 721.333 969 724.2 969 725C969 725.8 970.667 727.333 971.5 728H978.5L980.5 731L981 734L986 735L987.5 738.5H983L957 734L900.5 716.5H839.5L815 704.5H781L745 701L710.857 690.5Z" fill="#82B34D" fill-opacity="0.9"/>
<path d="M1000.5 744C999.7 743.6 997.167 741.5 996 740.5L995 738.5L991 736L989 732.5L984.5 731L982 726L977.5 724L971 721.5L966 716.5L965 712.5L960.5 708L959 702.5L954.5 699L952.5 692L944.5 690.5L943 685.5L936.5 685L928.5 678.5L924 677.5L923 669.5V662.5L926.5 660.5L932.5 657L936 654H941.5L944.5 655.5L947 654.5L954 654H957.5L960.5 656L962 658.5L966.5 658H979L982.5 653.5L987.5 652L996.5 646L1003.5 645.5L1008.5 642L1009.5 647L1014 644H1021L1026.5 647.5L1030.5 650.5L1035 654L1040.5 655L1042.5 658L1045 662.5L1045.5 664L1047.5 663L1052.5 662.5L1053 665.5V668.5L1052 672.5L1055 671.5L1059.5 672L1060.5 675.5L1062.5 679.5L1067 683.5L1073 684.5L1078 687.5L1078.5 688.5V690.5L1077 694V696.5L1076 699L1074.5 702.5L1076 705L1073.5 707L1067 705L1063 706L1059 708L1057 711L1055 715V724L1053.5 727.5L1050.5 731.5L1042 734H1033.5L1025.5 736L1020.5 734L1015 740.5L1011 744C1007.83 744.167 1001.3 744.4 1000.5 744Z" fill="#82B34D" fill-opacity="0.9"/>
<path d="M1246.5 676.5L1253 673L1253.75 669.25C1254.83 668.333 1257.4 666.2 1259 665C1260.6 663.8 1260.67 662.167 1260.5 661.5C1261.33 660.667 1263.2 659 1264 659C1264.8 659 1268.67 660 1270.5 660.5C1272.33 660 1276.3 659 1277.5 659C1279 659 1277.5 655.5 1277.5 654C1277.5 652.8 1278.5 648.833 1279 647V640.5L1280 630V621.5L1282 620L1289 615.5L1293.5 618L1297 617V609H1303C1304.17 608.667 1306.7 607.9 1307.5 607.5C1308.3 607.1 1306.5 605.667 1305.5 605C1304.67 604.167 1303 602.4 1303 602V600L1308.5 593V583.5L1309.5 582V574.5L1307.5 572C1307.83 570.833 1308.5 568.4 1308.5 568C1308.5 567.6 1310.83 565.833 1312 565C1312.5 563.667 1313.5 560.8 1313.5 560C1313.5 559.2 1312.5 557.667 1312 557L1309.5 554.5V551L1310.5 546.5L1312 541.5V539L1309.5 536V531L1310.5 528L1312.5 524.5C1314.5 524.167 1318.6 523.5 1319 523.5C1319.5 523.5 1321.5 523.5 1322 522C1322.4 520.8 1325.5 519.833 1327 519.5H1334.5L1335.5 521C1336.17 521.667 1337.8 523.1 1339 523.5C1340.2 523.9 1341.83 525 1342.5 525.5H1344L1349.5 527L1354 529.5L1355.5 528.5L1359 525.5H1363.5L1368.5 528C1370.67 527.667 1375.2 527 1376 527C1376.8 527 1378.67 527.667 1379.5 528L1382.5 531V538.5L1379.5 545.5L1385 546.5L1388 549.5L1393.5 557L1397.5 562L1407 567L1411 568H1415.5C1416.7 568 1417.67 569 1418 569.5L1422 572L1423.5 576L1425.5 578H1429L1432.5 576H1436.5C1437.17 576.667 1438.7 578 1439.5 578C1440.3 578 1440.83 579.667 1441 580.5L1443 584.5L1445 587L1447.5 591.5L1450 598L1451.5 601.5L1452.5 606L1454 609.5L1452.5 612.5L1454.5 614L1457.5 616L1458.5 625L1463.5 628.5L1466.5 630V639.5L1467.5 648.5L1466 651.5V660L1467.5 663V667.5L1466 673.5L1459.5 678.5L1455 684.5L1450.5 694C1450 696.167 1448.9 700.7 1448.5 701.5C1448.1 702.3 1447 705.167 1446.5 706.5L1440.5 708C1438.67 709 1434.9 711.1 1434.5 711.5C1434.1 711.9 1432.67 714 1432 715L1430.5 720.5V729L1429 734.5L1425.5 737.5L1417 739.5H1412L1408.5 742L1407.5 746L1403.5 753L1402 756V765.5L1401 768V771L1399 774.5L1397.5 776.5L1394 777.5L1391 779L1387 779.5H1381.5L1378 780.5V788L1379.5 789.5V793.5L1370.5 796L1364.5 795.5L1360 798L1355.5 802.5L1348 804.5C1346.5 804.833 1343.4 805.5 1343 805.5C1342.5 805.5 1339.5 805 1339 804.5C1338.6 804.1 1336.5 803 1335.5 802.5L1332 799.5L1329 797L1322.5 795.5L1320 792L1316.5 787L1312 783C1311.5 782.167 1310.5 780.3 1310.5 779.5C1310.5 778.7 1308.17 777.833 1307 777.5L1304.5 779.5L1301 777.5L1296 774.5L1291.5 773.5C1291 772.667 1290 770.8 1290 770C1290 769.2 1290.67 767.333 1291 766.5L1291.5 762H1288L1284 758L1281.5 754L1278.5 749.5L1273 747.5L1269 743L1263 736.5L1260.5 732V725C1261.5 723.333 1263.8 719.8 1265 719C1266.2 718.2 1266.83 715.333 1267 714V706C1267 705 1265 700 1265 699C1265 698 1262.5 694.5 1262 693.5C1261.6 692.7 1259.83 692.167 1259 692L1252 691L1245.5 690L1242 686L1246.5 676.5Z" fill="#82B34D" fill-opacity="0.9"/>
<path d="M1180.5 338.5L1181.5 344.5L1184.5 348L1192.5 352L1194 361H1200L1203.5 362C1204 362.333 1204.9 363.1 1204.5 363.5C1204.1 363.9 1203.67 365.667 1203.5 366.5L1204.5 370.5L1208 372.5L1209 374L1208.5 376.5V378.5L1210 383L1213 385L1212 389.5V393L1214.5 396L1214 405L1215.5 413L1220.5 419.5L1220 425L1220.5 431.5L1222.5 435C1223.5 435.333 1225.6 436.1 1226 436.5C1226.4 436.9 1227.17 439 1227.5 440L1227 442L1227.5 445.5C1227.83 446.333 1228.5 448.1 1228.5 448.5C1228.5 449 1230.5 450.5 1229.5 451C1228.5 451.5 1226.5 451.5 1226 452.5C1225.6 453.3 1224.17 454.167 1223.5 454.5V456L1223 458.5L1224 460C1224.17 460.5 1224.4 461.6 1224 462C1223.6 462.4 1222.83 464.167 1222.5 465V470.5L1226 475.5L1229.5 479.5L1236 481.5L1238.5 486L1244 486.5L1248 484.5L1251.5 487L1255.5 489.5L1257 491H1265.5L1266 490.5L1269.5 492L1275 494.5C1276.17 495.167 1278.6 496.5 1279 496.5H1284L1287.5 494.5L1289 493.5L1291 494.5L1292 500.5L1296.5 502.5L1301 503L1303 505L1312 506L1314.5 512.5L1318.5 513L1322 516.5L1332.5 515.5L1340.5 512.5L1344.5 511.5L1350.5 514.5L1359 519.5L1365.5 522.5H1380V522L1385 525H1393C1393.83 524.5 1395.5 523.4 1395.5 523C1395.5 522.6 1396.83 520.833 1397.5 520L1399.5 519.5L1400.5 520.5L1404 521L1406 519.5L1410 522.5L1417 522L1421 517.5L1424 514.5L1427 515.5L1431 515L1438 507L1445.5 506L1450 503L1458.5 502L1460.5 495L1463.5 494.5L1464.5 489L1469.5 486.5L1470.5 482L1471 475.5V471H1475L1442.5 441L1411.5 391L1371 301.5L1309.5 329.5H1248.5L1208 331L1180.5 338.5Z" fill="#82B34D" fill-opacity="0.9"/>
<path d="M1509.5 525.5L1505.5 521L1507 517.5L1505.5 514L1503 512.5L1498 502.5L1494.5 500L1484.5 497L1480 500C1478.33 499.667 1474.9 498.9 1474.5 498.5C1474.1 498.1 1471.33 499.333 1470 500L1462 505.5V519.5L1465 522V527L1466.5 529.5V532.5L1470 536C1470.8 536.8 1472.67 535.667 1473.5 535L1478 536V539.5L1480 543.5L1481 546.5L1482 551L1484.5 554.5L1488 556L1491 558V561L1493.5 565H1500.5C1501.3 565 1501.5 562.333 1501.5 561V557L1500.5 553.5C1500 552.167 1498.8 549.4 1498 549C1497.2 548.6 1495.33 547.167 1494.5 546.5L1491 543.5L1489.5 540.5L1491 535L1494.5 531.5H1498L1503 532.5H1508.5L1509.5 530V525.5Z" fill="#82B34D" fill-opacity="0.9"/>
<path d="M1478.5 548.5C1475.33 546.167 1468.7 541.3 1467.5 540.5L1466.5 537.5L1466 535L1465 533.5L1462.5 533L1463 531L1463.5 528.5L1463 525.5L1462 524.5C1461.67 523.667 1461 521.8 1461 521C1461 520.2 1460.33 519 1460 518.5L1457.5 515.5V514.5C1457.67 513.833 1458 512.3 1458 511.5V508.5L1456.5 506.5L1454 505.5L1450 506.5L1446 508.5C1444.17 509.667 1440.3 512.1 1439.5 512.5C1438.7 512.9 1436.83 514 1436 514.5L1434 518.5L1430 519.5L1426.5 521V525.5L1422 524.5L1418.5 525L1415.5 528L1410 532.5H1407L1403 529L1398.5 529.5L1395 531V535.5L1393.5 539.5L1393 543.5L1394.5 546.5L1397.5 549L1400.5 554.5V559L1406 561C1407.5 561.333 1410.6 562 1411 562C1411.4 562 1413.17 563.333 1414 564H1421.5L1423.5 565.5V568.5L1425.5 570.5C1426 571 1426.5 571.5 1427.5 571.5C1428.5 571.5 1429.5 572.5 1430 572.5H1432.5L1436.5 571.5L1438.5 574.5L1441 577H1443L1445 579C1445.17 579.667 1445.6 581.2 1446 582C1446.5 583 1446.5 584.5 1447 584.5C1447.5 584.5 1449 586.5 1450 587C1451 587.5 1452 587.5 1454 588C1455.6 588.4 1455 588.833 1454.5 589L1455.5 591L1454.5 593.5L1454 596L1454.5 599L1456.5 600C1457.67 600.5 1460.2 601.5 1461 601.5C1461.8 601.5 1462 602.833 1462 603.5L1464 607L1463.5 611C1464 611.5 1465.2 612.5 1466 612.5C1466.8 612.5 1467.67 613.5 1468 614V618C1467.83 619.333 1467.3 622.1 1466.5 622.5C1465.7 622.9 1470.83 623.333 1473.5 623.5C1474.17 624.667 1475.6 627.2 1476 628C1476.5 629 1478 628 1479.5 628C1480.7 628 1481 625 1481 623.5L1485.5 621L1490 619.5L1494.5 616V608L1491 604.5L1482 600L1478 593.5L1478.5 590L1484.5 584.5L1486.5 580.5L1489.5 573L1491 568H1485.5V565L1486.5 561L1485.5 557L1480 556L1478.5 548.5Z" fill="#82B34D" fill-opacity="0.9"/>
<path d="M1198 659.5L1216.5 678.5L1235.5 680H1238L1246.5 670L1245 666C1243.17 666 1239.4 665.9 1239 665.5C1238.6 665.1 1235.5 664.333 1234 664L1229 662L1224 656.5L1219.5 653L1213 651.5L1209.5 653L1207.5 655L1205 653.5L1195.5 654L1196 657L1198 659.5Z" fill="#82B34D" fill-opacity="0.9"/>
<path d="M1092.5 683.5L1085.5 684.5L1081.5 686.786L1077 684.5L1076 680.5L1076.5 677V675L1075 673L1072 671.5L1069 669.5L1066 667L1063 666.5L1060 665L1059.5 662.5L1058 660L1054.5 661L1051 661.5L1048 660L1047 653L1045 651L1044.5 645.5L1042.5 642.5H1039L1035 640.5H1019L1014.5 641.5L1011 640.5L1009 635.5L1005.5 639.5L1001 640.5L999.5 639.5L996.5 642H991L986 641.5L983 643.5L978.5 646H974L971 651.5L967 652.5L962.5 652L960 646.5L955 649L948.5 652H942.5L936.5 649.5L931 652.5L928.5 656L923 658.5L919 658V650.5L917.5 647.5L911.5 642V635H902L900.5 628.5L895.5 624.5L892.5 620.5H887.5L886.5 608L884.5 600.5L884 593L889.5 591V589.5L886.5 587V575.5L887.5 571L889.5 562.5L887.5 561L882 557.5L881 548L878 545.5V540.5L879.5 537C877.667 536.333 874 534.9 874 534.5C874 534.1 871.333 533 870 532.5L865.5 529.5L862 526.5L861 518.5L859 517V511L864 508L864.5 503L863 499.5L859 497.5L857.5 493.5V484.5L859 478.5L861 476V473L859 472L856.5 469.5L855.5 467L854.5 465L856.5 458L861 456L864 453L866.5 448.5L871.5 444L874 441.5C874.8 440.7 876.667 440.833 877.5 441L883 436V432.5L884.5 431.5L888 428L890 427L893.5 423L995 388.5L1034.5 374L1088.5 358L1157.5 339.5L1165 338.5C1167.33 340.333 1172.1 344 1172.5 344C1173 344 1175 338.5 1175.5 338.5C1176 338.5 1179 338.5 1179 339.5C1179 340.3 1180.33 345.167 1181 347.5L1183 354H1186L1188.5 355C1189.17 355.167 1190.6 355.7 1191 356.5C1191.5 357.5 1192.5 358 1192.5 359C1192.5 359.8 1191.83 361.667 1191.5 362.5C1191.17 363 1190.7 364.2 1191.5 365C1192.5 366 1193.5 366.5 1194.5 367C1195.5 367.5 1196.5 368.5 1197.5 368.5C1198.3 368.5 1199.83 369.833 1200.5 370.5C1201 371.667 1202 374.1 1202 374.5C1202 375 1202.5 375.5 1202.5 376.5V381L1203.5 383C1203.83 383.333 1204.6 384.2 1205 385L1206 387V389.5C1206 390.5 1205 391 1205 392C1205 392.8 1205.67 393.667 1206 394C1205.67 394 1205.2 394.2 1206 395C1208 397 1208 397.5 1209 397.5C1209.8 397.5 1211 399.833 1211.5 401L1210.5 404.5V409.5C1210.83 409.5 1211.7 409.7 1212.5 410.5C1213.3 411.3 1214.17 410.833 1214.5 410.5V423L1211.5 424.5L1210.5 427L1212.5 428L1213.5 430L1218.5 433.5L1221 438V441.5C1221 441.9 1220.33 444 1220 445L1217 446C1216.67 446.667 1216 448.2 1216 449V464.5C1216 465.5 1214.5 467 1214.5 467.5C1214.5 468 1216.5 469 1217 469.5C1217.5 470 1219 472 1220 472C1220.8 472 1222.33 473 1223 473.5L1223.5 475.5L1226 480.5L1230.5 483.5L1237.5 486.5L1240 491.5L1246 495.5L1251.5 491.5L1256.5 493L1260.5 492L1263 495.5H1273L1277.5 499L1281 501L1282.5 505.5L1286 502H1290L1292 505.5L1293.5 507.5V515L1295 517L1297 518V519.5L1298 522L1298.5 524.5L1298 528V530L1297 532.5V535L1296.5 537.5C1296 537.5 1294.9 537.6 1294.5 538C1294.1 538.4 1292.67 538.833 1292 539V541.5L1293.5 543C1293.83 543.333 1294.6 543.8 1295 543C1295.4 542.2 1296.17 541 1296.5 540.5H1298C1298.4 540.5 1300.83 540.167 1302 540L1305 540.5H1306V545L1305.5 550L1305 552.5V554.5C1305 555 1306 556 1306 556.5C1306 557 1307 557.5 1307.5 558.5C1308 559.5 1308.5 558.5 1308.5 560V562.5C1308.5 563.3 1307.83 564.5 1307.5 565L1304 572V574.5L1305 578C1305.17 578.333 1305.5 579.1 1305.5 579.5C1305.5 579.9 1305.83 581.333 1306 582V585.5L1304 587.5L1301 593L1296.5 597.5L1296 602.5L1290 607.5L1287 609L1285.5 613.5L1280 615.5V619H1273.5V639.5L1274.5 644L1273.5 651.5L1273 653.5H1267L1264 652.5L1260.5 657.5L1259 660.5L1253 663.5H1249C1248.33 663 1246.3 659.8 1245.5 659C1244.5 658 1243.5 658.5 1243 657.5C1242.6 656.7 1241.17 654.167 1240.5 654L1235.5 657.5H1232.5C1231.5 655 1229.3 650 1228.5 650H1226L1224.5 651.5H1218.5L1212 649H1202.5L1201 648L1196 649H1190.5L1189.5 652.5C1188.5 653 1186.4 654.2 1186 655C1185.5 656 1181.5 657 1180.5 657.5L1175.5 660C1174.5 660.5 1170.5 661.5 1169 663.5C1167.5 665.5 1165.5 663.5 1163 665C1160.5 666.5 1156 666 1155 666C1154 666 1148.5 663.5 1148 663.5C1147.6 663.5 1140.5 662.167 1137 661.5L1136 663.5L1129.5 666L1124.5 667C1122.33 667.5 1117.7 668.5 1116.5 668.5C1115.3 668.5 1112.67 670.5 1111.5 671.5L1108 677.5L1103.5 682L1098 683.5H1092.5Z" stroke="#82B34D"/>
<path d="M710.857 690.5H662L657.5 691.5L654 689.5V680L650.5 677.5L649 673C649.167 672.333 649.2 670.9 648 670.5C646.8 670.1 645.167 668.667 644.5 668C643.334 667.333 641.2 665.7 642 664.5C642.8 663.3 644 660.667 644.5 659.5L649 660.5C649.667 660.833 651.3 661.6 652.5 662C654.9 660 656.167 655.5 656.5 653.5V650L657.5 648H667L668.5 646L667 643L668.5 639.5L671.5 637L670 634L665.5 631H663.5L662 633L659 636H656.5C655.7 636 654.833 639.667 654.5 641.5L652.5 645L647.5 646C646.834 647 645.3 649 644.5 649H638L635.5 653.5H631C630 653.5 629.5 652.5 629.5 651.5C629.5 650.5 628 650 629.5 649C630.7 648.2 631.667 647.667 632 647.5L632.5 644.5L632 641.5V636C632.5 635.667 633.6 634.9 634 634.5C634.4 634.1 635.834 632 636.5 631V629L637.5 625.5L638.5 623L640.5 621.5H644.5L646 619V614.5L648 613.5L652 615L655.5 615.5L658.5 612.5V608L664 606.5L668 605L670.5 606L676 602H678.5L679 593L683.5 584L688 581C688.834 580.5 690.5 579.4 690.5 579C690.5 578.6 690.834 573.833 691 571.5L696.5 570.5H698L698.5 565.5L705 561.5L711 557L715.5 555.5C715.667 554 716.1 551.1 716.5 551.5C716.9 551.9 719.334 551.667 720.5 551.5L723 552.5C723.5 552.333 724.5 551.9 724.5 551.5V547.5C724.167 546.833 723.7 545.4 724.5 545L728.5 543C729.167 542.833 730.6 542.5 731 542.5C731.4 542.5 733.167 542.833 734 543L736.5 542.5V541C736.5 540.6 737.167 538.833 737.5 538V537L739 535H740.5L744 534L745.5 533C746 533 747 532.8 747 532C747 531.2 747.667 529.667 748 529L749 527H751.5L753.5 526.5L755.5 525.5H757V521L759 518.5L761.5 516.5L764.5 515.5L771 513.5L775.5 512.5H782.5L784 505.5C785.167 505 787.6 504 788 504C788.5 504 790 505 791.5 504C792.7 503.2 795 502 796 501.5C796 501.833 796.1 502.5 796.5 502.5C796.9 502.5 798.334 500.5 799 499.5L801.5 498.5C802.5 498.167 804.6 497.7 805 498.5C805.5 499.5 805.5 500.5 806 500.5C806.4 500.5 807.5 499.833 808 499.5C808.5 498.5 809.5 496.4 809.5 496C809.5 495.6 810.5 494.167 811 493.5H813.5L818 492.5L819.5 493.5V497.5C820.167 498.167 821.6 499.5 822 499.5C822.4 499.5 824.167 500.167 825 500.5C825.167 501.5 825.5 503.6 825.5 504C825.5 504.4 825.167 505.833 825 506.5V509C825.334 509.5 826 510.6 826 511V514.5L827 517C828.167 517.333 830.6 518.1 831 518.5C831.4 518.9 833.834 520.333 835 521L837.5 529C837.5 529.833 837.8 531.4 839 531C840.2 530.6 846.5 529.833 849.5 529.5C851.5 529.333 855.6 529 856 529C856.4 529 860.167 530.333 862 531L864.5 532.5L867.5 537L872.5 539C873.334 540 875 542.1 875 542.5C875 543 876.5 546.5 876.5 547C876.5 547.4 877.5 550.5 878 552C877.834 552.833 877.6 554.6 878 555L882.5 559.5C883.167 560.667 884.5 563.1 884.5 563.5C884.5 563.9 884.167 567.333 884 569L882 575.5V583.5L880 589.5V592L879.5 596C879.334 597.333 879 600.1 879 600.5C879 600.9 879.334 602 879.5 602.5L880 604.5V608L876.5 611C876.334 611.167 876.1 611.7 876.5 612.5C877 613.5 877 615.5 878 615.5C878.8 615.5 881 616.167 882 616.5C882.334 617 883 618.1 883 618.5C883 618.9 882.334 621 882 622V623.5C882.5 623.833 883.6 624.5 884 624.5C884.5 624.5 886 623 886.5 622.5C887 622 887.5 622 888.5 622C889.5 622 890.5 621.5 891 622C891.4 622.4 893.167 623.833 894 624.5L894.5 626C894.834 626.5 895.5 627.7 895.5 628.5C895.5 629.5 896.5 630.5 896.5 631.5V640C896.5 640.5 897 642 897.5 642C898 642 898.5 643 899 643C899.5 643 900 642 900.5 642C901 642 901.5 640.5 902 640.5H906.5L908.5 642L910.5 642.5V646.5C911.667 646.833 913 648.6 913 649C913 649.5 914.5 652.5 914.5 653C914.5 653.4 913.5 655.833 913 657L911.5 659.5V664.5C911.667 665.167 911.9 666.6 911.5 667C911.1 667.4 910.667 668.167 910.5 668.5L911.5 674.5L913.5 675.5C914 674.833 915.2 673.7 916 674.5C916.8 675.3 918.334 675.833 919 676C919.5 676.833 920.5 678.7 920.5 679.5V683.5L923 684.5H925.5C926.167 684.667 927.7 685.1 928.5 685.5C929.5 686 931.5 687 932 687.5C932.5 688 934.5 689 935 689.5L937.5 692C938 692.5 938.5 695 938.5 695.5V699C938.5 699.5 938.5 700.5 939.5 700.5C940.3 700.5 942.167 701.5 943 702C943.334 701.833 944 701.7 944 702.5V706L944.5 707C944.667 707.167 945.2 707.6 946 708C947 708.5 947.5 707 948.5 707C949.3 707 951.667 707.333 952.5 707L954.5 707.5L955.5 709L957 711C957.667 711.333 959 712.1 959 712.5C959 712.9 959.334 714 959.5 714.5C960.5 714.5 962.5 714.7 962.5 715.5C962.5 716.3 963.167 717.167 963.5 717.5L964 720C965.667 721.333 969 724.2 969 725C969 725.8 970.667 727.333 971.5 728H978.5L980.5 731L981 734L986 735L987.5 738.5H983L957 734L900.5 716.5H839.5L815 704.5H781L745 701L710.857 690.5Z" stroke="#82B34D"/>
<path d="M1000.5 744C999.7 743.6 997.167 741.5 996 740.5L995 738.5L991 736L989 732.5L984.5 731L982 726L977.5 724L971 721.5L966 716.5L965 712.5L960.5 708L959 702.5L954.5 699L952.5 692L944.5 690.5L943 685.5L936.5 685L928.5 678.5L924 677.5L923 669.5V662.5L926.5 660.5L932.5 657L936 654H941.5L944.5 655.5L947 654.5L954 654H957.5L960.5 656L962 658.5L966.5 658H979L982.5 653.5L987.5 652L996.5 646L1003.5 645.5L1008.5 642L1009.5 647L1014 644H1021L1026.5 647.5L1030.5 650.5L1035 654L1040.5 655L1042.5 658L1045 662.5L1045.5 664L1047.5 663L1052.5 662.5L1053 665.5V668.5L1052 672.5L1055 671.5L1059.5 672L1060.5 675.5L1062.5 679.5L1067 683.5L1073 684.5L1078 687.5L1078.5 688.5V690.5L1077 694V696.5L1076 699L1074.5 702.5L1076 705L1073.5 707L1067 705L1063 706L1059 708L1057 711L1055 715V724L1053.5 727.5L1050.5 731.5L1042 734H1033.5L1025.5 736L1020.5 734L1015 740.5L1011 744C1007.83 744.167 1001.3 744.4 1000.5 744Z" stroke="#82B34D"/>
<path d="M1246.5 676.5L1253 673L1253.75 669.25C1254.83 668.333 1257.4 666.2 1259 665C1260.6 663.8 1260.67 662.167 1260.5 661.5C1261.33 660.667 1263.2 659 1264 659C1264.8 659 1268.67 660 1270.5 660.5C1272.33 660 1276.3 659 1277.5 659C1279 659 1277.5 655.5 1277.5 654C1277.5 652.8 1278.5 648.833 1279 647V640.5L1280 630V621.5L1282 620L1289 615.5L1293.5 618L1297 617V609H1303C1304.17 608.667 1306.7 607.9 1307.5 607.5C1308.3 607.1 1306.5 605.667 1305.5 605C1304.67 604.167 1303 602.4 1303 602V600L1308.5 593V583.5L1309.5 582V574.5L1307.5 572C1307.83 570.833 1308.5 568.4 1308.5 568C1308.5 567.6 1310.83 565.833 1312 565C1312.5 563.667 1313.5 560.8 1313.5 560C1313.5 559.2 1312.5 557.667 1312 557L1309.5 554.5V551L1310.5 546.5L1312 541.5V539L1309.5 536V531L1310.5 528L1312.5 524.5C1314.5 524.167 1318.6 523.5 1319 523.5C1319.5 523.5 1321.5 523.5 1322 522C1322.4 520.8 1325.5 519.833 1327 519.5H1334.5L1335.5 521C1336.17 521.667 1337.8 523.1 1339 523.5C1340.2 523.9 1341.83 525 1342.5 525.5H1344L1349.5 527L1354 529.5L1355.5 528.5L1359 525.5H1363.5L1368.5 528C1370.67 527.667 1375.2 527 1376 527C1376.8 527 1378.67 527.667 1379.5 528L1382.5 531V538.5L1379.5 545.5L1385 546.5L1388 549.5L1393.5 557L1397.5 562L1407 567L1411 568H1415.5C1416.7 568 1417.67 569 1418 569.5L1422 572L1423.5 576L1425.5 578H1429L1432.5 576H1436.5C1437.17 576.667 1438.7 578 1439.5 578C1440.3 578 1440.83 579.667 1441 580.5L1443 584.5L1445 587L1447.5 591.5L1450 598L1451.5 601.5L1452.5 606L1454 609.5L1452.5 612.5L1454.5 614L1457.5 616L1458.5 625L1463.5 628.5L1466.5 630V639.5L1467.5 648.5L1466 651.5V660L1467.5 663V667.5L1466 673.5L1459.5 678.5L1455 684.5L1450.5 694C1450 696.167 1448.9 700.7 1448.5 701.5C1448.1 702.3 1447 705.167 1446.5 706.5L1440.5 708C1438.67 709 1434.9 711.1 1434.5 711.5C1434.1 711.9 1432.67 714 1432 715L1430.5 720.5V729L1429 734.5L1425.5 737.5L1417 739.5H1412L1408.5 742L1407.5 746L1403.5 753L1402 756V765.5L1401 768V771L1399 774.5L1397.5 776.5L1394 777.5L1391 779L1387 779.5H1381.5L1378 780.5V788L1379.5 789.5V793.5L1370.5 796L1364.5 795.5L1360 798L1355.5 802.5L1348 804.5C1346.5 804.833 1343.4 805.5 1343 805.5C1342.5 805.5 1339.5 805 1339 804.5C1338.6 804.1 1336.5 803 1335.5 802.5L1332 799.5L1329 797L1322.5 795.5L1320 792L1316.5 787L1312 783C1311.5 782.167 1310.5 780.3 1310.5 779.5C1310.5 778.7 1308.17 777.833 1307 777.5L1304.5 779.5L1301 777.5L1296 774.5L1291.5 773.5C1291 772.667 1290 770.8 1290 770C1290 769.2 1290.67 767.333 1291 766.5L1291.5 762H1288L1284 758L1281.5 754L1278.5 749.5L1273 747.5L1269 743L1263 736.5L1260.5 732V725C1261.5 723.333 1263.8 719.8 1265 719C1266.2 718.2 1266.83 715.333 1267 714V706C1267 705 1265 700 1265 699C1265 698 1262.5 694.5 1262 693.5C1261.6 692.7 1259.83 692.167 1259 692L1252 691L1245.5 690L1242 686L1246.5 676.5Z" stroke="#82B34D"/>
<path d="M1180.5 338.5L1181.5 344.5L1184.5 348L1192.5 352L1194 361H1200L1203.5 362C1204 362.333 1204.9 363.1 1204.5 363.5C1204.1 363.9 1203.67 365.667 1203.5 366.5L1204.5 370.5L1208 372.5L1209 374L1208.5 376.5V378.5L1210 383L1213 385L1212 389.5V393L1214.5 396L1214 405L1215.5 413L1220.5 419.5L1220 425L1220.5 431.5L1222.5 435C1223.5 435.333 1225.6 436.1 1226 436.5C1226.4 436.9 1227.17 439 1227.5 440L1227 442L1227.5 445.5C1227.83 446.333 1228.5 448.1 1228.5 448.5C1228.5 449 1230.5 450.5 1229.5 451C1228.5 451.5 1226.5 451.5 1226 452.5C1225.6 453.3 1224.17 454.167 1223.5 454.5V456L1223 458.5L1224 460C1224.17 460.5 1224.4 461.6 1224 462C1223.6 462.4 1222.83 464.167 1222.5 465V470.5L1226 475.5L1229.5 479.5L1236 481.5L1238.5 486L1244 486.5L1248 484.5L1251.5 487L1255.5 489.5L1257 491H1265.5L1266 490.5L1269.5 492L1275 494.5C1276.17 495.167 1278.6 496.5 1279 496.5H1284L1287.5 494.5L1289 493.5L1291 494.5L1292 500.5L1296.5 502.5L1301 503L1303 505L1312 506L1314.5 512.5L1318.5 513L1322 516.5L1332.5 515.5L1340.5 512.5L1344.5 511.5L1350.5 514.5L1359 519.5L1365.5 522.5H1380V522L1385 525H1393C1393.83 524.5 1395.5 523.4 1395.5 523C1395.5 522.6 1396.83 520.833 1397.5 520L1399.5 519.5L1400.5 520.5L1404 521L1406 519.5L1410 522.5L1417 522L1421 517.5L1424 514.5L1427 515.5L1431 515L1438 507L1445.5 506L1450 503L1458.5 502L1460.5 495L1463.5 494.5L1464.5 489L1469.5 486.5L1470.5 482L1471 475.5V471H1475L1442.5 441L1411.5 391L1371 301.5L1309.5 329.5H1248.5L1208 331L1180.5 338.5Z" stroke="#82B34D"/>
<path d="M1509.5 525.5L1505.5 521L1507 517.5L1505.5 514L1503 512.5L1498 502.5L1494.5 500L1484.5 497L1480 500C1478.33 499.667 1474.9 498.9 1474.5 498.5C1474.1 498.1 1471.33 499.333 1470 500L1462 505.5V519.5L1465 522V527L1466.5 529.5V532.5L1470 536C1470.8 536.8 1472.67 535.667 1473.5 535L1478 536V539.5L1480 543.5L1481 546.5L1482 551L1484.5 554.5L1488 556L1491 558V561L1493.5 565H1500.5C1501.3 565 1501.5 562.333 1501.5 561V557L1500.5 553.5C1500 552.167 1498.8 549.4 1498 549C1497.2 548.6 1495.33 547.167 1494.5 546.5L1491 543.5L1489.5 540.5L1491 535L1494.5 531.5H1498L1503 532.5H1508.5L1509.5 530V525.5Z" stroke="#82B34D"/>
<path d="M1478.5 548.5C1475.33 546.167 1468.7 541.3 1467.5 540.5L1466.5 537.5L1466 535L1465 533.5L1462.5 533L1463 531L1463.5 528.5L1463 525.5L1462 524.5C1461.67 523.667 1461 521.8 1461 521C1461 520.2 1460.33 519 1460 518.5L1457.5 515.5V514.5C1457.67 513.833 1458 512.3 1458 511.5V508.5L1456.5 506.5L1454 505.5L1450 506.5L1446 508.5C1444.17 509.667 1440.3 512.1 1439.5 512.5C1438.7 512.9 1436.83 514 1436 514.5L1434 518.5L1430 519.5L1426.5 521V525.5L1422 524.5L1418.5 525L1415.5 528L1410 532.5H1407L1403 529L1398.5 529.5L1395 531V535.5L1393.5 539.5L1393 543.5L1394.5 546.5L1397.5 549L1400.5 554.5V559L1406 561C1407.5 561.333 1410.6 562 1411 562C1411.4 562 1413.17 563.333 1414 564H1421.5L1423.5 565.5V568.5L1425.5 570.5C1426 571 1426.5 571.5 1427.5 571.5C1428.5 571.5 1429.5 572.5 1430 572.5H1432.5L1436.5 571.5L1438.5 574.5L1441 577H1443L1445 579C1445.17 579.667 1445.6 581.2 1446 582C1446.5 583 1446.5 584.5 1447 584.5C1447.5 584.5 1449 586.5 1450 587C1451 587.5 1452 587.5 1454 588C1455.6 588.4 1455 588.833 1454.5 589L1455.5 591L1454.5 593.5L1454 596L1454.5 599L1456.5 600C1457.67 600.5 1460.2 601.5 1461 601.5C1461.8 601.5 1462 602.833 1462 603.5L1464 607L1463.5 611C1464 611.5 1465.2 612.5 1466 612.5C1466.8 612.5 1467.67 613.5 1468 614V618C1467.83 619.333 1467.3 622.1 1466.5 622.5C1465.7 622.9 1470.83 623.333 1473.5 623.5C1474.17 624.667 1475.6 627.2 1476 628C1476.5 629 1478 628 1479.5 628C1480.7 628 1481 625 1481 623.5L1485.5 621L1490 619.5L1494.5 616V608L1491 604.5L1482 600L1478 593.5L1478.5 590L1484.5 584.5L1486.5 580.5L1489.5 573L1491 568H1485.5V565L1486.5 561L1485.5 557L1480 556L1478.5 548.5Z" stroke="#82B34D"/>
<path d="M1198 659.5L1216.5 678.5L1235.5 680H1238L1246.5 670L1245 666C1243.17 666 1239.4 665.9 1239 665.5C1238.6 665.1 1235.5 664.333 1234 664L1229 662L1224 656.5L1219.5 653L1213 651.5L1209.5 653L1207.5 655L1205 653.5L1195.5 654L1196 657L1198 659.5Z" stroke="#82B34D"/>
</svg>
