<svg width="1500" height="774" viewBox="0 0 1500 774" fill="none" xmlns="http://www.w3.org/2000/svg">
<g clip-path="url(#clip0_3966_1767)">
<path d="M7.61711 219.067L9.96101 216.724C10.1485 216.536 10.4029 216.431 10.6681 216.431H13.6484C14.2007 216.431 14.6484 216.878 14.6484 217.431V218.08C14.6484 218.2 14.67 218.319 14.7121 218.432L15.6336 220.889C15.7074 221.086 15.7173 221.3 15.6621 221.503L14.8494 224.483C14.7308 224.918 14.3356 225.22 13.8846 225.22H12.085H9.11585C8.69901 225.22 8.32589 224.961 8.17952 224.571L7.38789 222.46C7.34579 222.348 7.32422 222.229 7.32422 222.109V219.775C7.32422 219.509 7.42958 219.255 7.61711 219.067Z" fill="#E85968" fill-opacity="0.9"/>
<path d="M30.0293 202.881V198.813C30.0293 198.396 30.2879 198.023 30.6782 197.877L32.7892 197.085C32.9015 197.043 33.0196 197.021 33.1395 197.021H37.3535C38.2324 197.021 37.7197 199.219 37.3535 200.317L36.4442 203.954C36.333 204.4 35.933 204.712 35.4741 204.712H33.1403C33.0204 204.712 32.9018 204.691 32.7901 204.647C31.7742 204.25 30.0293 203.435 30.0293 202.881Z" fill="#E85968" fill-opacity="0.9"/>
<path d="M40.6494 222.013V218.467C40.6494 218.332 40.6769 218.198 40.7303 218.073L41.4883 216.304C41.6459 215.937 42.0074 215.698 42.4074 215.698H44.3115H46.806C47.0838 215.698 47.3487 215.814 47.5379 216.017L49.9032 218.561C50.0753 218.746 50.1709 218.989 50.1709 219.242V222.877V225.437C50.1709 225.675 50.0855 225.906 49.9302 226.087L48.3321 227.952C48.1089 228.212 47.7679 228.34 47.4286 228.291L44.4146 227.852C44.1176 227.808 43.8557 227.634 43.7013 227.377L40.7919 222.528C40.6987 222.372 40.6494 222.194 40.6494 222.013Z" fill="#E85968" fill-opacity="0.9"/>
<path d="M37.3535 222.787V219.21C37.3535 218.976 37.2716 218.75 37.122 218.571L36.5547 217.889C36.3647 217.661 36.0832 217.529 35.7863 217.529H32.1279C31.5756 217.529 31.1279 217.977 31.1279 218.529V219.36V221.613C31.1279 222.022 31.3794 222.386 31.7344 222.589C32.3998 222.969 33.2587 223.622 33.6914 224.487C34.4238 225.952 34.79 225.22 35.5225 225.22C36.0567 225.22 36.8345 224.002 37.2452 223.232C37.3182 223.095 37.3535 222.942 37.3535 222.787Z" fill="#E85968" fill-opacity="0.9"/>
<path d="M32.1707 228.657L30.0293 227.051V223.491C30.0293 223.194 29.8975 222.913 29.6695 222.723L28.1102 221.423C27.9305 221.273 27.7039 221.191 27.47 221.191H26.7334H23.4689C23.0179 221.191 22.6228 221.493 22.5041 221.928L21.6982 224.883C21.6388 225.101 21.6549 225.333 21.7438 225.54L22.3014 226.841C22.5228 227.358 22.2753 227.955 21.7537 228.164L21.1256 228.415C20.9609 228.481 20.8166 228.589 20.7077 228.73L18.3713 231.733C18.3309 231.785 18.2957 231.841 18.2663 231.9L16.9683 234.496C16.888 234.657 16.8524 234.836 16.8652 235.015L17.1949 239.63C17.2061 239.787 17.2526 239.939 17.3399 240.07C17.7694 240.712 18.6189 241.699 19.4092 241.699C20.2001 241.699 20.8526 242.292 21.1532 242.411C21.209 242.433 21.2699 242.426 21.3289 242.415L24.4474 241.849C24.9229 241.762 25.2686 241.348 25.2686 240.865V237.305C25.2686 236.753 27.1055 235.511 27.7295 234.857C27.8005 234.783 27.8756 234.712 27.9612 234.655L29.8805 233.376C29.9789 233.31 30.0649 233.227 30.1345 233.132L32.3794 230.045C32.7009 229.603 32.6079 228.985 32.1707 228.657Z" fill="#E85968" fill-opacity="0.9"/>
<path d="M541.992 14.7628V11.264C541.992 10.8719 542.221 10.5159 542.578 10.3537L545.823 8.8787C545.953 8.81963 546.094 8.78906 546.237 8.78906H548.222C548.456 8.78906 548.682 8.87108 548.862 9.02084L550.421 10.3203C550.649 10.5103 550.781 10.7917 550.781 11.0885V14.2342C550.781 14.4994 550.676 14.7538 550.488 14.9413L548.877 16.5528C548.689 16.7403 548.435 16.8457 548.17 16.8457H545.158C545.003 16.8457 544.85 16.8096 544.711 16.7401L542.545 15.6573C542.206 15.4879 541.992 15.1416 541.992 14.7628Z" fill="#E85968" fill-opacity="0.9"/>
<path d="M533.569 25.2686C533.846 24.992 534.144 22.5183 534.279 21.1124C534.295 20.9554 534.271 20.7977 534.213 20.6512L533.821 19.6716C533.669 19.2919 533.301 19.043 532.892 19.043H530.64H529.537C529.303 19.043 529.076 19.125 528.897 19.2747L527.162 20.7204C527.041 20.8214 526.945 20.9496 526.883 21.0947L526.051 23.0363C525.941 23.2921 525.943 23.582 526.056 23.8364L527.165 26.3303C527.279 26.5871 527.495 26.7923 527.774 26.8249C528.88 26.9538 530.382 26.4759 530.64 26.7334C531.006 27.0996 533.203 25.6348 533.569 25.2686Z" fill="#E85968" fill-opacity="0.9"/>
<path d="M532.51 36.1323L530.056 35.2122C529.958 35.1751 529.865 35.1227 529.783 35.0567L528.35 33.9105C528.173 33.7687 527.952 33.6914 527.725 33.6914H526.245H524.182C524.093 33.6914 524.004 33.7033 523.919 33.7266L520.276 34.7202C520.108 34.766 519.955 34.8548 519.832 34.9778L519.214 35.5958C519.026 35.7833 518.921 36.0377 518.921 36.3029V37.7197V40.8925C518.921 40.9743 518.931 41.0557 518.951 41.1351L519.604 43.7494C519.637 43.8787 519.695 43.9998 519.773 44.1075C520.159 44.6362 520.752 45.5127 520.752 45.7764C520.752 46.1426 522.217 46.1426 522.949 46.1426C523.372 46.1426 523.948 46.3334 524.373 46.4395C524.63 46.5038 524.886 46.4034 525.073 46.2159L526.245 45.0439L527.886 43.7311C528.011 43.6312 528.158 43.5632 528.314 43.5297C528.99 43.3845 530.121 43.106 530.64 42.8467C531.039 42.6469 531.915 42.379 532.665 42.2288C533.172 42.1272 533.605 41.7199 533.652 41.2048L533.906 38.411C533.925 38.1998 533.877 37.9879 533.768 37.806L533.016 36.5542C532.9 36.3604 532.722 36.2117 532.51 36.1323Z" fill="#E85968" fill-opacity="0.9"/>
<path d="M527.142 2.74465L529.758 -0.198325C529.856 -0.308872 529.929 -0.43984 529.97 -0.581791L533.927 -14.1C534.114 -14.7402 533.634 -15.3809 532.967 -15.3809H0.267578C-0.284707 -15.3809 -0.732422 -14.9331 -0.732422 -14.3809V199.272C-0.732422 199.842 -0.257376 200.296 0.311652 200.271L23.9168 199.23C24.0829 199.223 24.2446 199.174 24.3872 199.088L25.8264 198.225C25.9416 198.156 26.0417 198.064 26.1207 197.956L28.7394 194.355C28.8637 194.184 28.9307 193.978 28.9307 193.767V191.032C28.9307 190.877 28.9668 190.724 29.0362 190.585L29.8802 188.897C29.977 188.703 30.1339 188.546 30.3274 188.45L32.7478 187.239C32.8867 187.17 33.0398 187.134 33.1951 187.134H35.3411C35.461 187.134 35.58 187.155 35.6922 187.197L41.2598 189.285C41.3408 189.316 41.4254 189.335 41.5115 189.344L44.1434 189.607C44.6547 189.658 45.0439 190.089 45.0439 190.602V190.796V195.17C45.0439 195.419 45.1363 195.658 45.3037 195.842C46.5894 197.256 48.7988 199.678 49.0723 199.951C49.3537 200.233 52.5861 201.888 54.3552 202.776C54.494 202.845 54.6463 202.881 54.8015 202.881H59.9649C60.2568 202.881 60.5341 202.753 60.7241 202.532L64.638 197.965C64.7566 197.827 64.8352 197.659 64.8651 197.479L65.4592 193.914C65.5167 193.57 65.7498 193.281 66.0733 193.148C67.3764 192.616 69.3244 191.784 69.5801 191.528C69.873 191.235 71.8994 190.186 72.876 189.697L77.037 187.27C77.1899 187.181 77.3638 187.134 77.5409 187.134H78.5296C78.884 187.134 79.2119 187.321 79.3915 187.627L82.699 193.249C82.7419 193.322 82.794 193.39 82.8538 193.45L85.4005 195.996C85.588 196.184 85.8424 196.289 86.1076 196.289H93.6624C93.7207 196.289 93.7789 196.284 93.8362 196.274L99.6648 195.245C99.8671 195.21 100.075 195.237 100.262 195.324L105.469 197.754L112.191 202C112.345 202.097 112.47 202.235 112.551 202.398L113.615 204.525C113.785 204.864 114.131 205.078 114.51 205.078H115.506C115.649 205.078 115.79 205.048 115.92 204.988L119.561 203.333C119.686 203.276 119.798 203.194 119.891 203.092L122.66 200.015C122.899 199.749 123.262 199.631 123.612 199.706C125.426 200.091 128.277 200.684 128.54 200.684C128.826 200.684 131.935 199.984 133.557 199.61C133.631 199.593 133.705 199.585 133.781 199.585H139.759C139.848 199.585 139.936 199.573 140.022 199.55L143.164 198.693C143.609 198.572 144.078 198.769 144.298 199.173C144.93 200.337 145.752 201.908 145.752 202.148C145.752 202.434 149.226 202.279 151.098 202.158C151.196 202.152 151.294 202.16 151.389 202.182L155.784 203.196C155.93 203.23 156.067 203.296 156.184 203.389L159.668 206.177L161.853 208.362C162.089 208.598 162.428 208.701 162.756 208.635L165.799 208.027C165.862 208.014 165.924 207.995 165.983 207.971L171.664 205.632C171.951 205.513 172.167 205.269 172.249 204.97L173.142 201.692C173.192 201.512 173.189 201.321 173.135 201.142L172.21 198.057C172.151 197.86 172.154 197.649 172.219 197.454L172.624 196.24C172.76 195.832 173.142 195.557 173.572 195.557H175.179C175.334 195.557 175.487 195.52 175.626 195.451L180.428 193.05C180.504 193.012 180.584 192.984 180.666 192.967L185.244 191.986C185.515 191.927 185.75 191.76 185.892 191.522L187.629 188.628C187.779 188.377 188.033 188.204 188.322 188.158C189.904 187.901 192.563 187.5 193.359 187.5C194.171 187.5 195.462 187.083 196.135 186.827C196.238 186.789 196.332 186.731 196.415 186.66L198.309 185.036C198.634 184.758 198.746 184.303 198.587 183.906L198.218 182.984C198.154 182.824 198.049 182.683 197.914 182.575L196.459 181.411C196.347 181.321 196.217 181.256 196.077 181.221L193.806 180.654C193.522 180.583 193.284 180.392 193.154 180.131L192.446 178.715C192.327 178.478 192.308 178.203 192.392 177.952L193.33 175.137C193.35 175.078 193.374 175.022 193.405 174.968L194.962 172.164C195.107 171.903 195.36 171.721 195.652 171.666L200.947 170.674C201.015 170.661 201.082 170.641 201.147 170.614L205.377 168.851C205.422 168.833 205.465 168.811 205.507 168.786L208.22 167.158C208.705 166.867 209.334 167.036 209.609 167.53L210.812 169.695C210.894 169.844 210.938 170.011 210.938 170.181V177.983C210.938 178.217 210.855 178.443 210.706 178.623L209.44 180.142C209.231 180.393 209.158 180.73 209.244 181.045L210.127 184.284C210.178 184.471 210.282 184.639 210.427 184.768L213.165 187.202C213.379 187.391 213.501 187.663 213.501 187.949V192.728C213.501 192.902 213.546 193.073 213.633 193.224L214.888 195.421C214.94 195.511 215.005 195.592 215.081 195.662L219.36 199.585L224.121 203.979L226.685 206.177C227.539 206.787 229.321 208.154 229.614 208.74C229.98 209.473 232.178 209.839 232.91 210.205C233.439 210.47 234.805 210.555 235.604 210.569C235.759 210.572 235.912 210.535 236.051 210.466L239.306 208.838C239.435 208.774 239.548 208.683 239.638 208.569C240.649 207.299 242.432 204.992 242.432 204.712C242.432 204.436 245.246 203.706 246.899 203.315C247.091 203.27 247.29 203.283 247.473 203.355C248.513 203.766 250.221 204.544 250.488 205.078C250.767 205.635 252.389 205.354 253.284 205.115C253.373 205.091 253.464 205.078 253.557 205.078H259.644C260.459 205.078 262.806 204.448 264.117 204.065C264.305 204.01 264.471 203.899 264.597 203.748L267.835 199.863C267.984 199.683 268.066 199.457 268.066 199.223V195.812C268.066 195.644 268.108 195.48 268.189 195.333L270.06 191.902C270.19 191.663 270.412 191.488 270.675 191.416L273.646 190.606C274.037 190.499 274.325 190.167 274.375 189.765L274.932 185.307C274.987 184.869 274.749 184.449 274.35 184.263C273.211 183.731 271.729 182.98 271.729 182.739C271.729 182.446 272.949 181.641 273.56 181.274L277.954 178.345C278.687 177.734 280.151 176.294 280.151 175.415C280.151 174.659 280.694 172.402 281.078 170.931C281.181 170.541 281.042 170.127 280.724 169.879L278.212 167.925C278.044 167.795 277.923 167.615 277.864 167.411L277.45 165.959C277.317 165.496 277.533 165.005 277.964 164.79L280.151 163.696C280.737 163.403 281.128 162.598 281.25 162.231C281.616 161.255 282.349 159.229 282.349 158.936C282.349 158.666 282.967 156.523 283.351 155.23C283.413 155.02 283.406 154.796 283.329 154.592L282.473 152.309C282.393 152.095 282.388 151.859 282.461 151.642L282.891 150.351C283.008 150 283.31 149.742 283.675 149.681L284.851 149.485C285.124 149.44 285.365 149.284 285.519 149.054L285.894 148.49C285.971 148.375 286.023 148.245 286.047 148.109L287.084 142.233C287.101 142.138 287.131 142.046 287.176 141.961C287.444 141.448 287.939 140.625 288.208 140.625H290.771H292.806C292.914 140.625 293.021 140.642 293.123 140.676L297.093 142C297.27 142.059 297.426 142.165 297.545 142.308C298.201 143.092 299.294 144.387 299.561 144.653C299.802 144.895 296.829 145.898 295.842 146.722C295.555 146.961 295.341 147.353 295.038 147.57L293.57 148.619C293.213 148.874 293.063 149.332 293.202 149.749L293.522 150.708C293.633 151.041 293.561 151.408 293.333 151.675L291.621 153.672C291.543 153.762 291.451 153.838 291.347 153.896L288.365 155.553C288.261 155.61 288.168 155.686 288.091 155.776L286.157 158.032C286.061 158.145 285.991 158.277 285.952 158.42L284.938 162.136C284.921 162.199 284.897 162.261 284.868 162.32L283.553 164.95C283.483 165.089 283.447 165.242 283.447 165.397V167.363C283.447 167.596 283.529 167.823 283.679 168.003L285.123 169.735C285.225 169.858 285.296 170.003 285.331 170.159L285.951 172.947C285.99 173.124 285.98 173.309 285.923 173.481L285.043 176.121C284.959 176.372 284.779 176.58 284.542 176.699L281.803 178.068C281.464 178.238 281.25 178.584 281.25 178.963V181.802C281.25 181.937 281.277 182.071 281.331 182.195L282.349 184.57L283.181 186.512C283.342 186.887 283.258 187.323 282.969 187.613L282.737 187.844C282.495 188.086 282.147 188.188 281.813 188.113L279.589 187.619C279.255 187.545 278.906 187.646 278.665 187.888L276.917 189.635C276.876 189.677 276.839 189.721 276.805 189.769L274.364 193.256C274.316 193.325 274.26 193.387 274.196 193.442L272.078 195.257C271.856 195.447 271.729 195.725 271.729 196.017V200.081C271.729 200.237 271.692 200.39 271.623 200.529L269.35 205.074C269.232 205.311 269.212 205.586 269.296 205.837L270.241 208.673C270.256 208.718 270.274 208.761 270.295 208.804L271.688 211.589C271.715 211.643 271.747 211.694 271.783 211.742L272.527 212.735C272.716 212.987 273.012 213.135 273.327 213.135H277.871C277.926 213.135 277.981 213.13 278.036 213.121L281.888 212.479C282.18 212.43 282.478 212.514 282.703 212.706L284.64 214.367C284.816 214.517 284.934 214.724 284.974 214.952L285.998 220.753C286.006 220.801 286.019 220.849 286.034 220.895L288.077 227.024C288.161 227.276 288.341 227.484 288.578 227.602L290.205 228.415C290.337 228.481 290.453 228.576 290.544 228.692L294.313 233.489C294.393 233.59 294.491 233.675 294.603 233.739L299.33 236.441C299.481 236.527 299.652 236.572 299.826 236.572H303.427C303.534 236.572 303.641 236.555 303.743 236.521L308.71 234.865C308.949 234.786 309.21 234.799 309.44 234.904L312.878 236.466C313.03 236.536 313.163 236.643 313.264 236.777L315.186 239.34C315.266 239.447 315.324 239.568 315.357 239.697C315.741 241.217 316.492 243.982 316.772 244.263C317.023 244.513 317.471 246.214 317.748 247.387C317.827 247.722 318.068 247.994 318.39 248.113C320.202 248.783 323.099 249.957 323.364 250.488C323.626 251.012 325.86 250.794 327.29 250.568C327.588 250.521 327.892 250.602 328.12 250.798L330.191 252.573C330.278 252.647 330.351 252.736 330.408 252.836L331.652 255.012C331.74 255.167 331.869 255.296 332.024 255.384L334.12 256.582C334.271 256.668 334.442 256.714 334.616 256.714H340.942H344.923C345.188 256.714 345.442 256.819 345.63 257.007L348.071 259.448C348.199 259.576 348.29 259.736 348.334 259.912L349.312 263.826C349.347 263.966 349.412 264.096 349.502 264.208L350.53 265.494C350.72 265.731 351.007 265.869 351.311 265.869H354.666C354.793 265.869 354.919 265.845 355.037 265.798L362.183 262.939L367.291 260.896C367.537 260.798 367.813 260.801 368.057 260.905L370.239 261.841L373.609 263.066C374.005 263.21 374.268 263.586 374.268 264.006V265.869V269.117C374.268 269.382 374.373 269.637 374.56 269.824L375.152 270.416C375.292 270.555 375.47 270.651 375.663 270.689L378.737 271.304C378.927 271.342 379.124 271.324 379.304 271.252L380.681 270.701C380.799 270.654 380.925 270.63 381.052 270.63H382.736C382.945 270.63 383.148 270.695 383.317 270.816L385.62 272.461C386.353 272.949 387.964 273.926 388.55 273.926C389.006 273.926 389.641 274.667 390.072 275.283C390.273 275.57 390.596 275.757 390.947 275.757H392.99C393.199 275.757 393.402 275.692 393.571 275.571L395.613 274.112C395.783 273.991 395.986 273.926 396.194 273.926H398.681C398.762 273.926 398.844 273.916 398.923 273.896L401.287 273.305C401.57 273.234 401.809 273.043 401.939 272.782L403.288 270.084C403.457 269.745 403.804 269.531 404.182 269.531H407.487C407.557 269.531 407.628 269.539 407.696 269.553L412.72 270.63L418.601 271.322C418.824 271.348 419.032 271.449 419.191 271.608L420.88 273.297C421.238 273.655 421.809 273.689 422.207 273.374L436.876 261.775C437.116 261.585 437.256 261.297 437.256 260.991V258.545C437.256 258.265 436.809 255.284 436.557 253.636C436.535 253.492 436.482 253.355 436.401 253.234L435.116 251.307C435.078 251.25 435.046 251.188 435.02 251.124L434.441 249.676C434.366 249.49 434.35 249.285 434.393 249.088L434.95 246.581C435.019 246.274 435.227 246.017 435.513 245.887L438.964 244.319C439.046 244.281 439.122 244.234 439.191 244.176L440.924 242.731C441.152 242.542 441.284 242.26 441.284 241.963V239.372C441.284 239.217 441.248 239.063 441.179 238.925L439.211 234.989C439.13 234.827 439.006 234.69 438.853 234.592L435.584 232.512C435.263 232.308 435.085 231.937 435.127 231.558L435.765 225.817C435.782 225.665 435.834 225.519 435.916 225.39L438.354 221.558L441.473 217.054C441.588 216.886 441.65 216.688 441.65 216.484V212.241C441.65 212.106 441.623 211.972 441.57 211.847L438.354 204.346L435.847 197.182C435.81 197.076 435.791 196.964 435.791 196.852V192.251C435.791 192.021 435.871 191.797 436.017 191.618L438.939 188.047C439.036 187.928 439.105 187.788 439.139 187.639L440.16 183.216C440.177 183.143 440.186 183.067 440.186 182.992V178.789C440.186 178.737 440.19 178.685 440.198 178.633L441.269 171.848C441.279 171.785 441.295 171.723 441.317 171.662L442.51 168.383C442.653 167.988 443.029 167.725 443.449 167.725H447.274C447.429 167.725 447.582 167.688 447.721 167.619L451.639 165.66C451.812 165.573 451.956 165.438 452.054 165.271L457.947 155.22C458.065 155.018 458.109 154.781 458.07 154.55L457.164 149.109C457.086 148.646 457.342 148.191 457.779 148.016L459.956 147.146C460.388 146.973 460.643 146.525 460.573 146.065L459.979 142.21C459.967 142.13 459.945 142.052 459.914 141.978L458.13 137.695L456.088 133.272C455.988 133.054 455.813 132.88 455.594 132.781L452.262 131.266C452.032 131.162 451.771 131.148 451.532 131.228L447.844 132.457C447.628 132.529 447.443 132.673 447.319 132.865L444.509 137.236C444.325 137.522 444.008 137.695 443.668 137.695H439.42C439.204 137.695 438.993 137.765 438.82 137.895L437.759 138.691C437.668 138.759 437.59 138.842 437.527 138.936C437.009 139.709 436.066 141.082 435.791 141.357C435.547 141.602 434.269 141.863 433.355 142.013C433.045 142.065 432.73 141.959 432.508 141.736L428.582 137.81C428.506 137.734 428.442 137.646 428.394 137.55L425.212 131.187C425.185 131.131 425.162 131.074 425.146 131.014C424.895 130.126 424.438 128.374 424.438 127.808V125.203C424.438 124.992 424.505 124.786 424.63 124.615L427.299 120.945C427.345 120.882 427.383 120.813 427.413 120.741L429.147 116.581C429.182 116.497 429.228 116.419 429.284 116.348L432.975 111.65C433.137 111.444 433.211 111.183 433.186 110.922C433.073 109.732 432.967 107.821 433.228 107.3C433.511 106.733 435.185 105.209 436.069 104.446C436.127 104.396 436.18 104.338 436.226 104.275L438.957 100.52C439.043 100.403 439.153 100.305 439.28 100.234L441.897 98.7805C442.199 98.6128 442.566 98.6128 442.868 98.7805L445.679 100.342L450.984 102.663C451.325 102.812 451.555 103.137 451.581 103.508L451.899 107.959C451.903 108.008 451.91 108.056 451.92 108.104L452.613 111.221C452.629 111.292 452.637 111.365 452.637 111.438V116.25C452.637 116.385 452.664 116.519 452.718 116.644L453.61 118.726C453.692 118.916 453.712 119.127 453.669 119.33L452.744 123.646C452.676 123.96 452.764 124.287 452.978 124.525L455.884 127.754C455.916 127.79 455.946 127.828 455.973 127.868L458.13 131.104L460.582 134.606C460.656 134.712 460.708 134.83 460.737 134.955L461.686 139.067C461.753 139.358 461.946 139.604 462.213 139.737L464.511 140.886C464.649 140.955 464.802 140.991 464.958 140.991H466.301C466.68 140.991 467.026 140.777 467.195 140.438L467.651 139.526C468.018 138.55 468.823 136.377 469.116 135.498C469.482 134.399 470.215 132.935 470.581 132.568C470.855 132.294 472.004 131.572 472.651 131.18C472.735 131.129 472.827 131.091 472.923 131.067L476.904 130.072C477.08 130.028 477.241 129.937 477.369 129.809L480.908 126.269C481.096 126.082 481.201 125.828 481.201 125.562V119.019V114.438C481.201 114.097 481.374 113.78 481.66 113.596L486.255 110.643C486.304 110.611 486.35 110.576 486.392 110.537L491.01 106.274C491.062 106.226 491.11 106.172 491.151 106.113L493.577 102.647C493.627 102.575 493.667 102.497 493.697 102.415L495.117 98.5107L495.752 95.6537C495.814 95.3746 495.993 95.1354 496.243 94.9965L499.146 93.3838L503.114 91.3994C503.384 91.2647 503.578 91.0158 503.643 90.7219L504.272 87.8906L504.933 84.9165C504.98 84.7075 504.958 84.4891 504.871 84.2935L503.626 81.4928C503.569 81.3649 503.54 81.2265 503.54 81.0866V74.1057C503.54 74.0187 503.551 73.932 503.574 73.848L504.936 68.741C504.981 68.571 505.07 68.4159 505.195 68.2915L507.785 65.7018C507.883 65.6029 507.961 65.4843 508.011 65.3537L509.699 60.9643C509.743 60.8498 509.766 60.7281 509.766 60.6053V55.8108C509.766 55.7135 509.78 55.6167 509.808 55.5235L510.864 52.002L511.537 48.639C511.576 48.444 511.556 48.2418 511.479 48.0583L509.843 44.1299C509.792 44.0081 509.766 43.8773 509.766 43.7453V40.2503C509.766 40.034 509.836 39.8234 509.966 39.6503L512.841 35.8172C512.983 35.6269 513.053 35.3921 513.039 35.1548L512.695 29.6631V23.5998C512.695 23.4923 512.713 23.3855 512.747 23.2836L513.64 20.6034C513.737 20.3119 513.963 20.0812 514.252 19.9779L518.577 18.4333C518.799 18.354 518.986 18.1989 519.105 17.9954L521.399 14.0617C521.456 13.9652 521.528 13.8789 521.612 13.8063L523.786 11.9434C523.956 11.7978 524.072 11.5996 524.116 11.3803L524.743 8.24383C524.768 8.12015 524.769 7.99292 524.746 7.86883L524.197 4.85022C524.111 4.37438 524.377 3.90482 524.83 3.735L526.746 3.01661C526.898 2.95953 527.034 2.86617 527.142 2.74465Z" fill="#E85968" fill-opacity="0.9"/>
<path d="M114.315 210.031L120.117 207.642L123.047 206.177L124.602 205.555C124.782 205.483 124.979 205.465 125.169 205.503L128.115 206.092C128.386 206.146 128.668 206.086 128.893 205.925L130.969 204.442C131.058 204.378 131.157 204.33 131.262 204.298L134.625 203.289C134.718 203.261 134.815 203.247 134.912 203.247H141.536C141.88 203.247 142.201 203.425 142.384 203.717L143.627 205.707C143.81 205.999 144.13 206.177 144.475 206.177H146.408C146.459 206.177 146.51 206.181 146.56 206.188L151.245 206.909L155.919 207.988C155.977 208.001 156.033 208.02 156.088 208.043L161.058 210.173C161.108 210.194 161.156 210.22 161.201 210.249L164.792 212.534C165.027 212.683 165.19 212.924 165.238 213.198C165.495 214.64 165.894 217 165.894 217.529C165.894 217.852 166.412 218.041 167.02 218.146C167.708 218.265 168.196 218.959 167.95 219.613L167.358 221.191L166.16 223.588C165.996 223.917 166.025 224.308 166.235 224.609L167.889 226.972C168.204 227.421 168.097 228.04 167.651 228.359L166.043 229.508C165.944 229.578 165.859 229.666 165.792 229.767L163.228 233.613C163.061 233.863 162.79 234.025 162.49 234.054L155.742 234.697C155.445 234.725 155.151 234.619 154.94 234.408L152.458 231.926C152.382 231.85 152.319 231.763 152.271 231.666L149.57 226.264C149.469 226.062 149.303 225.9 149.098 225.805L144.122 223.482C143.99 223.421 143.845 223.389 143.699 223.389H136.3C136.022 223.389 135.757 223.273 135.568 223.069L131.452 218.637C131.233 218.401 130.914 218.285 130.595 218.325L125.432 218.971C125.308 218.986 125.188 219.025 125.078 219.085L121.513 221.03C121.32 221.135 121.098 221.173 120.882 221.14L116.685 220.494C116.534 220.471 116.39 220.413 116.264 220.325L113.22 218.194C112.952 218.007 112.793 217.701 112.793 217.375V213.663C112.793 213.556 112.81 213.449 112.844 213.347L113.747 210.639C113.839 210.364 114.046 210.141 114.315 210.031Z" fill="#E85968" fill-opacity="0.9"/>
<path d="M219.38 210.474L220.073 207.006C220.086 206.942 220.093 206.876 220.093 206.81V206.795C220.093 206.416 219.879 206.07 219.54 205.9L218.107 205.184C217.968 205.114 217.847 205.013 217.754 204.889L215.698 202.148L213.557 198.58C213.52 198.518 213.489 198.451 213.466 198.382L212.264 194.776C212.128 194.367 211.746 194.092 211.315 194.092H207.748C207.677 194.092 207.607 194.084 207.538 194.07L202.618 193.015C202.549 193.001 202.479 192.993 202.409 192.993H196.665C196.423 192.993 196.189 193.081 196.006 193.241L193.642 195.309C193.46 195.469 193.226 195.557 192.984 195.557H190.478C190.212 195.557 189.958 195.662 189.771 195.85L187.866 197.754L184.186 201.099C183.966 201.3 183.667 201.392 183.372 201.349L179.206 200.754C178.894 200.71 178.58 200.815 178.357 201.037L177.434 201.961C177.311 202.084 177.222 202.237 177.176 202.405L176.207 205.96C176.168 206.103 176.097 206.235 176.001 206.347L174.078 208.592C173.993 208.69 173.929 208.803 173.888 208.926L173.047 211.45C172.927 211.809 173.021 212.205 173.289 212.473L175.994 215.179C176.095 215.28 176.173 215.401 176.224 215.535L177.084 217.83C177.187 218.104 177.404 218.319 177.679 218.419L180.842 219.569C181.116 219.669 181.334 219.884 181.436 220.158L182.13 222.007C182.276 222.398 182.649 222.656 183.066 222.656H185.669C186.485 222.656 187.364 221.815 187.778 221.304C187.838 221.23 187.904 221.163 187.98 221.106C188.997 220.34 190.964 218.826 191.528 218.262C192.037 217.753 192.767 216.839 193.19 216.288C193.302 216.142 193.449 216.028 193.62 215.96L195.012 215.404C195.13 215.356 195.256 215.332 195.383 215.332H198.235C198.613 215.332 198.96 215.546 199.129 215.885L201.05 219.727L202.881 224.121L203.856 226.397C203.936 226.584 204.072 226.743 204.245 226.851L206.844 228.475C206.887 228.502 206.933 228.526 206.98 228.546L208.968 229.398C209.282 229.533 209.644 229.497 209.926 229.304L216.271 224.963C216.376 224.891 216.467 224.799 216.538 224.692L219.192 220.711C219.302 220.547 219.36 220.354 219.36 220.156V215.332V210.67C219.36 210.604 219.367 210.539 219.38 210.474Z" fill="#E85968" fill-opacity="0.9"/>
<path d="M30.0293 227.051L32.1707 228.657C32.6079 228.985 32.7009 229.603 32.3794 230.045L30.1345 233.132C30.0649 233.227 29.9789 233.31 29.8805 233.376L27.9612 234.655C27.8756 234.712 27.8005 234.783 27.7295 234.857C27.1055 235.511 25.2686 236.753 25.2686 237.305C25.2686 237.766 25.2686 239.621 25.2686 240.865C25.2686 241.348 24.9229 241.762 24.4474 241.849L21.3289 242.416C21.2699 242.426 21.209 242.433 21.1532 242.411C20.8526 242.292 20.2001 241.699 19.4092 241.699C18.6189 241.699 17.7694 240.712 17.3399 240.07C17.2526 239.939 17.2061 239.787 17.1949 239.63L16.8652 235.015C16.8524 234.836 16.888 234.657 16.9683 234.496L18.2663 231.9C18.2957 231.841 18.3309 231.785 18.3713 231.733L20.7077 228.73C20.8166 228.589 20.9609 228.481 21.1256 228.415L21.7537 228.164C22.2753 227.955 22.5228 227.358 22.3014 226.841L21.7438 225.54C21.6549 225.333 21.6388 225.101 21.6982 224.883L22.5041 221.928C22.6228 221.493 23.0179 221.191 23.4689 221.191H26.7334H27.47C27.7039 221.191 27.9305 221.273 28.1102 221.423L29.6695 222.723C29.8975 222.913 30.0293 223.194 30.0293 223.491V227.783M12.085 225.22H9.11585C8.69901 225.22 8.32589 224.961 8.17952 224.571L7.38789 222.46C7.34579 222.348 7.32422 222.229 7.32422 222.109V219.775C7.32422 219.509 7.42958 219.255 7.61711 219.067L9.96101 216.724C10.1485 216.536 10.4029 216.431 10.6681 216.431H13.6484C14.2007 216.431 14.6484 216.878 14.6484 217.431V218.08C14.6484 218.2 14.67 218.319 14.7121 218.432L15.6336 220.889C15.7074 221.086 15.7173 221.3 15.6621 221.503L14.8494 224.483C14.7308 224.918 14.3356 225.22 13.8846 225.22H12.085ZM30.0293 202.881C30.0293 202.383 30.0293 200.262 30.0293 198.813C30.0293 198.396 30.2879 198.023 30.6782 197.877L32.7892 197.085C32.9015 197.043 33.0196 197.021 33.1395 197.021C34.3034 197.021 36.52 197.021 37.3535 197.021C38.2324 197.021 37.7197 199.219 37.3535 200.317L36.4442 203.954C36.333 204.4 35.933 204.712 35.4741 204.712H33.1403C33.0204 204.712 32.9018 204.691 32.7901 204.647C31.7742 204.25 30.0293 203.435 30.0293 202.881ZM50.1709 222.877V225.437C50.1709 225.675 50.0855 225.906 49.9302 226.087L48.3321 227.952C48.1089 228.212 47.7679 228.34 47.4286 228.291L44.4146 227.852C44.1176 227.808 43.8557 227.634 43.7013 227.377L40.7919 222.528C40.6987 222.372 40.6494 222.194 40.6494 222.013V218.467C40.6494 218.332 40.6769 218.198 40.7303 218.073L41.4883 216.304C41.6459 215.937 42.0074 215.698 42.4074 215.698C43.0648 215.698 43.8902 215.698 44.3115 215.698C44.7989 215.698 45.9956 215.698 46.806 215.698C47.0838 215.698 47.3487 215.814 47.5379 216.017L49.9032 218.561C50.0753 218.746 50.1709 218.989 50.1709 219.242V222.877ZM35.5225 225.22C36.0567 225.22 36.8345 224.002 37.2452 223.232C37.3182 223.095 37.3535 222.942 37.3535 222.787C37.3535 221.727 37.3535 219.999 37.3535 219.21C37.3535 218.976 37.2716 218.75 37.122 218.571L36.5547 217.889C36.3647 217.661 36.0832 217.529 35.7863 217.529H32.1279C31.5756 217.529 31.1279 217.977 31.1279 218.529V219.36V221.613C31.1279 222.022 31.3794 222.386 31.7344 222.589C32.3998 222.969 33.2587 223.622 33.6914 224.487C34.4238 225.952 34.79 225.22 35.5225 225.22ZM533.569 25.2686C533.846 24.992 534.144 22.5183 534.279 21.1124C534.295 20.9554 534.271 20.7977 534.213 20.6512L533.821 19.6716C533.669 19.2919 533.301 19.043 532.892 19.043H530.64H529.537C529.303 19.043 529.076 19.125 528.897 19.2747L527.162 20.7204C527.041 20.8214 526.945 20.9496 526.883 21.0947L526.051 23.0363C525.941 23.2921 525.943 23.582 526.056 23.8364L527.165 26.3303C527.279 26.5871 527.495 26.7923 527.774 26.8249C528.88 26.9538 530.382 26.4759 530.64 26.7334C531.006 27.0996 533.203 25.6348 533.569 25.2686ZM530.64 42.8467C531.039 42.6469 531.915 42.379 532.665 42.2288C533.172 42.1272 533.605 41.7199 533.652 41.2048L533.906 38.411C533.925 38.1998 533.877 37.9879 533.768 37.806L533.016 36.5542C532.9 36.3604 532.722 36.2117 532.51 36.1323L530.056 35.2122C529.958 35.1751 529.865 35.1227 529.783 35.0567L528.35 33.9105C528.173 33.7687 527.952 33.6914 527.725 33.6914H526.245H524.182C524.093 33.6914 524.004 33.7033 523.919 33.7266L520.276 34.7202C520.108 34.766 519.955 34.8548 519.832 34.9778L519.214 35.5958C519.026 35.7833 518.921 36.0377 518.921 36.3029V37.7197V40.8925C518.921 40.9743 518.931 41.0557 518.951 41.1351L519.604 43.7494C519.637 43.8787 519.695 43.9998 519.773 44.1075C520.159 44.6362 520.752 45.5127 520.752 45.7764C520.752 46.1426 522.217 46.1426 522.949 46.1426C523.372 46.1426 523.948 46.3333 524.373 46.4395C524.63 46.5038 524.886 46.4034 525.073 46.2159L526.245 45.0439L527.886 43.7311C528.011 43.6312 528.158 43.5632 528.314 43.5297C528.99 43.3845 530.121 43.106 530.64 42.8467ZM512.695 29.6631V23.5998C512.695 23.4923 512.713 23.3855 512.747 23.2835L513.64 20.6034C513.737 20.3119 513.963 20.0812 514.252 19.9779L518.577 18.4333C518.799 18.354 518.986 18.1989 519.105 17.9954L521.399 14.0617C521.456 13.9652 521.528 13.8789 521.612 13.8063L523.786 11.9434C523.956 11.7978 524.072 11.5996 524.116 11.3803L524.743 8.24383C524.768 8.12015 524.769 7.99292 524.746 7.86883L524.197 4.85022C524.111 4.37438 524.377 3.90482 524.83 3.735L526.746 3.01662C526.898 2.95953 527.034 2.86617 527.142 2.74465L529.758 -0.198325C529.856 -0.308872 529.929 -0.43984 529.97 -0.581791L533.927 -14.1C534.114 -14.7402 533.634 -15.3809 532.967 -15.3809H0.267578C-0.284707 -15.3809 -0.732422 -14.9331 -0.732422 -14.3809V199.272C-0.732422 199.842 -0.257377 200.296 0.311652 200.271L23.9168 199.23C24.0829 199.223 24.2446 199.174 24.3872 199.088L25.8264 198.225C25.9416 198.156 26.0417 198.064 26.1207 197.956L28.7394 194.355C28.8637 194.184 28.9307 193.978 28.9307 193.767V191.032C28.9307 190.877 28.9668 190.724 29.0362 190.585L29.8802 188.897C29.977 188.703 30.1339 188.546 30.3274 188.45L32.7478 187.239C32.8867 187.17 33.0398 187.134 33.1951 187.134H35.3411C35.461 187.134 35.58 187.155 35.6922 187.197L41.2599 189.285C41.3408 189.316 41.4254 189.335 41.5115 189.344L44.1434 189.607C44.6547 189.658 45.0439 190.089 45.0439 190.602V190.796V195.17C45.0439 195.419 45.1363 195.658 45.3037 195.842C46.5894 197.256 48.7988 199.678 49.0723 199.951C49.3537 200.233 52.5861 201.888 54.3552 202.776C54.494 202.845 54.6463 202.881 54.8015 202.881H59.9649C60.2568 202.881 60.5341 202.753 60.7241 202.532L64.638 197.965C64.7566 197.827 64.8352 197.659 64.8651 197.479L65.4592 193.914C65.5167 193.57 65.7498 193.281 66.0733 193.148C67.3764 192.616 69.3244 191.784 69.5801 191.528C69.873 191.235 71.8994 190.186 72.876 189.697L77.037 187.27C77.1899 187.181 77.3638 187.134 77.5409 187.134H78.5296C78.884 187.134 79.2119 187.321 79.3916 187.627L82.699 193.249C82.7419 193.322 82.794 193.39 82.8538 193.45L85.4005 195.996C85.588 196.184 85.8424 196.289 86.1076 196.289H93.6624C93.7207 196.289 93.7789 196.284 93.8362 196.274L99.6648 195.245C99.8671 195.21 100.075 195.237 100.262 195.324L105.469 197.754L112.191 202C112.345 202.097 112.47 202.235 112.551 202.398L113.615 204.525C113.785 204.864 114.131 205.078 114.51 205.078H115.506C115.649 205.078 115.79 205.048 115.92 204.988L119.561 203.333C119.686 203.276 119.798 203.194 119.891 203.092L122.66 200.015C122.899 199.749 123.262 199.631 123.612 199.706C125.426 200.091 128.277 200.684 128.54 200.684C128.826 200.684 131.935 199.984 133.557 199.61C133.631 199.593 133.705 199.585 133.781 199.585H139.759C139.848 199.585 139.936 199.573 140.022 199.55L143.164 198.693C143.609 198.571 144.078 198.769 144.298 199.173C144.93 200.337 145.752 201.908 145.752 202.148C145.752 202.434 149.226 202.279 151.098 202.158C151.196 202.152 151.294 202.16 151.389 202.182L155.784 203.196C155.93 203.23 156.067 203.296 156.184 203.389L159.668 206.177L161.853 208.362C162.089 208.598 162.428 208.701 162.756 208.635L165.799 208.027C165.862 208.014 165.924 207.995 165.983 207.971L171.664 205.632C171.951 205.513 172.167 205.269 172.249 204.97L173.142 201.692C173.192 201.512 173.189 201.321 173.136 201.142L172.21 198.057C172.151 197.86 172.154 197.649 172.219 197.454L172.624 196.24C172.76 195.832 173.142 195.557 173.572 195.557H175.179C175.334 195.557 175.487 195.52 175.626 195.451L180.428 193.05C180.504 193.012 180.584 192.984 180.666 192.967L185.244 191.986C185.515 191.927 185.75 191.76 185.892 191.522L187.629 188.628C187.779 188.377 188.033 188.204 188.322 188.158C189.904 187.901 192.563 187.5 193.359 187.5C194.171 187.5 195.462 187.083 196.135 186.827C196.238 186.789 196.332 186.731 196.415 186.66L198.309 185.036C198.634 184.758 198.746 184.303 198.587 183.906L198.218 182.984C198.154 182.824 198.049 182.683 197.914 182.575L196.459 181.411C196.347 181.321 196.217 181.256 196.077 181.221L193.806 180.654C193.522 180.583 193.284 180.392 193.154 180.131L192.446 178.715C192.327 178.478 192.308 178.203 192.392 177.952L193.33 175.137C193.35 175.078 193.374 175.022 193.405 174.968L194.962 172.164C195.107 171.903 195.36 171.721 195.652 171.666L200.946 170.674C201.015 170.661 201.082 170.641 201.147 170.614L205.377 168.851C205.422 168.833 205.465 168.811 205.507 168.786L208.22 167.158C208.705 166.867 209.334 167.036 209.609 167.53L210.812 169.695C210.894 169.844 210.938 170.011 210.938 170.181V177.983C210.938 178.217 210.855 178.443 210.706 178.623L209.44 180.142C209.231 180.392 209.158 180.73 209.244 181.045L210.127 184.284C210.178 184.471 210.282 184.639 210.427 184.768L213.165 187.202C213.379 187.391 213.501 187.663 213.501 187.949V192.728C213.501 192.902 213.546 193.073 213.633 193.224L214.888 195.421C214.94 195.511 215.005 195.592 215.081 195.662L219.36 199.585L224.121 203.979L226.685 206.177C227.539 206.787 229.321 208.154 229.614 208.74C229.98 209.473 232.178 209.839 232.91 210.205C233.439 210.47 234.805 210.555 235.604 210.569C235.759 210.572 235.912 210.535 236.051 210.466L239.306 208.838C239.435 208.774 239.548 208.683 239.638 208.569C240.649 207.299 242.432 204.992 242.432 204.712C242.432 204.436 245.246 203.706 246.899 203.315C247.091 203.27 247.29 203.283 247.473 203.355C248.513 203.766 250.221 204.544 250.488 205.078C250.767 205.635 252.389 205.354 253.284 205.115C253.373 205.091 253.464 205.078 253.557 205.078C255.317 205.078 258.788 205.078 259.644 205.078C260.459 205.078 262.806 204.448 264.117 204.065C264.305 204.01 264.471 203.899 264.597 203.748L267.835 199.863C267.984 199.683 268.066 199.457 268.066 199.223V195.812C268.066 195.644 268.108 195.48 268.189 195.333L270.06 191.902C270.19 191.663 270.412 191.488 270.675 191.416L273.646 190.606C274.037 190.499 274.325 190.167 274.375 189.765L274.932 185.307C274.987 184.869 274.749 184.449 274.35 184.263C273.211 183.731 271.729 182.98 271.729 182.739C271.729 182.446 272.949 181.641 273.56 181.274L277.954 178.345C278.687 177.734 280.151 176.294 280.151 175.415C280.151 174.659 280.694 172.402 281.078 170.931C281.181 170.541 281.042 170.127 280.724 169.879L278.212 167.925C278.044 167.795 277.923 167.615 277.864 167.411L277.45 165.959C277.317 165.496 277.533 165.005 277.964 164.79C278.745 164.4 279.723 163.911 280.151 163.696C280.737 163.403 281.128 162.598 281.25 162.231C281.616 161.255 282.349 159.229 282.349 158.936C282.349 158.666 282.967 156.523 283.351 155.23C283.413 155.02 283.406 154.796 283.329 154.592L282.473 152.309C282.393 152.095 282.388 151.859 282.461 151.642L282.891 150.351C283.008 150 283.31 149.742 283.675 149.681L284.851 149.485C285.124 149.44 285.365 149.284 285.519 149.054L285.894 148.49C285.971 148.375 286.023 148.245 286.047 148.109L287.084 142.233C287.101 142.138 287.131 142.046 287.176 141.961C287.444 141.448 287.939 140.625 288.208 140.625C288.501 140.625 290.039 140.625 290.771 140.625H292.806C292.914 140.625 293.021 140.642 293.123 140.676L297.093 142C297.27 142.059 297.426 142.165 297.545 142.308C298.201 143.092 299.294 144.387 299.561 144.653C299.802 144.895 296.829 145.898 295.842 146.722C295.555 146.961 295.341 147.353 295.038 147.57L293.57 148.619C293.213 148.874 293.063 149.332 293.202 149.749L293.522 150.708C293.633 151.041 293.561 151.408 293.333 151.675L291.621 153.672C291.543 153.762 291.451 153.838 291.347 153.896L288.365 155.553C288.261 155.61 288.168 155.686 288.091 155.776L286.157 158.032C286.061 158.145 285.991 158.277 285.952 158.42L284.938 162.136C284.921 162.199 284.897 162.261 284.868 162.32L283.553 164.95C283.483 165.089 283.447 165.242 283.447 165.397V167.363C283.447 167.596 283.529 167.823 283.679 168.003L285.123 169.735C285.225 169.858 285.296 170.003 285.331 170.159L285.951 172.947C285.99 173.124 285.98 173.309 285.923 173.481L285.043 176.121C284.959 176.372 284.779 176.58 284.542 176.699L281.803 178.068C281.464 178.238 281.25 178.584 281.25 178.963V181.802C281.25 181.937 281.278 182.071 281.331 182.195L282.349 184.57L283.181 186.511C283.342 186.887 283.258 187.323 282.969 187.613L282.737 187.844C282.495 188.086 282.147 188.188 281.813 188.113L279.589 187.619C279.255 187.545 278.906 187.646 278.665 187.888L276.917 189.635C276.876 189.677 276.839 189.721 276.805 189.769L274.364 193.256C274.316 193.325 274.26 193.387 274.196 193.442L272.078 195.257C271.856 195.447 271.729 195.725 271.729 196.017V200.081C271.729 200.237 271.692 200.39 271.623 200.529L269.35 205.074C269.232 205.311 269.212 205.586 269.296 205.837L270.241 208.673C270.256 208.718 270.274 208.761 270.295 208.804L271.688 211.589C271.715 211.643 271.747 211.694 271.783 211.742L272.527 212.735C272.716 212.987 273.012 213.135 273.327 213.135H277.871C277.926 213.135 277.981 213.13 278.036 213.121L281.888 212.479C282.18 212.43 282.478 212.514 282.703 212.706L284.64 214.367C284.816 214.517 284.934 214.724 284.974 214.952L285.998 220.753C286.006 220.801 286.019 220.849 286.034 220.895L288.077 227.024C288.161 227.276 288.341 227.484 288.578 227.602L290.205 228.415C290.337 228.481 290.453 228.576 290.544 228.692L294.313 233.489C294.393 233.59 294.491 233.675 294.603 233.739L299.33 236.441C299.481 236.527 299.652 236.572 299.826 236.572H303.427C303.534 236.572 303.641 236.555 303.743 236.521L308.709 234.865C308.949 234.786 309.21 234.799 309.44 234.904L312.878 236.466C313.03 236.536 313.163 236.643 313.264 236.777L315.186 239.34C315.266 239.447 315.324 239.568 315.357 239.697C315.741 241.217 316.492 243.982 316.772 244.263C317.023 244.514 317.471 246.214 317.748 247.387C317.827 247.722 318.068 247.994 318.39 248.113C320.202 248.783 323.099 249.957 323.364 250.488C323.626 251.012 325.86 250.794 327.29 250.568C327.588 250.521 327.892 250.602 328.12 250.798L330.191 252.573C330.278 252.647 330.351 252.736 330.408 252.836L331.652 255.012C331.74 255.167 331.869 255.296 332.024 255.384L334.12 256.582C334.271 256.668 334.442 256.714 334.616 256.714H340.942H344.923C345.188 256.714 345.442 256.819 345.63 257.007L348.071 259.448C348.199 259.576 348.29 259.736 348.334 259.912L349.312 263.826C349.347 263.966 349.412 264.096 349.502 264.209L350.53 265.494C350.72 265.731 351.007 265.869 351.311 265.869H354.666C354.793 265.869 354.919 265.845 355.037 265.798L362.183 262.939L367.291 260.896C367.537 260.798 367.813 260.801 368.057 260.905L370.239 261.841L373.609 263.066C374.005 263.21 374.268 263.586 374.268 264.006V265.869V269.117C374.268 269.382 374.373 269.637 374.56 269.824L375.152 270.416C375.292 270.555 375.47 270.651 375.663 270.689L378.737 271.304C378.927 271.342 379.124 271.324 379.304 271.252L380.681 270.701C380.799 270.654 380.925 270.63 381.052 270.63H382.736C382.945 270.63 383.148 270.695 383.317 270.816L385.62 272.461C386.353 272.949 387.964 273.926 388.55 273.926C389.006 273.926 389.641 274.667 390.072 275.283C390.273 275.57 390.596 275.757 390.947 275.757H392.99C393.199 275.757 393.402 275.692 393.571 275.571L395.613 274.112C395.783 273.991 395.986 273.926 396.194 273.926H398.681C398.762 273.926 398.844 273.916 398.923 273.896L401.287 273.305C401.57 273.234 401.809 273.043 401.939 272.782L403.288 270.084C403.457 269.745 403.804 269.531 404.182 269.531H407.487C407.557 269.531 407.627 269.539 407.696 269.553L412.72 270.63L418.601 271.322C418.824 271.348 419.032 271.449 419.191 271.608L420.88 273.297C421.238 273.655 421.809 273.689 422.207 273.374L436.876 261.775C437.116 261.585 437.256 261.297 437.256 260.991C437.256 260.076 437.256 258.79 437.256 258.545C437.256 258.265 436.809 255.284 436.557 253.636C436.535 253.492 436.482 253.355 436.401 253.234L435.116 251.307C435.078 251.25 435.046 251.188 435.02 251.124L434.441 249.676C434.366 249.49 434.35 249.285 434.393 249.088L434.95 246.581C435.019 246.274 435.227 246.017 435.513 245.887L438.964 244.319C439.046 244.281 439.122 244.234 439.191 244.176L440.924 242.731C441.152 242.541 441.284 242.26 441.284 241.963V239.372C441.284 239.217 441.248 239.063 441.179 238.925L439.211 234.989C439.13 234.827 439.006 234.69 438.853 234.593L435.584 232.512C435.263 232.308 435.085 231.937 435.127 231.558L435.765 225.817C435.782 225.665 435.834 225.519 435.916 225.39L438.354 221.558L441.473 217.054C441.588 216.886 441.65 216.688 441.65 216.484V212.241C441.65 212.106 441.623 211.972 441.57 211.847L438.354 204.346L435.847 197.182C435.81 197.076 435.791 196.964 435.791 196.852V192.251C435.791 192.021 435.871 191.797 436.017 191.618L438.939 188.047C439.036 187.928 439.105 187.788 439.139 187.639L440.16 183.216C440.177 183.143 440.186 183.067 440.186 182.992V178.789C440.186 178.737 440.19 178.685 440.198 178.633L441.269 171.848C441.279 171.785 441.295 171.723 441.317 171.662L442.51 168.383C442.653 167.988 443.029 167.725 443.449 167.725H447.274C447.429 167.725 447.582 167.688 447.721 167.619L451.639 165.66C451.812 165.573 451.956 165.438 452.054 165.271L457.947 155.22C458.065 155.018 458.109 154.781 458.07 154.55L457.164 149.109C457.086 148.646 457.342 148.191 457.779 148.016L459.956 147.146C460.388 146.973 460.643 146.525 460.573 146.065L459.979 142.21C459.967 142.13 459.945 142.052 459.914 141.978L458.13 137.695L456.088 133.272C455.988 133.054 455.813 132.88 455.594 132.781L452.262 131.266C452.032 131.162 451.771 131.148 451.532 131.228L447.844 132.457C447.628 132.529 447.443 132.673 447.319 132.865L444.509 137.236C444.325 137.522 444.008 137.695 443.668 137.695H439.42C439.204 137.695 438.993 137.765 438.82 137.895L437.759 138.691C437.668 138.759 437.59 138.842 437.527 138.936C437.009 139.709 436.066 141.082 435.791 141.357C435.547 141.602 434.269 141.863 433.355 142.013C433.045 142.065 432.73 141.959 432.508 141.736L428.582 137.81C428.506 137.734 428.442 137.646 428.394 137.55L425.212 131.187C425.185 131.131 425.162 131.074 425.146 131.014C424.895 130.126 424.438 128.374 424.438 127.808C424.438 127.298 424.438 126.011 424.438 125.203C424.438 124.992 424.505 124.786 424.63 124.615L427.299 120.945C427.345 120.882 427.383 120.813 427.413 120.741L429.147 116.581C429.182 116.497 429.228 116.419 429.284 116.348L432.975 111.65C433.137 111.444 433.211 111.183 433.186 110.922C433.073 109.732 432.967 107.821 433.228 107.3C433.511 106.733 435.185 105.209 436.069 104.446C436.127 104.396 436.18 104.338 436.226 104.275L438.957 100.52C439.043 100.403 439.153 100.305 439.28 100.234L441.897 98.7805C442.199 98.6128 442.566 98.6128 442.868 98.7805L445.679 100.342L450.984 102.663C451.325 102.812 451.555 103.137 451.581 103.508L451.899 107.959C451.903 108.008 451.91 108.056 451.92 108.104L452.613 111.221C452.629 111.292 452.637 111.365 452.637 111.438V116.25C452.637 116.385 452.664 116.519 452.718 116.644L453.61 118.726C453.692 118.916 453.712 119.127 453.669 119.33L452.744 123.646C452.676 123.96 452.764 124.287 452.978 124.525L455.884 127.754C455.916 127.79 455.946 127.828 455.973 127.868L458.13 131.104L460.582 134.606C460.656 134.712 460.708 134.83 460.737 134.955L461.686 139.067C461.753 139.358 461.946 139.604 462.213 139.737L464.511 140.886C464.649 140.955 464.803 140.991 464.958 140.991H466.301C466.68 140.991 467.026 140.777 467.195 140.438L467.651 139.526C468.018 138.55 468.823 136.377 469.116 135.498C469.482 134.399 470.215 132.935 470.581 132.568C470.855 132.294 472.004 131.572 472.651 131.18C472.735 131.129 472.827 131.091 472.923 131.067L476.904 130.072C477.08 130.028 477.241 129.937 477.369 129.809L480.908 126.269C481.096 126.082 481.201 125.828 481.201 125.562V119.019V114.438C481.201 114.097 481.374 113.78 481.66 113.596L486.255 110.643C486.304 110.611 486.35 110.576 486.392 110.537L491.01 106.274C491.062 106.226 491.11 106.172 491.151 106.113L493.577 102.647C493.627 102.575 493.667 102.497 493.697 102.415L495.117 98.5107L495.752 95.6537C495.814 95.3746 495.993 95.1354 496.243 94.9965L499.146 93.3838L503.114 91.3994C503.384 91.2647 503.578 91.0158 503.643 90.7219L504.272 87.8906L504.933 84.9165C504.98 84.7075 504.958 84.4891 504.871 84.2935L503.626 81.4928C503.569 81.3649 503.54 81.2265 503.54 81.0866V74.1057C503.54 74.0187 503.551 73.932 503.574 73.848L504.936 68.741C504.981 68.571 505.07 68.4159 505.195 68.2915L507.785 65.7018C507.883 65.6029 507.961 65.4843 508.011 65.3537L509.699 60.9643C509.743 60.8498 509.766 60.7281 509.766 60.6053V55.8108C509.766 55.7135 509.78 55.6167 509.808 55.5235L510.864 52.002L511.537 48.639C511.576 48.444 511.556 48.2418 511.479 48.0582L509.843 44.1299C509.792 44.0081 509.766 43.8773 509.766 43.7453V40.2503C509.766 40.034 509.836 39.8234 509.966 39.6503L512.84 35.8172C512.983 35.6269 513.053 35.3921 513.039 35.1548L512.695 29.6631ZM120.117 207.642L114.315 210.031C114.046 210.141 113.839 210.364 113.747 210.639L112.844 213.347C112.81 213.449 112.793 213.556 112.793 213.663V217.375C112.793 217.701 112.952 218.007 113.22 218.194L116.264 220.325C116.39 220.413 116.534 220.471 116.685 220.494L120.882 221.14C121.098 221.173 121.32 221.135 121.513 221.03L125.078 219.085C125.188 219.025 125.308 218.986 125.432 218.971L130.595 218.325C130.914 218.285 131.233 218.401 131.452 218.637L135.568 223.069C135.757 223.273 136.022 223.389 136.3 223.389H143.699C143.845 223.389 143.99 223.421 144.122 223.482L149.098 225.805C149.303 225.9 149.469 226.062 149.57 226.264L152.271 231.666C152.319 231.763 152.382 231.85 152.458 231.926L154.94 234.408C155.151 234.619 155.445 234.725 155.742 234.697L162.49 234.054C162.79 234.025 163.061 233.863 163.228 233.613L165.792 229.767C165.859 229.666 165.944 229.578 166.043 229.508L167.651 228.359C168.097 228.04 168.204 227.421 167.889 226.972L166.235 224.609C166.025 224.308 165.996 223.917 166.16 223.588L167.358 221.191L167.95 219.613C168.196 218.959 167.708 218.265 167.02 218.146C166.412 218.041 165.894 217.852 165.894 217.529C165.894 217 165.496 214.64 165.238 213.198C165.19 212.924 165.027 212.683 164.792 212.534L161.201 210.249C161.156 210.22 161.108 210.194 161.058 210.173L156.088 208.043C156.033 208.02 155.977 208.001 155.919 207.988L151.245 206.909L146.56 206.188C146.51 206.181 146.459 206.177 146.408 206.177H144.475C144.13 206.177 143.81 205.999 143.627 205.707L142.384 203.717C142.201 203.425 141.88 203.247 141.536 203.247H134.912C134.815 203.247 134.718 203.261 134.625 203.289L131.262 204.298C131.157 204.33 131.058 204.378 130.969 204.442L128.893 205.925C128.668 206.086 128.386 206.146 128.115 206.092L125.169 205.503C124.979 205.465 124.782 205.483 124.602 205.555L123.047 206.177L120.117 207.642ZM219.36 215.332V210.67C219.36 210.604 219.367 210.539 219.38 210.474L220.073 207.006C220.086 206.942 220.093 206.876 220.093 206.81V206.795C220.093 206.416 219.879 206.07 219.54 205.9L218.107 205.184C217.968 205.114 217.847 205.013 217.754 204.889L215.698 202.148L213.557 198.58C213.52 198.518 213.489 198.451 213.466 198.382L212.264 194.776C212.128 194.367 211.746 194.092 211.315 194.092H207.748C207.677 194.092 207.607 194.084 207.538 194.07L202.618 193.015C202.549 193.001 202.479 192.993 202.409 192.993H196.665C196.423 192.993 196.189 193.081 196.006 193.241L193.642 195.309C193.46 195.469 193.226 195.557 192.984 195.557H190.478C190.212 195.557 189.958 195.662 189.771 195.85L187.866 197.754L184.186 201.099C183.966 201.3 183.667 201.392 183.372 201.349L179.206 200.754C178.894 200.71 178.58 200.815 178.357 201.037L177.434 201.961C177.311 202.084 177.222 202.237 177.176 202.405L176.207 205.96C176.168 206.103 176.097 206.235 176.001 206.347L174.078 208.592C173.993 208.69 173.929 208.803 173.888 208.926L173.047 211.45C172.927 211.809 173.021 212.205 173.289 212.473L175.994 215.179C176.095 215.28 176.173 215.401 176.224 215.535L177.084 217.83C177.187 218.104 177.404 218.319 177.679 218.419L180.842 219.569C181.116 219.669 181.334 219.884 181.436 220.158L182.13 222.007C182.276 222.398 182.649 222.656 183.066 222.656C183.891 222.656 185.008 222.656 185.669 222.656C186.485 222.656 187.364 221.815 187.778 221.304C187.838 221.23 187.904 221.163 187.98 221.106C188.997 220.34 190.964 218.826 191.528 218.262C192.037 217.753 192.767 216.839 193.19 216.288C193.302 216.142 193.449 216.028 193.62 215.96L195.012 215.404C195.13 215.356 195.256 215.332 195.383 215.332H198.235C198.613 215.332 198.96 215.546 199.129 215.885L201.05 219.727L202.881 224.121L203.856 226.397C203.936 226.584 204.072 226.743 204.245 226.851L206.844 228.475C206.887 228.502 206.933 228.526 206.98 228.546L208.968 229.398C209.282 229.533 209.644 229.497 209.926 229.304L216.271 224.963C216.376 224.891 216.467 224.799 216.538 224.692L219.192 220.711C219.302 220.547 219.36 220.354 219.36 220.156V215.332ZM546.237 8.78906H548.222C548.456 8.78906 548.682 8.87108 548.862 9.02084L550.421 10.3203C550.649 10.5103 550.781 10.7917 550.781 11.0885V14.2342C550.781 14.4994 550.676 14.7538 550.488 14.9413L548.877 16.5528C548.689 16.7403 548.435 16.8457 548.17 16.8457H545.158C545.003 16.8457 544.85 16.8096 544.711 16.7401L542.545 15.6573C542.206 15.4879 541.992 15.1416 541.992 14.7628V11.264C541.992 10.8719 542.221 10.5159 542.578 10.3537L545.823 8.8787C545.953 8.81963 546.094 8.78906 546.237 8.78906Z" stroke="#E85968"/>
</g>
<defs>
<clipPath id="clip0_3966_1767">
<rect width="1500" height="773.438" fill="white"/>
</clipPath>
</defs>
</svg>
