<svg width="2048" height="1056" viewBox="0 0 2048 1056" fill="none" xmlns="http://www.w3.org/2000/svg">
<g clip-path="url(#clip0_3966_1767)">
<path d="M10.2929 299.207L13.7071 295.793C13.8946 295.605 14.149 295.5 14.4142 295.5H19C19.5523 295.5 20 295.948 20 296.5V297.819C20 297.939 20.0216 298.058 20.0637 298.17L21.3866 301.697C21.4603 301.894 21.4703 302.109 21.415 302.312L20.201 306.763C20.0823 307.198 19.6872 307.5 19.2362 307.5H16.5H12.193C11.7762 307.5 11.403 307.241 11.2567 306.851L10.0637 303.67C10.0216 303.558 10 303.439 10 303.319V299.914C10 299.649 10.1054 299.395 10.2929 299.207Z" fill="#E85968" fill-opacity="0.9"/>
<path d="M41 277V271.192C41 270.775 41.2586 270.403 41.6489 270.257L44.8302 269.064C44.9425 269.022 45.0606 269 45.1805 269H51C52.2 269 51.5 272 51 273.5L49.6894 278.743C49.5781 279.188 49.1781 279.5 48.7192 279.5H45.1813C45.0614 279.5 44.9431 279.479 44.8313 279.436C43.4546 278.903 41 277.768 41 277Z" fill="#E85968" fill-opacity="0.9"/>
<path d="M55.5 303.223V298.205C55.5 298.07 55.5275 297.936 55.5809 297.811L56.7402 295.106C56.8978 294.738 57.2592 294.5 57.6592 294.5H60.5H64.0646C64.3424 294.5 64.6075 294.616 64.7967 294.819L68.2323 298.513C68.4044 298.698 68.5 298.942 68.5 299.194V304.301V307.931C68.5 308.17 68.4146 308.401 68.2593 308.582L65.8584 311.383C65.6353 311.643 65.2943 311.771 64.955 311.722L60.4693 311.068C60.1723 311.025 59.9104 310.851 59.756 310.593L55.6425 303.738C55.5493 303.582 55.5 303.404 55.5 303.223Z" fill="#E85968" fill-opacity="0.9"/>
<path d="M51 304.265V299.162C51 298.928 50.9181 298.703 50.7684 298.523L49.7999 297.36C49.6099 297.132 49.3283 297 49.0314 297H43.5C42.9477 297 42.5 297.448 42.5 298V299.5V302.823C42.5 303.232 42.7505 303.596 43.1114 303.789C44.0413 304.284 45.361 305.222 46 306.5C47 308.5 47.5 307.5 48.5 307.5C49.2473 307.5 50.3436 305.755 50.8924 304.71C50.9646 304.572 51 304.42 51 304.265Z" fill="#E85968" fill-opacity="0.9"/>
<path d="M44.2117 312.409L41 310V304.968C41 304.672 40.8682 304.39 40.6402 304.2L38.2781 302.232C38.0984 302.082 37.8719 302 37.638 302H36.5H31.7638C31.3128 302 30.9177 302.302 30.799 302.737L29.5918 307.164C29.5323 307.381 29.5484 307.613 29.6374 307.821L30.5964 310.058C30.8177 310.575 30.5702 311.172 30.0486 311.381L28.7516 311.899C28.5868 311.965 28.4426 312.074 28.3336 312.214L25.0608 316.422C25.0204 316.474 24.9852 316.53 24.9557 316.589L23.1226 320.255C23.0423 320.415 23.0067 320.594 23.0195 320.773L23.483 327.262C23.4942 327.418 23.5408 327.57 23.6265 327.702C24.1957 328.575 25.3906 330 26.5 330C27.608 330 28.517 330.853 28.9123 330.983C28.9693 331.002 29.0297 330.995 29.0887 330.984L33.6789 330.149C34.1544 330.063 34.5 329.65 34.5 329.166V324C34.5 323.235 37.0885 321.496 37.8994 320.616C37.9691 320.541 38.0436 320.471 38.1292 320.414L40.8512 318.599C40.9496 318.534 41.0356 318.451 41.1052 318.355L44.4204 313.797C44.7419 313.355 44.6489 312.737 44.2117 312.409Z" fill="#E85968" fill-opacity="0.9"/>
<path d="M740 20.382V15.1439C740 14.7518 740.229 14.3958 740.586 14.2335L745.303 12.0896C745.433 12.0306 745.574 12 745.717 12H748.638C748.872 12 749.098 12.082 749.278 12.2318L751.64 14.2002C751.868 14.3901 752 14.6716 752 14.9684V19.5858C752 19.851 751.895 20.1054 751.707 20.2929L749.293 22.7071C749.105 22.8946 748.851 23 748.586 23H744.236C744.081 23 743.928 22.9639 743.789 22.8944L740.553 21.2764C740.214 21.107 740 20.7607 740 20.382Z" fill="#E85968" fill-opacity="0.9"/>
<path d="M728.5 34.5C728.883 34.1166 729.297 30.6402 729.478 28.7379C729.493 28.5808 729.469 28.4236 729.411 28.2771L728.751 26.6286C728.6 26.249 728.232 26 727.823 26H724.5H722.862C722.628 26 722.402 26.082 722.222 26.2318L719.684 28.3463C719.563 28.4473 719.468 28.5756 719.405 28.7206L718.172 31.5988C718.062 31.8546 718.064 32.1445 718.177 32.3989L719.821 36.0969C719.935 36.3537 720.151 36.5579 720.428 36.6028C721.949 36.8489 724.136 36.1359 724.5 36.5C725 37 728 35 728.5 34.5Z" fill="#E85968" fill-opacity="0.9"/>
<path d="M727.173 49.3774L723.649 48.0559C723.55 48.0189 723.458 47.9664 723.376 47.9005L721.274 46.2191C721.097 46.0773 720.876 46 720.649 46H718.5H715.634C715.545 46 715.457 46.0118 715.371 46.0352L710.256 47.4301C710.088 47.4759 709.935 47.5647 709.812 47.6878L708.793 48.7071C708.605 48.8946 708.5 49.149 708.5 49.4142V51.5V55.8769C708.5 55.9587 708.51 56.0401 708.53 56.1194L709.451 59.8041C709.483 59.9334 709.541 60.0543 709.62 60.1618C710.144 60.8754 711 62.1299 711 62.5C711 63 713 63 714 63C714.628 63 715.502 63.308 716.091 63.4405C716.35 63.4987 716.605 63.3946 716.793 63.2071L718.5 61.5L720.81 59.652C720.935 59.5521 721.081 59.4841 721.238 59.451C722.148 59.2587 723.769 58.8654 724.5 58.5C725.105 58.1974 726.511 57.7805 727.593 57.5953C728.103 57.508 728.536 57.1056 728.583 56.5905L728.97 52.3251C728.99 52.1139 728.941 51.902 728.832 51.7201L727.68 49.7993C727.563 49.6055 727.385 49.4568 727.173 49.3774Z" fill="#E85968" fill-opacity="0.9"/>
<path d="M719.664 3.81496L723.351 -0.332115C723.449 -0.442661 723.522 -0.573627 723.563 -0.715578L729.125 -19.7191C729.312 -20.3593 728.832 -21 728.165 -21H0C-0.552285 -21 -1 -20.5523 -1 -20V272.455C-1 273.025 -0.524954 273.479 0.0440745 273.454L32.7469 272.011C32.913 272.004 33.0747 271.955 33.2173 271.87L35.3255 270.605C35.4406 270.536 35.5407 270.444 35.6197 270.335L39.3087 265.263C39.433 265.092 39.5 264.886 39.5 264.675V260.736C39.5 260.581 39.5361 260.428 39.6056 260.289L40.8509 257.798C40.9477 257.605 41.1046 257.448 41.2981 257.351L44.7889 255.606C44.9277 255.536 45.0808 255.5 45.2361 255.5H48.3187C48.4386 255.5 48.5575 255.522 48.6698 255.564L56.378 258.454C56.459 258.485 56.5436 258.504 56.6296 258.513L60.5995 258.91C61.1107 258.961 61.5 259.391 61.5 259.905V260.5V266.613C61.5 266.862 61.5916 267.101 61.759 267.285C63.4981 269.197 66.6197 272.62 67 273C67.3883 273.388 71.8917 275.693 74.2893 276.895C74.4281 276.964 74.5808 277 74.7361 277H82.0401C82.332 277 82.6093 276.872 82.7993 276.651L88.3187 270.212C88.4373 270.073 88.5158 269.905 88.5458 269.725L89.4075 264.555C89.4649 264.21 89.698 263.921 90.0217 263.79C91.7948 263.069 94.6382 261.862 95 261.5C95.4 261.1 98.1667 259.667 99.5 259L105.266 255.636C105.419 255.547 105.593 255.5 105.77 255.5H107.428C107.782 255.5 108.11 255.688 108.29 255.993L112.935 263.89C112.978 263.963 113.03 264.03 113.09 264.09L116.707 267.707C116.895 267.895 117.149 268 117.414 268H127.912C127.971 268 128.029 267.995 128.086 267.985L136.189 266.555C136.392 266.519 136.6 266.547 136.786 266.633L144 270L153.264 275.851C153.418 275.949 153.543 276.086 153.625 276.249L155.224 279.447C155.393 279.786 155.739 280 156.118 280H157.783C157.926 280 158.067 279.969 158.197 279.91L163.31 277.586C163.435 277.529 163.548 277.447 163.64 277.345L167.613 272.93C167.852 272.664 168.214 272.546 168.564 272.621C171.025 273.145 175.13 274 175.5 274C175.893 274 180.188 273.033 182.391 272.525C182.464 272.508 182.538 272.5 182.614 272.5H190.866C190.955 272.5 191.043 272.488 191.129 272.465L195.744 271.206C196.188 271.085 196.657 271.282 196.878 271.686C197.754 273.29 199 275.654 199 276C199 276.392 203.811 276.175 206.354 276.01C206.452 276.003 206.549 276.011 206.644 276.033L212.778 277.449C212.924 277.482 213.061 277.549 213.178 277.642L218 281.5L221.122 284.622C221.358 284.858 221.697 284.961 222.025 284.895L226.405 284.019C226.468 284.006 226.53 283.988 226.59 283.963L234.545 280.687C234.832 280.569 235.048 280.325 235.129 280.026L236.425 275.276C236.474 275.096 236.471 274.905 236.418 274.726L235.091 270.303C235.032 270.106 235.035 269.895 235.1 269.7L235.772 267.684C235.908 267.275 236.29 267 236.721 267H239.264C239.419 267 239.572 266.964 239.711 266.894L246.386 263.557C246.462 263.519 246.542 263.491 246.624 263.473L253.075 262.091C253.346 262.033 253.581 261.865 253.723 261.628L256.262 257.396C256.413 257.145 256.665 256.972 256.955 256.925C259.09 256.576 262.884 256 264 256C265.131 256 266.944 255.407 267.846 255.06C267.949 255.021 268.042 254.964 268.126 254.892L270.956 252.466C271.281 252.187 271.393 251.733 271.234 251.335L270.598 249.745C270.534 249.584 270.429 249.443 270.294 249.335L268.17 247.636C268.058 247.547 267.928 247.482 267.788 247.447L264.446 246.612C264.163 246.541 263.925 246.35 263.794 246.089L262.685 243.87C262.567 243.633 262.547 243.359 262.631 243.107L263.971 239.088C263.99 239.03 264.015 238.973 264.045 238.919L266.272 234.911C266.416 234.651 266.669 234.468 266.962 234.413L274.397 233.019C274.465 233.006 274.533 232.986 274.597 232.96L280.433 230.528C280.478 230.509 280.521 230.487 280.563 230.462L284.613 228.032C285.098 227.741 285.728 227.91 286.002 228.404L287.874 231.773C287.957 231.922 288 232.089 288 232.259V243.138C288 243.372 287.918 243.598 287.768 243.778L285.834 246.1C285.625 246.35 285.551 246.688 285.637 247.003L286.922 251.713C286.973 251.9 287.077 252.069 287.222 252.198L291.164 255.702C291.378 255.891 291.5 256.163 291.5 256.449V263.234C291.5 263.408 291.545 263.579 291.632 263.731L293.423 266.864C293.474 266.954 293.539 267.036 293.615 267.105L299.5 272.5L306 278.5L309.5 281.5C310.667 282.333 313.1 284.2 313.5 285C314 286 317 286.5 318 287C318.742 287.371 320.688 287.484 321.765 287.498C321.92 287.5 322.072 287.464 322.211 287.394L326.804 285.098C326.933 285.034 327.047 284.942 327.137 284.829C328.507 283.109 331 279.887 331 279.5C331 279.117 334.967 278.094 337.208 277.568C337.399 277.523 337.598 277.536 337.781 277.608C339.188 278.156 341.626 279.253 342 280C342.385 280.77 344.656 280.366 345.866 280.037C345.955 280.013 346.045 280 346.138 280H354.5C355.635 280 358.947 279.105 360.713 278.585C360.901 278.53 361.067 278.42 361.193 278.269L365.768 272.778C365.918 272.598 366 272.372 366 272.138V267.255C366 267.088 366.042 266.923 366.122 266.776L368.796 261.874C368.926 261.635 369.148 261.46 369.411 261.388L373.854 260.176C374.245 260.07 374.533 259.738 374.583 259.335L375.408 252.736C375.463 252.299 375.225 251.878 374.825 251.694C373.248 250.967 371 249.846 371 249.5C371 249.1 372.667 248 373.5 247.5L379.5 243.5C380.5 242.667 382.5 240.7 382.5 239.5C382.5 238.426 383.301 235.136 383.828 233.143C383.931 232.753 383.792 232.339 383.474 232.091L379.758 229.201C379.59 229.07 379.469 228.89 379.41 228.686L378.728 226.298C378.596 225.835 378.811 225.344 379.242 225.129L382.5 223.5C383.3 223.1 383.833 222 384 221.5C384.5 220.167 385.5 217.4 385.5 217C385.5 216.624 386.382 213.573 386.904 211.823C386.966 211.613 386.958 211.389 386.882 211.184L385.624 207.831C385.544 207.617 385.54 207.381 385.612 207.164L386.31 205.071C386.427 204.72 386.729 204.462 387.094 204.401L389.073 204.071C389.345 204.026 389.587 203.87 389.74 203.64L390.384 202.674C390.46 202.559 390.512 202.43 390.536 202.294L391.975 194.143C391.991 194.048 392.022 193.956 392.066 193.87C392.426 193.175 393.125 192 393.5 192H397H399.838C399.945 192 400.052 192.017 400.154 192.051L405.73 193.91C405.907 193.969 406.063 194.075 406.182 194.218C407.067 195.277 408.627 197.127 409 197.5C409.344 197.844 404.898 199.325 403.759 200.474C403.496 200.739 403.309 201.136 403.005 201.353L400.601 203.071C400.244 203.326 400.095 203.784 400.234 204.201L400.821 205.963C400.932 206.296 400.86 206.663 400.632 206.93L398.117 209.864C398.04 209.954 397.947 210.03 397.843 210.087L393.657 212.413C393.553 212.47 393.46 212.546 393.383 212.636L390.646 215.829C390.55 215.942 390.48 216.074 390.441 216.217L389.026 221.404C389.009 221.468 388.985 221.53 388.956 221.589L387.106 225.289C387.036 225.428 387 225.581 387 225.736V228.638C387 228.872 387.082 229.098 387.232 229.278L389.345 231.814C389.447 231.936 389.518 232.081 389.553 232.237L390.44 236.23C390.479 236.407 390.47 236.591 390.412 236.763L389.131 240.607C389.047 240.859 388.867 241.067 388.63 241.185L384.553 243.224C384.214 243.393 384 243.739 384 244.118V248.295C384 248.43 384.027 248.564 384.081 248.689L385.5 252L386.733 254.878C386.894 255.254 386.81 255.69 386.521 255.979L385.888 256.612C385.646 256.854 385.298 256.955 384.964 256.881L381.536 256.119C381.202 256.045 380.854 256.146 380.612 256.388L378.062 258.938C378.021 258.979 377.983 259.024 377.95 259.072L374.572 263.896C374.524 263.965 374.468 264.028 374.404 264.082L371.349 266.701C371.128 266.891 371 267.168 371 267.46V273.264C371 273.419 370.964 273.572 370.894 273.711L367.685 280.13C367.567 280.367 367.547 280.641 367.631 280.893L368.978 284.933C368.992 284.977 369.011 285.021 369.032 285.064L370.96 288.919C370.987 288.973 371.018 289.024 371.054 289.072L372.2 290.6C372.389 290.852 372.685 291 373 291H379.417C379.472 291 379.527 290.995 379.582 290.986L385.039 290.077C385.331 290.028 385.63 290.111 385.855 290.304L388.728 292.767C388.904 292.918 389.022 293.125 389.062 293.353L390.487 301.427C390.496 301.476 390.508 301.523 390.523 301.57L393.369 310.107C393.453 310.359 393.633 310.567 393.87 310.685L396.299 311.9C396.432 311.966 396.547 312.06 396.639 312.176L401.879 318.846C401.959 318.948 402.058 319.033 402.17 319.097L408.769 322.868C408.921 322.955 409.092 323 409.266 323H414.338C414.445 323 414.552 322.983 414.654 322.949L421.627 320.624C421.867 320.544 422.128 320.558 422.357 320.663L427.267 322.894C427.42 322.964 427.553 323.07 427.653 323.205L430.379 326.838C430.459 326.945 430.517 327.067 430.549 327.196C431.069 329.256 432.113 333.113 432.5 333.5C432.857 333.857 433.505 336.361 433.878 337.962C433.955 338.297 434.196 338.569 434.518 338.688C436.973 339.587 441.128 341.255 441.5 342C441.868 342.737 445.093 342.399 447.032 342.081C447.329 342.032 447.633 342.114 447.861 342.31L450.868 344.887C450.956 344.962 451.029 345.051 451.086 345.15L452.865 348.263C452.953 348.418 453.082 348.547 453.237 348.635L456.269 350.368C456.421 350.455 456.592 350.5 456.766 350.5H465.5H471.086C471.351 350.5 471.605 350.605 471.793 350.793L475.304 354.304C475.432 354.432 475.523 354.593 475.567 354.769L476.947 360.288C476.982 360.428 477.047 360.558 477.136 360.67L478.7 362.625C478.89 362.862 479.177 363 479.481 363H484.307C484.435 363 484.561 362.976 484.679 362.928L494.5 359L501.615 356.154C501.862 356.055 502.137 356.059 502.381 356.163L505.5 357.5L510.342 359.261C510.737 359.404 511 359.78 511 360.2V363V367.586C511 367.851 511.105 368.105 511.293 368.293L512.286 369.286C512.425 369.426 512.603 369.521 512.797 369.559L517.208 370.442C517.399 370.48 517.596 370.462 517.776 370.39L519.821 369.572C519.939 369.524 520.065 369.5 520.193 369.5H522.68C522.888 369.5 523.091 369.565 523.261 369.686L526.5 372C527.5 372.667 529.7 374 530.5 374C531.166 374 532.11 375.156 532.695 376.023C532.892 376.314 533.215 376.5 533.566 376.5H536.68C536.888 376.5 537.091 376.435 537.261 376.314L540.239 374.186C540.409 374.065 540.612 374 540.82 374H544.377C544.459 374 544.54 373.99 544.619 373.97L548.054 373.112C548.337 373.041 548.575 372.85 548.706 372.589L550.724 368.553C550.893 368.214 551.239 368 551.618 368H556.394C556.464 368 556.535 368.007 556.604 368.022L563.5 369.5L571.655 370.459C571.879 370.486 572.086 370.586 572.245 370.745L574.871 373.371C575.229 373.729 575.8 373.763 576.198 373.448L596.62 357.3C596.86 357.111 597 356.822 597 356.516V353C597 352.613 596.376 348.451 596.034 346.218C596.011 346.074 595.958 345.937 595.877 345.816L594.058 343.087C594.019 343.029 593.987 342.968 593.961 342.903L593.115 340.787C593.04 340.6 593.023 340.395 593.067 340.198L593.892 336.487C593.96 336.18 594.168 335.924 594.454 335.794L599.377 333.556C599.459 333.519 599.535 333.471 599.604 333.414L602.14 331.3C602.368 331.11 602.5 330.828 602.5 330.532V326.736C602.5 326.581 602.464 326.428 602.394 326.289L599.624 320.748C599.543 320.586 599.419 320.449 599.266 320.351L594.526 317.335C594.204 317.13 594.027 316.76 594.069 316.381L594.974 308.231C594.991 308.079 595.043 307.933 595.125 307.804L598.5 302.5L602.822 296.257C602.938 296.09 603 295.891 603 295.688V289.705C603 289.57 602.972 289.436 602.919 289.311L598.5 279L595.056 269.16C595.019 269.054 595 268.943 595 268.83V262.357C595 262.126 595.08 261.902 595.226 261.724L599.352 256.681C599.449 256.562 599.518 256.422 599.553 256.272L600.974 250.111C600.991 250.037 601 249.962 601 249.886V244.078C601 244.026 601.004 243.974 601.012 243.922L602.485 234.595C602.495 234.532 602.511 234.47 602.533 234.409L604.261 229.658C604.404 229.263 604.78 229 605.2 229H610.764C610.919 229 611.072 228.964 611.211 228.894L616.735 226.133C616.908 226.046 617.052 225.911 617.15 225.744L625.317 211.813C625.435 211.611 625.479 211.373 625.44 211.143L624.132 203.294C624.055 202.83 624.311 202.376 624.747 202.201L628.262 200.795C628.694 200.622 628.95 200.174 628.879 199.715L628.018 194.12C628.006 194.04 627.984 193.962 627.953 193.888L625.5 188L622.656 181.837C622.555 181.62 622.38 181.445 622.162 181.346L617.357 179.162C617.128 179.058 616.867 179.044 616.627 179.124L611.334 180.889C611.118 180.961 610.933 181.105 610.809 181.296L606.795 187.541C606.611 187.827 606.294 188 605.954 188H599.833C599.617 188 599.406 188.07 599.233 188.2L597.637 189.397C597.546 189.465 597.468 189.548 597.405 189.642C596.706 190.686 595.382 192.618 595 193C594.65 193.35 592.747 193.725 591.494 193.925C591.183 193.975 590.869 193.869 590.646 193.646L585.115 188.115C585.039 188.039 584.976 187.951 584.927 187.855L580.542 179.083C580.514 179.028 580.492 178.971 580.475 178.911C580.134 177.709 579.5 175.28 579.5 174.5V170.825C579.5 170.614 579.567 170.408 579.691 170.237L583.431 165.095C583.477 165.032 583.515 164.964 583.545 164.891L585.948 159.126C585.982 159.042 586.028 158.964 586.084 158.893L591.247 152.322C591.409 152.116 591.483 151.855 591.458 151.594C591.299 149.986 591.133 147.234 591.5 146.5C591.89 145.72 594.215 143.607 595.412 142.576C595.471 142.525 595.523 142.468 595.569 142.405L599.37 137.179C599.456 137.061 599.566 136.963 599.693 136.893L603.514 134.77C603.816 134.602 604.184 134.602 604.486 134.77L608.5 137L615.946 140.258C616.287 140.407 616.517 140.732 616.543 141.103L616.995 147.426C616.998 147.475 617.005 147.524 617.016 147.572L617.976 151.893C617.992 151.964 618 152.037 618 152.11V158.795C618 158.93 618.028 159.064 618.081 159.189L619.375 162.208C619.456 162.398 619.477 162.609 619.433 162.811L618.107 169.001C618.04 169.314 618.127 169.641 618.341 169.879L622.451 174.446C622.484 174.482 622.513 174.52 622.54 174.56L625.5 179L628.889 183.841C628.962 183.946 629.015 184.064 629.044 184.189L630.394 190.041C630.461 190.332 630.654 190.577 630.921 190.711L634.289 192.394C634.428 192.464 634.581 192.5 634.736 192.5H636.882C637.261 192.5 637.607 192.286 637.776 191.947L638.5 190.5C639 189.167 640.1 186.2 640.5 185C641 183.5 642 181.5 642.5 181C642.881 180.619 644.499 179.604 645.373 179.076C645.458 179.025 645.549 178.988 645.644 178.964L651.231 177.567C651.407 177.523 651.568 177.432 651.696 177.304L656.707 172.293C656.895 172.105 657 171.851 657 171.586V162.5V156.046C657 155.706 657.173 155.389 657.459 155.205L663.927 151.047C663.975 151.016 664.021 150.98 664.064 150.941L670.421 145.073C670.473 145.025 670.521 144.97 670.562 144.912L673.924 140.108C673.975 140.036 674.015 139.958 674.045 139.876L676 134.5L676.902 130.439C676.964 130.16 677.143 129.921 677.393 129.782L681.5 127.5L687.074 124.713C687.344 124.578 687.538 124.329 687.603 124.035L688.5 120L689.428 115.822C689.475 115.613 689.453 115.394 689.366 115.199L687.586 111.194C687.529 111.066 687.5 110.928 687.5 110.788V101.131C687.5 101.044 687.511 100.957 687.534 100.873L689.431 93.7595C689.476 93.5895 689.565 93.4345 689.69 93.3101L693.35 89.6501C693.449 89.5511 693.526 89.4325 693.576 89.3019L695.933 83.1733C695.977 83.0587 696 82.9371 696 82.8143V76.1468C696 76.0494 696.014 75.9526 696.042 75.8594L697.5 71L698.44 66.2991C698.479 66.1041 698.459 65.902 698.383 65.7184L696.077 60.1846C696.026 60.0627 696 59.932 696 59.8V54.8333C696 54.617 696.07 54.4064 696.2 54.2333L700.279 48.7947C700.422 48.6045 700.492 48.3697 700.477 48.1323L700 40.5V32.1623C700 32.0548 700.017 31.948 700.051 31.8461L701.346 27.9618C701.443 27.6703 701.669 27.4396 701.958 27.3363L708.156 25.1227C708.378 25.0435 708.565 24.8884 708.684 24.6848L711.915 19.1456C711.971 19.0492 712.043 18.9629 712.128 18.8903L715.238 16.2247C715.408 16.0791 715.524 15.8808 715.568 15.6615L716.463 11.1872C716.487 11.0635 716.488 10.9363 716.466 10.8122L715.649 6.3219C715.563 5.84606 715.829 5.3765 716.282 5.20668L719.268 4.08693C719.42 4.02984 719.556 3.93649 719.664 3.81496Z" fill="#E85968" fill-opacity="0.9"/>
<path d="M155.923 286.826L164 283.5L168 281.5L170.224 280.61C170.404 280.538 170.601 280.52 170.792 280.558L175.075 281.415C175.346 281.469 175.628 281.409 175.853 281.248L178.865 279.096C178.954 279.033 179.054 278.984 179.159 278.952L183.859 277.542C183.953 277.514 184.049 277.5 184.147 277.5H193.446C193.791 277.5 194.111 277.678 194.294 277.97L196.206 281.03C196.389 281.322 196.709 281.5 197.054 281.5H199.924C199.974 281.5 200.025 281.504 200.076 281.512L206.5 282.5L212.913 283.98C212.971 283.993 213.027 284.012 213.082 284.035L219.925 286.968C219.975 286.989 220.023 287.015 220.068 287.044L225.131 290.265C225.366 290.415 225.528 290.655 225.577 290.929C225.927 292.878 226.5 296.258 226.5 297C226.5 297.531 227.528 297.798 228.56 297.917C229.254 297.997 229.738 298.697 229.493 299.351L228.5 302L226.766 305.467C226.602 305.796 226.631 306.187 226.842 306.488L229.432 310.189C229.747 310.638 229.64 311.257 229.194 311.576L226.649 313.393C226.551 313.464 226.466 313.552 226.398 313.652L222.764 319.104C222.597 319.355 222.326 319.517 222.027 319.545L212.469 320.455C212.172 320.484 211.878 320.378 211.667 320.167L208.115 316.615C208.039 316.539 207.975 316.451 207.927 316.355L204.156 308.812C204.055 308.61 203.889 308.448 203.684 308.353L196.701 305.094C196.569 305.032 196.424 305 196.278 305H185.936C185.658 305 185.392 304.884 185.203 304.68L179.349 298.375C179.13 298.14 178.811 298.024 178.492 298.064L171.188 298.976C171.064 298.992 170.943 299.031 170.833 299.091L165.797 301.838C165.604 301.943 165.383 301.982 165.166 301.949L159.23 301.035C159.079 301.012 158.935 300.954 158.809 300.866L154.427 297.799C154.159 297.611 154 297.306 154 296.979V291.662C154 291.555 154.017 291.448 154.051 291.346L155.355 287.434C155.447 287.158 155.654 286.936 155.923 286.826Z" fill="#E85968" fill-opacity="0.9"/>
<path d="M299.519 287.403L300.481 282.597C300.493 282.533 300.5 282.467 300.5 282.401V282.118C300.5 281.739 300.286 281.393 299.947 281.224L297.711 280.106C297.572 280.036 297.452 279.935 297.358 279.811L294.5 276L291.556 271.094C291.519 271.032 291.488 270.965 291.465 270.896L289.728 265.684C289.592 265.275 289.21 265 288.779 265H283.606C283.536 265 283.465 264.993 283.396 264.978L276.604 263.522C276.535 263.507 276.464 263.5 276.394 263.5H268.376C268.134 263.5 267.9 263.588 267.717 263.747L264.283 266.753C264.1 266.912 263.866 267 263.624 267H259.914C259.649 267 259.395 267.105 259.207 267.293L256.5 270L251.348 274.683C251.128 274.884 250.829 274.976 250.534 274.933L244.495 274.071C244.183 274.026 243.869 274.131 243.646 274.354L242.188 275.812C242.065 275.935 241.976 276.088 241.93 276.256L240.559 281.283C240.52 281.426 240.45 281.558 240.354 281.671L237.627 284.851C237.543 284.949 237.479 285.063 237.438 285.186L236.195 288.914C236.076 289.273 236.169 289.669 236.437 289.937L240.347 293.847C240.448 293.948 240.526 294.069 240.576 294.203L241.838 297.569C241.941 297.842 242.158 298.058 242.433 298.157L247.067 299.843C247.342 299.942 247.559 300.158 247.662 300.431L248.757 303.351C248.903 303.741 249.276 304 249.693 304H253.5C254.636 304 255.861 302.806 256.413 302.113C256.472 302.038 256.538 301.971 256.614 301.915C257.99 300.88 260.722 298.778 261.5 298C262.22 297.28 263.265 295.965 263.831 295.223C263.942 295.077 264.09 294.964 264.26 294.896L266.321 294.072C266.439 294.024 266.565 294 266.693 294H270.882C271.261 294 271.607 294.214 271.776 294.553L274.5 300L277 306L278.377 309.212C278.457 309.4 278.593 309.558 278.766 309.666L282.435 311.959C282.478 311.986 282.524 312.01 282.571 312.03L285.495 313.284C285.809 313.418 286.171 313.383 286.454 313.19L295.34 307.109C295.446 307.037 295.536 306.945 295.607 306.839L299.332 301.252C299.442 301.088 299.5 300.895 299.5 300.697V294V287.599C299.5 287.533 299.507 287.467 299.519 287.403Z" fill="#E85968" fill-opacity="0.9"/>
<path d="M41 310L44.2117 312.409C44.6489 312.737 44.7419 313.355 44.4204 313.797L41.1052 318.355C41.0356 318.451 40.9496 318.534 40.8512 318.599L38.1292 320.414C38.0436 320.471 37.9691 320.541 37.8994 320.616C37.0885 321.496 34.5 323.235 34.5 324C34.5 324.669 34.5 327.483 34.5 329.166C34.5 329.65 34.1544 330.063 33.6789 330.149L29.0887 330.984C29.0297 330.995 28.9693 331.002 28.9123 330.983C28.517 330.853 27.608 330 26.5 330C25.3906 330 24.1957 328.575 23.6265 327.702C23.5408 327.57 23.4942 327.418 23.483 327.262L23.0195 320.773C23.0067 320.594 23.0423 320.415 23.1226 320.255L24.9557 316.589C24.9852 316.53 25.0204 316.474 25.0608 316.422L28.3336 312.214C28.4426 312.074 28.5868 311.965 28.7516 311.899L30.0486 311.381C30.5702 311.172 30.8177 310.575 30.5964 310.058L29.6374 307.821C29.5484 307.613 29.5323 307.381 29.5918 307.164L30.799 302.737C30.9177 302.302 31.3128 302 31.7638 302H36.5H37.638C37.8719 302 38.0984 302.082 38.2781 302.232L40.6402 304.2C40.8682 304.39 41 304.672 41 304.968V311M16.5 307.5H12.193C11.7762 307.5 11.403 307.241 11.2567 306.851L10.0637 303.67C10.0216 303.558 10 303.439 10 303.319V299.914C10 299.649 10.1054 299.395 10.2929 299.207L13.7071 295.793C13.8946 295.605 14.149 295.5 14.4142 295.5H19C19.5523 295.5 20 295.948 20 296.5V297.819C20 297.939 20.0216 298.058 20.0637 298.17L21.3866 301.697C21.4603 301.894 21.4703 302.109 21.415 302.312L20.201 306.763C20.0823 307.198 19.6872 307.5 19.2362 307.5H16.5ZM41 277C41 276.29 41 273.168 41 271.192C41 270.775 41.2586 270.403 41.6489 270.257L44.8302 269.064C44.9425 269.022 45.0606 269 45.1805 269C46.7503 269 49.8461 269 51 269C52.2 269 51.5 272 51 273.5L49.6894 278.743C49.5781 279.188 49.1781 279.5 48.7192 279.5H45.1813C45.0614 279.5 44.9431 279.479 44.8313 279.436C43.4546 278.903 41 277.768 41 277ZM68.5 304.301V307.931C68.5 308.17 68.4146 308.401 68.2593 308.582L65.8584 311.383C65.6353 311.643 65.2943 311.771 64.955 311.722L60.4693 311.068C60.1723 311.025 59.9104 310.851 59.756 310.593L55.6425 303.738C55.5493 303.582 55.5 303.404 55.5 303.223V298.205C55.5 298.07 55.5275 297.936 55.5809 297.811L56.7403 295.106C56.8978 294.738 57.2592 294.5 57.6592 294.5C58.586 294.5 59.8718 294.5 60.5 294.5C61.198 294.5 62.962 294.5 64.0646 294.5C64.3424 294.5 64.6075 294.616 64.7967 294.819L68.2323 298.513C68.4044 298.698 68.5 298.942 68.5 299.194V304.301ZM48.5 307.5C49.2473 307.5 50.3436 305.755 50.8924 304.71C50.9646 304.572 51 304.42 51 304.265C51 302.767 51 300.186 51 299.162C51 298.928 50.9181 298.703 50.7684 298.523L49.7999 297.36C49.6099 297.132 49.3283 297 49.0314 297H43.5C42.9477 297 42.5 297.448 42.5 298V299.5V302.823C42.5 303.232 42.7505 303.596 43.1114 303.789C44.0413 304.284 45.361 305.222 46 306.5C47 308.5 47.5 307.5 48.5 307.5ZM728.5 34.5C728.883 34.1166 729.297 30.6402 729.478 28.7379C729.493 28.5808 729.469 28.4236 729.411 28.2771L728.751 26.6286C728.6 26.249 728.232 26 727.823 26H724.5H722.862C722.628 26 722.402 26.082 722.222 26.2318L719.684 28.3463C719.563 28.4473 719.468 28.5756 719.405 28.7206L718.172 31.5988C718.062 31.8546 718.064 32.1445 718.177 32.3989L719.821 36.0969C719.935 36.3537 720.151 36.5579 720.428 36.6028C721.949 36.8488 724.136 36.1359 724.5 36.5C725 37 728 35 728.5 34.5ZM724.5 58.5C725.105 58.1974 726.511 57.7805 727.593 57.5953C728.103 57.508 728.536 57.1056 728.583 56.5905L728.97 52.3251C728.99 52.1139 728.941 51.902 728.832 51.7201L727.68 49.7993C727.563 49.6055 727.385 49.4568 727.173 49.3775L723.649 48.0559C723.55 48.0189 723.458 47.9664 723.376 47.9005L721.274 46.2191C721.097 46.0773 720.876 46 720.649 46H718.5H715.634C715.545 46 715.457 46.0118 715.371 46.0352L710.256 47.4301C710.088 47.4759 709.935 47.5647 709.812 47.6878L708.793 48.7071C708.605 48.8946 708.5 49.149 708.5 49.4142V51.5V55.8769C708.5 55.9587 708.51 56.0401 708.53 56.1194L709.451 59.8041C709.483 59.9334 709.541 60.0543 709.62 60.1618C710.144 60.8754 711 62.1299 711 62.5C711 63 713 63 714 63C714.628 63 715.502 63.308 716.091 63.4405C716.35 63.4988 716.605 63.3946 716.793 63.2071L718.5 61.5L720.81 59.652C720.935 59.5521 721.081 59.4841 721.238 59.451C722.148 59.2587 723.769 58.8654 724.5 58.5ZM700 40.5V32.1623C700 32.0548 700.017 31.948 700.051 31.8461L701.346 27.9618C701.443 27.6703 701.669 27.4396 701.958 27.3363L708.156 25.1227C708.378 25.0435 708.565 24.8884 708.684 24.6848L711.915 19.1456C711.971 19.0492 712.043 18.9629 712.128 18.8903L715.238 16.2246C715.408 16.0791 715.524 15.8808 715.568 15.6615L716.463 11.1872C716.487 11.0635 716.488 10.9363 716.466 10.8122L715.649 6.3219C715.563 5.84606 715.829 5.3765 716.282 5.20668L719.268 4.08693C719.42 4.02984 719.556 3.93649 719.664 3.81496L723.351 -0.332114C723.449 -0.442661 723.522 -0.573628 723.563 -0.715579L729.125 -19.7191C729.312 -20.3593 728.832 -21 728.165 -21H3.46918e-08C-0.552285 -21 -1 -20.5523 -1 -20V272.455C-1 273.024 -0.524954 273.479 0.0440745 273.454L32.7469 272.011C32.913 272.004 33.0747 271.955 33.2173 271.87L35.3255 270.605C35.4406 270.536 35.5407 270.444 35.6197 270.335L39.3087 265.263C39.433 265.092 39.5 264.886 39.5 264.675V260.736C39.5 260.581 39.5361 260.428 39.6056 260.289L40.8509 257.798C40.9477 257.605 41.1046 257.448 41.2981 257.351L44.7889 255.606C44.9277 255.536 45.0808 255.5 45.2361 255.5H48.3187C48.4386 255.5 48.5575 255.522 48.6698 255.564L56.378 258.454C56.459 258.485 56.5436 258.504 56.6296 258.513L60.5995 258.91C61.1107 258.961 61.5 259.391 61.5 259.905V260.5V266.613C61.5 266.862 61.5916 267.101 61.759 267.285C63.4981 269.197 66.6197 272.62 67 273C67.3883 273.388 71.8917 275.693 74.2893 276.895C74.4281 276.964 74.5808 277 74.7361 277H82.0401C82.332 277 82.6093 276.872 82.7993 276.651L88.3187 270.212C88.4373 270.073 88.5158 269.905 88.5458 269.725L89.4075 264.555C89.4649 264.21 89.698 263.921 90.0217 263.79C91.7948 263.069 94.6382 261.862 95 261.5C95.4 261.1 98.1667 259.667 99.5 259L105.266 255.636C105.419 255.547 105.593 255.5 105.77 255.5H107.428C107.782 255.5 108.11 255.688 108.29 255.993L112.935 263.89C112.978 263.963 113.03 264.03 113.09 264.09L116.707 267.707C116.895 267.895 117.149 268 117.414 268H127.912C127.971 268 128.029 267.995 128.086 267.985L136.189 266.555C136.392 266.519 136.6 266.547 136.786 266.633L144 270L153.264 275.851C153.418 275.949 153.543 276.086 153.625 276.249L155.224 279.447C155.393 279.786 155.739 280 156.118 280H157.783C157.926 280 158.067 279.969 158.197 279.91L163.31 277.586C163.435 277.529 163.548 277.447 163.64 277.345L167.613 272.93C167.852 272.664 168.214 272.546 168.564 272.621C171.025 273.145 175.13 274 175.5 274C175.893 274 180.188 273.033 182.391 272.525C182.464 272.508 182.538 272.5 182.614 272.5H190.866C190.955 272.5 191.043 272.488 191.129 272.465L195.744 271.206C196.188 271.085 196.657 271.282 196.878 271.686C197.754 273.29 199 275.654 199 276C199 276.392 203.811 276.175 206.354 276.01C206.452 276.003 206.549 276.011 206.644 276.033L212.778 277.449C212.924 277.482 213.061 277.549 213.178 277.642L218 281.5L221.122 284.622C221.358 284.858 221.697 284.961 222.025 284.895L226.405 284.019C226.468 284.006 226.53 283.988 226.59 283.963L234.545 280.687C234.832 280.569 235.048 280.325 235.129 280.026L236.425 275.276C236.474 275.096 236.471 274.905 236.418 274.726L235.091 270.303C235.032 270.106 235.035 269.895 235.1 269.7L235.772 267.684C235.908 267.275 236.29 267 236.721 267H239.264C239.419 267 239.572 266.964 239.711 266.894L246.386 263.557C246.462 263.519 246.542 263.491 246.624 263.473L253.075 262.091C253.346 262.033 253.581 261.865 253.723 261.628L256.262 257.396C256.413 257.145 256.665 256.972 256.955 256.925C259.09 256.576 262.884 256 264 256C265.131 256 266.944 255.407 267.846 255.06C267.949 255.021 268.042 254.964 268.126 254.892L270.956 252.466C271.281 252.187 271.393 251.733 271.234 251.335L270.598 249.745C270.534 249.584 270.429 249.443 270.294 249.335L268.17 247.636C268.058 247.547 267.928 247.482 267.788 247.447L264.446 246.612C264.163 246.541 263.925 246.35 263.794 246.089L262.685 243.87C262.567 243.633 262.547 243.359 262.631 243.107L263.971 239.088C263.99 239.03 264.015 238.973 264.045 238.919L266.272 234.911C266.416 234.651 266.669 234.468 266.962 234.413L274.397 233.019C274.465 233.006 274.533 232.986 274.597 232.96L280.433 230.528C280.477 230.509 280.521 230.487 280.563 230.462L284.613 228.032C285.098 227.741 285.728 227.91 286.002 228.404L287.874 231.773C287.957 231.922 288 232.089 288 232.259V243.138C288 243.372 287.918 243.598 287.768 243.778L285.834 246.1C285.625 246.351 285.551 246.688 285.637 247.003L286.922 251.713C286.973 251.9 287.077 252.069 287.222 252.197L291.164 255.702C291.378 255.891 291.5 256.163 291.5 256.449V263.234C291.5 263.408 291.545 263.579 291.632 263.731L293.423 266.864C293.474 266.954 293.539 267.036 293.615 267.105L299.5 272.5L306 278.5L309.5 281.5C310.667 282.333 313.1 284.2 313.5 285C314 286 317 286.5 318 287C318.742 287.371 320.688 287.484 321.765 287.498C321.92 287.5 322.072 287.464 322.211 287.394L326.804 285.098C326.933 285.034 327.047 284.942 327.137 284.829C328.507 283.109 331 279.887 331 279.5C331 279.117 334.967 278.094 337.208 277.568C337.399 277.523 337.598 277.536 337.781 277.608C339.188 278.156 341.626 279.253 342 280C342.385 280.77 344.656 280.366 345.866 280.037C345.955 280.013 346.045 280 346.138 280C348.524 280 353.323 280 354.5 280C355.635 280 358.947 279.105 360.713 278.585C360.901 278.53 361.067 278.42 361.193 278.269L365.768 272.778C365.918 272.598 366 272.372 366 272.138V267.255C366 267.088 366.042 266.923 366.122 266.776L368.796 261.874C368.926 261.635 369.148 261.46 369.411 261.388L373.854 260.176C374.245 260.07 374.533 259.738 374.583 259.335L375.408 252.736C375.463 252.299 375.225 251.878 374.825 251.694C373.248 250.967 371 249.846 371 249.5C371 249.1 372.667 248 373.5 247.5L379.5 243.5C380.5 242.667 382.5 240.7 382.5 239.5C382.5 238.426 383.301 235.136 383.828 233.143C383.931 232.753 383.792 232.339 383.474 232.091L379.758 229.201C379.59 229.07 379.469 228.89 379.41 228.686L378.728 226.298C378.596 225.835 378.811 225.344 379.242 225.129C380.341 224.579 381.864 223.818 382.5 223.5C383.3 223.1 383.833 222 384 221.5C384.5 220.167 385.5 217.4 385.5 217C385.5 216.624 386.382 213.573 386.904 211.823C386.966 211.613 386.958 211.389 386.882 211.184L385.624 207.831C385.544 207.617 385.54 207.381 385.612 207.164L386.31 205.071C386.427 204.72 386.729 204.462 387.094 204.401L389.073 204.071C389.345 204.026 389.587 203.87 389.74 203.64L390.384 202.674C390.46 202.559 390.512 202.43 390.536 202.294L391.975 194.143C391.991 194.048 392.022 193.956 392.066 193.87C392.426 193.175 393.125 192 393.5 192C393.9 192 396 192 397 192H399.838C399.945 192 400.052 192.017 400.154 192.051L405.73 193.91C405.907 193.969 406.063 194.075 406.182 194.218C407.067 195.277 408.627 197.127 409 197.5C409.344 197.844 404.898 199.325 403.759 200.474C403.496 200.739 403.309 201.136 403.005 201.353L400.601 203.071C400.244 203.326 400.095 203.784 400.234 204.201L400.821 205.963C400.932 206.296 400.86 206.663 400.632 206.93L398.117 209.864C398.04 209.954 397.947 210.03 397.843 210.087L393.657 212.413C393.553 212.47 393.46 212.546 393.383 212.636L390.646 215.829C390.55 215.942 390.48 216.074 390.441 216.217L389.026 221.404C389.009 221.468 388.985 221.53 388.956 221.589L387.106 225.289C387.036 225.428 387 225.581 387 225.736V228.638C387 228.872 387.082 229.098 387.232 229.278L389.345 231.814C389.447 231.936 389.518 232.081 389.553 232.237L390.44 236.23C390.479 236.407 390.47 236.591 390.412 236.763L389.131 240.607C389.047 240.859 388.867 241.067 388.63 241.185L384.553 243.224C384.214 243.393 384 243.739 384 244.118V248.295C384 248.43 384.028 248.564 384.081 248.689L385.5 252L386.733 254.878C386.894 255.254 386.81 255.69 386.521 255.979L385.888 256.612C385.646 256.854 385.298 256.955 384.964 256.881L381.536 256.119C381.202 256.045 380.854 256.146 380.612 256.388L378.062 258.938C378.021 258.979 377.983 259.024 377.95 259.072L374.572 263.896C374.524 263.965 374.468 264.028 374.404 264.082L371.349 266.701C371.128 266.891 371 267.168 371 267.46V273.264C371 273.419 370.964 273.572 370.894 273.711L367.685 280.13C367.567 280.367 367.547 280.641 367.631 280.893L368.978 284.933C368.992 284.977 369.011 285.021 369.032 285.064L370.96 288.919C370.987 288.973 371.018 289.024 371.054 289.072L372.2 290.6C372.389 290.852 372.685 291 373 291H379.417C379.472 291 379.527 290.995 379.582 290.986L385.039 290.077C385.331 290.028 385.63 290.111 385.855 290.304L388.728 292.767C388.904 292.918 389.022 293.125 389.062 293.353L390.487 301.427C390.496 301.476 390.508 301.523 390.523 301.57L393.369 310.107C393.453 310.359 393.633 310.567 393.87 310.685L396.299 311.9C396.432 311.966 396.547 312.06 396.639 312.176L401.879 318.846C401.959 318.948 402.058 319.033 402.17 319.097L408.769 322.868C408.921 322.955 409.092 323 409.266 323H414.338C414.445 323 414.552 322.983 414.654 322.949L421.627 320.624C421.867 320.544 422.128 320.558 422.357 320.662L427.267 322.894C427.42 322.964 427.553 323.07 427.653 323.205L430.379 326.838C430.459 326.945 430.517 327.067 430.549 327.196C431.069 329.256 432.113 333.113 432.5 333.5C432.857 333.857 433.505 336.361 433.878 337.962C433.955 338.297 434.196 338.569 434.518 338.688C436.973 339.587 441.128 341.255 441.5 342C441.868 342.737 445.093 342.399 447.032 342.081C447.329 342.032 447.633 342.114 447.861 342.31L450.868 344.887C450.956 344.962 451.029 345.051 451.086 345.15L452.865 348.263C452.953 348.418 453.082 348.547 453.237 348.635L456.269 350.368C456.421 350.455 456.592 350.5 456.766 350.5H465.5H471.086C471.351 350.5 471.605 350.605 471.793 350.793L475.304 354.304C475.432 354.432 475.523 354.593 475.567 354.769L476.947 360.288C476.982 360.428 477.047 360.558 477.136 360.67L478.7 362.625C478.89 362.862 479.177 363 479.481 363H484.307C484.435 363 484.561 362.976 484.679 362.928L494.5 359L501.615 356.154C501.862 356.055 502.137 356.059 502.381 356.163L505.5 357.5L510.342 359.261C510.737 359.404 511 359.78 511 360.2V363V367.586C511 367.851 511.105 368.105 511.293 368.293L512.286 369.286C512.426 369.426 512.603 369.521 512.797 369.559L517.209 370.442C517.399 370.48 517.596 370.462 517.776 370.39L519.821 369.572C519.939 369.524 520.065 369.5 520.193 369.5H522.68C522.888 369.5 523.091 369.565 523.261 369.686L526.5 372C527.5 372.667 529.7 374 530.5 374C531.166 374 532.11 375.156 532.695 376.023C532.892 376.314 533.215 376.5 533.566 376.5H536.68C536.888 376.5 537.091 376.435 537.261 376.314L540.239 374.186C540.409 374.065 540.612 374 540.82 374H544.377C544.459 374 544.54 373.99 544.619 373.97L548.054 373.112C548.337 373.041 548.575 372.85 548.706 372.589L550.724 368.553C550.893 368.214 551.239 368 551.618 368H556.394C556.464 368 556.535 368.007 556.604 368.022L563.5 369.5L571.655 370.459C571.879 370.486 572.086 370.586 572.245 370.745L574.871 373.371C575.229 373.729 575.8 373.763 576.198 373.448L596.62 357.3C596.86 357.111 597 356.822 597 356.516C597 355.263 597 353.351 597 353C597 352.613 596.376 348.451 596.034 346.218C596.011 346.074 595.958 345.937 595.877 345.816L594.058 343.087C594.019 343.029 593.987 342.968 593.961 342.903L593.115 340.787C593.04 340.6 593.023 340.395 593.067 340.198L593.892 336.487C593.96 336.18 594.168 335.924 594.454 335.794L599.377 333.556C599.459 333.519 599.535 333.471 599.604 333.414L602.14 331.3C602.368 331.11 602.5 330.828 602.5 330.532V326.736C602.5 326.581 602.464 326.428 602.394 326.289L599.624 320.748C599.543 320.586 599.419 320.449 599.266 320.351L594.526 317.335C594.204 317.13 594.027 316.76 594.069 316.381L594.974 308.231C594.991 308.079 595.043 307.933 595.125 307.804L598.5 302.5L602.822 296.257C602.938 296.09 603 295.891 603 295.688V289.705C603 289.57 602.972 289.436 602.919 289.311L598.5 279L595.056 269.16C595.019 269.054 595 268.943 595 268.83V262.357C595 262.126 595.08 261.902 595.226 261.724L599.352 256.681C599.449 256.562 599.518 256.422 599.553 256.272L600.974 250.111C600.991 250.037 601 249.962 601 249.886V244.078C601 244.026 601.004 243.974 601.012 243.922L602.485 234.595C602.495 234.532 602.511 234.47 602.533 234.409L604.261 229.658C604.404 229.263 604.78 229 605.2 229H610.764C610.919 229 611.072 228.964 611.211 228.894L616.735 226.133C616.908 226.046 617.052 225.911 617.15 225.744L625.317 211.813C625.435 211.611 625.479 211.373 625.44 211.143L624.132 203.294C624.055 202.83 624.311 202.376 624.747 202.201L628.262 200.795C628.694 200.622 628.95 200.174 628.879 199.715L628.019 194.12C628.006 194.04 627.984 193.962 627.953 193.888L625.5 188L622.656 181.837C622.555 181.62 622.38 181.445 622.162 181.346L617.357 179.162C617.128 179.058 616.867 179.044 616.627 179.124L611.334 180.889C611.118 180.961 610.933 181.105 610.809 181.296L606.795 187.541C606.611 187.827 606.294 188 605.954 188H599.833C599.617 188 599.406 188.07 599.233 188.2L597.637 189.397C597.546 189.465 597.468 189.548 597.405 189.642C596.706 190.686 595.382 192.618 595 193C594.65 193.35 592.747 193.725 591.494 193.925C591.183 193.975 590.869 193.869 590.646 193.646L585.115 188.115C585.039 188.039 584.975 187.951 584.927 187.855L580.542 179.083C580.514 179.028 580.492 178.971 580.475 178.911C580.134 177.709 579.5 175.28 579.5 174.5C579.5 173.778 579.5 171.916 579.5 170.825C579.5 170.614 579.567 170.408 579.691 170.237L583.431 165.095C583.477 165.032 583.515 164.964 583.545 164.892L585.948 159.126C585.982 159.042 586.028 158.964 586.084 158.893L591.247 152.322C591.409 152.116 591.483 151.855 591.458 151.594C591.299 149.986 591.133 147.234 591.5 146.5C591.89 145.72 594.215 143.607 595.412 142.576C595.471 142.525 595.523 142.468 595.569 142.405L599.37 137.179C599.456 137.061 599.566 136.963 599.693 136.893L603.514 134.77C603.816 134.602 604.184 134.602 604.486 134.77L608.5 137L615.946 140.258C616.287 140.407 616.517 140.732 616.543 141.103L616.995 147.426C616.998 147.475 617.005 147.524 617.016 147.572L617.976 151.893C617.992 151.964 618 152.037 618 152.11V158.795C618 158.93 618.028 159.064 618.081 159.189L619.375 162.208C619.456 162.398 619.477 162.609 619.433 162.811L618.107 169.001C618.04 169.314 618.127 169.641 618.341 169.879L622.451 174.446C622.484 174.482 622.513 174.52 622.54 174.56L625.5 179L628.889 183.841C628.962 183.946 629.015 184.064 629.044 184.189L630.394 190.041C630.461 190.332 630.654 190.577 630.921 190.711L634.289 192.394C634.428 192.464 634.581 192.5 634.736 192.5H636.882C637.261 192.5 637.607 192.286 637.776 191.947L638.5 190.5C639 189.167 640.1 186.2 640.5 185C641 183.5 642 181.5 642.5 181C642.881 180.619 644.499 179.604 645.373 179.076C645.458 179.025 645.549 178.988 645.644 178.964L651.231 177.567C651.407 177.523 651.568 177.432 651.696 177.304L656.707 172.293C656.895 172.105 657 171.851 657 171.586V162.5V156.046C657 155.706 657.173 155.389 657.459 155.205L663.927 151.047C663.975 151.016 664.021 150.98 664.064 150.941L670.421 145.073C670.473 145.024 670.521 144.97 670.562 144.912L673.924 140.108C673.975 140.036 674.015 139.958 674.045 139.876L676 134.5L676.902 130.439C676.964 130.16 677.143 129.921 677.393 129.782L681.5 127.5L687.074 124.713C687.344 124.578 687.538 124.329 687.603 124.035L688.5 120L689.428 115.822C689.475 115.613 689.453 115.394 689.366 115.199L687.586 111.194C687.529 111.066 687.5 110.928 687.5 110.788V101.131C687.5 101.044 687.511 100.957 687.534 100.873L689.431 93.7595C689.476 93.5895 689.566 93.4345 689.69 93.3101L693.35 89.6501C693.449 89.5511 693.526 89.4325 693.576 89.3019L695.933 83.1733C695.977 83.0587 696 82.9371 696 82.8143V76.1468C696 76.0494 696.014 75.9526 696.042 75.8594L697.5 71L698.44 66.2991C698.479 66.1041 698.459 65.902 698.383 65.7184L696.077 60.1846C696.026 60.0627 696 59.932 696 59.8V54.8333C696 54.617 696.07 54.4064 696.2 54.2333L700.279 48.7947C700.422 48.6045 700.492 48.3696 700.477 48.1323L700 40.5ZM164 283.5L155.923 286.826C155.654 286.936 155.447 287.158 155.355 287.434L154.051 291.346C154.017 291.448 154 291.555 154 291.662V296.979C154 297.306 154.159 297.611 154.427 297.799L158.809 300.866C158.935 300.954 159.079 301.012 159.23 301.035L165.166 301.949C165.383 301.982 165.604 301.943 165.797 301.838L170.833 299.091C170.943 299.031 171.064 298.992 171.188 298.976L178.492 298.064C178.811 298.024 179.13 298.14 179.349 298.375L185.203 304.68C185.392 304.884 185.658 305 185.936 305H196.278C196.424 305 196.569 305.032 196.701 305.094L203.684 308.353C203.889 308.448 204.055 308.61 204.156 308.812L207.927 316.355C207.975 316.451 208.039 316.539 208.115 316.615L211.667 320.167C211.878 320.378 212.172 320.484 212.469 320.455L222.027 319.545C222.326 319.517 222.597 319.355 222.764 319.104L226.398 313.653C226.466 313.552 226.551 313.464 226.649 313.393L229.194 311.576C229.64 311.257 229.747 310.638 229.432 310.189L226.842 306.488C226.631 306.187 226.602 305.796 226.766 305.467L228.5 302L229.493 299.351C229.738 298.697 229.254 297.997 228.56 297.917C227.528 297.798 226.5 297.531 226.5 297C226.5 296.258 225.927 292.878 225.577 290.929C225.528 290.655 225.366 290.415 225.131 290.265L220.068 287.044C220.023 287.015 219.975 286.989 219.925 286.968L213.082 284.035C213.027 284.012 212.971 283.993 212.913 283.98L206.5 282.5L200.076 281.512C200.025 281.504 199.974 281.5 199.924 281.5H197.054C196.709 281.5 196.389 281.322 196.206 281.03L194.294 277.97C194.111 277.678 193.791 277.5 193.446 277.5H184.147C184.049 277.5 183.953 277.514 183.859 277.542L179.159 278.952C179.054 278.984 178.954 279.033 178.865 279.096L175.853 281.248C175.628 281.409 175.346 281.469 175.075 281.415L170.791 280.558C170.601 280.52 170.404 280.538 170.224 280.61L168 281.5L164 283.5ZM299.5 294V287.599C299.5 287.533 299.507 287.467 299.519 287.403L300.481 282.597C300.493 282.533 300.5 282.467 300.5 282.401V282.118C300.5 281.739 300.286 281.393 299.947 281.224L297.711 280.106C297.572 280.036 297.452 279.935 297.358 279.811L294.5 276L291.556 271.094C291.519 271.032 291.488 270.965 291.465 270.896L289.728 265.684C289.592 265.275 289.21 265 288.779 265H283.606C283.536 265 283.465 264.993 283.396 264.978L276.604 263.522C276.535 263.507 276.464 263.5 276.394 263.5H268.376C268.134 263.5 267.9 263.588 267.717 263.747L264.283 266.753C264.1 266.912 263.866 267 263.624 267H259.914C259.649 267 259.395 267.105 259.207 267.293L256.5 270L251.348 274.683C251.128 274.884 250.829 274.976 250.534 274.933L244.495 274.071C244.183 274.026 243.869 274.131 243.646 274.354L242.188 275.812C242.065 275.935 241.976 276.088 241.93 276.256L240.559 281.283C240.52 281.426 240.45 281.558 240.354 281.671L237.627 284.851C237.543 284.949 237.479 285.063 237.438 285.186L236.195 288.914C236.076 289.273 236.169 289.669 236.437 289.937L240.347 293.847C240.448 293.948 240.526 294.069 240.576 294.203L241.838 297.569C241.941 297.842 242.158 298.058 242.433 298.157L247.067 299.843C247.342 299.942 247.559 300.158 247.662 300.431L248.757 303.351C248.903 303.741 249.276 304 249.693 304C250.833 304 252.528 304 253.5 304C254.636 304 255.861 302.806 256.413 302.113C256.472 302.038 256.538 301.972 256.614 301.915C257.99 300.88 260.722 298.778 261.5 298C262.22 297.28 263.265 295.965 263.831 295.223C263.942 295.077 264.09 294.964 264.26 294.896L266.321 294.072C266.439 294.024 266.565 294 266.693 294H270.882C271.261 294 271.607 294.214 271.776 294.553L274.5 300L277 306L278.377 309.212C278.457 309.4 278.593 309.558 278.766 309.666L282.435 311.959C282.478 311.986 282.524 312.01 282.571 312.03L285.495 313.284C285.809 313.418 286.171 313.383 286.454 313.19L295.34 307.109C295.446 307.037 295.536 306.945 295.607 306.839L299.332 301.252C299.442 301.088 299.5 300.895 299.5 300.697V294ZM745.717 12H748.638C748.872 12 749.098 12.082 749.278 12.2318L751.64 14.2002C751.868 14.3901 752 14.6716 752 14.9684V19.5858C752 19.851 751.895 20.1054 751.707 20.2929L749.293 22.7071C749.105 22.8946 748.851 23 748.586 23H744.236C744.081 23 743.928 22.9639 743.789 22.8944L740.553 21.2764C740.214 21.107 740 20.7607 740 20.382V15.1439C740 14.7518 740.229 14.3958 740.586 14.2335L745.303 12.0896C745.433 12.0306 745.574 12 745.717 12Z" stroke="#E85968"/>
</g>
<defs>
<clipPath id="clip0_3966_1767">
<rect width="2048" height="1056" fill="white"/>
</clipPath>
</defs>
</svg>
