<svg width="2048" height="1056" viewBox="0 0 2048 1056" fill="none" xmlns="http://www.w3.org/2000/svg">
<g clip-path="url(#clip0_3966_1767)">
<path d="M2040.5 149H2043.5H2046L2048 150V158.5L2044.5 159H2042L2040.5 157L2039 154L2040.5 149Z" fill="#E7A54A" fill-opacity="0.9"/>
<path d="M2024 146.5L2023 145L2020.5 144H2017L2015 145L2014 147V153L2016 155H2021L2024 152V146.5Z" fill="#E7A54A" fill-opacity="0.9"/>
<path d="M1999.5 157.5L1996 154L1990 153.5L1987.5 156L1988 161.5L1991.5 164L1996 164.5L1999 162L1999.5 157.5Z" fill="#E7A54A" fill-opacity="0.9"/>
<path d="M1968.5 153.5L1967 156H1957V150L1960 147L1964.5 146.5L1966.5 148L1967.5 150L1968.5 153.5Z" fill="#E7A54A" fill-opacity="0.9"/>
<path d="M1993.5 131L1990.5 128H1986L1983 132.5V137.5L1984.5 141.5H1990L1993.5 139.5V131Z" fill="#E7A54A" fill-opacity="0.9"/>
<path d="M1493.5 457L1501 453.5H1505L1506.5 446.5L1510.5 443L1519 440.5H1524L1528.5 435.5L1537 434L1544.5 429.5H1548L1555 426.5L1563 423.5L1565.5 418L1572 416L1576.5 418L1578 422L1574 426.5L1572 437L1567 443L1563 445.5L1559.5 453.5L1554 460H1544.5L1540 464.5L1537 475.5L1532 486.5L1527 495L1517 496.5L1512.5 500.5C1511.83 503.167 1510.5 508.9 1510.5 510.5C1510.5 512.1 1506.83 511.167 1505 510.5L1501 500.5L1488.5 494L1481.5 495L1471 490.5L1478.5 476.5L1485.5 474V464.5H1493.5V457Z" fill="#E7A54A" fill-opacity="0.9"/>
<path d="M1592.5 394.5L1596.5 386.5V382L1598 380L1600.5 378L1602 374.5H1604L1607.5 373L1607 370.5L1604 366.5V363C1605 362.5 1607.1 361.3 1607.5 360.5C1607.9 359.7 1610.67 360.167 1612 360.5L1617.5 363L1617 360.5L1617.5 354L1620 351.5L1620.5 348L1622 345.5H1631L1634.5 337.5L1641 338.5L1645 334.5L1649.5 332L1656 328H1663V336C1663 336.4 1662 342.5 1661.5 345.5L1659.5 350.5L1648 352.5L1639.5 360L1638 365L1634.5 368.5L1632.5 378L1628 382V384.5L1625.5 388.5L1623 391L1617.5 395.5L1613.5 398L1607 402L1602.5 403.5L1599.5 405.5L1597.5 406.5C1596.67 407.5 1594.9 409.6 1594.5 410C1594.1 410.4 1593.67 413.833 1593.5 415.5L1592.5 421L1588 425C1586 425.5 1581.8 426.5 1581 426.5C1580.2 426.5 1581.33 424.5 1582 423.5V418L1581 413.5L1583.5 408L1586.5 399.5L1592.5 394.5Z" fill="#E7A54A" fill-opacity="0.9"/>
<path d="M1701.5 301.5L1703 296.5H1699L1697 297.5L1696.5 302L1701.5 301.5Z" fill="#E7A54A" fill-opacity="0.9"/>
<path d="M1736.5 278L1737.5 274H1731L1726 277V280.5L1735.5 280L1736.5 278Z" fill="#E7A54A" fill-opacity="0.9"/>
<path d="M1842.5 173.5L1848 169L1848.5 167L1847.5 164L1846 163.5H1843.5L1841.5 165L1839 168L1839.5 171L1837.5 172L1835 171L1830.5 170.5L1827.5 171L1820.5 170.5V172C1819.67 173.167 1818 175.7 1818 176.5V182.5L1814 185H1807.5C1806.83 185.5 1805.4 186.7 1805 187.5C1804.6 188.3 1805.17 192.167 1805.5 194L1798.5 201C1798.5 202.333 1798.4 205.2 1798 206C1797.5 207 1795 208 1794 208C1793 208 1794 211.5 1794 212C1794 212.4 1797.33 212.167 1799 212L1803.5 211.5L1809 204.5L1813.5 201.5L1820 200L1827 198.5L1830.5 188L1836 185L1840.5 181L1842.5 173.5Z" fill="#E7A54A" fill-opacity="0.9"/>
<path d="M1322.5 23L1310 -5.5H2049.5V124.5H2043.5L2040.5 128L2036.5 134L2029.5 137.5L2024 135.5L2006.5 128L2001.5 125.5L1988 124.5L1980 119H1977L1975 122.5L1968.5 129L1961.5 130L1952 128L1947.5 132.5C1946.33 134.167 1943.7 137.5 1942.5 137.5H1934L1921.5 135.5L1911.5 131L1894.5 135.5L1881.5 141L1876.5 146.5L1875.5 152L1871.5 158.5L1866.5 161L1859.5 160H1848.5L1841.5 158.5L1837.5 162L1835 167L1827 169H1818L1813.5 172L1809 176.5L1805 181C1802.67 183.167 1798 187.6 1798 188C1798 188.4 1796.33 192.167 1795.5 194C1795 197 1794 203.3 1794 204.5C1794 205.7 1792.33 208 1791.5 209L1789.5 212C1787.67 213.667 1783.9 217.3 1783.5 218.5C1783.1 219.7 1778.67 223.333 1776.5 225L1769 233L1762.5 235L1757 236.5L1752.5 242.5V247.5L1750 253.5L1745.5 254.5L1740 259.5L1735.5 261.5H1733L1726 264.5V269L1724.5 274H1713.5L1710.5 277L1707 282L1701.5 287L1695.5 288.5L1693 294.5L1688 301.5L1682.5 306.5L1681 313L1677.5 319L1674.5 324L1671.5 326L1663 323L1654.5 320.5L1652.5 324L1648 325L1643 321.5L1639.5 333L1629 334.5L1620.5 342.5L1620 345.5L1617.5 348L1613.5 354L1607.5 355L1600.5 360L1599.5 366.5L1597.5 368.5V370.5V375.5L1594.5 379H1590.5L1586.5 380V382L1590.5 386.5V391L1583.5 396.5V400.5L1578 406.5H1572L1569.5 410H1563L1559.5 414.5L1552 413.5L1551 418H1542L1530 422L1528.5 426.5L1524 432H1517L1513.5 436H1508L1505 440.5H1497L1488.5 444V450L1485.5 456L1480.5 464.5L1476.5 471.5L1443 440.5L1411.5 390L1390.5 344.5L1371 299.5L1349.5 201.5L1331.5 101L1325 65.5L1322.5 23Z" fill="#E7A54A" fill-opacity="0.9"/>
<path d="M2040.5 149H2043.5H2046L2048 150V158.5L2044.5 159H2042L2040.5 157L2039 154L2040.5 149Z" stroke="#E7A54A"/>
<path d="M2024 146.5L2023 145L2020.5 144H2017L2015 145L2014 147V153L2016 155H2021L2024 152V146.5Z" stroke="#E7A54A"/>
<path d="M1999.5 157.5L1996 154L1990 153.5L1987.5 156L1988 161.5L1991.5 164L1996 164.5L1999 162L1999.5 157.5Z" stroke="#E7A54A"/>
<path d="M1968.5 153.5L1967 156H1957V150L1960 147L1964.5 146.5L1966.5 148L1967.5 150L1968.5 153.5Z" stroke="#E7A54A"/>
<path d="M1993.5 131L1990.5 128H1986L1983 132.5V137.5L1984.5 141.5H1990L1993.5 139.5V131Z" stroke="#E7A54A"/>
<path d="M1493.5 457L1501 453.5H1505L1506.5 446.5L1510.5 443L1519 440.5H1524L1528.5 435.5L1537 434L1544.5 429.5H1548L1555 426.5L1563 423.5L1565.5 418L1572 416L1576.5 418L1578 422L1574 426.5L1572 437L1567 443L1563 445.5L1559.5 453.5L1554 460H1544.5L1540 464.5L1537 475.5L1532 486.5L1527 495L1517 496.5L1512.5 500.5C1511.83 503.167 1510.5 508.9 1510.5 510.5C1510.5 512.1 1506.83 511.167 1505 510.5L1501 500.5L1488.5 494L1481.5 495L1471 490.5L1478.5 476.5L1485.5 474V464.5H1493.5V457Z" stroke="#E7A54A"/>
<path d="M1592.5 394.5L1596.5 386.5V382L1598 380L1600.5 378L1602 374.5H1604L1607.5 373L1607 370.5L1604 366.5V363C1605 362.5 1607.1 361.3 1607.5 360.5C1607.9 359.7 1610.67 360.167 1612 360.5L1617.5 363L1617 360.5L1617.5 354L1620 351.5L1620.5 348L1622 345.5H1631L1634.5 337.5L1641 338.5L1645 334.5L1649.5 332L1656 328H1663V336C1663 336.4 1662 342.5 1661.5 345.5L1659.5 350.5L1648 352.5L1639.5 360L1638 365L1634.5 368.5L1632.5 378L1628 382V384.5L1625.5 388.5L1623 391L1617.5 395.5L1613.5 398L1607 402L1602.5 403.5L1599.5 405.5L1597.5 406.5C1596.67 407.5 1594.9 409.6 1594.5 410C1594.1 410.4 1593.67 413.833 1593.5 415.5L1592.5 421L1588 425C1586 425.5 1581.8 426.5 1581 426.5C1580.2 426.5 1581.33 424.5 1582 423.5V418L1581 413.5L1583.5 408L1586.5 399.5L1592.5 394.5Z" stroke="#E7A54A"/>
<path d="M1701.5 301.5L1703 296.5H1699L1697 297.5L1696.5 302L1701.5 301.5Z" stroke="#E7A54A"/>
<path d="M1736.5 278L1737.5 274H1731L1726 277V280.5L1735.5 280L1736.5 278Z" stroke="#E7A54A"/>
<path d="M1842.5 173.5L1848 169L1848.5 167L1847.5 164L1846 163.5H1843.5L1841.5 165L1839 168L1839.5 171L1837.5 172L1835 171L1830.5 170.5L1827.5 171L1820.5 170.5V172C1819.67 173.167 1818 175.7 1818 176.5V182.5L1814 185H1807.5C1806.83 185.5 1805.4 186.7 1805 187.5C1804.6 188.3 1805.17 192.167 1805.5 194L1798.5 201C1798.5 202.333 1798.4 205.2 1798 206C1797.5 207 1795 208 1794 208C1793 208 1794 211.5 1794 212C1794 212.4 1797.33 212.167 1799 212L1803.5 211.5L1809 204.5L1813.5 201.5L1820 200L1827 198.5L1830.5 188L1836 185L1840.5 181L1842.5 173.5Z" stroke="#E7A54A"/>
<path d="M1322.5 23L1310 -5.5H2049.5V124.5H2043.5L2040.5 128L2036.5 134L2029.5 137.5L2024 135.5L2006.5 128L2001.5 125.5L1988 124.5L1980 119H1977L1975 122.5L1968.5 129L1961.5 130L1952 128L1947.5 132.5C1946.33 134.167 1943.7 137.5 1942.5 137.5H1934L1921.5 135.5L1911.5 131L1894.5 135.5L1881.5 141L1876.5 146.5L1875.5 152L1871.5 158.5L1866.5 161L1859.5 160H1848.5L1841.5 158.5L1837.5 162L1835 167L1827 169H1818L1813.5 172L1809 176.5L1805 181C1802.67 183.167 1798 187.6 1798 188C1798 188.4 1796.33 192.167 1795.5 194C1795 197 1794 203.3 1794 204.5C1794 205.7 1792.33 208 1791.5 209L1789.5 212C1787.67 213.667 1783.9 217.3 1783.5 218.5C1783.1 219.7 1778.67 223.333 1776.5 225L1769 233L1762.5 235L1757 236.5L1752.5 242.5V247.5L1750 253.5L1745.5 254.5L1740 259.5L1735.5 261.5H1733L1726 264.5V269L1724.5 274H1713.5L1710.5 277L1707 282L1701.5 287L1695.5 288.5L1693 294.5L1688 301.5L1682.5 306.5L1681 313L1677.5 319L1674.5 324L1671.5 326L1663 323L1654.5 320.5L1652.5 324L1648 325L1643 321.5L1639.5 333L1629 334.5L1620.5 342.5L1620 345.5L1617.5 348L1613.5 354L1607.5 355L1600.5 360L1599.5 366.5L1597.5 368.5V370.5V375.5L1594.5 379H1590.5L1586.5 380V382L1590.5 386.5V391L1583.5 396.5V400.5L1578 406.5H1572L1569.5 410H1563L1559.5 414.5L1552 413.5L1551 418H1542L1530 422L1528.5 426.5L1524 432H1517L1513.5 436H1508L1505 440.5H1497L1488.5 444V450L1485.5 456L1480.5 464.5L1476.5 471.5L1443 440.5L1411.5 390L1390.5 344.5L1371 299.5L1349.5 201.5L1331.5 101L1325 65.5L1322.5 23Z" stroke="#E7A54A"/>
</g>
<defs>
<clipPath id="clip0_3966_1767">
<rect width="2048" height="1056" fill="white"/>
</clipPath>
</defs>
</svg>
